<svg xmlns="http://www.w3.org/2000/svg" xmlns:xlink="http://www.w3.org/1999/xlink" version="1.1" x="0px" y="0px" viewBox="0 0 512 640" enable-background="new 0 0 512 512" xml:space="preserve"><g><g><g><path d="M143.2,443.1c-20,0-38.7-7.8-52.8-21.9l0,0l0,0c-14.1-14.1-21.9-32.9-21.9-52.8s7.8-38.7,21.9-52.8l52.8-52.8     c14.1-14.1,32.9-21.9,52.8-21.9s38.7,7.8,52.8,21.9c14.1,14.1,21.9,32.9,21.9,52.8c0,20-7.8,38.7-21.9,52.8l-52.8,52.8     C181.9,435.4,163.2,443.1,143.2,443.1z M196.1,278.2c-10,0-19.4,3.9-26.4,10.9L116.8,342c-7.1,7.1-10.9,16.4-10.9,26.4     c0,10,3.9,19.4,10.9,26.4l0,0c14.1,14.1,38.7,14.1,52.8,0l52.8-52.8c7.1-7.1,10.9-16.4,10.9-26.4c0-10-3.9-19.4-10.9-26.4     C215.4,282.1,206,278.2,196.1,278.2z"/></g><g><path d="M315.9,270.4c-19.1,0-38.3-7.3-52.8-21.8l0,0c-29.1-29.1-29.1-76.5,0-105.7L315.9,90c28.2-28.2,77.4-28.2,105.7,0     c14.1,14.1,21.9,32.9,21.9,52.8s-7.8,38.7-21.9,52.8l-52.8,52.8C354.2,263.1,335.1,270.4,315.9,270.4z M289.5,222.1     c14.5,14.5,38.3,14.6,52.9,0l52.8-52.8c7.1-7.1,10.9-16.4,10.9-26.4s-3.9-19.4-10.9-26.4c-14.1-14.1-38.7-14.1-52.8,0l-52.9,52.8     C274.9,183.9,274.9,207.6,289.5,222.1L289.5,222.1z"/></g></g><g><path d="M190.2,340.1c-4.8,0-9.6-1.8-13.2-5.5c-7.3-7.3-7.3-19.1,0-26.4l131.6-131.6c7.3-7.3,19.1-7.3,26.4,0    c7.3,7.3,7.3,19.1,0,26.4L203.4,334.6C199.8,338.3,195,340.1,190.2,340.1z"/></g></g><text x="0" y="527" fill="#000000" font-size="5px" font-weight="bold" font-family="'Helvetica Neue', Helvetica, Arial-Unicode, Arial, Sans-serif">Created by Creative Stall</text><text x="0" y="532" fill="#000000" font-size="5px" font-weight="bold" font-family="'Helvetica Neue', Helvetica, Arial-Unicode, Arial, Sans-serif">from the Noun Project</text></svg>