<?xml version="1.0" encoding="UTF-8" standalone="no"?>
<!DOCTYPE svg PUBLIC "-//W3C//DTD SVG 1.1//EN"
 "http://www.w3.org/Graphics/SVG/1.1/DTD/svg11.dtd">
<!-- Generated by graphviz version 2.30.1 (20130214.1330)
 -->
<!-- Title: G Pages: 1 -->
<svg width="694pt" height="228pt"
 viewBox="0.00 0.00 694.00 228.00" xmlns="http://www.w3.org/2000/svg" xmlns:xlink="http://www.w3.org/1999/xlink">
<g id="graph0" class="graph" transform="scale(1 1) rotate(0) translate(4 224)">
<title>G</title>
<polygon fill="white" stroke="white" points="-4,5 -4,-224 691,-224 691,5 -4,5"/>
<!-- canopy.configuration -->
<g id="node1" class="node"><title>canopy.configuration</title>
<ellipse fill="none" stroke="black" cx="416" cy="-202" rx="87.9851" ry="18"/>
<text text-anchor="middle" x="416" y="-198.3" font-family="Times New Roman,serif" font-size="14.00">canopy.configuration</text>
</g>
<!-- canopy.reporters -->
<g id="node2" class="node"><title>canopy.reporters</title>
<ellipse fill="none" stroke="black" cx="613" cy="-156" rx="72.5877" ry="18"/>
<text text-anchor="middle" x="613" y="-152.3" font-family="Times New Roman,serif" font-size="14.00">canopy.reporters</text>
</g>
<!-- canopy.configuration&#45;&gt;canopy.reporters -->
<g id="edge1" class="edge"><title>canopy.configuration&#45;&gt;canopy.reporters</title>
<path fill="none" stroke="black" d="M474.189,-188.509C497.993,-182.894 525.688,-176.361 549.98,-170.63"/>
<polygon fill="black" stroke="black" points="550.879,-174.014 559.808,-168.312 549.272,-167.201 550.879,-174.014"/>
</g>
<!-- canopy.core -->
<g id="node3" class="node"><title>canopy.core</title>
<ellipse fill="none" stroke="black" cx="227" cy="-121" rx="55.7903" ry="18"/>
<text text-anchor="middle" x="227" y="-117.3" font-family="Times New Roman,serif" font-size="14.00">canopy.core</text>
</g>
<!-- canopy.core&#45;&gt;canopy.configuration -->
<g id="edge2" class="edge"><title>canopy.core&#45;&gt;canopy.configuration</title>
<path fill="none" stroke="black" d="M257.382,-136.392C277.112,-146.48 303.824,-159.663 328,-170 338.529,-174.502 349.927,-178.974 360.897,-183.084"/>
<polygon fill="black" stroke="black" points="359.8,-186.41 370.394,-186.594 362.228,-179.844 359.8,-186.41"/>
</g>
<!-- canopy.core&#45;&gt;canopy.reporters -->
<g id="edge3" class="edge"><title>canopy.core&#45;&gt;canopy.reporters</title>
<path fill="none" stroke="black" d="M276.198,-129.629C292.593,-132.32 311.054,-135.082 328,-137 396.208,-144.722 474.013,-149.658 530.918,-152.558"/>
<polygon fill="black" stroke="black" points="530.773,-156.055 540.935,-153.058 531.122,-149.063 530.773,-156.055"/>
</g>
<!-- canopy.levenshtein -->
<g id="node4" class="node"><title>canopy.levenshtein</title>
<ellipse fill="none" stroke="black" cx="416" cy="-110" rx="79.0865" ry="18"/>
<text text-anchor="middle" x="416" y="-106.3" font-family="Times New Roman,serif" font-size="14.00">canopy.levenshtein</text>
</g>
<!-- canopy.core&#45;&gt;canopy.levenshtein -->
<g id="edge4" class="edge"><title>canopy.core&#45;&gt;canopy.levenshtein</title>
<path fill="none" stroke="black" d="M282.088,-117.818C296.688,-116.96 312.858,-116.008 328.746,-115.074"/>
<polygon fill="black" stroke="black" points="329.35,-118.544 339.127,-114.463 328.939,-111.556 329.35,-118.544"/>
</g>
<!-- canopy.runner -->
<g id="node5" class="node"><title>canopy.runner</title>
<ellipse fill="none" stroke="black" cx="63" cy="-92" rx="63.0888" ry="18"/>
<text text-anchor="middle" x="63" y="-88.3" font-family="Times New Roman,serif" font-size="14.00">canopy.runner</text>
</g>
<!-- canopy.runner&#45;&gt;canopy.configuration -->
<g id="edge5" class="edge"><title>canopy.runner&#45;&gt;canopy.configuration</title>
<path fill="none" stroke="black" d="M88.324,-108.739C107.541,-121.246 135.455,-137.865 162,-148 216.564,-168.832 280.977,-182.434 331.154,-190.776"/>
<polygon fill="black" stroke="black" points="330.882,-194.277 341.313,-192.425 332.004,-187.368 330.882,-194.277"/>
</g>
<!-- canopy.runner&#45;&gt;canopy.reporters -->
<g id="edge6" class="edge"><title>canopy.runner&#45;&gt;canopy.reporters</title>
<path fill="none" stroke="black" d="M113.555,-81.1437C196.498,-65.1197 367.752,-41.2721 504,-83 535.139,-92.5366 565.395,-114.417 585.922,-131.751"/>
<polygon fill="black" stroke="black" points="583.713,-134.468 593.561,-138.375 588.298,-129.179 583.713,-134.468"/>
</g>
<!-- canopy.runner&#45;&gt;canopy.core -->
<g id="edge7" class="edge"><title>canopy.runner&#45;&gt;canopy.core</title>
<path fill="none" stroke="black" d="M117.045,-101.496C133.245,-104.396 151.146,-107.6 167.677,-110.559"/>
<polygon fill="black" stroke="black" points="167.305,-114.048 177.765,-112.365 168.538,-107.158 167.305,-114.048"/>
</g>
<!-- canopy.history -->
<g id="node6" class="node"><title>canopy.history</title>
<ellipse fill="none" stroke="black" cx="227" cy="-18" rx="64.9885" ry="18"/>
<text text-anchor="middle" x="227" y="-14.3" font-family="Times New Roman,serif" font-size="14.00">canopy.history</text>
</g>
<!-- canopy.runner&#45;&gt;canopy.history -->
<g id="edge8" class="edge"><title>canopy.runner&#45;&gt;canopy.history</title>
<path fill="none" stroke="black" d="M97.174,-76.8464C122.016,-65.499 156.208,-49.8804 183.124,-37.5854"/>
<polygon fill="black" stroke="black" points="184.672,-40.7262 192.314,-33.3876 181.763,-34.359 184.672,-40.7262"/>
</g>
</g>
</svg>
