<?xml version="1.0" encoding="UTF-8" standalone="no"?>
<!DOCTYPE svg PUBLIC "-//W3C//DTD SVG 1.1//EN"
 "http://www.w3.org/Graphics/SVG/1.1/DTD/svg11.dtd">
<!-- Generated by graphviz version 2.30.1 (20130214.1330)
 -->
<!-- Title: G Pages: 1 -->
<svg width="1208pt" height="1452pt"
 viewBox="0.00 0.00 1208.00 1452.10" xmlns="http://www.w3.org/2000/svg" xmlns:xlink="http://www.w3.org/1999/xlink">
<g id="graph0" class="graph" transform="scale(1 1) rotate(0) translate(4 1448.1)">
<title>G</title>
<polygon fill="white" stroke="white" points="-4,5 -4,-1448.1 1205,-1448.1 1205,5 -4,5"/>
<!-- Foq.Emit -->
<g id="node1" class="node"><title>Foq.Emit</title>
<ellipse fill="none" stroke="black" cx="736" cy="-884" rx="44.6926" ry="18"/>
<text text-anchor="middle" x="736" y="-880.3" font-family="Times New Roman,serif" font-size="14.00">Foq.Emit</text>
</g>
<!-- Foq.IMockObject -->
<g id="node2" class="node"><title>Foq.IMockObject</title>
<ellipse fill="none" stroke="black" cx="952" cy="-554" rx="77.1866" ry="18"/>
<text text-anchor="middle" x="952" y="-550.3" font-family="Times New Roman,serif" font-size="14.00">Foq.IMockObject</text>
</g>
<!-- Foq.Emit&#45;&gt;Foq.IMockObject -->
<g id="edge1" class="edge"><title>Foq.Emit&#45;&gt;Foq.IMockObject</title>
<path fill="none" stroke="black" d="M766.96,-870.738C789.097,-859.644 818.633,-841.946 838,-819 899.869,-745.697 932.459,-633.495 944.916,-581.819"/>
<polygon fill="black" stroke="black" points="948.335,-582.567 947.207,-572.032 941.519,-580.971 948.335,-582.567"/>
</g>
<!-- Foq.Invocation -->
<g id="node3" class="node"><title>Foq.Invocation</title>
<ellipse fill="none" stroke="black" cx="1133" cy="-531" rx="66.8882" ry="18"/>
<text text-anchor="middle" x="1133" y="-527.3" font-family="Times New Roman,serif" font-size="14.00">Foq.Invocation</text>
</g>
<!-- Foq.Emit&#45;&gt;Foq.Invocation -->
<g id="edge2" class="edge"><title>Foq.Emit&#45;&gt;Foq.Invocation</title>
<path fill="none" stroke="black" d="M776.204,-891.983C837.653,-902.078 957.143,-911.638 1030,-852 1120.68,-777.772 1131.89,-623.041 1132.49,-559.338"/>
<polygon fill="black" stroke="black" points="1135.99,-559.233 1132.5,-549.229 1128.99,-559.226 1135.99,-559.233"/>
</g>
<!-- Foq.IMockObject&#45;&gt;Foq.Invocation -->
<g id="edge12" class="edge"><title>Foq.IMockObject&#45;&gt;Foq.Invocation</title>
<path fill="none" stroke="black" d="M1020.16,-545.37C1033.97,-543.596 1048.54,-541.724 1062.43,-539.939"/>
<polygon fill="black" stroke="black" points="1062.94,-543.403 1072.41,-538.657 1062.05,-536.46 1062.94,-543.403"/>
</g>
<!-- Foq.Eval -->
<g id="node4" class="node"><title>Foq.Eval</title>
<ellipse fill="none" stroke="black" cx="493" cy="-458" rx="44.393" ry="18"/>
<text text-anchor="middle" x="493" y="-454.3" font-family="Times New Roman,serif" font-size="14.00">Foq.Eval</text>
</g>
<!-- Foq.QuotationEvaluation -->
<g id="node5" class="node"><title>Foq.QuotationEvaluation</title>
<ellipse fill="none" stroke="black" cx="736" cy="-462" rx="102.082" ry="18"/>
<text text-anchor="middle" x="736" y="-458.3" font-family="Times New Roman,serif" font-size="14.00">Foq.QuotationEvaluation</text>
</g>
<!-- Foq.Eval&#45;&gt;Foq.QuotationEvaluation -->
<g id="edge3" class="edge"><title>Foq.Eval&#45;&gt;Foq.QuotationEvaluation</title>
<path fill="none" stroke="black" d="M537.364,-458.72C561.654,-459.123 593.158,-459.646 623.849,-460.155"/>
<polygon fill="black" stroke="black" points="624.157,-463.661 634.214,-460.327 624.274,-456.662 624.157,-463.661"/>
</g>
<!-- Foq.EventBuilder`2 -->
<g id="node6" class="node"><title>Foq.EventBuilder`2</title>
<ellipse fill="none" stroke="black" cx="493" cy="-1048" rx="81.7856" ry="18"/>
<text text-anchor="middle" x="493" y="-1044.3" font-family="Times New Roman,serif" font-size="14.00">Foq.EventBuilder`2</text>
</g>
<!-- Foq.EventBuilder`2&#45;&gt;Foq.Emit -->
<g id="edge4" class="edge"><title>Foq.EventBuilder`2&#45;&gt;Foq.Emit</title>
<path fill="none" stroke="black" d="M551.89,-1035.4C567.485,-1030.64 583.923,-1024.3 598,-1016 646.374,-987.484 690.921,-938.624 715.388,-909.02"/>
<polygon fill="black" stroke="black" points="718.144,-911.178 721.743,-901.213 712.715,-906.759 718.144,-911.178"/>
</g>
<!-- Foq.MockMode -->
<g id="node7" class="node"><title>Foq.MockMode</title>
<ellipse fill="none" stroke="black" cx="736" cy="-1102" rx="71.4873" ry="18"/>
<text text-anchor="middle" x="736" y="-1098.3" font-family="Times New Roman,serif" font-size="14.00">Foq.MockMode</text>
</g>
<!-- Foq.EventBuilder`2&#45;&gt;Foq.MockMode -->
<g id="edge5" class="edge"><title>Foq.EventBuilder`2&#45;&gt;Foq.MockMode</title>
<path fill="none" stroke="black" d="M551.114,-1060.8C587.53,-1068.96 634.743,-1079.54 672.21,-1087.93"/>
<polygon fill="black" stroke="black" points="671.483,-1091.35 682.007,-1090.13 673.014,-1084.52 671.483,-1091.35"/>
</g>
<!-- Foq.Expectations -->
<g id="node8" class="node"><title>Foq.Expectations</title>
<ellipse fill="none" stroke="black" cx="263" cy="-1048" rx="75.2868" ry="18"/>
<text text-anchor="middle" x="263" y="-1044.3" font-family="Times New Roman,serif" font-size="14.00">Foq.Expectations</text>
</g>
<!-- Foq.Expectations&#45;&gt;Foq.IMockObject -->
<g id="edge6" class="edge"><title>Foq.Expectations&#45;&gt;Foq.IMockObject</title>
<path fill="none" stroke="black" d="M265.731,-1066.33C271.68,-1117.65 296.297,-1262.84 388,-1322 557.456,-1431.31 701.172,-1412.13 838,-1264 932.137,-1162.09 947.992,-701.754 950.535,-582.358"/>
<polygon fill="black" stroke="black" points="954.038,-582.261 950.736,-572.194 947.039,-582.123 954.038,-582.261"/>
</g>
<!-- Foq.Expectations&#45;&gt;Foq.Invocation -->
<g id="edge7" class="edge"><title>Foq.Expectations&#45;&gt;Foq.Invocation</title>
<path fill="none" stroke="black" d="M268.127,-1066.01C282.816,-1128.38 334.538,-1333.3 388,-1370 553.277,-1483.46 678.113,-1459.94 838,-1339 1102.38,-1139.02 1129.31,-677.99 1131.81,-559.284"/>
<polygon fill="black" stroke="black" points="1135.31,-559.243 1131.98,-549.186 1128.31,-559.126 1135.31,-559.243"/>
</g>
<!-- Foq.Format -->
<g id="node9" class="node"><title>Foq.Format</title>
<ellipse fill="none" stroke="black" cx="493" cy="-788" rx="54.6905" ry="18"/>
<text text-anchor="middle" x="493" y="-784.3" font-family="Times New Roman,serif" font-size="14.00">Foq.Format</text>
</g>
<!-- Foq.Expectations&#45;&gt;Foq.Format -->
<g id="edge8" class="edge"><title>Foq.Expectations&#45;&gt;Foq.Format</title>
<path fill="none" stroke="black" d="M294.362,-1031.55C313.135,-1020.06 336.52,-1003.2 352,-983 378.705,-948.147 363.878,-927.689 388,-891 408.605,-859.66 440.022,-830.219 462.933,-810.906"/>
<polygon fill="black" stroke="black" points="465.184,-813.586 470.651,-804.511 460.718,-808.196 465.184,-813.586"/>
</g>
<!-- Foq.Verification -->
<g id="node10" class="node"><title>Foq.Verification</title>
<ellipse fill="none" stroke="black" cx="493" cy="-550" rx="70.3881" ry="18"/>
<text text-anchor="middle" x="493" y="-546.3" font-family="Times New Roman,serif" font-size="14.00">Foq.Verification</text>
</g>
<!-- Foq.Expectations&#45;&gt;Foq.Verification -->
<g id="edge9" class="edge"><title>Foq.Expectations&#45;&gt;Foq.Verification</title>
<path fill="none" stroke="black" d="M298.114,-1031.87C317.313,-1020.9 339.816,-1004.48 352,-983 433.093,-840.065 301.424,-754.682 388,-615 400.645,-594.598 422.322,-579.559 442.623,-569.117"/>
<polygon fill="black" stroke="black" points="444.358,-572.165 451.816,-564.64 441.293,-565.872 444.358,-572.165"/>
</g>
<!-- Foq.Format&#45;&gt;Foq.Emit -->
<g id="edge10" class="edge"><title>Foq.Format&#45;&gt;Foq.Emit</title>
<path fill="none" stroke="black" d="M539.484,-797.478C558.34,-802.535 579.973,-809.855 598,-820 616.656,-830.499 615.388,-841.424 634,-852 650.042,-861.116 669.02,-868.001 686.17,-873.004"/>
<polygon fill="black" stroke="black" points="685.449,-876.436 696.02,-875.735 687.319,-869.69 685.449,-876.436"/>
</g>
<!-- Foq.Format&#45;&gt;Foq.Invocation -->
<g id="edge11" class="edge"><title>Foq.Format&#45;&gt;Foq.Invocation</title>
<path fill="none" stroke="black" d="M534.956,-799.543C562.661,-806.737 600.221,-815.305 634,-819 724.129,-828.859 754.057,-853.264 838,-819 971.08,-764.678 1076.56,-617.883 1115.63,-557.497"/>
<polygon fill="black" stroke="black" points="1118.69,-559.216 1121.12,-548.904 1112.79,-555.448 1118.69,-559.216"/>
</g>
<!-- Foq.Verification&#45;&gt;Foq.Emit -->
<g id="edge64" class="edge"><title>Foq.Verification&#45;&gt;Foq.Emit</title>
<path fill="none" stroke="black" d="M533.016,-564.818C555.535,-575.398 582.402,-591.876 598,-615 649.485,-691.326 583.021,-742.335 634,-819 648.383,-840.629 672.682,-856.599 693.842,-867.297"/>
<polygon fill="black" stroke="black" points="692.459,-870.515 702.987,-871.7 695.496,-864.208 692.459,-870.515"/>
</g>
<!-- Foq.Verification&#45;&gt;Foq.IMockObject -->
<g id="edge65" class="edge"><title>Foq.Verification&#45;&gt;Foq.IMockObject</title>
<path fill="none" stroke="black" d="M563.408,-550.608C643.991,-551.313 776.978,-552.477 864.292,-553.241"/>
<polygon fill="black" stroke="black" points="864.412,-556.742 874.442,-553.33 864.473,-549.742 864.412,-556.742"/>
</g>
<!-- Foq.Verification&#45;&gt;Foq.Invocation -->
<g id="edge66" class="edge"><title>Foq.Verification&#45;&gt;Foq.Invocation</title>
<path fill="none" stroke="black" d="M560.188,-544.777C635.963,-539.081 763.84,-530.331 874,-527 943.302,-524.905 960.68,-525.641 1030,-527 1038.63,-527.169 1047.66,-527.418 1056.63,-527.712"/>
<polygon fill="black" stroke="black" points="1056.6,-531.212 1066.71,-528.059 1056.84,-524.217 1056.6,-531.212"/>
</g>
<!-- Foq.ItModule -->
<g id="node11" class="node"><title>Foq.ItModule</title>
<ellipse fill="none" stroke="black" cx="69" cy="-1356" rx="61.99" ry="18"/>
<text text-anchor="middle" x="69" y="-1352.3" font-family="Times New Roman,serif" font-size="14.00">Foq.ItModule</text>
</g>
<!-- Foq.It -->
<g id="node12" class="node"><title>Foq.It</title>
<ellipse fill="none" stroke="black" cx="263" cy="-1356" rx="33.5952" ry="18"/>
<text text-anchor="middle" x="263" y="-1352.3" font-family="Times New Roman,serif" font-size="14.00">Foq.It</text>
</g>
<!-- Foq.ItModule&#45;&gt;Foq.It -->
<g id="edge13" class="edge"><title>Foq.ItModule&#45;&gt;Foq.It</title>
<path fill="none" stroke="black" d="M130.75,-1356C159.332,-1356 192.754,-1356 218.719,-1356"/>
<polygon fill="black" stroke="black" points="218.994,-1359.5 228.994,-1356 218.994,-1352.5 218.994,-1359.5"/>
</g>
<!-- Foq.Linq.ActionBuilder`1 -->
<g id="node13" class="node"><title>Foq.Linq.ActionBuilder`1</title>
<ellipse fill="none" stroke="black" cx="493" cy="-1210" rx="104.782" ry="18"/>
<text text-anchor="middle" x="493" y="-1206.3" font-family="Times New Roman,serif" font-size="14.00">Foq.Linq.ActionBuilder`1</text>
</g>
<!-- Foq.Linq.ActionBuilder`1&#45;&gt;Foq.Emit -->
<g id="edge14" class="edge"><title>Foq.Linq.ActionBuilder`1&#45;&gt;Foq.Emit</title>
<path fill="none" stroke="black" d="M573.629,-1198.4C582.577,-1194.57 590.981,-1189.56 598,-1183 634.968,-1148.46 614.107,-1121.52 634,-1075 659.994,-1014.21 698.069,-946.592 719.27,-910.361"/>
<polygon fill="black" stroke="black" points="722.472,-911.821 724.528,-901.428 716.439,-908.27 722.472,-911.821"/>
</g>
<!-- Foq.Linq.MockMode -->
<g id="node14" class="node"><title>Foq.Linq.MockMode</title>
<ellipse fill="none" stroke="black" cx="736" cy="-1237" rx="90.1842" ry="18"/>
<text text-anchor="middle" x="736" y="-1233.3" font-family="Times New Roman,serif" font-size="14.00">Foq.Linq.MockMode</text>
</g>
<!-- Foq.Linq.ActionBuilder`1&#45;&gt;Foq.Linq.MockMode -->
<g id="edge15" class="edge"><title>Foq.Linq.ActionBuilder`1&#45;&gt;Foq.Linq.MockMode</title>
<path fill="none" stroke="black" d="M581.007,-1219.75C602.423,-1222.15 625.373,-1224.72 646.843,-1227.12"/>
<polygon fill="black" stroke="black" points="646.593,-1230.62 656.921,-1228.25 647.373,-1223.66 646.593,-1230.62"/>
</g>
<!-- Foq.Linq.EventBuilder`1 -->
<g id="node15" class="node"><title>Foq.Linq.EventBuilder`1</title>
<ellipse fill="none" stroke="black" cx="493" cy="-1156" rx="100.983" ry="18"/>
<text text-anchor="middle" x="493" y="-1152.3" font-family="Times New Roman,serif" font-size="14.00">Foq.Linq.EventBuilder`1</text>
</g>
<!-- Foq.Linq.EventBuilder`1&#45;&gt;Foq.Emit -->
<g id="edge16" class="edge"><title>Foq.Linq.EventBuilder`1&#45;&gt;Foq.Emit</title>
<path fill="none" stroke="black" d="M569.571,-1144.2C579.759,-1140.44 589.584,-1135.5 598,-1129 607.749,-1121.47 687.553,-973.016 720.675,-910.931"/>
<polygon fill="black" stroke="black" points="723.957,-912.215 725.572,-901.744 717.78,-908.922 723.957,-912.215"/>
</g>
<!-- Foq.Linq.EventBuilder`1&#45;&gt;Foq.Linq.MockMode -->
<g id="edge17" class="edge"><title>Foq.Linq.EventBuilder`1&#45;&gt;Foq.Linq.MockMode</title>
<path fill="none" stroke="black" d="M554.305,-1170.33C568.719,-1174.12 583.987,-1178.44 598,-1183 628.311,-1192.87 661.596,-1205.93 687.767,-1216.74"/>
<polygon fill="black" stroke="black" points="686.491,-1220 697.068,-1220.61 689.18,-1213.54 686.491,-1220"/>
</g>
<!-- Foq.Linq.FuncBuilder`2 -->
<g id="node16" class="node"><title>Foq.Linq.FuncBuilder`2</title>
<ellipse fill="none" stroke="black" cx="493" cy="-1264" rx="98.5829" ry="18"/>
<text text-anchor="middle" x="493" y="-1260.3" font-family="Times New Roman,serif" font-size="14.00">Foq.Linq.FuncBuilder`2</text>
</g>
<!-- Foq.Linq.FuncBuilder`2&#45;&gt;Foq.Emit -->
<g id="edge18" class="edge"><title>Foq.Linq.FuncBuilder`2&#45;&gt;Foq.Emit</title>
<path fill="none" stroke="black" d="M573.52,-1253.41C582.653,-1249.44 591.134,-1244.11 598,-1237 649.224,-1183.93 608.533,-1144.22 634,-1075 656.768,-1013.12 695.892,-946.158 718.174,-910.275"/>
<polygon fill="black" stroke="black" points="721.375,-911.758 723.72,-901.426 715.443,-908.041 721.375,-911.758"/>
</g>
<!-- Foq.Linq.FuncBuilder`2&#45;&gt;Foq.Linq.MockMode -->
<g id="edge19" class="edge"><title>Foq.Linq.FuncBuilder`2&#45;&gt;Foq.Linq.MockMode</title>
<path fill="none" stroke="black" d="M577.614,-1254.63C599.896,-1252.14 624.04,-1249.43 646.571,-1246.91"/>
<polygon fill="black" stroke="black" points="647.249,-1250.35 656.797,-1245.76 646.47,-1243.4 647.249,-1250.35"/>
</g>
<!-- Foq.Linq.Mock -->
<g id="node17" class="node"><title>Foq.Linq.Mock</title>
<ellipse fill="none" stroke="black" cx="69" cy="-175" rx="68.7879" ry="18"/>
<text text-anchor="middle" x="69" y="-171.3" font-family="Times New Roman,serif" font-size="14.00">Foq.Linq.Mock</text>
</g>
<!-- Foq.Linq.Mock&#45;&gt;Foq.Emit -->
<g id="edge20" class="edge"><title>Foq.Linq.Mock&#45;&gt;Foq.Emit</title>
<path fill="none" stroke="black" d="M71.6273,-193.348C77.4903,-252.373 101.192,-441.399 174,-577 241.292,-702.327 264.367,-744.644 388,-815 437.709,-843.288 598.731,-866.934 682.806,-877.722"/>
<polygon fill="black" stroke="black" points="682.55,-881.217 692.911,-879.004 683.431,-874.273 682.55,-881.217"/>
</g>
<!-- Foq.Linq.Mock&#45;&gt;Foq.IMockObject -->
<g id="edge21" class="edge"><title>Foq.Linq.Mock&#45;&gt;Foq.IMockObject</title>
<path fill="none" stroke="black" d="M105.751,-159.742C224.563,-111.672 611.487,23.3632 838,-152 898.547,-198.874 936.112,-442.108 947.398,-525.729"/>
<polygon fill="black" stroke="black" points="943.945,-526.322 948.73,-535.775 950.885,-525.402 943.945,-526.322"/>
</g>
<!-- Foq.Linq.Mock&#45;&gt;Foq.Invocation -->
<g id="edge22" class="edge"><title>Foq.Linq.Mock&#45;&gt;Foq.Invocation</title>
<path fill="none" stroke="black" d="M85.4651,-157.207C104.341,-136.593 138.197,-103.03 174,-84 303.081,-15.3917 345.819,-0 492,-0 492,-0 492,-0 737,-0 887.554,-0 937.667,-51.0834 1030,-170 1110.23,-273.335 1127.36,-436.777 1131.01,-502.37"/>
<polygon fill="black" stroke="black" points="1127.53,-502.925 1131.52,-512.741 1134.52,-502.582 1127.53,-502.925"/>
</g>
<!-- Foq.Linq.Verification -->
<g id="node18" class="node"><title>Foq.Linq.Verification</title>
<ellipse fill="none" stroke="black" cx="263" cy="-198" rx="89.0842" ry="18"/>
<text text-anchor="middle" x="263" y="-194.3" font-family="Times New Roman,serif" font-size="14.00">Foq.Linq.Verification</text>
</g>
<!-- Foq.Linq.Mock&#45;&gt;Foq.Linq.Verification -->
<g id="edge23" class="edge"><title>Foq.Linq.Mock&#45;&gt;Foq.Linq.Verification</title>
<path fill="none" stroke="black" d="M131.807,-182.404C145.791,-184.079 160.888,-185.888 175.676,-187.659"/>
<polygon fill="black" stroke="black" points="175.502,-191.163 185.847,-188.878 176.335,-184.213 175.502,-191.163"/>
</g>
<!-- Foq.Times -->
<g id="node19" class="node"><title>Foq.Times</title>
<ellipse fill="none" stroke="black" cx="736" cy="-263" rx="50.8918" ry="18"/>
<text text-anchor="middle" x="736" y="-259.3" font-family="Times New Roman,serif" font-size="14.00">Foq.Times</text>
</g>
<!-- Foq.Linq.Mock&#45;&gt;Foq.Times -->
<g id="edge24" class="edge"><title>Foq.Linq.Mock&#45;&gt;Foq.Times</title>
<path fill="none" stroke="black" d="M130.522,-166.797C230.287,-155.423 434.499,-141.25 598,-189 636.933,-200.37 677.289,-223.832 704.027,-241.305"/>
<polygon fill="black" stroke="black" points="702.286,-244.351 712.551,-246.976 706.163,-238.523 702.286,-244.351"/>
</g>
<!-- Foq.TimesModule -->
<g id="node20" class="node"><title>Foq.TimesModule</title>
<ellipse fill="none" stroke="black" cx="493" cy="-236" rx="78.7863" ry="18"/>
<text text-anchor="middle" x="493" y="-232.3" font-family="Times New Roman,serif" font-size="14.00">Foq.TimesModule</text>
</g>
<!-- Foq.Linq.Mock&#45;&gt;Foq.TimesModule -->
<g id="edge25" class="edge"><title>Foq.Linq.Mock&#45;&gt;Foq.TimesModule</title>
<path fill="none" stroke="black" d="M96.6411,-191.623C116.991,-203.353 146.182,-218.152 174,-225 251.774,-244.145 343.459,-245.132 408.348,-242.388"/>
<polygon fill="black" stroke="black" points="408.698,-245.876 418.526,-241.918 408.375,-238.883 408.698,-245.876"/>
</g>
<!-- Foq.Linq.Verification&#45;&gt;Foq.IMockObject -->
<g id="edge33" class="edge"><title>Foq.Linq.Verification&#45;&gt;Foq.IMockObject</title>
<path fill="none" stroke="black" d="M315.139,-183.301C425.438,-155.011 687.837,-106.571 838,-236 926.547,-312.321 945.711,-462.839 949.856,-525.539"/>
<polygon fill="black" stroke="black" points="946.381,-526.067 950.452,-535.848 953.369,-525.663 946.381,-526.067"/>
</g>
<!-- Foq.Linq.Verification&#45;&gt;Foq.Invocation -->
<g id="edge34" class="edge"><title>Foq.Linq.Verification&#45;&gt;Foq.Invocation</title>
<path fill="none" stroke="black" d="M295.299,-181.114C319.748,-168.929 355.002,-153.521 388,-147 584.218,-108.225 659.308,-62.1434 838,-152 992.191,-229.536 1089.42,-429.932 1120.85,-503.44"/>
<polygon fill="black" stroke="black" points="1117.75,-505.084 1124.85,-512.944 1124.2,-502.37 1117.75,-505.084"/>
</g>
<!-- Foq.Linq.Verification&#45;&gt;Foq.Verification -->
<g id="edge35" class="edge"><title>Foq.Linq.Verification&#45;&gt;Foq.Verification</title>
<path fill="none" stroke="black" d="M267.84,-216.154C278.889,-264.735 314.762,-399.795 388,-485 404.128,-503.763 427.043,-518.885 447.26,-529.806"/>
<polygon fill="black" stroke="black" points="445.839,-533.012 456.325,-534.525 449.072,-526.803 445.839,-533.012"/>
</g>
<!-- Foq.Linq.Verification&#45;&gt;Foq.Times -->
<g id="edge36" class="edge"><title>Foq.Linq.Verification&#45;&gt;Foq.Times</title>
<path fill="none" stroke="black" d="M348.669,-192.879C416.754,-190.646 514.486,-191.706 598,-209 632.823,-216.211 670.251,-231.529 697.172,-244.014"/>
<polygon fill="black" stroke="black" points="695.697,-247.189 706.234,-248.294 698.687,-240.859 695.697,-247.189"/>
</g>
<!-- Foq.Linq.Reflection -->
<g id="node22" class="node"><title>Foq.Linq.Reflection</title>
<ellipse fill="none" stroke="black" cx="493" cy="-696" rx="84.485" ry="18"/>
<text text-anchor="middle" x="493" y="-692.3" font-family="Times New Roman,serif" font-size="14.00">Foq.Linq.Reflection</text>
</g>
<!-- Foq.Linq.Verification&#45;&gt;Foq.Linq.Reflection -->
<g id="edge37" class="edge"><title>Foq.Linq.Verification&#45;&gt;Foq.Linq.Reflection</title>
<path fill="none" stroke="black" d="M269.108,-216.287C282.865,-265.662 321.701,-405.852 352,-523 368.735,-587.703 341.033,-621.454 388,-669 393.983,-675.057 401.139,-679.812 408.858,-683.538"/>
<polygon fill="black" stroke="black" points="407.569,-686.793 418.143,-687.454 410.289,-680.343 407.569,-686.793"/>
</g>
<!-- Foq.TimesModule&#45;&gt;Foq.Times -->
<g id="edge63" class="edge"><title>Foq.TimesModule&#45;&gt;Foq.Times</title>
<path fill="none" stroke="black" d="M564.031,-243.846C599.926,-247.867 643.113,-252.706 677.102,-256.513"/>
<polygon fill="black" stroke="black" points="677.009,-260.025 687.336,-257.66 677.788,-253.068 677.009,-260.025"/>
</g>
<!-- Foq.Linq.Mock`1 -->
<g id="node21" class="node"><title>Foq.Linq.Mock`1</title>
<ellipse fill="none" stroke="black" cx="263" cy="-956" rx="76.0865" ry="18"/>
<text text-anchor="middle" x="263" y="-952.3" font-family="Times New Roman,serif" font-size="14.00">Foq.Linq.Mock`1</text>
</g>
<!-- Foq.Linq.Mock`1&#45;&gt;Foq.Emit -->
<g id="edge26" class="edge"><title>Foq.Linq.Mock`1&#45;&gt;Foq.Emit</title>
<path fill="none" stroke="black" d="M335.715,-961.507C404.054,-964.919 509.368,-965.371 598,-945 634.771,-936.549 673.812,-918.119 700.77,-903.716"/>
<polygon fill="black" stroke="black" points="702.668,-906.667 709.778,-898.812 699.321,-900.519 702.668,-906.667"/>
</g>
<!-- Foq.Linq.Mock`1&#45;&gt;Foq.Linq.MockMode -->
<g id="edge27" class="edge"><title>Foq.Linq.Mock`1&#45;&gt;Foq.Linq.MockMode</title>
<path fill="none" stroke="black" d="M297.842,-972.288C316.945,-983.311 339.441,-999.741 352,-1021 382.787,-1073.12 342.457,-1251.13 388,-1291 476.459,-1368.45 628.551,-1298.57 698.212,-1259.38"/>
<polygon fill="black" stroke="black" points="700.143,-1262.31 707.083,-1254.3 696.666,-1256.23 700.143,-1262.31"/>
</g>
<!-- Foq.Linq.Mock`1&#45;&gt;Foq.Linq.Reflection -->
<g id="edge28" class="edge"><title>Foq.Linq.Mock`1&#45;&gt;Foq.Linq.Reflection</title>
<path fill="none" stroke="black" d="M321.714,-944.381C333.082,-939.712 343.963,-933.169 352,-924 400.903,-868.209 345.208,-821.606 388,-761 401.632,-741.693 422.995,-726.909 442.821,-716.355"/>
<polygon fill="black" stroke="black" points="444.457,-719.45 451.79,-711.802 441.288,-713.208 444.457,-719.45"/>
</g>
<!-- Foq.Linq.Reflection&#45;&gt;Foq.Emit -->
<g id="edge29" class="edge"><title>Foq.Linq.Reflection&#45;&gt;Foq.Emit</title>
<path fill="none" stroke="black" d="M560.58,-706.85C574.187,-711.562 587.528,-718.317 598,-728 629.934,-757.529 606.387,-785.395 634,-819 650.606,-839.209 675.187,-855.219 695.942,-866.294"/>
<polygon fill="black" stroke="black" points="694.372,-869.422 704.866,-870.884 697.574,-863.197 694.372,-869.422"/>
</g>
<!-- Foq.PredicateAttribute -->
<g id="node23" class="node"><title>Foq.PredicateAttribute</title>
<ellipse fill="none" stroke="black" cx="736" cy="-738" rx="93.6835" ry="18"/>
<text text-anchor="middle" x="736" y="-734.3" font-family="Times New Roman,serif" font-size="14.00">Foq.PredicateAttribute</text>
</g>
<!-- Foq.Linq.Reflection&#45;&gt;Foq.PredicateAttribute -->
<g id="edge30" class="edge"><title>Foq.Linq.Reflection&#45;&gt;Foq.PredicateAttribute</title>
<path fill="none" stroke="black" d="M558.901,-707.31C588.841,-712.528 624.647,-718.768 656.13,-724.255"/>
<polygon fill="black" stroke="black" points="655.735,-727.739 666.187,-726.008 656.937,-720.843 655.735,-727.739"/>
</g>
<!-- Foq.WildcardAttribute -->
<g id="node24" class="node"><title>Foq.WildcardAttribute</title>
<ellipse fill="none" stroke="black" cx="736" cy="-792" rx="93.6835" ry="18"/>
<text text-anchor="middle" x="736" y="-788.3" font-family="Times New Roman,serif" font-size="14.00">Foq.WildcardAttribute</text>
</g>
<!-- Foq.Linq.Reflection&#45;&gt;Foq.WildcardAttribute -->
<g id="edge31" class="edge"><title>Foq.Linq.Reflection&#45;&gt;Foq.WildcardAttribute</title>
<path fill="none" stroke="black" d="M553.422,-708.715C568.611,-713.431 584.462,-719.722 598,-728 617.575,-739.969 614.206,-753.398 634,-765 641.566,-769.435 649.873,-773.157 658.374,-776.278"/>
<polygon fill="black" stroke="black" points="657.428,-779.653 668.023,-779.552 659.678,-773.025 657.428,-779.653"/>
</g>
<!-- Foq.Linq.Times -->
<g id="node25" class="node"><title>Foq.Linq.Times</title>
<ellipse fill="none" stroke="black" cx="493" cy="-290" rx="69.5877" ry="18"/>
<text text-anchor="middle" x="493" y="-286.3" font-family="Times New Roman,serif" font-size="14.00">Foq.Linq.Times</text>
</g>
<!-- Foq.Linq.Times&#45;&gt;Foq.Times -->
<g id="edge32" class="edge"><title>Foq.Linq.Times&#45;&gt;Foq.Times</title>
<path fill="none" stroke="black" d="M557.005,-282.941C594.07,-278.789 640.615,-273.574 676.811,-269.519"/>
<polygon fill="black" stroke="black" points="677.66,-272.946 687.208,-268.354 676.881,-265.989 677.66,-272.946"/>
</g>
<!-- Foq.Mock -->
<g id="node26" class="node"><title>Foq.Mock</title>
<ellipse fill="none" stroke="black" cx="263" cy="-550" rx="50.0912" ry="18"/>
<text text-anchor="middle" x="263" y="-546.3" font-family="Times New Roman,serif" font-size="14.00">Foq.Mock</text>
</g>
<!-- Foq.Mock&#45;&gt;Foq.Emit -->
<g id="edge38" class="edge"><title>Foq.Mock&#45;&gt;Foq.Emit</title>
<path fill="none" stroke="black" d="M271.273,-567.949C286.825,-603.855 326.944,-684.383 388,-723 468.161,-773.7 519.566,-707.667 598,-761 623.089,-778.06 612.723,-797.372 634,-819 652.388,-837.691 677.08,-853.703 697.446,-865.157"/>
<polygon fill="black" stroke="black" points="696.009,-868.361 706.461,-870.093 699.37,-862.221 696.009,-868.361"/>
</g>
<!-- Foq.Mock&#45;&gt;Foq.IMockObject -->
<g id="edge39" class="edge"><title>Foq.Mock&#45;&gt;Foq.IMockObject</title>
<path fill="none" stroke="black" d="M303.295,-560.817C327.506,-566.914 359.303,-573.912 388,-577 561.371,-595.657 766.262,-577.182 874.726,-564.239"/>
<polygon fill="black" stroke="black" points="875.41,-567.681 884.917,-563.005 874.569,-560.732 875.41,-567.681"/>
</g>
<!-- Foq.Mock&#45;&gt;Foq.Invocation -->
<g id="edge40" class="edge"><title>Foq.Mock&#45;&gt;Foq.Invocation</title>
<path fill="none" stroke="black" d="M275.506,-532.37C294.837,-504.571 336.788,-451.598 388,-431 639.681,-329.771 973.946,-459.266 1090.11,-511.214"/>
<polygon fill="black" stroke="black" points="1088.83,-514.476 1099.39,-515.404 1091.72,-508.097 1088.83,-514.476"/>
</g>
<!-- Foq.Mock&#45;&gt;Foq.QuotationEvaluation -->
<g id="edge41" class="edge"><title>Foq.Mock&#45;&gt;Foq.QuotationEvaluation</title>
<path fill="none" stroke="black" d="M305.812,-540.455C329.813,-535.087 360.545,-528.4 388,-523 437.216,-513.32 565.791,-491.007 651.843,-476.22"/>
<polygon fill="black" stroke="black" points="652.594,-479.642 661.857,-474.5 651.409,-472.743 652.594,-479.642"/>
</g>
<!-- Foq.Mock&#45;&gt;Foq.Format -->
<g id="edge42" class="edge"><title>Foq.Mock&#45;&gt;Foq.Format</title>
<path fill="none" stroke="black" d="M269.764,-567.876C283.545,-607.766 322.237,-704.568 388,-756 401.062,-766.216 417.395,-773.188 433.219,-777.94"/>
<polygon fill="black" stroke="black" points="432.402,-781.346 442.972,-780.621 434.257,-774.596 432.402,-781.346"/>
</g>
<!-- Foq.Mock&#45;&gt;Foq.Verification -->
<g id="edge43" class="edge"><title>Foq.Mock&#45;&gt;Foq.Verification</title>
<path fill="none" stroke="black" d="M313.192,-550C342.139,-550 379.435,-550 412.468,-550"/>
<polygon fill="black" stroke="black" points="412.569,-553.5 422.569,-550 412.569,-546.5 412.569,-553.5"/>
</g>
<!-- Foq.Mock&#45;&gt;Foq.Times -->
<g id="edge44" class="edge"><title>Foq.Mock&#45;&gt;Foq.Times</title>
<path fill="none" stroke="black" d="M273.235,-532.214C290.912,-500.035 332.737,-432.31 388,-398 469.339,-347.501 509.641,-386.864 598,-350 637.888,-333.359 679.164,-305.423 705.842,-285.703"/>
<polygon fill="black" stroke="black" points="708.066,-288.411 713.971,-279.614 703.869,-282.808 708.066,-288.411"/>
</g>
<!-- Foq.Mock&#45;&gt;Foq.TimesModule -->
<g id="edge45" class="edge"><title>Foq.Mock&#45;&gt;Foq.TimesModule</title>
<path fill="none" stroke="black" d="M266.294,-531.995C273.722,-481.395 301.859,-336.815 388,-263 395.543,-256.537 404.448,-251.594 413.821,-247.819"/>
<polygon fill="black" stroke="black" points="415.082,-251.085 423.318,-244.42 412.723,-244.494 415.082,-251.085"/>
</g>
<!-- Foq.Reflection -->
<g id="node27" class="node"><title>Foq.Reflection</title>
<ellipse fill="none" stroke="black" cx="493" cy="-642" rx="65.7887" ry="18"/>
<text text-anchor="middle" x="493" y="-638.3" font-family="Times New Roman,serif" font-size="14.00">Foq.Reflection</text>
</g>
<!-- Foq.Mock&#45;&gt;Foq.Reflection -->
<g id="edge46" class="edge"><title>Foq.Mock&#45;&gt;Foq.Reflection</title>
<path fill="none" stroke="black" d="M291.529,-564.821C316.306,-577.795 353.946,-596.612 388,-610 403.36,-616.039 420.349,-621.683 436.066,-626.498"/>
<polygon fill="black" stroke="black" points="435.077,-629.856 445.662,-629.385 437.094,-623.152 435.077,-629.856"/>
</g>
<!-- Foq.Reflection&#45;&gt;Foq.Emit -->
<g id="edge54" class="edge"><title>Foq.Reflection&#45;&gt;Foq.Emit</title>
<path fill="none" stroke="black" d="M556.349,-646.901C571.695,-650.907 586.892,-657.685 598,-669 646.03,-717.925 594.318,-763.091 634,-819 649.034,-840.182 673.351,-856.14 694.357,-866.943"/>
<polygon fill="black" stroke="black" points="692.906,-870.129 703.424,-871.4 695.994,-863.847 692.906,-870.129"/>
</g>
<!-- Foq.Reflection&#45;&gt;Foq.QuotationEvaluation -->
<g id="edge55" class="edge"><title>Foq.Reflection&#45;&gt;Foq.QuotationEvaluation</title>
<path fill="none" stroke="black" d="M522.504,-625.65C543.805,-613.084 573.37,-594.9 598,-577 638.011,-547.922 681.267,-510.51 708.242,-486.391"/>
<polygon fill="black" stroke="black" points="710.637,-488.945 715.736,-479.658 705.958,-483.738 710.637,-488.945"/>
</g>
<!-- Foq.Reflection&#45;&gt;Foq.PredicateAttribute -->
<g id="edge56" class="edge"><title>Foq.Reflection&#45;&gt;Foq.PredicateAttribute</title>
<path fill="none" stroke="black" d="M551.321,-650.322C567.245,-654.333 583.996,-660.257 598,-669 618.855,-682.02 613.192,-697.905 634,-711 641.177,-715.516 649.098,-719.284 657.253,-722.425"/>
<polygon fill="black" stroke="black" points="656.307,-725.803 666.902,-725.832 658.638,-719.202 656.307,-725.803"/>
</g>
<!-- Foq.Reflection&#45;&gt;Foq.WildcardAttribute -->
<g id="edge57" class="edge"><title>Foq.Reflection&#45;&gt;Foq.WildcardAttribute</title>
<path fill="none" stroke="black" d="M555.174,-647.775C570.611,-651.773 586.147,-658.328 598,-669 631.864,-699.49 600.246,-734.388 634,-765 639.194,-769.711 645.121,-773.614 651.44,-776.847"/>
<polygon fill="black" stroke="black" points="650.385,-780.211 660.941,-781.12 653.257,-773.827 650.385,-780.211"/>
</g>
<!-- Foq.RaisesAttribute -->
<g id="node30" class="node"><title>Foq.RaisesAttribute</title>
<ellipse fill="none" stroke="black" cx="736" cy="-684" rx="83.6854" ry="18"/>
<text text-anchor="middle" x="736" y="-680.3" font-family="Times New Roman,serif" font-size="14.00">Foq.RaisesAttribute</text>
</g>
<!-- Foq.Reflection&#45;&gt;Foq.RaisesAttribute -->
<g id="edge58" class="edge"><title>Foq.Reflection&#45;&gt;Foq.RaisesAttribute</title>
<path fill="none" stroke="black" d="M548.988,-651.583C582.004,-657.337 624.447,-664.734 660.452,-671.008"/>
<polygon fill="black" stroke="black" points="659.971,-674.477 670.424,-672.746 661.173,-667.581 659.971,-674.477"/>
</g>
<!-- Foq.ReturnsAttribute -->
<g id="node31" class="node"><title>Foq.ReturnsAttribute</title>
<ellipse fill="none" stroke="black" cx="736" cy="-630" rx="88.2844" ry="18"/>
<text text-anchor="middle" x="736" y="-626.3" font-family="Times New Roman,serif" font-size="14.00">Foq.ReturnsAttribute</text>
</g>
<!-- Foq.Reflection&#45;&gt;Foq.ReturnsAttribute -->
<g id="edge59" class="edge"><title>Foq.Reflection&#45;&gt;Foq.ReturnsAttribute</title>
<path fill="none" stroke="black" d="M557.635,-638.831C582.724,-637.582 612.08,-636.12 639.607,-634.75"/>
<polygon fill="black" stroke="black" points="639.841,-638.243 649.655,-634.25 639.493,-631.251 639.841,-638.243"/>
</g>
<!-- Foq.Mock`1 -->
<g id="node28" class="node"><title>Foq.Mock`1</title>
<ellipse fill="none" stroke="black" cx="69" cy="-1025" rx="57.3905" ry="18"/>
<text text-anchor="middle" x="69" y="-1021.3" font-family="Times New Roman,serif" font-size="14.00">Foq.Mock`1</text>
</g>
<!-- Foq.Mock`1&#45;&gt;Foq.Emit -->
<g id="edge47" class="edge"><title>Foq.Mock`1&#45;&gt;Foq.Emit</title>
<path fill="none" stroke="black" d="M125.734,-1022.24C243.034,-1015.92 511.68,-998.614 598,-969 639.33,-954.821 681.197,-926.328 707.578,-906.25"/>
<polygon fill="black" stroke="black" points="709.815,-908.945 715.579,-900.056 705.529,-903.41 709.815,-908.945"/>
</g>
<!-- Foq.Mock`1&#45;&gt;Foq.MockMode -->
<g id="edge48" class="edge"><title>Foq.Mock`1&#45;&gt;Foq.MockMode</title>
<path fill="none" stroke="black" d="M83.3507,-1042.68C122.956,-1093.47 245.925,-1239.41 388,-1291 475.729,-1322.85 519.741,-1341.86 598,-1291 631.033,-1269.53 612.244,-1242.84 634,-1210 655.052,-1178.22 685.664,-1146.97 707.662,-1126.33"/>
<polygon fill="black" stroke="black" points="710.093,-1128.85 715.054,-1119.49 705.338,-1123.71 710.093,-1128.85"/>
</g>
<!-- Foq.Mock`1&#45;&gt;Foq.Expectations -->
<g id="edge49" class="edge"><title>Foq.Mock`1&#45;&gt;Foq.Expectations</title>
<path fill="none" stroke="black" d="M122.719,-1031.32C141.99,-1033.62 164.205,-1036.28 185.151,-1038.79"/>
<polygon fill="black" stroke="black" points="184.969,-1042.3 195.314,-1040.01 185.801,-1035.35 184.969,-1042.3"/>
</g>
<!-- Foq.Mock`1&#45;&gt;Foq.Reflection -->
<g id="edge50" class="edge"><title>Foq.Mock`1&#45;&gt;Foq.Reflection</title>
<path fill="none" stroke="black" d="M80.3978,-1007.27C115.546,-948.953 236.255,-761.59 388,-669 399.23,-662.148 412.165,-657.022 425.014,-653.191"/>
<polygon fill="black" stroke="black" points="426.076,-656.529 434.793,-650.507 424.223,-649.779 426.076,-656.529"/>
</g>
<!-- Foq.Operators -->
<g id="node29" class="node"><title>Foq.Operators</title>
<ellipse fill="none" stroke="black" cx="69" cy="-550" rx="64.9885" ry="18"/>
<text text-anchor="middle" x="69" y="-546.3" font-family="Times New Roman,serif" font-size="14.00">Foq.Operators</text>
</g>
<!-- Foq.Operators&#45;&gt;Foq.Emit -->
<g id="edge51" class="edge"><title>Foq.Operators&#45;&gt;Foq.Emit</title>
<path fill="none" stroke="black" d="M69.983,-568.283C71.0313,-621.717 82.1435,-778.235 174,-848 213.728,-878.173 547.855,-883.113 680.775,-883.879"/>
<polygon fill="black" stroke="black" points="681.104,-887.381 691.122,-883.932 681.14,-880.381 681.104,-887.381"/>
</g>
<!-- Foq.Operators&#45;&gt;Foq.Times -->
<g id="edge52" class="edge"><title>Foq.Operators&#45;&gt;Foq.Times</title>
<path fill="none" stroke="black" d="M90.3694,-532.938C138.591,-493.549 264.944,-396.128 388,-350 476.467,-316.837 506.836,-341.805 598,-317 631.615,-307.853 668.261,-293.144 695.186,-281.386"/>
<polygon fill="black" stroke="black" points="696.913,-284.449 704.643,-277.203 694.082,-278.047 696.913,-284.449"/>
</g>
<!-- Foq.Operators&#45;&gt;Foq.Mock -->
<g id="edge53" class="edge"><title>Foq.Operators&#45;&gt;Foq.Mock</title>
<path fill="none" stroke="black" d="M134.2,-550C156.316,-550 180.971,-550 202.68,-550"/>
<polygon fill="black" stroke="black" points="202.751,-553.5 212.751,-550 202.75,-546.5 202.751,-553.5"/>
</g>
<!-- Foq.ResultBuilder`2 -->
<g id="node32" class="node"><title>Foq.ResultBuilder`2</title>
<ellipse fill="none" stroke="black" cx="493" cy="-1102" rx="84.485" ry="18"/>
<text text-anchor="middle" x="493" y="-1098.3" font-family="Times New Roman,serif" font-size="14.00">Foq.ResultBuilder`2</text>
</g>
<!-- Foq.ResultBuilder`2&#45;&gt;Foq.Emit -->
<g id="edge60" class="edge"><title>Foq.ResultBuilder`2&#45;&gt;Foq.Emit</title>
<path fill="none" stroke="black" d="M562.145,-1091.57C574.758,-1087.68 587.309,-1082.33 598,-1075 659.683,-1032.68 703.272,-953.041 723.054,-911.221"/>
<polygon fill="black" stroke="black" points="726.329,-912.477 727.35,-901.931 719.976,-909.539 726.329,-912.477"/>
</g>
<!-- Foq.ResultBuilder`2&#45;&gt;Foq.MockMode -->
<g id="edge61" class="edge"><title>Foq.ResultBuilder`2&#45;&gt;Foq.MockMode</title>
<path fill="none" stroke="black" d="M577.614,-1102C602.467,-1102 629.637,-1102 654.302,-1102"/>
<polygon fill="black" stroke="black" points="654.341,-1105.5 664.341,-1102 654.341,-1098.5 654.341,-1105.5"/>
</g>
<!-- Foq.ReturnBuilder`2 -->
<g id="node33" class="node"><title>Foq.ReturnBuilder`2</title>
<ellipse fill="none" stroke="black" cx="493" cy="-918" rx="85.5853" ry="18"/>
<text text-anchor="middle" x="493" y="-914.3" font-family="Times New Roman,serif" font-size="14.00">Foq.ReturnBuilder`2</text>
</g>
<!-- Foq.ReturnBuilder`2&#45;&gt;Foq.Emit -->
<g id="edge62" class="edge"><title>Foq.ReturnBuilder`2&#45;&gt;Foq.Emit</title>
<path fill="none" stroke="black" d="M564.68,-908.029C602.73,-902.661 648.824,-896.158 683.46,-891.271"/>
<polygon fill="black" stroke="black" points="683.95,-894.737 693.363,-889.874 682.972,-887.805 683.95,-894.737"/>
</g>
</g>
</svg>
