<?xml version="1.0" encoding="UTF-8" standalone="no"?>
<!DOCTYPE svg PUBLIC "-//W3C//DTD SVG 1.1//EN"
 "http://www.w3.org/Graphics/SVG/1.1/DTD/svg11.dtd">
<!-- Generated by graphviz version 2.30.1 (20130214.1330)
 -->
<!-- Title: G Pages: 1 -->
<svg width="384pt" height="422pt"
 viewBox="0.00 0.00 384.00 422.00" xmlns="http://www.w3.org/2000/svg" xmlns:xlink="http://www.w3.org/1999/xlink">
<g id="graph0" class="graph" transform="scale(1 1) rotate(0) translate(4 418)">
<title>G</title>
<polygon fill="white" stroke="white" points="-4,5 -4,-418 381,-418 381,5 -4,5"/>
<!-- Foq.IMockObject -->
<g id="node1" class="node"><title>Foq.IMockObject</title>
<ellipse fill="none" stroke="black" cx="79" cy="-18" rx="77.1866" ry="18"/>
<text text-anchor="middle" x="79" y="-14.3" font-family="Times New Roman,serif" font-size="14.00">Foq.IMockObject</text>
</g>
<!-- Foq.Invocation -->
<g id="node2" class="node"><title>Foq.Invocation</title>
<ellipse fill="none" stroke="black" cx="285" cy="-18" rx="66.8882" ry="18"/>
<text text-anchor="middle" x="285" y="-14.3" font-family="Times New Roman,serif" font-size="14.00">Foq.Invocation</text>
</g>
<!-- Foq.IMockObject&#45;&gt;Foq.Invocation -->
<g id="edge1" class="edge"><title>Foq.IMockObject&#45;&gt;Foq.Invocation</title>
<path fill="none" stroke="black" d="M156.542,-18C173.208,-18 190.842,-18 207.506,-18"/>
<polygon fill="black" stroke="black" points="207.738,-21.5001 217.738,-18 207.738,-14.5001 207.738,-21.5001"/>
</g>
<!-- Foq.Linq.Mock -->
<g id="node3" class="node"><title>Foq.Linq.Mock</title>
<ellipse fill="none" stroke="black" cx="79" cy="-288" rx="68.7879" ry="18"/>
<text text-anchor="middle" x="79" y="-284.3" font-family="Times New Roman,serif" font-size="14.00">Foq.Linq.Mock</text>
</g>
<!-- Foq.Times -->
<g id="node4" class="node"><title>Foq.Times</title>
<ellipse fill="none" stroke="black" cx="285" cy="-180" rx="50.8918" ry="18"/>
<text text-anchor="middle" x="285" y="-176.3" font-family="Times New Roman,serif" font-size="14.00">Foq.Times</text>
</g>
<!-- Foq.Linq.Mock&#45;&gt;Foq.Times -->
<g id="edge2" class="edge"><title>Foq.Linq.Mock&#45;&gt;Foq.Times</title>
<path fill="none" stroke="black" d="M124.879,-274.51C135.918,-270.638 147.56,-266.073 158,-261 192.524,-244.226 229.122,-219.868 253.926,-202.248"/>
<polygon fill="black" stroke="black" points="256.102,-204.995 262.186,-196.32 252.021,-199.308 256.102,-204.995"/>
</g>
<!-- Foq.Linq.Mock`1 -->
<g id="node5" class="node"><title>Foq.Linq.Mock`1</title>
<ellipse fill="none" stroke="black" cx="79" cy="-342" rx="76.0865" ry="18"/>
<text text-anchor="middle" x="79" y="-338.3" font-family="Times New Roman,serif" font-size="14.00">Foq.Linq.Mock`1</text>
</g>
<!-- Foq.Linq.MockMode -->
<g id="node6" class="node"><title>Foq.Linq.MockMode</title>
<ellipse fill="none" stroke="black" cx="285" cy="-342" rx="90.1842" ry="18"/>
<text text-anchor="middle" x="285" y="-338.3" font-family="Times New Roman,serif" font-size="14.00">Foq.Linq.MockMode</text>
</g>
<!-- Foq.Linq.Mock`1&#45;&gt;Foq.Linq.MockMode -->
<g id="edge3" class="edge"><title>Foq.Linq.Mock`1&#45;&gt;Foq.Linq.MockMode</title>
<path fill="none" stroke="black" d="M155.093,-342C164.621,-342 174.486,-342 184.323,-342"/>
<polygon fill="black" stroke="black" points="184.548,-345.5 194.548,-342 184.548,-338.5 184.548,-345.5"/>
</g>
<!-- Foq.Linq.Times -->
<g id="node7" class="node"><title>Foq.Linq.Times</title>
<ellipse fill="none" stroke="black" cx="79" cy="-234" rx="69.5877" ry="18"/>
<text text-anchor="middle" x="79" y="-230.3" font-family="Times New Roman,serif" font-size="14.00">Foq.Linq.Times</text>
</g>
<!-- Foq.Linq.Times&#45;&gt;Foq.Times -->
<g id="edge4" class="edge"><title>Foq.Linq.Times&#45;&gt;Foq.Times</title>
<path fill="none" stroke="black" d="M128.345,-221.203C160.272,-212.752 202.002,-201.705 234.217,-193.178"/>
<polygon fill="black" stroke="black" points="235.117,-196.56 243.888,-190.618 233.326,-189.793 235.117,-196.56"/>
</g>
<!-- Foq.Mock -->
<g id="node8" class="node"><title>Foq.Mock</title>
<ellipse fill="none" stroke="black" cx="79" cy="-180" rx="50.0912" ry="18"/>
<text text-anchor="middle" x="79" y="-176.3" font-family="Times New Roman,serif" font-size="14.00">Foq.Mock</text>
</g>
<!-- Foq.Mock&#45;&gt;Foq.Times -->
<g id="edge5" class="edge"><title>Foq.Mock&#45;&gt;Foq.Times</title>
<path fill="none" stroke="black" d="M129.123,-180C157.722,-180 193.987,-180 224.234,-180"/>
<polygon fill="black" stroke="black" points="224.242,-183.5 234.242,-180 224.242,-176.5 224.242,-183.5"/>
</g>
<!-- Foq.Mock`1 -->
<g id="node9" class="node"><title>Foq.Mock`1</title>
<ellipse fill="none" stroke="black" cx="79" cy="-396" rx="57.3905" ry="18"/>
<text text-anchor="middle" x="79" y="-392.3" font-family="Times New Roman,serif" font-size="14.00">Foq.Mock`1</text>
</g>
<!-- Foq.MockMode -->
<g id="node10" class="node"><title>Foq.MockMode</title>
<ellipse fill="none" stroke="black" cx="285" cy="-396" rx="71.4873" ry="18"/>
<text text-anchor="middle" x="285" y="-392.3" font-family="Times New Roman,serif" font-size="14.00">Foq.MockMode</text>
</g>
<!-- Foq.Mock`1&#45;&gt;Foq.MockMode -->
<g id="edge6" class="edge"><title>Foq.Mock`1&#45;&gt;Foq.MockMode</title>
<path fill="none" stroke="black" d="M136.284,-396C156.943,-396 180.756,-396 203.148,-396"/>
<polygon fill="black" stroke="black" points="203.319,-399.5 213.319,-396 203.319,-392.5 203.319,-399.5"/>
</g>
<!-- Foq.Operators -->
<g id="node11" class="node"><title>Foq.Operators</title>
<ellipse fill="none" stroke="black" cx="79" cy="-126" rx="64.9885" ry="18"/>
<text text-anchor="middle" x="79" y="-122.3" font-family="Times New Roman,serif" font-size="14.00">Foq.Operators</text>
</g>
<!-- Foq.Operators&#45;&gt;Foq.Times -->
<g id="edge7" class="edge"><title>Foq.Operators&#45;&gt;Foq.Times</title>
<path fill="none" stroke="black" d="M126.546,-138.321C158.624,-146.812 201.214,-158.086 234.01,-166.767"/>
<polygon fill="black" stroke="black" points="233.289,-170.197 243.852,-169.373 235.08,-163.43 233.289,-170.197"/>
</g>
<!-- Foq.TimesModule -->
<g id="node12" class="node"><title>Foq.TimesModule</title>
<ellipse fill="none" stroke="black" cx="79" cy="-72" rx="78.7863" ry="18"/>
<text text-anchor="middle" x="79" y="-68.3" font-family="Times New Roman,serif" font-size="14.00">Foq.TimesModule</text>
</g>
<!-- Foq.TimesModule&#45;&gt;Foq.Times -->
<g id="edge8" class="edge"><title>Foq.TimesModule&#45;&gt;Foq.Times</title>
<path fill="none" stroke="black" d="M127.341,-86.3617C137.636,-90.0408 148.333,-94.303 158,-99 192.524,-115.774 229.122,-140.132 253.926,-157.752"/>
<polygon fill="black" stroke="black" points="252.021,-160.692 262.186,-163.68 256.102,-155.005 252.021,-160.692"/>
</g>
</g>
</svg>
