<?xml version="1.0" encoding="UTF-8" standalone="no"?>
<!DOCTYPE svg PUBLIC "-//W3C//DTD SVG 1.1//EN"
 "http://www.w3.org/Graphics/SVG/1.1/DTD/svg11.dtd">
<!-- Generated by graphviz version 2.30.1 (20130214.1330)
 -->
<!-- Title: G Pages: 1 -->
<svg width="600pt" height="152pt"
 viewBox="0.00 0.00 600.00 152.00" xmlns="http://www.w3.org/2000/svg" xmlns:xlink="http://www.w3.org/1999/xlink">
<g id="graph0" class="graph" transform="scale(1 1) rotate(0) translate(4 148)">
<title>G</title>
<polygon fill="white" stroke="white" points="-4,5 -4,-148 597,-148 597,5 -4,5"/>
<!-- FParsec.CharStream -->
<g id="node1" class="node"><title>FParsec.CharStream</title>
<ellipse fill="none" stroke="black" cx="148" cy="-18" rx="85.5853" ry="18"/>
<text text-anchor="middle" x="148" y="-14.3" font-family="Times New Roman,serif" font-size="14.00">FParsec.CharStream</text>
</g>
<!-- FParsec.CharStreamIndexToken -->
<g id="node2" class="node"><title>FParsec.CharStreamIndexToken</title>
<ellipse fill="none" stroke="black" cx="462" cy="-18" rx="129.977" ry="18"/>
<text text-anchor="middle" x="462" y="-14.3" font-family="Times New Roman,serif" font-size="14.00">FParsec.CharStreamIndexToken</text>
</g>
<!-- FParsec.CharStream&#45;&gt;FParsec.CharStreamIndexToken -->
<g id="edge1" class="edge"><title>FParsec.CharStream&#45;&gt;FParsec.CharStreamIndexToken</title>
<path fill="none" stroke="black" d="M228.943,-12.0206C259.918,-11.339 296.191,-11.1095 330.733,-11.3323"/>
<polygon fill="black" stroke="black" points="330.878,-14.8334 340.905,-11.4115 330.932,-7.83365 330.878,-14.8334"/>
</g>
<!-- FParsec.CharStreamIndexToken&#45;&gt;FParsec.CharStream -->
<g id="edge2" class="edge"><title>FParsec.CharStreamIndexToken&#45;&gt;FParsec.CharStream</title>
<path fill="none" stroke="black" d="M340.905,-24.5885C307.066,-24.8979 270.844,-24.7628 239.088,-24.1832"/>
<polygon fill="black" stroke="black" points="239.011,-20.681 228.943,-23.9794 238.87,-27.6796 239.011,-20.681"/>
</g>
<!-- FParsec.Cloning.CloneEventHandlers -->
<g id="node3" class="node"><title>FParsec.Cloning.CloneEventHandlers</title>
<ellipse fill="none" stroke="black" cx="148" cy="-72" rx="147.574" ry="18"/>
<text text-anchor="middle" x="148" y="-68.3" font-family="Times New Roman,serif" font-size="14.00">FParsec.Cloning.CloneEventHandlers</text>
</g>
<!-- FParsec.Cloning.Cloner -->
<g id="node4" class="node"><title>FParsec.Cloning.Cloner</title>
<ellipse fill="none" stroke="black" cx="462" cy="-72" rx="98.2828" ry="18"/>
<text text-anchor="middle" x="462" y="-68.3" font-family="Times New Roman,serif" font-size="14.00">FParsec.Cloning.Cloner</text>
</g>
<!-- FParsec.Cloning.CloneEventHandlers&#45;&gt;FParsec.Cloning.Cloner -->
<g id="edge3" class="edge"><title>FParsec.Cloning.CloneEventHandlers&#45;&gt;FParsec.Cloning.Cloner</title>
<path fill="none" stroke="black" d="M284.94,-65.2999C309.942,-65.175 335.642,-65.2847 359.415,-65.6291"/>
<polygon fill="black" stroke="black" points="359.423,-69.1296 369.478,-65.791 359.536,-62.1305 359.423,-69.1296"/>
</g>
<!-- FParsec.Cloning.Cloner&#45;&gt;FParsec.Cloning.CloneEventHandlers -->
<g id="edge4" class="edge"><title>FParsec.Cloning.Cloner&#45;&gt;FParsec.Cloning.CloneEventHandlers</title>
<path fill="none" stroke="black" d="M369.478,-78.209C346.103,-78.624 320.383,-78.8003 295.017,-78.7377"/>
<polygon fill="black" stroke="black" points="294.953,-75.2375 284.94,-78.7001 294.927,-82.2375 294.953,-75.2375"/>
</g>
<!-- FParsec.ErrorMessage -->
<g id="node5" class="node"><title>FParsec.ErrorMessage</title>
<ellipse fill="none" stroke="black" cx="148" cy="-126" rx="93.6835" ry="18"/>
<text text-anchor="middle" x="148" y="-122.3" font-family="Times New Roman,serif" font-size="14.00">FParsec.ErrorMessage</text>
</g>
<!-- FParsec.ErrorMessageList -->
<g id="node6" class="node"><title>FParsec.ErrorMessageList</title>
<ellipse fill="none" stroke="black" cx="462" cy="-126" rx="107.482" ry="18"/>
<text text-anchor="middle" x="462" y="-122.3" font-family="Times New Roman,serif" font-size="14.00">FParsec.ErrorMessageList</text>
</g>
<!-- FParsec.ErrorMessage&#45;&gt;FParsec.ErrorMessageList -->
<g id="edge5" class="edge"><title>FParsec.ErrorMessage&#45;&gt;FParsec.ErrorMessageList</title>
<path fill="none" stroke="black" d="M236.324,-119.869C272.069,-119.181 313.825,-119.067 351.574,-119.525"/>
<polygon fill="black" stroke="black" points="351.544,-123.025 361.591,-119.661 351.64,-116.025 351.544,-123.025"/>
</g>
<!-- FParsec.ErrorMessageList&#45;&gt;FParsec.ErrorMessage -->
<g id="edge6" class="edge"><title>FParsec.ErrorMessageList&#45;&gt;FParsec.ErrorMessage</title>
<path fill="none" stroke="black" d="M361.591,-132.339C324.795,-132.897 283.139,-132.887 246.513,-132.309"/>
<polygon fill="black" stroke="black" points="246.384,-128.807 236.324,-132.131 246.262,-135.806 246.384,-128.807"/>
</g>
</g>
</svg>
