<?xml version="1.0" encoding="UTF-8" standalone="no"?>
<!DOCTYPE svg PUBLIC "-//W3C//DTD SVG 1.1//EN"
 "http://www.w3.org/Graphics/SVG/1.1/DTD/svg11.dtd">
<!-- Generated by graphviz version 2.30.1 (20130214.1330)
 -->
<!-- Title: G Pages: 1 -->
<svg width="874pt" height="190pt"
 viewBox="0.00 0.00 874.00 190.00" xmlns="http://www.w3.org/2000/svg" xmlns:xlink="http://www.w3.org/1999/xlink">
<g id="graph0" class="graph" transform="scale(1 1) rotate(0) translate(4 186)">
<title>G</title>
<polygon fill="white" stroke="white" points="-4,5 -4,-186 871,-186 871,5 -4,5"/>
<!-- FParsec.CharParsers -->
<g id="node1" class="node"><title>FParsec.CharParsers</title>
<ellipse fill="none" stroke="black" cx="87" cy="-118" rx="87.1846" ry="18"/>
<text text-anchor="middle" x="87" y="-114.3" font-family="Times New Roman,serif" font-size="14.00">FParsec.CharParsers</text>
</g>
<!-- FParsec.Error -->
<g id="node2" class="node"><title>FParsec.Error</title>
<ellipse fill="none" stroke="black" cx="532" cy="-164" rx="61.99" ry="18"/>
<text text-anchor="middle" x="532" y="-160.3" font-family="Times New Roman,serif" font-size="14.00">FParsec.Error</text>
</g>
<!-- FParsec.CharParsers&#45;&gt;FParsec.Error -->
<g id="edge1" class="edge"><title>FParsec.CharParsers&#45;&gt;FParsec.Error</title>
<path fill="none" stroke="black" d="M142.323,-131.959C163.331,-136.846 187.655,-141.886 210,-145 295.419,-156.903 394.64,-161.359 459.899,-163.022"/>
<polygon fill="black" stroke="black" points="459.993,-166.525 470.074,-163.265 460.161,-159.527 459.993,-166.525"/>
</g>
<!-- FParsec.Primitives -->
<g id="node3" class="node"><title>FParsec.Primitives</title>
<ellipse fill="none" stroke="black" cx="306" cy="-118" rx="78.7863" ry="18"/>
<text text-anchor="middle" x="306" y="-114.3" font-family="Times New Roman,serif" font-size="14.00">FParsec.Primitives</text>
</g>
<!-- FParsec.CharParsers&#45;&gt;FParsec.Primitives -->
<g id="edge2" class="edge"><title>FParsec.CharParsers&#45;&gt;FParsec.Primitives</title>
<path fill="none" stroke="black" d="M174.388,-118C188.464,-118 203.058,-118 217.168,-118"/>
<polygon fill="black" stroke="black" points="217.343,-121.5 227.343,-118 217.343,-114.5 217.343,-121.5"/>
</g>
<!-- FParsec.StaticMapping -->
<g id="node4" class="node"><title>FParsec.StaticMapping</title>
<ellipse fill="none" stroke="black" cx="306" cy="-64" rx="95.5831" ry="18"/>
<text text-anchor="middle" x="306" y="-60.3" font-family="Times New Roman,serif" font-size="14.00">FParsec.StaticMapping</text>
</g>
<!-- FParsec.CharParsers&#45;&gt;FParsec.StaticMapping -->
<g id="edge3" class="edge"><title>FParsec.CharParsers&#45;&gt;FParsec.StaticMapping</title>
<path fill="none" stroke="black" d="M143.32,-104.234C171.975,-97.103 207.205,-88.336 237.457,-80.8079"/>
<polygon fill="black" stroke="black" points="238.65,-84.1179 247.509,-78.3066 236.96,-77.3251 238.65,-84.1179"/>
</g>
<!-- FParsec.InternalsModule -->
<g id="node5" class="node"><title>FParsec.InternalsModule</title>
<ellipse fill="none" stroke="black" cx="764" cy="-164" rx="101.282" ry="18"/>
<text text-anchor="middle" x="764" y="-160.3" font-family="Times New Roman,serif" font-size="14.00">FParsec.InternalsModule</text>
</g>
<!-- FParsec.Error&#45;&gt;FParsec.InternalsModule -->
<g id="edge4" class="edge"><title>FParsec.Error&#45;&gt;FParsec.InternalsModule</title>
<path fill="none" stroke="black" d="M594.032,-164C612.02,-164 632.286,-164 652.374,-164"/>
<polygon fill="black" stroke="black" points="652.529,-167.5 662.529,-164 652.529,-160.5 652.529,-167.5"/>
</g>
<!-- FParsec.Primitives&#45;&gt;FParsec.Error -->
<g id="edge5" class="edge"><title>FParsec.Primitives&#45;&gt;FParsec.Error</title>
<path fill="none" stroke="black" d="M365.269,-129.966C397.81,-136.648 438.281,-144.96 471.084,-151.696"/>
<polygon fill="black" stroke="black" points="470.502,-155.149 481.001,-153.732 471.91,-148.292 470.502,-155.149"/>
</g>
<!-- FParsec.RangeModule -->
<g id="node6" class="node"><title>FParsec.RangeModule</title>
<ellipse fill="none" stroke="black" cx="532" cy="-110" rx="93.6835" ry="18"/>
<text text-anchor="middle" x="532" y="-106.3" font-family="Times New Roman,serif" font-size="14.00">FParsec.RangeModule</text>
</g>
<!-- FParsec.StaticMapping&#45;&gt;FParsec.RangeModule -->
<g id="edge7" class="edge"><title>FParsec.StaticMapping&#45;&gt;FParsec.RangeModule</title>
<path fill="none" stroke="black" d="M371.189,-77.1818C398.017,-82.691 429.35,-89.1255 457.13,-94.8302"/>
<polygon fill="black" stroke="black" points="456.689,-98.3127 467.189,-96.8959 458.097,-91.4558 456.689,-98.3127"/>
</g>
<!-- FParsec.Range -->
<g id="node7" class="node"><title>FParsec.Range</title>
<ellipse fill="none" stroke="black" cx="764" cy="-87" rx="65.7887" ry="18"/>
<text text-anchor="middle" x="764" y="-83.3" font-family="Times New Roman,serif" font-size="14.00">FParsec.Range</text>
</g>
<!-- FParsec.StaticMapping&#45;&gt;FParsec.Range -->
<g id="edge8" class="edge"><title>FParsec.StaticMapping&#45;&gt;FParsec.Range</title>
<path fill="none" stroke="black" d="M398.456,-68.6129C483.802,-72.9176 609.559,-79.2606 688.827,-83.2588"/>
<polygon fill="black" stroke="black" points="689.051,-86.7745 699.215,-83.7828 689.404,-79.7834 689.051,-86.7745"/>
</g>
<!-- FParsec.Emit -->
<g id="node8" class="node"><title>FParsec.Emit</title>
<ellipse fill="none" stroke="black" cx="532" cy="-18" rx="59.5901" ry="18"/>
<text text-anchor="middle" x="532" y="-14.3" font-family="Times New Roman,serif" font-size="14.00">FParsec.Emit</text>
</g>
<!-- FParsec.StaticMapping&#45;&gt;FParsec.Emit -->
<g id="edge9" class="edge"><title>FParsec.StaticMapping&#45;&gt;FParsec.Emit</title>
<path fill="none" stroke="black" d="M371.189,-50.8182C403.036,-44.2783 441.232,-36.4344 472.296,-30.0553"/>
<polygon fill="black" stroke="black" points="473.022,-33.4793 482.114,-28.0392 471.614,-26.6224 473.022,-33.4793"/>
</g>
<!-- FParsec.RangeModule&#45;&gt;FParsec.Range -->
<g id="edge6" class="edge"><title>FParsec.RangeModule&#45;&gt;FParsec.Range</title>
<path fill="none" stroke="black" d="M615.386,-101.761C640.424,-99.2576 667.711,-96.5289 691.937,-94.1063"/>
<polygon fill="black" stroke="black" points="692.514,-97.5661 702.116,-93.0884 691.818,-90.6009 692.514,-97.5661"/>
</g>
</g>
</svg>
