<?xml version="1.0" encoding="UTF-8" standalone="no"?>
<!DOCTYPE svg PUBLIC "-//W3C//DTD SVG 1.1//EN"
 "http://www.w3.org/Graphics/SVG/1.1/DTD/svg11.dtd">
<!-- Generated by graphviz version 2.30.1 (20130214.1330)
 -->
<!-- Title: G Pages: 1 -->
<svg width="1050pt" height="154pt"
 viewBox="0.00 0.00 1050.00 154.00" xmlns="http://www.w3.org/2000/svg" xmlns:xlink="http://www.w3.org/1999/xlink">
<g id="graph0" class="graph" transform="scale(1 1) rotate(0) translate(4 150)">
<title>G</title>
<polygon fill="white" stroke="white" points="-4,5 -4,-150 1047,-150 1047,5 -4,5"/>
<!-- Microsoft.FSharp.Core.LanguagePrimitives -->
<g id="node1" class="node"><title>Microsoft.FSharp.Core.LanguagePrimitives</title>
<ellipse fill="none" stroke="black" cx="169" cy="-18" rx="168.97" ry="18"/>
<text text-anchor="middle" x="169" y="-14.3" font-family="Times New Roman,serif" font-size="14.00">Microsoft.FSharp.Core.LanguagePrimitives</text>
</g>
<!-- Microsoft.FSharp.Core.Unit -->
<g id="node2" class="node"><title>Microsoft.FSharp.Core.Unit</title>
<ellipse fill="none" stroke="black" cx="552" cy="-18" rx="114.28" ry="18"/>
<text text-anchor="middle" x="552" y="-14.3" font-family="Times New Roman,serif" font-size="14.00">Microsoft.FSharp.Core.Unit</text>
</g>
<!-- Microsoft.FSharp.Core.LanguagePrimitives&#45;&gt;Microsoft.FSharp.Core.Unit -->
<g id="edge1" class="edge"><title>Microsoft.FSharp.Core.LanguagePrimitives&#45;&gt;Microsoft.FSharp.Core.Unit</title>
<path fill="none" stroke="black" d="M326.067,-11.349C362.259,-11.1388 400.167,-11.2633 434.328,-11.7224"/>
<polygon fill="black" stroke="black" points="434.279,-15.2219 444.329,-11.8681 434.381,-8.22266 434.279,-15.2219"/>
</g>
<!-- Microsoft.FSharp.Core.Unit&#45;&gt;Microsoft.FSharp.Core.LanguagePrimitives -->
<g id="edge2" class="edge"><title>Microsoft.FSharp.Core.Unit&#45;&gt;Microsoft.FSharp.Core.LanguagePrimitives</title>
<path fill="none" stroke="black" d="M444.329,-24.1319C410.818,-24.6593 372.984,-24.8492 336.36,-24.7016"/>
<polygon fill="black" stroke="black" points="336.084,-21.2003 326.067,-24.651 336.049,-28.2002 336.084,-21.2003"/>
</g>
<!-- Microsoft.FSharp.Quotations.FSharpExpr -->
<g id="node3" class="node"><title>Microsoft.FSharp.Quotations.FSharpExpr</title>
<ellipse fill="none" stroke="black" cx="169" cy="-100" rx="165.171" ry="18"/>
<text text-anchor="middle" x="169" y="-96.3" font-family="Times New Roman,serif" font-size="14.00">Microsoft.FSharp.Quotations.FSharpExpr</text>
</g>
<!-- Microsoft.FSharp.Quotations.PatternsModule -->
<g id="node4" class="node"><title>Microsoft.FSharp.Quotations.PatternsModule</title>
<ellipse fill="none" stroke="black" cx="552" cy="-128" rx="178.168" ry="18"/>
<text text-anchor="middle" x="552" y="-124.3" font-family="Times New Roman,serif" font-size="14.00">Microsoft.FSharp.Quotations.PatternsModule</text>
</g>
<!-- Microsoft.FSharp.Quotations.FSharpExpr&#45;&gt;Microsoft.FSharp.Quotations.PatternsModule -->
<g id="edge3" class="edge"><title>Microsoft.FSharp.Quotations.FSharpExpr&#45;&gt;Microsoft.FSharp.Quotations.PatternsModule</title>
<path fill="none" stroke="black" d="M327.993,-104.949C362.756,-107.314 399.008,-110.096 431.931,-112.94"/>
<polygon fill="black" stroke="black" points="431.769,-116.439 442.037,-113.825 432.38,-109.466 431.769,-116.439"/>
</g>
<!-- Microsoft.FSharp.Quotations.Tree -->
<g id="node5" class="node"><title>Microsoft.FSharp.Quotations.Tree</title>
<ellipse fill="none" stroke="black" cx="904" cy="-73" rx="137.576" ry="18"/>
<text text-anchor="middle" x="904" y="-69.3" font-family="Times New Roman,serif" font-size="14.00">Microsoft.FSharp.Quotations.Tree</text>
</g>
<!-- Microsoft.FSharp.Quotations.FSharpExpr&#45;&gt;Microsoft.FSharp.Quotations.Tree -->
<g id="edge4" class="edge"><title>Microsoft.FSharp.Quotations.FSharpExpr&#45;&gt;Microsoft.FSharp.Quotations.Tree</title>
<path fill="none" stroke="black" d="M304.443,-89.6837C432.234,-83.1872 623.968,-76.068 755.811,-72.8875"/>
<polygon fill="black" stroke="black" points="756.077,-76.3823 765.992,-72.6471 755.912,-69.3843 756.077,-76.3823"/>
</g>
<!-- Microsoft.FSharp.Quotations.PatternsModule&#45;&gt;Microsoft.FSharp.Quotations.FSharpExpr -->
<g id="edge5" class="edge"><title>Microsoft.FSharp.Quotations.PatternsModule&#45;&gt;Microsoft.FSharp.Quotations.FSharpExpr</title>
<path fill="none" stroke="black" d="M382.556,-122.331C349.726,-120.039 316.012,-117.411 285.382,-114.74"/>
<polygon fill="black" stroke="black" points="285.388,-111.227 275.118,-113.832 284.771,-118.199 285.388,-111.227"/>
</g>
<!-- Microsoft.FSharp.Quotations.PatternsModule&#45;&gt;Microsoft.FSharp.Quotations.Tree -->
<g id="edge6" class="edge"><title>Microsoft.FSharp.Quotations.PatternsModule&#45;&gt;Microsoft.FSharp.Quotations.Tree</title>
<path fill="none" stroke="black" d="M649.102,-112.898C697.664,-105.267 756.479,-96.0247 805.268,-88.3579"/>
<polygon fill="black" stroke="black" points="805.867,-91.8068 815.202,-86.7968 804.78,-84.8917 805.867,-91.8068"/>
</g>
<!-- Microsoft.FSharp.Quotations.Tree&#45;&gt;Microsoft.FSharp.Quotations.FSharpExpr -->
<g id="edge7" class="edge"><title>Microsoft.FSharp.Quotations.Tree&#45;&gt;Microsoft.FSharp.Quotations.FSharpExpr</title>
<path fill="none" stroke="black" d="M786.349,-82.3937C667.34,-88.6928 481.247,-95.7984 344.659,-99.4162"/>
<polygon fill="black" stroke="black" points="344.405,-95.9216 334.5,-99.6812 344.587,-102.919 344.405,-95.9216"/>
</g>
</g>
</svg>
