<?xml version="1.0" encoding="UTF-8" standalone="no"?>
<!DOCTYPE svg PUBLIC "-//W3C//DTD SVG 1.1//EN"
 "http://www.w3.org/Graphics/SVG/1.1/DTD/svg11.dtd">
<!-- Generated by graphviz version 2.30.1 (20130214.1330)
 -->
<!-- Title: G Pages: 1 -->
<svg width="632pt" height="44pt"
 viewBox="0.00 0.00 632.00 44.00" xmlns="http://www.w3.org/2000/svg" xmlns:xlink="http://www.w3.org/1999/xlink">
<g id="graph0" class="graph" transform="scale(1 1) rotate(0) translate(4 40)">
<title>G</title>
<polygon fill="white" stroke="white" points="-4,5 -4,-40 629,-40 629,5 -4,5"/>
<!-- Microsoft.FSharp.Math.Complex -->
<g id="node1" class="node"><title>Microsoft.FSharp.Math.Complex</title>
<ellipse fill="none" stroke="black" cx="133" cy="-18" rx="132.677" ry="18"/>
<text text-anchor="middle" x="133" y="-14.3" font-family="Times New Roman,serif" font-size="14.00">Microsoft.FSharp.Math.Complex</text>
</g>
<!-- Microsoft.FSharp.Math.ComplexModule -->
<g id="node2" class="node"><title>Microsoft.FSharp.Math.ComplexModule</title>
<ellipse fill="none" stroke="black" cx="463" cy="-18" rx="160.572" ry="18"/>
<text text-anchor="middle" x="463" y="-14.3" font-family="Times New Roman,serif" font-size="14.00">Microsoft.FSharp.Math.ComplexModule</text>
</g>
<!-- Microsoft.FSharp.Math.Complex&#45;&gt;Microsoft.FSharp.Math.ComplexModule -->
<g id="edge1" class="edge"><title>Microsoft.FSharp.Math.Complex&#45;&gt;Microsoft.FSharp.Math.ComplexModule</title>
<path fill="none" stroke="black" d="M256.602,-11.4449C271.976,-11.2973 287.869,-11.2335 303.692,-11.2536"/>
<polygon fill="black" stroke="black" points="304.065,-14.7544 314.074,-11.2789 304.082,-7.75446 304.065,-14.7544"/>
</g>
<!-- Microsoft.FSharp.Math.ComplexModule&#45;&gt;Microsoft.FSharp.Math.Complex -->
<g id="edge2" class="edge"><title>Microsoft.FSharp.Math.ComplexModule&#45;&gt;Microsoft.FSharp.Math.Complex</title>
<path fill="none" stroke="black" d="M314.074,-24.7211C298.31,-24.7779 282.347,-24.7509 266.773,-24.64"/>
<polygon fill="black" stroke="black" points="266.63,-21.1388 256.602,-24.5551 266.572,-28.1386 266.63,-21.1388"/>
</g>
</g>
</svg>
