<?xml version="1.0" encoding="UTF-8" standalone="no"?>
<!DOCTYPE svg PUBLIC "-//W3C//DTD SVG 1.1//EN"
 "http://www.w3.org/Graphics/SVG/1.1/DTD/svg11.dtd">
<!-- Generated by graphviz version 2.30.1 (20130214.1330)
 -->
<!-- Title: G Pages: 1 -->
<svg width="2568pt" height="242pt"
 viewBox="0.00 0.00 2568.00 242.01" xmlns="http://www.w3.org/2000/svg" xmlns:xlink="http://www.w3.org/1999/xlink">
<g id="graph0" class="graph" transform="scale(1 1) rotate(0) translate(4 238.012)">
<title>G</title>
<polygon fill="white" stroke="white" points="-4,5 -4,-238.012 2565,-238.012 2565,5 -4,5"/>
<!-- Newtonsoft.Json.JsonConverter -->
<g id="node1" class="node"><title>Newtonsoft.Json.JsonConverter</title>
<ellipse fill="none" stroke="black" cx="128" cy="-84.6864" rx="127.277" ry="18"/>
<text text-anchor="middle" x="128" y="-80.9864" font-family="Times New Roman,serif" font-size="14.00">Newtonsoft.Json.JsonConverter</text>
</g>
<!-- Newtonsoft.Json.JsonSerializer -->
<g id="node2" class="node"><title>Newtonsoft.Json.JsonSerializer</title>
<ellipse fill="none" stroke="black" cx="1223" cy="-192.686" rx="124.278" ry="18"/>
<text text-anchor="middle" x="1223" y="-188.986" font-family="Times New Roman,serif" font-size="14.00">Newtonsoft.Json.JsonSerializer</text>
</g>
<!-- Newtonsoft.Json.JsonConverter&#45;&gt;Newtonsoft.Json.JsonSerializer -->
<g id="edge1" class="edge"><title>Newtonsoft.Json.JsonConverter&#45;&gt;Newtonsoft.Json.JsonSerializer</title>
<path fill="none" stroke="black" d="M211.069,-98.3899C236.956,-102.683 265.668,-107.414 292,-111.686 443.031,-136.188 479.784,-150.165 632,-165.686 788.362,-181.631 969,-188.161 1088.79,-190.835"/>
<polygon fill="black" stroke="black" points="1089.03,-194.341 1099.1,-191.059 1089.18,-187.343 1089.03,-194.341"/>
</g>
<!-- Newtonsoft.Json.Schema.JsonSchema -->
<g id="node3" class="node"><title>Newtonsoft.Json.Schema.JsonSchema</title>
<ellipse fill="none" stroke="black" cx="444" cy="-84.6864" rx="151.373" ry="18"/>
<text text-anchor="middle" x="444" y="-80.9864" font-family="Times New Roman,serif" font-size="14.00">Newtonsoft.Json.Schema.JsonSchema</text>
</g>
<!-- Newtonsoft.Json.JsonConverter&#45;&gt;Newtonsoft.Json.Schema.JsonSchema -->
<g id="edge2" class="edge"><title>Newtonsoft.Json.JsonConverter&#45;&gt;Newtonsoft.Json.Schema.JsonSchema</title>
<path fill="none" stroke="black" d="M255.811,-84.6864C264.591,-84.6864 273.502,-84.6864 282.429,-84.6864"/>
<polygon fill="black" stroke="black" points="282.508,-88.1865 292.508,-84.6864 282.508,-81.1865 282.508,-88.1865"/>
</g>
<!-- Newtonsoft.Json.JsonConverterCollection -->
<g id="node4" class="node"><title>Newtonsoft.Json.JsonConverterCollection</title>
<ellipse fill="none" stroke="black" cx="1611" cy="-215.686" rx="164.371" ry="18"/>
<text text-anchor="middle" x="1611" y="-211.986" font-family="Times New Roman,serif" font-size="14.00">Newtonsoft.Json.JsonConverterCollection</text>
</g>
<!-- Newtonsoft.Json.JsonSerializer&#45;&gt;Newtonsoft.Json.JsonConverterCollection -->
<g id="edge4" class="edge"><title>Newtonsoft.Json.JsonSerializer&#45;&gt;Newtonsoft.Json.JsonConverterCollection</title>
<path fill="none" stroke="black" d="M1337.99,-199.478C1374.91,-201.678 1416.49,-204.156 1455.83,-206.5"/>
<polygon fill="black" stroke="black" points="1455.85,-210.008 1466.04,-207.109 1456.27,-203.02 1455.85,-210.008"/>
</g>
<!-- Newtonsoft.Json.JsonSerializerSettings -->
<g id="node5" class="node"><title>Newtonsoft.Json.JsonSerializerSettings</title>
<ellipse fill="none" stroke="black" cx="1611" cy="-71.6864" rx="152.973" ry="18"/>
<text text-anchor="middle" x="1611" y="-67.9864" font-family="Times New Roman,serif" font-size="14.00">Newtonsoft.Json.JsonSerializerSettings</text>
</g>
<!-- Newtonsoft.Json.JsonSerializer&#45;&gt;Newtonsoft.Json.JsonSerializerSettings -->
<g id="edge5" class="edge"><title>Newtonsoft.Json.JsonSerializer&#45;&gt;Newtonsoft.Json.JsonSerializerSettings</title>
<path fill="none" stroke="black" d="M1342.19,-187.346C1365.53,-183.071 1389.22,-176.286 1410,-165.686 1430.44,-155.262 1426.64,-141.006 1446,-128.686 1471.93,-112.182 1503.23,-99.7815 1531.5,-90.8346"/>
<polygon fill="black" stroke="black" points="1532.82,-94.0895 1541.36,-87.813 1530.77,-87.3967 1532.82,-94.0895"/>
</g>
<!-- Newtonsoft.Json.Serialization.IContractResolver -->
<g id="node6" class="node"><title>Newtonsoft.Json.Serialization.IContractResolver</title>
<ellipse fill="none" stroke="black" cx="1999" cy="-71.6864" rx="187.367" ry="18"/>
<text text-anchor="middle" x="1999" y="-67.9864" font-family="Times New Roman,serif" font-size="14.00">Newtonsoft.Json.Serialization.IContractResolver</text>
</g>
<!-- Newtonsoft.Json.JsonSerializer&#45;&gt;Newtonsoft.Json.Serialization.IContractResolver -->
<g id="edge6" class="edge"><title>Newtonsoft.Json.JsonSerializer&#45;&gt;Newtonsoft.Json.Serialization.IContractResolver</title>
<path fill="none" stroke="black" d="M1312.5,-180.104C1343.37,-175.646 1378.23,-170.532 1410,-165.686 1579.44,-139.847 1776.03,-108.05 1893.54,-88.8504"/>
<polygon fill="black" stroke="black" points="1894.31,-92.2717 1903.61,-87.2042 1893.18,-85.3634 1894.31,-92.2717"/>
</g>
<!-- Newtonsoft.Json.Linq.JToken -->
<g id="node8" class="node"><title>Newtonsoft.Json.Linq.JToken</title>
<ellipse fill="none" stroke="black" cx="816" cy="-138.686" rx="120.479" ry="18"/>
<text text-anchor="middle" x="816" y="-134.986" font-family="Times New Roman,serif" font-size="14.00">Newtonsoft.Json.Linq.JToken</text>
</g>
<!-- Newtonsoft.Json.Schema.JsonSchema&#45;&gt;Newtonsoft.Json.Linq.JToken -->
<g id="edge14" class="edge"><title>Newtonsoft.Json.Schema.JsonSchema&#45;&gt;Newtonsoft.Json.Linq.JToken</title>
<path fill="none" stroke="black" d="M540.284,-98.5927C595.213,-106.609 664.063,-116.658 719.096,-124.69"/>
<polygon fill="black" stroke="black" points="718.804,-128.184 729.205,-126.165 719.815,-121.257 718.804,-128.184"/>
</g>
<!-- Newtonsoft.Json.Schema.JsonSchemaResolver -->
<g id="node10" class="node"><title>Newtonsoft.Json.Schema.JsonSchemaResolver</title>
<ellipse fill="none" stroke="black" cx="816" cy="-84.6864" rx="183.068" ry="18"/>
<text text-anchor="middle" x="816" y="-80.9864" font-family="Times New Roman,serif" font-size="14.00">Newtonsoft.Json.Schema.JsonSchemaResolver</text>
</g>
<!-- Newtonsoft.Json.Schema.JsonSchema&#45;&gt;Newtonsoft.Json.Schema.JsonSchemaResolver -->
<g id="edge15" class="edge"><title>Newtonsoft.Json.Schema.JsonSchema&#45;&gt;Newtonsoft.Json.Schema.JsonSchemaResolver</title>
<path fill="none" stroke="black" d="M585.145,-78.1159C601.73,-77.9807 618.827,-77.9219 635.858,-77.9394"/>
<polygon fill="black" stroke="black" points="635.867,-81.4393 645.873,-77.9585 635.88,-74.4393 635.867,-81.4393"/>
</g>
<!-- Newtonsoft.Json.JsonConverterCollection&#45;&gt;Newtonsoft.Json.JsonConverter -->
<g id="edge3" class="edge"><title>Newtonsoft.Json.JsonConverterCollection&#45;&gt;Newtonsoft.Json.JsonConverter</title>
<path fill="none" stroke="black" d="M1449.54,-219.178C1436.16,-219.383 1422.85,-219.558 1410,-219.686 912.191,-224.664 774.244,-274.296 292,-150.686 250.413,-140.027 205.332,-121.164 173.143,-106.326"/>
<polygon fill="black" stroke="black" points="174.546,-103.118 164.004,-102.061 171.586,-109.462 174.546,-103.118"/>
</g>
<!-- Newtonsoft.Json.JsonSerializerSettings&#45;&gt;Newtonsoft.Json.JsonConverter -->
<g id="edge7" class="edge"><title>Newtonsoft.Json.JsonSerializerSettings&#45;&gt;Newtonsoft.Json.JsonConverter</title>
<path fill="none" stroke="black" d="M1484.44,-61.5499C1459.78,-59.9394 1434.09,-58.5285 1410,-57.6864 913.414,-40.3271 787.216,-16.9491 292,-57.6864 265.879,-59.8351 237.64,-63.8896 212.121,-68.2156"/>
<polygon fill="black" stroke="black" points="211.37,-64.7935 202.114,-69.9489 212.565,-71.6908 211.37,-64.7935"/>
</g>
<!-- Newtonsoft.Json.JsonSerializerSettings&#45;&gt;Newtonsoft.Json.Serialization.IContractResolver -->
<g id="edge8" class="edge"><title>Newtonsoft.Json.JsonSerializerSettings&#45;&gt;Newtonsoft.Json.Serialization.IContractResolver</title>
<path fill="none" stroke="black" d="M1764,-71.6864C1776.32,-71.6864 1788.87,-71.6864 1801.45,-71.6864"/>
<polygon fill="black" stroke="black" points="1801.53,-75.1865 1811.53,-71.6864 1801.53,-68.1865 1801.53,-75.1865"/>
</g>
<!-- Newtonsoft.Json.Serialization.JsonContract -->
<g id="node11" class="node"><title>Newtonsoft.Json.Serialization.JsonContract</title>
<ellipse fill="none" stroke="black" cx="2391" cy="-35.6864" rx="168.97" ry="18"/>
<text text-anchor="middle" x="2391" y="-31.9864" font-family="Times New Roman,serif" font-size="14.00">Newtonsoft.Json.Serialization.JsonContract</text>
</g>
<!-- Newtonsoft.Json.Serialization.IContractResolver&#45;&gt;Newtonsoft.Json.Serialization.JsonContract -->
<g id="edge17" class="edge"><title>Newtonsoft.Json.Serialization.IContractResolver&#45;&gt;Newtonsoft.Json.Serialization.JsonContract</title>
<path fill="none" stroke="black" d="M2134.76,-59.2468C2172.86,-55.7301 2214.36,-51.8994 2252.61,-48.3686"/>
<polygon fill="black" stroke="black" points="2253.15,-51.8341 2262.78,-47.4296 2252.5,-44.8637 2253.15,-51.8341"/>
</g>
<!-- Newtonsoft.Json.Linq.JContainer -->
<g id="node7" class="node"><title>Newtonsoft.Json.Linq.JContainer</title>
<ellipse fill="none" stroke="black" cx="1223" cy="-138.686" rx="131.877" ry="18"/>
<text text-anchor="middle" x="1223" y="-134.986" font-family="Times New Roman,serif" font-size="14.00">Newtonsoft.Json.Linq.JContainer</text>
</g>
<!-- Newtonsoft.Json.Linq.JContainer&#45;&gt;Newtonsoft.Json.Linq.JToken -->
<g id="edge9" class="edge"><title>Newtonsoft.Json.Linq.JContainer&#45;&gt;Newtonsoft.Json.Linq.JToken</title>
<path fill="none" stroke="black" d="M1099.19,-144.949C1048.52,-145.601 989.915,-145.599 939.291,-144.942"/>
<polygon fill="black" stroke="black" points="939.325,-141.442 929.277,-144.802 939.227,-148.441 939.325,-141.442"/>
</g>
<!-- Newtonsoft.Json.Linq.JToken&#45;&gt;Newtonsoft.Json.JsonSerializer -->
<g id="edge10" class="edge"><title>Newtonsoft.Json.Linq.JToken&#45;&gt;Newtonsoft.Json.JsonSerializer</title>
<path fill="none" stroke="black" d="M906.38,-150.604C969.861,-159.068 1055.18,-170.443 1121.1,-179.233"/>
<polygon fill="black" stroke="black" points="1120.72,-182.714 1131.1,-180.566 1121.65,-175.775 1120.72,-182.714"/>
</g>
<!-- Newtonsoft.Json.Linq.JToken&#45;&gt;Newtonsoft.Json.Linq.JContainer -->
<g id="edge11" class="edge"><title>Newtonsoft.Json.Linq.JToken&#45;&gt;Newtonsoft.Json.Linq.JContainer</title>
<path fill="none" stroke="black" d="M929.277,-132.571C978.767,-131.827 1037.29,-131.737 1088.96,-132.302"/>
<polygon fill="black" stroke="black" points="1089.15,-135.805 1099.19,-132.424 1089.24,-128.805 1089.15,-135.805"/>
</g>
<!-- Newtonsoft.Json.Linq.JTokenEqualityComparer -->
<g id="node9" class="node"><title>Newtonsoft.Json.Linq.JTokenEqualityComparer</title>
<ellipse fill="none" stroke="black" cx="1223" cy="-84.6864" rx="186.567" ry="18"/>
<text text-anchor="middle" x="1223" y="-80.9864" font-family="Times New Roman,serif" font-size="14.00">Newtonsoft.Json.Linq.JTokenEqualityComparer</text>
</g>
<!-- Newtonsoft.Json.Linq.JToken&#45;&gt;Newtonsoft.Json.Linq.JTokenEqualityComparer -->
<g id="edge12" class="edge"><title>Newtonsoft.Json.Linq.JToken&#45;&gt;Newtonsoft.Json.Linq.JTokenEqualityComparer</title>
<path fill="none" stroke="black" d="M887.083,-124.088C938.337,-115.876 1009.75,-105.929 1073.46,-97.9589"/>
<polygon fill="black" stroke="black" points="1074.13,-101.403 1083.62,-96.6972 1073.27,-94.4568 1074.13,-101.403"/>
</g>
<!-- Newtonsoft.Json.Linq.JTokenEqualityComparer&#45;&gt;Newtonsoft.Json.Linq.JToken -->
<g id="edge13" class="edge"><title>Newtonsoft.Json.Linq.JTokenEqualityComparer&#45;&gt;Newtonsoft.Json.Linq.JToken</title>
<path fill="none" stroke="black" d="M1141.57,-100.923C1082.09,-110.239 1000.19,-121.381 933.547,-129.324"/>
<polygon fill="black" stroke="black" points="932.929,-125.873 923.409,-130.522 933.751,-132.825 932.929,-125.873"/>
</g>
<!-- Newtonsoft.Json.Schema.JsonSchemaResolver&#45;&gt;Newtonsoft.Json.Schema.JsonSchema -->
<g id="edge16" class="edge"><title>Newtonsoft.Json.Schema.JsonSchemaResolver&#45;&gt;Newtonsoft.Json.Schema.JsonSchema</title>
<path fill="none" stroke="black" d="M645.873,-91.4143C629.05,-91.4613 612.049,-91.4334 595.435,-91.3306"/>
<polygon fill="black" stroke="black" points="595.17,-87.8287 585.145,-91.2569 595.12,-94.8285 595.17,-87.8287"/>
</g>
<!-- Newtonsoft.Json.Serialization.JsonContract&#45;&gt;Newtonsoft.Json.JsonConverter -->
<g id="edge18" class="edge"><title>Newtonsoft.Json.Serialization.JsonContract&#45;&gt;Newtonsoft.Json.JsonConverter</title>
<path fill="none" stroke="black" d="M2250.6,-25.6334C2094.98,-15.2923 1835.6,-0.6864 1612,-0.6864 815,-0.6864 815,-0.6864 815,-0.6864 582.065,-0.6864 521.118,7.30857 292,-34.6864 255.22,-41.4279 215.047,-53.6915 183.786,-64.3857"/>
<polygon fill="black" stroke="black" points="182.265,-61.2086 173.965,-67.7937 184.56,-67.8218 182.265,-61.2086"/>
</g>
</g>
</svg>
