<?xml version="1.0" encoding="UTF-8" standalone="no"?>
<!DOCTYPE svg PUBLIC "-//W3C//DTD SVG 1.1//EN"
 "http://www.w3.org/Graphics/SVG/1.1/DTD/svg11.dtd">
<!-- Generated by graphviz version 2.30.1 (20130214.1330)
 -->
<!-- Title: G Pages: 1 -->
<svg width="2458pt" height="1618pt"
 viewBox="0.00 0.00 2458.00 1618.00" xmlns="http://www.w3.org/2000/svg" xmlns:xlink="http://www.w3.org/1999/xlink">
<g id="graph0" class="graph" transform="scale(1 1) rotate(0) translate(4 1614)">
<title>G</title>
<polygon fill="white" stroke="white" points="-4,5 -4,-1614 2455,-1614 2455,5 -4,5"/>
<!-- Castle.DynamicProxy.AbstractInvocation -->
<g id="node1" class="node"><title>Castle.DynamicProxy.AbstractInvocation</title>
<ellipse fill="none" stroke="black" cx="162" cy="-500" rx="161.671" ry="18"/>
<text text-anchor="middle" x="162" y="-496.3" font-family="Times New Roman,serif" font-size="14.00">Castle.DynamicProxy.AbstractInvocation</text>
</g>
<!-- Castle.DynamicProxy.IInvocation -->
<g id="node2" class="node"><title>Castle.DynamicProxy.IInvocation</title>
<ellipse fill="none" stroke="black" cx="501" cy="-500" rx="133.776" ry="18"/>
<text text-anchor="middle" x="501" y="-496.3" font-family="Times New Roman,serif" font-size="14.00">Castle.DynamicProxy.IInvocation</text>
</g>
<!-- Castle.DynamicProxy.AbstractInvocation&#45;&gt;Castle.DynamicProxy.IInvocation -->
<g id="edge1" class="edge"><title>Castle.DynamicProxy.AbstractInvocation&#45;&gt;Castle.DynamicProxy.IInvocation</title>
<path fill="none" stroke="black" d="M324.097,-500C334.998,-500 345.94,-500 356.74,-500"/>
<polygon fill="black" stroke="black" points="357.046,-503.5 367.046,-500 357.046,-496.5 357.046,-503.5"/>
</g>
<!-- Moq.IMocked -->
<g id="node3" class="node"><title>Moq.IMocked</title>
<ellipse fill="none" stroke="black" cx="1761" cy="-106" rx="63.8893" ry="18"/>
<text text-anchor="middle" x="1761" y="-102.3" font-family="Times New Roman,serif" font-size="14.00">Moq.IMocked</text>
</g>
<!-- Moq.Mock -->
<g id="node4" class="node"><title>Moq.Mock</title>
<ellipse fill="none" stroke="black" cx="2064" cy="-110" rx="51.9908" ry="18"/>
<text text-anchor="middle" x="2064" y="-106.3" font-family="Times New Roman,serif" font-size="14.00">Moq.Mock</text>
</g>
<!-- Moq.IMocked&#45;&gt;Moq.Mock -->
<g id="edge2" class="edge"><title>Moq.IMocked&#45;&gt;Moq.Mock</title>
<path fill="none" stroke="black" d="M1824.73,-106.834C1876.74,-107.525 1950.25,-108.502 2001.83,-109.187"/>
<polygon fill="black" stroke="black" points="2001.79,-112.687 2011.84,-109.32 2001.88,-105.687 2001.79,-112.687"/>
</g>
<!-- Moq.IHideObjectMembers -->
<g id="node9" class="node"><title>Moq.IHideObjectMembers</title>
<ellipse fill="none" stroke="black" cx="2341" cy="-1007" rx="109.381" ry="18"/>
<text text-anchor="middle" x="2341" y="-1003.3" font-family="Times New Roman,serif" font-size="14.00">Moq.IHideObjectMembers</text>
</g>
<!-- Moq.Mock&#45;&gt;Moq.IHideObjectMembers -->
<g id="edge56" class="edge"><title>Moq.Mock&#45;&gt;Moq.IHideObjectMembers</title>
<path fill="none" stroke="black" d="M2107.29,-120.094C2136.77,-129.38 2174.52,-146.202 2196,-175 2245.6,-241.502 2320.08,-840.943 2336.65,-978.815"/>
<polygon fill="black" stroke="black" points="2333.21,-979.468 2337.87,-988.981 2340.16,-978.636 2333.21,-979.468"/>
</g>
<!-- Moq.DefaultValue -->
<g id="node30" class="node"><title>Moq.DefaultValue</title>
<ellipse fill="none" stroke="black" cx="2341" cy="-28" rx="77.1866" ry="18"/>
<text text-anchor="middle" x="2341" y="-24.3" font-family="Times New Roman,serif" font-size="14.00">Moq.DefaultValue</text>
</g>
<!-- Moq.Mock&#45;&gt;Moq.DefaultValue -->
<g id="edge57" class="edge"><title>Moq.Mock&#45;&gt;Moq.DefaultValue</title>
<path fill="none" stroke="black" d="M2104.11,-98.3385C2150.87,-84.3939 2229.53,-60.9411 2283.04,-44.9841"/>
<polygon fill="black" stroke="black" points="2284.14,-48.3074 2292.73,-42.0958 2282.14,-41.5992 2284.14,-48.3074"/>
</g>
<!-- Moq.MockBehavior -->
<g id="node31" class="node"><title>Moq.MockBehavior</title>
<ellipse fill="none" stroke="black" cx="2341" cy="-91" rx="84.485" ry="18"/>
<text text-anchor="middle" x="2341" y="-87.3" font-family="Times New Roman,serif" font-size="14.00">Moq.MockBehavior</text>
</g>
<!-- Moq.Mock&#45;&gt;Moq.MockBehavior -->
<g id="edge58" class="edge"><title>Moq.Mock&#45;&gt;Moq.MockBehavior</title>
<path fill="none" stroke="black" d="M2115.12,-106.537C2152.78,-103.935 2205.38,-100.301 2250.24,-97.2016"/>
<polygon fill="black" stroke="black" points="2250.54,-100.689 2260.28,-96.5083 2250.06,-93.706 2250.54,-100.689"/>
</g>
<!-- Moq.IMocked`1 -->
<g id="node5" class="node"><title>Moq.IMocked`1</title>
<ellipse fill="none" stroke="black" cx="1447" cy="-106" rx="71.4873" ry="18"/>
<text text-anchor="middle" x="1447" y="-102.3" font-family="Times New Roman,serif" font-size="14.00">Moq.IMocked`1</text>
</g>
<!-- Moq.IMocked`1&#45;&gt;Moq.IMocked -->
<g id="edge3" class="edge"><title>Moq.IMocked`1&#45;&gt;Moq.IMocked</title>
<path fill="none" stroke="black" d="M1518.8,-106C1569.01,-106 1636.2,-106 1686.91,-106"/>
<polygon fill="black" stroke="black" points="1687.15,-109.5 1697.15,-106 1687.15,-102.5 1687.15,-109.5"/>
</g>
<!-- Moq.It -->
<g id="node6" class="node"><title>Moq.It</title>
<ellipse fill="none" stroke="black" cx="2064" cy="-256" rx="36.2938" ry="18"/>
<text text-anchor="middle" x="2064" y="-252.3" font-family="Times New Roman,serif" font-size="14.00">Moq.It</text>
</g>
<!-- Moq.Range -->
<g id="node7" class="node"><title>Moq.Range</title>
<ellipse fill="none" stroke="black" cx="2341" cy="-256" rx="53.8905" ry="18"/>
<text text-anchor="middle" x="2341" y="-252.3" font-family="Times New Roman,serif" font-size="14.00">Moq.Range</text>
</g>
<!-- Moq.It&#45;&gt;Moq.Range -->
<g id="edge4" class="edge"><title>Moq.It&#45;&gt;Moq.Range</title>
<path fill="none" stroke="black" d="M2100.67,-256C2145.18,-256 2222.07,-256 2276.68,-256"/>
<polygon fill="black" stroke="black" points="2276.95,-259.5 2286.95,-256 2276.95,-252.5 2276.95,-259.5"/>
</g>
<!-- Moq.Language.Flow.ICallbackResult -->
<g id="node8" class="node"><title>Moq.Language.Flow.ICallbackResult</title>
<ellipse fill="none" stroke="black" cx="856" cy="-988" rx="146.474" ry="18"/>
<text text-anchor="middle" x="856" y="-984.3" font-family="Times New Roman,serif" font-size="14.00">Moq.Language.Flow.ICallbackResult</text>
</g>
<!-- Moq.Language.Flow.ICallbackResult&#45;&gt;Moq.IHideObjectMembers -->
<g id="edge5" class="edge"><title>Moq.Language.Flow.ICallbackResult&#45;&gt;Moq.IHideObjectMembers</title>
<path fill="none" stroke="black" d="M930.069,-1003.56C1041.02,-1025.8 1258.86,-1064 1446,-1064 1446,-1064 1446,-1064 1762,-1064 1936.47,-1064 2139.14,-1037.96 2252.19,-1021.08"/>
<polygon fill="black" stroke="black" points="2252.81,-1024.53 2262.18,-1019.58 2251.77,-1017.61 2252.81,-1024.53"/>
</g>
<!-- Moq.Language.Flow.IThrowsResult -->
<g id="node10" class="node"><title>Moq.Language.Flow.IThrowsResult</title>
<ellipse fill="none" stroke="black" cx="1447" cy="-882" rx="142.975" ry="18"/>
<text text-anchor="middle" x="1447" y="-878.3" font-family="Times New Roman,serif" font-size="14.00">Moq.Language.Flow.IThrowsResult</text>
</g>
<!-- Moq.Language.Flow.ICallbackResult&#45;&gt;Moq.Language.Flow.IThrowsResult -->
<g id="edge6" class="edge"><title>Moq.Language.Flow.ICallbackResult&#45;&gt;Moq.Language.Flow.IThrowsResult</title>
<path fill="none" stroke="black" d="M939.518,-973.15C1048.62,-953.515 1240.29,-919.02 1353.97,-898.563"/>
<polygon fill="black" stroke="black" points="1354.82,-901.966 1364.04,-896.75 1353.58,-895.077 1354.82,-901.966"/>
</g>
<!-- Moq.Language.IOccurrence -->
<g id="node11" class="node"><title>Moq.Language.IOccurrence</title>
<ellipse fill="none" stroke="black" cx="1761" cy="-1007" rx="113.18" ry="18"/>
<text text-anchor="middle" x="1761" y="-1003.3" font-family="Times New Roman,serif" font-size="14.00">Moq.Language.IOccurrence</text>
</g>
<!-- Moq.Language.Flow.ICallbackResult&#45;&gt;Moq.Language.IOccurrence -->
<g id="edge7" class="edge"><title>Moq.Language.Flow.ICallbackResult&#45;&gt;Moq.Language.IOccurrence</title>
<path fill="none" stroke="black" d="M981.113,-997.384C1010.25,-999.247 1041.21,-1000.95 1070,-1002 1268.69,-1009.24 1499.78,-1009.2 1637.73,-1008.27"/>
<polygon fill="black" stroke="black" points="1637.94,-1011.77 1647.91,-1008.2 1637.89,-1004.77 1637.94,-1011.77"/>
</g>
<!-- Moq.Language.IThrows -->
<g id="node12" class="node"><title>Moq.Language.IThrows</title>
<ellipse fill="none" stroke="black" cx="1169" cy="-630" rx="98.5829" ry="18"/>
<text text-anchor="middle" x="1169" y="-626.3" font-family="Times New Roman,serif" font-size="14.00">Moq.Language.IThrows</text>
</g>
<!-- Moq.Language.Flow.ICallbackResult&#45;&gt;Moq.Language.IThrows -->
<g id="edge8" class="edge"><title>Moq.Language.Flow.ICallbackResult&#45;&gt;Moq.Language.IThrows</title>
<path fill="none" stroke="black" d="M872.85,-969.755C924.235,-910.605 1086.32,-724.023 1145.82,-655.534"/>
<polygon fill="black" stroke="black" points="1148.63,-657.628 1152.55,-647.784 1143.35,-653.038 1148.63,-657.628"/>
</g>
<!-- Moq.Language.IVerifies -->
<g id="node13" class="node"><title>Moq.Language.IVerifies</title>
<ellipse fill="none" stroke="black" cx="2064" cy="-851" rx="98.5829" ry="18"/>
<text text-anchor="middle" x="2064" y="-847.3" font-family="Times New Roman,serif" font-size="14.00">Moq.Language.IVerifies</text>
</g>
<!-- Moq.Language.Flow.ICallbackResult&#45;&gt;Moq.Language.IVerifies -->
<g id="edge9" class="edge"><title>Moq.Language.Flow.ICallbackResult&#45;&gt;Moq.Language.IVerifies</title>
<path fill="none" stroke="black" d="M979.724,-978.388C1174.48,-962.453 1566.08,-927.642 1896,-881 1925.48,-876.832 1957.72,-871.278 1985.94,-866.082"/>
<polygon fill="black" stroke="black" points="1986.95,-869.455 1996.14,-864.188 1985.67,-862.572 1986.95,-869.455"/>
</g>
<!-- Moq.Language.Flow.IThrowsResult&#45;&gt;Moq.IHideObjectMembers -->
<g id="edge37" class="edge"><title>Moq.Language.Flow.IThrowsResult&#45;&gt;Moq.IHideObjectMembers</title>
<path fill="none" stroke="black" d="M1543.46,-895.377C1715.87,-919.537 2077.07,-970.154 2247.38,-994.021"/>
<polygon fill="black" stroke="black" points="2246.94,-997.493 2257.33,-995.415 2247.91,-990.561 2246.94,-997.493"/>
</g>
<!-- Moq.Language.Flow.IThrowsResult&#45;&gt;Moq.Language.IOccurrence -->
<g id="edge38" class="edge"><title>Moq.Language.Flow.IThrowsResult&#45;&gt;Moq.Language.IOccurrence</title>
<path fill="none" stroke="black" d="M1491.05,-899.249C1548.02,-922.072 1648.29,-962.246 1708.99,-986.564"/>
<polygon fill="black" stroke="black" points="1707.8,-989.856 1718.38,-990.326 1710.4,-983.358 1707.8,-989.856"/>
</g>
<!-- Moq.Language.Flow.IThrowsResult&#45;&gt;Moq.Language.IVerifies -->
<g id="edge39" class="edge"><title>Moq.Language.Flow.IThrowsResult&#45;&gt;Moq.Language.IVerifies</title>
<path fill="none" stroke="black" d="M1579.93,-875.35C1692.99,-869.651 1853.67,-861.552 1958.13,-856.286"/>
<polygon fill="black" stroke="black" points="1958.56,-859.769 1968.37,-855.77 1958.21,-852.778 1958.56,-859.769"/>
</g>
<!-- Moq.Language.IOccurrence&#45;&gt;Moq.IHideObjectMembers -->
<g id="edge46" class="edge"><title>Moq.Language.IOccurrence&#45;&gt;Moq.IHideObjectMembers</title>
<path fill="none" stroke="black" d="M1874.13,-1007C1974.05,-1007 2119.8,-1007 2221.59,-1007"/>
<polygon fill="black" stroke="black" points="2221.61,-1010.5 2231.61,-1007 2221.61,-1003.5 2221.61,-1010.5"/>
</g>
<!-- Moq.Language.IOccurrence&#45;&gt;Moq.Language.IVerifies -->
<g id="edge47" class="edge"><title>Moq.Language.IOccurrence&#45;&gt;Moq.Language.IVerifies</title>
<path fill="none" stroke="black" d="M1821.78,-991.778C1845.48,-984.735 1872.6,-975.381 1896,-964 1947.29,-939.051 2000.95,-900.084 2033.17,-875.05"/>
<polygon fill="black" stroke="black" points="2035.57,-877.617 2041.28,-868.693 2031.25,-872.108 2035.57,-877.617"/>
</g>
<!-- Moq.Language.IThrows&#45;&gt;Moq.IHideObjectMembers -->
<g id="edge52" class="edge"><title>Moq.Language.IThrows&#45;&gt;Moq.IHideObjectMembers</title>
<path fill="none" stroke="black" d="M1253.65,-620.595C1470.53,-597.954 2044.62,-549.669 2196,-654 2307.22,-730.652 2332.63,-909.43 2338.36,-978.791"/>
<polygon fill="black" stroke="black" points="2334.88,-979.24 2339.12,-988.951 2341.86,-978.717 2334.88,-979.24"/>
</g>
<!-- Moq.Language.IThrows&#45;&gt;Moq.Language.Flow.IThrowsResult -->
<g id="edge53" class="edge"><title>Moq.Language.IThrows&#45;&gt;Moq.Language.Flow.IThrowsResult</title>
<path fill="none" stroke="black" d="M1189.41,-647.72C1237.59,-691.714 1362.8,-806.037 1418.54,-856.93"/>
<polygon fill="black" stroke="black" points="1416.5,-859.804 1426.24,-863.962 1421.22,-854.635 1416.5,-859.804"/>
</g>
<!-- Moq.Language.IVerifies&#45;&gt;Moq.IHideObjectMembers -->
<g id="edge54" class="edge"><title>Moq.Language.IVerifies&#45;&gt;Moq.IHideObjectMembers</title>
<path fill="none" stroke="black" d="M2118.52,-866.132C2142.9,-874.037 2171.67,-884.828 2196,-898 2239.92,-921.776 2284.93,-958.161 2312.67,-982.261"/>
<polygon fill="black" stroke="black" points="2310.54,-985.047 2320.37,-989.014 2315.16,-979.787 2310.54,-985.047"/>
</g>
<!-- Moq.Language.Flow.IReturnsResult`1 -->
<g id="node14" class="node"><title>Moq.Language.Flow.IReturnsResult`1</title>
<ellipse fill="none" stroke="black" cx="162" cy="-1193" rx="150.273" ry="18"/>
<text text-anchor="middle" x="162" y="-1189.3" font-family="Times New Roman,serif" font-size="14.00">Moq.Language.Flow.IReturnsResult`1</text>
</g>
<!-- Moq.Language.Flow.IReturnsResult`1&#45;&gt;Moq.IHideObjectMembers -->
<g id="edge10" class="edge"><title>Moq.Language.Flow.IReturnsResult`1&#45;&gt;Moq.IHideObjectMembers</title>
<path fill="none" stroke="black" d="M185.356,-1210.81C268.49,-1275.18 569.695,-1492 855,-1492 855,-1492 855,-1492 1762,-1492 1955.41,-1492 2044.2,-1579.85 2196,-1460 2331.78,-1352.8 2341.75,-1117.39 2340.9,-1035.64"/>
<polygon fill="black" stroke="black" points="2344.39,-1035.09 2340.72,-1025.16 2337.39,-1035.21 2344.39,-1035.09"/>
</g>
<!-- Moq.Language.Flow.IReturnsResult`1&#45;&gt;Moq.Language.IOccurrence -->
<g id="edge11" class="edge"><title>Moq.Language.Flow.IReturnsResult`1&#45;&gt;Moq.Language.IOccurrence</title>
<path fill="none" stroke="black" d="M290.196,-1202.39C386.795,-1208.01 522.878,-1212.72 642,-1205 1044.08,-1178.95 1516.84,-1068.27 1691.07,-1024.71"/>
<polygon fill="black" stroke="black" points="1692.03,-1028.08 1700.87,-1022.25 1690.32,-1021.29 1692.03,-1028.08"/>
</g>
<!-- Moq.Language.Flow.IReturnsResult`1&#45;&gt;Moq.Language.IVerifies -->
<g id="edge12" class="edge"><title>Moq.Language.Flow.IReturnsResult`1&#45;&gt;Moq.Language.IVerifies</title>
<path fill="none" stroke="black" d="M194.069,-1175.32C272.477,-1131.52 485.838,-1017.49 678,-961 1140.89,-824.914 1725.98,-834.334 1959.71,-844.959"/>
<polygon fill="black" stroke="black" points="1959.74,-848.465 1969.9,-845.433 1960.07,-841.472 1959.74,-848.465"/>
</g>
<!-- Moq.Language.ICallback -->
<g id="node15" class="node"><title>Moq.Language.ICallback</title>
<ellipse fill="none" stroke="black" cx="501" cy="-1124" rx="102.882" ry="18"/>
<text text-anchor="middle" x="501" y="-1120.3" font-family="Times New Roman,serif" font-size="14.00">Moq.Language.ICallback</text>
</g>
<!-- Moq.Language.Flow.IReturnsResult`1&#45;&gt;Moq.Language.ICallback -->
<g id="edge13" class="edge"><title>Moq.Language.Flow.IReturnsResult`1&#45;&gt;Moq.Language.ICallback</title>
<path fill="none" stroke="black" d="M235.439,-1177.2C272.636,-1169.18 318.703,-1159.38 360,-1151 379.611,-1147.02 400.797,-1142.86 420.608,-1139.03"/>
<polygon fill="black" stroke="black" points="421.36,-1142.45 430.518,-1137.12 420.036,-1135.58 421.36,-1142.45"/>
</g>
<!-- Moq.Language.ICallback&#45;&gt;Moq.Language.Flow.ICallbackResult -->
<g id="edge40" class="edge"><title>Moq.Language.ICallback&#45;&gt;Moq.Language.Flow.ICallbackResult</title>
<path fill="none" stroke="black" d="M544.58,-1107.6C608.767,-1082.87 730.279,-1036.05 800.733,-1008.91"/>
<polygon fill="black" stroke="black" points="802.251,-1012.07 810.324,-1005.21 799.734,-1005.54 802.251,-1012.07"/>
</g>
<!-- Moq.Language.ICallback&#45;&gt;Moq.IHideObjectMembers -->
<g id="edge41" class="edge"><title>Moq.Language.ICallback&#45;&gt;Moq.IHideObjectMembers</title>
<path fill="none" stroke="black" d="M603.065,-1121.83C832.831,-1116.64 1412.01,-1102.11 1896,-1078 2029.46,-1071.35 2065.13,-1085 2196,-1058 2228.99,-1051.19 2264.7,-1038.58 2292.3,-1027.61"/>
<polygon fill="black" stroke="black" points="2293.75,-1030.8 2301.71,-1023.81 2291.12,-1024.31 2293.75,-1030.8"/>
</g>
<!-- Moq.Language.Flow.IReturnsThrowsGetter`2 -->
<g id="node16" class="node"><title>Moq.Language.Flow.IReturnsThrowsGetter`2</title>
<ellipse fill="none" stroke="black" cx="856" cy="-592" rx="178.168" ry="18"/>
<text text-anchor="middle" x="856" y="-588.3" font-family="Times New Roman,serif" font-size="14.00">Moq.Language.Flow.IReturnsThrowsGetter`2</text>
</g>
<!-- Moq.Language.Flow.IReturnsThrowsGetter`2&#45;&gt;Moq.IHideObjectMembers -->
<g id="edge14" class="edge"><title>Moq.Language.Flow.IReturnsThrowsGetter`2&#45;&gt;Moq.IHideObjectMembers</title>
<path fill="none" stroke="black" d="M1005.52,-582.219C1334.22,-561.941 2101.68,-522.645 2196,-591 2324.85,-684.376 2339.36,-901.037 2340.29,-978.68"/>
<polygon fill="black" stroke="black" points="2336.79,-978.704 2340.34,-988.686 2343.79,-978.668 2336.79,-978.704"/>
</g>
<!-- Moq.Language.Flow.IReturnsThrowsGetter`2&#45;&gt;Moq.Language.IThrows -->
<g id="edge15" class="edge"><title>Moq.Language.Flow.IReturnsThrowsGetter`2&#45;&gt;Moq.Language.IThrows</title>
<path fill="none" stroke="black" d="M970.158,-605.826C1005.1,-610.096 1043.13,-614.742 1076.42,-618.811"/>
<polygon fill="black" stroke="black" points="1076.25,-622.315 1086.6,-620.054 1077.09,-615.366 1076.25,-622.315"/>
</g>
<!-- Moq.Language.Flow.IReturnsThrows`2 -->
<g id="node17" class="node"><title>Moq.Language.Flow.IReturnsThrows`2</title>
<ellipse fill="none" stroke="black" cx="856" cy="-500" rx="155.173" ry="18"/>
<text text-anchor="middle" x="856" y="-496.3" font-family="Times New Roman,serif" font-size="14.00">Moq.Language.Flow.IReturnsThrows`2</text>
</g>
<!-- Moq.Language.Flow.IReturnsThrows`2&#45;&gt;Moq.IHideObjectMembers -->
<g id="edge16" class="edge"><title>Moq.Language.Flow.IReturnsThrows`2&#45;&gt;Moq.IHideObjectMembers</title>
<path fill="none" stroke="black" d="M1008.93,-503.196C1127.86,-505.425 1297.46,-508 1446,-508 1446,-508 1446,-508 1762,-508 1955.83,-508 2045.5,-428.842 2196,-551 2331.27,-660.798 2341.53,-897.005 2340.84,-978.594"/>
<polygon fill="black" stroke="black" points="2337.33,-978.786 2340.68,-988.838 2344.33,-978.892 2337.33,-978.786"/>
</g>
<!-- Moq.Language.Flow.IReturnsThrows`2&#45;&gt;Moq.Language.IThrows -->
<g id="edge17" class="edge"><title>Moq.Language.Flow.IReturnsThrows`2&#45;&gt;Moq.Language.IThrows</title>
<path fill="none" stroke="black" d="M907.493,-517.037C943.188,-529.445 991.97,-547.141 1034,-565 1065.37,-578.328 1099.96,-595.164 1126.14,-608.361"/>
<polygon fill="black" stroke="black" points="1124.88,-611.647 1135.38,-613.046 1128.04,-605.403 1124.88,-611.647"/>
</g>
<!-- Moq.Language.Flow.ISetupGetter`2 -->
<g id="node18" class="node"><title>Moq.Language.Flow.ISetupGetter`2</title>
<ellipse fill="none" stroke="black" cx="856" cy="-722" rx="142.175" ry="18"/>
<text text-anchor="middle" x="856" y="-718.3" font-family="Times New Roman,serif" font-size="14.00">Moq.Language.Flow.ISetupGetter`2</text>
</g>
<!-- Moq.Language.Flow.ISetupGetter`2&#45;&gt;Moq.IHideObjectMembers -->
<g id="edge18" class="edge"><title>Moq.Language.Flow.ISetupGetter`2&#45;&gt;Moq.IHideObjectMembers</title>
<path fill="none" stroke="black" d="M971.432,-711.375C1163.94,-696.108 1564.11,-675.582 1896,-732 2033.49,-755.372 2080.96,-745.158 2196,-824 2256.51,-865.471 2303.59,-940.092 2325.87,-980.034"/>
<polygon fill="black" stroke="black" points="2322.87,-981.847 2330.75,-988.937 2329.01,-978.485 2322.87,-981.847"/>
</g>
<!-- Moq.Language.Flow.ISetupGetter`2&#45;&gt;Moq.Language.IThrows -->
<g id="edge19" class="edge"><title>Moq.Language.Flow.ISetupGetter`2&#45;&gt;Moq.Language.IThrows</title>
<path fill="none" stroke="black" d="M966.654,-710.666C989.528,-705.98 1013.04,-699.358 1034,-690 1052.51,-681.736 1052.1,-671.51 1070,-662 1080.02,-656.675 1091.1,-652.024 1102.08,-648.04"/>
<polygon fill="black" stroke="black" points="1103.38,-651.293 1111.69,-644.711 1101.09,-644.68 1103.38,-651.293"/>
</g>
<!-- Moq.Language.Flow.ISetupGetter`2&#45;&gt;Moq.Language.IVerifies -->
<g id="edge20" class="edge"><title>Moq.Language.Flow.ISetupGetter`2&#45;&gt;Moq.Language.IVerifies</title>
<path fill="none" stroke="black" d="M998.337,-721.037C1241.92,-720.581 1730.57,-725.276 1896,-768 1944.57,-780.544 1995.52,-808.305 2028.18,-828.27"/>
<polygon fill="black" stroke="black" points="2026.54,-831.376 2036.88,-833.676 2030.23,-825.429 2026.54,-831.376"/>
</g>
<!-- Moq.Language.Flow.ISetupSetter`2 -->
<g id="node19" class="node"><title>Moq.Language.Flow.ISetupSetter`2</title>
<ellipse fill="none" stroke="black" cx="501" cy="-787" rx="141.075" ry="18"/>
<text text-anchor="middle" x="501" y="-783.3" font-family="Times New Roman,serif" font-size="14.00">Moq.Language.Flow.ISetupSetter`2</text>
</g>
<!-- Moq.Language.Flow.ISetupSetter`2&#45;&gt;Moq.Language.Flow.ICallbackResult -->
<g id="edge21" class="edge"><title>Moq.Language.Flow.ISetupSetter`2&#45;&gt;Moq.Language.Flow.ICallbackResult</title>
<path fill="none" stroke="black" d="M533.017,-804.661C597.019,-841.104 743.667,-924.606 814.815,-965.118"/>
<polygon fill="black" stroke="black" points="813.505,-968.4 823.927,-970.307 816.969,-962.317 813.505,-968.4"/>
</g>
<!-- Moq.Language.Flow.ISetupSetter`2&#45;&gt;Moq.IHideObjectMembers -->
<g id="edge22" class="edge"><title>Moq.Language.Flow.ISetupSetter`2&#45;&gt;Moq.IHideObjectMembers</title>
<path fill="none" stroke="black" d="M513.139,-768.943C538.445,-727.399 601.23,-621.359 642,-527 662.068,-480.554 636.954,-448.584 678,-419 704.749,-399.721 1422.72,-432 1446,-432 1446,-432 1446,-432 1762,-432 1859.01,-432 2122.19,-416.046 2196,-479 2274.47,-545.936 2323.42,-879.104 2336.47,-978.782"/>
<polygon fill="black" stroke="black" points="2333.04,-979.512 2337.79,-988.982 2339.98,-978.616 2333.04,-979.512"/>
</g>
<!-- Moq.Language.Flow.ISetupSetter`2&#45;&gt;Moq.Language.Flow.IThrowsResult -->
<g id="edge23" class="edge"><title>Moq.Language.Flow.ISetupSetter`2&#45;&gt;Moq.Language.Flow.IThrowsResult</title>
<path fill="none" stroke="black" d="M625.766,-795.423C733.68,-803.145 894.362,-815.552 1034,-830 1138.4,-840.802 1257.3,-856.135 1340.44,-867.352"/>
<polygon fill="black" stroke="black" points="1340.02,-870.827 1350.4,-868.699 1340.96,-863.89 1340.02,-870.827"/>
</g>
<!-- Moq.Language.Flow.ISetupSetter`2&#45;&gt;Moq.Language.IOccurrence -->
<g id="edge24" class="edge"><title>Moq.Language.Flow.ISetupSetter`2&#45;&gt;Moq.Language.IOccurrence</title>
<path fill="none" stroke="black" d="M564.891,-803.157C598.354,-811.462 640.275,-821.406 678,-829 1040.85,-902.044 1476.64,-966.807 1665.29,-993.737"/>
<polygon fill="black" stroke="black" points="1665.06,-997.239 1675.45,-995.185 1666.04,-990.309 1665.06,-997.239"/>
</g>
<!-- Moq.Language.Flow.ISetupSetter`2&#45;&gt;Moq.Language.IThrows -->
<g id="edge25" class="edge"><title>Moq.Language.Flow.ISetupSetter`2&#45;&gt;Moq.Language.IThrows</title>
<path fill="none" stroke="black" d="M528.409,-769.275C561.731,-747.86 621.527,-712.527 678,-695 830.21,-647.76 876.22,-674.471 1034,-652 1050.97,-649.583 1069.12,-646.763 1086.4,-643.965"/>
<polygon fill="black" stroke="black" points="1087.15,-647.389 1096.46,-642.324 1086.02,-640.48 1087.15,-647.389"/>
</g>
<!-- Moq.Language.Flow.ISetupSetter`2&#45;&gt;Moq.Language.IVerifies -->
<g id="edge26" class="edge"><title>Moq.Language.Flow.ISetupSetter`2&#45;&gt;Moq.Language.IVerifies</title>
<path fill="none" stroke="black" d="M639.455,-783.556C890.006,-778.809 1437.47,-775.509 1896,-822 1926.38,-825.08 1959.57,-830.428 1988.3,-835.699"/>
<polygon fill="black" stroke="black" points="1987.79,-839.165 1998.26,-837.556 1989.07,-832.283 1987.79,-839.165"/>
</g>
<!-- Moq.Language.Flow.ISetup`1 -->
<g id="node20" class="node"><title>Moq.Language.Flow.ISetup`1</title>
<ellipse fill="none" stroke="black" cx="162" cy="-920" rx="120.479" ry="18"/>
<text text-anchor="middle" x="162" y="-916.3" font-family="Times New Roman,serif" font-size="14.00">Moq.Language.Flow.ISetup`1</text>
</g>
<!-- Moq.Language.Flow.ISetup`1&#45;&gt;Moq.Language.Flow.ICallbackResult -->
<g id="edge27" class="edge"><title>Moq.Language.Flow.ISetup`1&#45;&gt;Moq.Language.Flow.ICallbackResult</title>
<path fill="none" stroke="black" d="M262.884,-929.815C386.455,-941.958 596.863,-962.634 730.738,-975.789"/>
<polygon fill="black" stroke="black" points="730.748,-979.307 741.043,-976.802 731.433,-972.341 730.748,-979.307"/>
</g>
<!-- Moq.Language.Flow.ISetup`1&#45;&gt;Moq.IHideObjectMembers -->
<g id="edge28" class="edge"><title>Moq.Language.Flow.ISetup`1&#45;&gt;Moq.IHideObjectMembers</title>
<path fill="none" stroke="black" d="M174.112,-937.947C211.469,-998.008 331.77,-1189.09 360,-1205 673.411,-1381.66 808.229,-1254 1168,-1254 1168,-1254 1168,-1254 1448,-1254 1647.29,-1254 1701.97,-1280.49 1896,-1235 1913.05,-1231 1915.82,-1225.69 1932,-1219 2048.11,-1171.03 2086.42,-1179.44 2196,-1118 2240.1,-1093.27 2285.39,-1056.03 2313.12,-1031.61"/>
<polygon fill="black" stroke="black" points="2315.65,-1034.05 2320.8,-1024.78 2311,-1028.82 2315.65,-1034.05"/>
</g>
<!-- Moq.Language.Flow.ISetup`1&#45;&gt;Moq.Language.Flow.IThrowsResult -->
<g id="edge29" class="edge"><title>Moq.Language.Flow.ISetup`1&#45;&gt;Moq.Language.Flow.IThrowsResult</title>
<path fill="none" stroke="black" d="M280.259,-916.527C514.365,-909.593 1039.28,-894.046 1297.21,-886.407"/>
<polygon fill="black" stroke="black" points="1297.51,-889.9 1307.4,-886.105 1297.3,-882.903 1297.51,-889.9"/>
</g>
<!-- Moq.Language.Flow.ISetup`1&#45;&gt;Moq.Language.IOccurrence -->
<g id="edge30" class="edge"><title>Moq.Language.Flow.ISetup`1&#45;&gt;Moq.Language.IOccurrence</title>
<path fill="none" stroke="black" d="M221.305,-935.704C260.351,-945.85 313.013,-958.824 360,-968 772.475,-1048.55 883.742,-1020.31 1304,-1023 1431.11,-1023.81 1463.03,-1028.96 1590,-1023 1611.96,-1021.97 1635.45,-1020.19 1657.76,-1018.19"/>
<polygon fill="black" stroke="black" points="1658.28,-1021.66 1667.91,-1017.26 1657.63,-1014.69 1658.28,-1021.66"/>
</g>
<!-- Moq.Language.Flow.ISetup`1&#45;&gt;Moq.Language.IThrows -->
<g id="edge31" class="edge"><title>Moq.Language.Flow.ISetup`1&#45;&gt;Moq.Language.IThrows</title>
<path fill="none" stroke="black" d="M180.405,-902.164C212.933,-869.732 286.339,-800.698 360,-760 490.647,-687.817 531.316,-679.623 678,-652 808.46,-627.433 961.741,-624.628 1061.67,-626.191"/>
<polygon fill="black" stroke="black" points="1061.71,-629.693 1071.77,-626.367 1061.83,-622.694 1061.71,-629.693"/>
</g>
<!-- Moq.Language.Flow.ISetup`1&#45;&gt;Moq.Language.IVerifies -->
<g id="edge32" class="edge"><title>Moq.Language.Flow.ISetup`1&#45;&gt;Moq.Language.IVerifies</title>
<path fill="none" stroke="black" d="M171.347,-901.731C194.235,-853.722 262.816,-723.091 360,-656 480.978,-572.483 532.419,-585.42 678,-565 834.688,-543.022 876.29,-552.278 1034,-565 1271.61,-584.168 1874.76,-716.497 1896,-732 1922.36,-751.24 1907.64,-774.286 1932,-796 1950.37,-812.37 1974.31,-824.334 1996.7,-832.839"/>
<polygon fill="black" stroke="black" points="1995.58,-836.157 2006.17,-836.275 1997.97,-829.576 1995.58,-836.157"/>
</g>
<!-- Moq.Language.Flow.ISetup`1&#45;&gt;Moq.Language.ICallback -->
<g id="edge33" class="edge"><title>Moq.Language.Flow.ISetup`1&#45;&gt;Moq.Language.ICallback</title>
<path fill="none" stroke="black" d="M178.022,-938.069C208.478,-973.452 281.316,-1051.91 360,-1092 375.506,-1099.9 392.965,-1105.87 410.158,-1110.38"/>
<polygon fill="black" stroke="black" points="409.686,-1113.87 420.234,-1112.87 411.364,-1107.07 409.686,-1113.87"/>
</g>
<!-- Moq.Language.Flow.ISetup`2 -->
<g id="node21" class="node"><title>Moq.Language.Flow.ISetup`2</title>
<ellipse fill="none" stroke="black" cx="856" cy="-446" rx="120.479" ry="18"/>
<text text-anchor="middle" x="856" y="-442.3" font-family="Times New Roman,serif" font-size="14.00">Moq.Language.Flow.ISetup`2</text>
</g>
<!-- Moq.Language.Flow.ISetup`2&#45;&gt;Moq.IHideObjectMembers -->
<g id="edge34" class="edge"><title>Moq.Language.Flow.ISetup`2&#45;&gt;Moq.IHideObjectMembers</title>
<path fill="none" stroke="black" d="M943.614,-433.545C1058.27,-418.161 1266.87,-394 1446,-394 1446,-394 1446,-394 1762,-394 1858.59,-394 2121.7,-356.283 2196,-418 2284.86,-491.807 2327.19,-871.938 2337.47,-978.941"/>
<polygon fill="black" stroke="black" points="2333.99,-979.349 2338.41,-988.976 2340.96,-978.692 2333.99,-979.349"/>
</g>
<!-- Moq.Language.Flow.ISetup`2&#45;&gt;Moq.Language.IThrows -->
<g id="edge35" class="edge"><title>Moq.Language.Flow.ISetup`2&#45;&gt;Moq.Language.IThrows</title>
<path fill="none" stroke="black" d="M971.424,-451.291C993.137,-455.606 1014.99,-462.419 1034,-473 1089.33,-503.793 1132.12,-566.881 1153.32,-603.008"/>
<polygon fill="black" stroke="black" points="1150.47,-605.071 1158.48,-612.005 1156.54,-601.589 1150.47,-605.071"/>
</g>
<!-- Moq.Language.Flow.ISetup`2&#45;&gt;Moq.Language.IVerifies -->
<g id="edge36" class="edge"><title>Moq.Language.Flow.ISetup`2&#45;&gt;Moq.Language.IVerifies</title>
<path fill="none" stroke="black" d="M967.894,-452.697C1165.87,-468.745 1588.2,-521.776 1896,-692 1958.27,-726.437 2014.58,-789.707 2043.18,-825.168"/>
<polygon fill="black" stroke="black" points="2040.55,-827.484 2049.52,-833.131 2046.03,-823.126 2040.55,-827.484"/>
</g>
<!-- Moq.Language.ICallbackGetter`2 -->
<g id="node22" class="node"><title>Moq.Language.ICallbackGetter`2</title>
<ellipse fill="none" stroke="black" cx="2064" cy="-1408" rx="131.877" ry="18"/>
<text text-anchor="middle" x="2064" y="-1404.3" font-family="Times New Roman,serif" font-size="14.00">Moq.Language.ICallbackGetter`2</text>
</g>
<!-- Moq.Language.ICallbackGetter`2&#45;&gt;Moq.IHideObjectMembers -->
<g id="edge42" class="edge"><title>Moq.Language.ICallbackGetter`2&#45;&gt;Moq.IHideObjectMembers</title>
<path fill="none" stroke="black" d="M2169.04,-1396.98C2178.81,-1392.97 2188.03,-1387.76 2196,-1381 2304.3,-1289.17 2331.44,-1106.07 2338,-1035.58"/>
<polygon fill="black" stroke="black" points="2341.52,-1035.52 2338.88,-1025.26 2334.54,-1034.93 2341.52,-1035.52"/>
</g>
<!-- Moq.Language.ICallbackSetter`1 -->
<g id="node23" class="node"><title>Moq.Language.ICallbackSetter`1</title>
<ellipse fill="none" stroke="black" cx="501" cy="-1178" rx="130.777" ry="18"/>
<text text-anchor="middle" x="501" y="-1174.3" font-family="Times New Roman,serif" font-size="14.00">Moq.Language.ICallbackSetter`1</text>
</g>
<!-- Moq.Language.ICallbackSetter`1&#45;&gt;Moq.Language.Flow.ICallbackResult -->
<g id="edge43" class="edge"><title>Moq.Language.ICallbackSetter`1&#45;&gt;Moq.Language.Flow.ICallbackResult</title>
<path fill="none" stroke="black" d="M597.22,-1165.81C612.567,-1162.11 627.998,-1157.28 642,-1151 718.546,-1116.65 792.858,-1049.9 830.161,-1013.38"/>
<polygon fill="black" stroke="black" points="832.902,-1015.59 837.547,-1006.07 827.978,-1010.62 832.902,-1015.59"/>
</g>
<!-- Moq.Language.ICallbackSetter`1&#45;&gt;Moq.IHideObjectMembers -->
<g id="edge44" class="edge"><title>Moq.Language.ICallbackSetter`1&#45;&gt;Moq.IHideObjectMembers</title>
<path fill="none" stroke="black" d="M631.807,-1177.68C975.33,-1175.72 1901.95,-1162.87 2196,-1082 2236.1,-1070.97 2277.8,-1047.75 2305.95,-1030.04"/>
<polygon fill="black" stroke="black" points="2308.05,-1032.85 2314.59,-1024.51 2304.28,-1026.96 2308.05,-1032.85"/>
</g>
<!-- Moq.Language.ICallback`2 -->
<g id="node24" class="node"><title>Moq.Language.ICallback`2</title>
<ellipse fill="none" stroke="black" cx="2064" cy="-1354" rx="109.681" ry="18"/>
<text text-anchor="middle" x="2064" y="-1350.3" font-family="Times New Roman,serif" font-size="14.00">Moq.Language.ICallback`2</text>
</g>
<!-- Moq.Language.ICallback`2&#45;&gt;Moq.IHideObjectMembers -->
<g id="edge45" class="edge"><title>Moq.Language.ICallback`2&#45;&gt;Moq.IHideObjectMembers</title>
<path fill="none" stroke="black" d="M2160.69,-1345.42C2173.45,-1341.21 2185.67,-1335.28 2196,-1327 2291.05,-1250.83 2325.46,-1098.45 2335.98,-1035.36"/>
<polygon fill="black" stroke="black" points="2339.46,-1035.77 2337.57,-1025.34 2332.55,-1034.67 2339.46,-1035.77"/>
</g>
<!-- Moq.Language.IRaise`1 -->
<g id="node25" class="node"><title>Moq.Language.IRaise`1</title>
<ellipse fill="none" stroke="black" cx="1761" cy="-1208" rx="98.2828" ry="18"/>
<text text-anchor="middle" x="1761" y="-1204.3" font-family="Times New Roman,serif" font-size="14.00">Moq.Language.IRaise`1</text>
</g>
<!-- Moq.Language.IRaise`1&#45;&gt;Moq.IHideObjectMembers -->
<g id="edge48" class="edge"><title>Moq.Language.IRaise`1&#45;&gt;Moq.IHideObjectMembers</title>
<path fill="none" stroke="black" d="M1768.81,-1226.06C1787.02,-1271.44 1841.74,-1389.83 1932,-1435 1984.46,-1461.26 2148.36,-1469.24 2196,-1435 2328.86,-1339.52 2340.8,-1115.3 2340.68,-1035.67"/>
<polygon fill="black" stroke="black" points="2344.17,-1035.4 2340.59,-1025.43 2337.17,-1035.46 2344.17,-1035.4"/>
</g>
<!-- Moq.Language.IRaise`1&#45;&gt;Moq.Language.IVerifies -->
<g id="edge49" class="edge"><title>Moq.Language.IRaise`1&#45;&gt;Moq.Language.IVerifies</title>
<path fill="none" stroke="black" d="M1777.34,-1189.81C1826.96,-1130.96 1983.22,-945.621 2041.13,-876.939"/>
<polygon fill="black" stroke="black" points="2043.92,-879.059 2047.69,-869.158 2038.57,-874.547 2043.92,-879.059"/>
</g>
<!-- Moq.Language.IReturnsGetter`2 -->
<g id="node26" class="node"><title>Moq.Language.IReturnsGetter`2</title>
<ellipse fill="none" stroke="black" cx="2064" cy="-1300" rx="128.877" ry="18"/>
<text text-anchor="middle" x="2064" y="-1296.3" font-family="Times New Roman,serif" font-size="14.00">Moq.Language.IReturnsGetter`2</text>
</g>
<!-- Moq.Language.IReturnsGetter`2&#45;&gt;Moq.IHideObjectMembers -->
<g id="edge50" class="edge"><title>Moq.Language.IReturnsGetter`2&#45;&gt;Moq.IHideObjectMembers</title>
<path fill="none" stroke="black" d="M2165.52,-1288.9C2176.43,-1284.96 2186.87,-1279.79 2196,-1273 2278.17,-1211.95 2318.7,-1089.64 2333.36,-1034.76"/>
<polygon fill="black" stroke="black" points="2336.76,-1035.59 2335.87,-1025.03 2329.98,-1033.83 2336.76,-1035.59"/>
</g>
<!-- Moq.Language.IReturns`2 -->
<g id="node27" class="node"><title>Moq.Language.IReturns`2</title>
<ellipse fill="none" stroke="black" cx="2064" cy="-1246" rx="106.681" ry="18"/>
<text text-anchor="middle" x="2064" y="-1242.3" font-family="Times New Roman,serif" font-size="14.00">Moq.Language.IReturns`2</text>
</g>
<!-- Moq.Language.IReturns`2&#45;&gt;Moq.IHideObjectMembers -->
<g id="edge51" class="edge"><title>Moq.Language.IReturns`2&#45;&gt;Moq.IHideObjectMembers</title>
<path fill="none" stroke="black" d="M2148.86,-1235.05C2165.43,-1230.33 2182,-1223.6 2196,-1214 2263.29,-1167.84 2308.93,-1079.15 2328.78,-1034.34"/>
<polygon fill="black" stroke="black" points="2332.08,-1035.54 2332.84,-1024.97 2325.65,-1032.75 2332.08,-1035.54"/>
</g>
<!-- Moq.Match`1 -->
<g id="node28" class="node"><title>Moq.Match`1</title>
<ellipse fill="none" stroke="black" cx="162" cy="-1538" rx="61.1893" ry="18"/>
<text text-anchor="middle" x="162" y="-1534.3" font-family="Times New Roman,serif" font-size="14.00">Moq.Match`1</text>
</g>
<!-- Moq.Match -->
<g id="node29" class="node"><title>Moq.Match</title>
<ellipse fill="none" stroke="black" cx="501" cy="-1538" rx="53.8905" ry="18"/>
<text text-anchor="middle" x="501" y="-1534.3" font-family="Times New Roman,serif" font-size="14.00">Moq.Match</text>
</g>
<!-- Moq.Match`1&#45;&gt;Moq.Match -->
<g id="edge55" class="edge"><title>Moq.Match`1&#45;&gt;Moq.Match</title>
<path fill="none" stroke="black" d="M223.249,-1538C283.382,-1538 375.414,-1538 436.625,-1538"/>
<polygon fill="black" stroke="black" points="436.927,-1541.5 446.927,-1538 436.927,-1534.5 436.927,-1541.5"/>
</g>
<!-- Moq.MockExtensions -->
<g id="node32" class="node"><title>Moq.MockExtensions</title>
<ellipse fill="none" stroke="black" cx="1761" cy="-294" rx="91.784" ry="18"/>
<text text-anchor="middle" x="1761" y="-290.3" font-family="Times New Roman,serif" font-size="14.00">Moq.MockExtensions</text>
</g>
<!-- Moq.Times -->
<g id="node33" class="node"><title>Moq.Times</title>
<ellipse fill="none" stroke="black" cx="2064" cy="-310" rx="53.0913" ry="18"/>
<text text-anchor="middle" x="2064" y="-306.3" font-family="Times New Roman,serif" font-size="14.00">Moq.Times</text>
</g>
<!-- Moq.MockExtensions&#45;&gt;Moq.Times -->
<g id="edge59" class="edge"><title>Moq.MockExtensions&#45;&gt;Moq.Times</title>
<path fill="none" stroke="black" d="M1849.87,-298.671C1898.39,-301.25 1957.47,-304.39 2001.11,-306.71"/>
<polygon fill="black" stroke="black" points="2001.12,-310.216 2011.3,-307.252 2001.5,-303.226 2001.12,-310.216"/>
</g>
<!-- Moq.Times&#45;&gt;Moq.Range -->
<g id="edge71" class="edge"><title>Moq.Times&#45;&gt;Moq.Range</title>
<path fill="none" stroke="black" d="M2110.41,-301.083C2158.04,-291.731 2232.94,-277.023 2284.15,-266.967"/>
<polygon fill="black" stroke="black" points="2284.92,-270.382 2294.06,-265.02 2283.58,-263.513 2284.92,-270.382"/>
</g>
<!-- Moq.MockFactory -->
<g id="node34" class="node"><title>Moq.MockFactory</title>
<ellipse fill="none" stroke="black" cx="2064" cy="-18" rx="80.6858" ry="18"/>
<text text-anchor="middle" x="2064" y="-14.3" font-family="Times New Roman,serif" font-size="14.00">Moq.MockFactory</text>
</g>
<!-- Moq.MockFactory&#45;&gt;Moq.DefaultValue -->
<g id="edge60" class="edge"><title>Moq.MockFactory&#45;&gt;Moq.DefaultValue</title>
<path fill="none" stroke="black" d="M2143.8,-20.8656C2178.33,-22.121 2218.93,-23.5975 2254.22,-24.8806"/>
<polygon fill="black" stroke="black" points="2254.38,-28.3887 2264.5,-25.2545 2254.63,-21.3933 2254.38,-28.3887"/>
</g>
<!-- Moq.MockFactory&#45;&gt;Moq.MockBehavior -->
<g id="edge61" class="edge"><title>Moq.MockFactory&#45;&gt;Moq.MockBehavior</title>
<path fill="none" stroke="black" d="M2120.25,-31.0066C2143.67,-36.6454 2171.22,-43.4471 2196,-50 2224.08,-57.4235 2255.07,-66.1766 2281.1,-73.6849"/>
<polygon fill="black" stroke="black" points="2280.23,-77.0778 2290.81,-76.4962 2282.18,-70.3538 2280.23,-77.0778"/>
</g>
<!-- Moq.MockRepository -->
<g id="node35" class="node"><title>Moq.MockRepository</title>
<ellipse fill="none" stroke="black" cx="1761" cy="-35" rx="92.8835" ry="18"/>
<text text-anchor="middle" x="1761" y="-31.3" font-family="Times New Roman,serif" font-size="14.00">Moq.MockRepository</text>
</g>
<!-- Moq.MockRepository&#45;&gt;Moq.MockBehavior -->
<g id="edge62" class="edge"><title>Moq.MockRepository&#45;&gt;Moq.MockBehavior</title>
<path fill="none" stroke="black" d="M1844.51,-42.9937C1953.09,-53.5142 2143.09,-71.9225 2253.59,-82.6282"/>
<polygon fill="black" stroke="black" points="2253.41,-86.1271 2263.7,-83.6078 2254.09,-79.1597 2253.41,-86.1271"/>
</g>
<!-- Moq.MockRepository&#45;&gt;Moq.MockFactory -->
<g id="edge63" class="edge"><title>Moq.MockRepository&#45;&gt;Moq.MockFactory</title>
<path fill="none" stroke="black" d="M1850.68,-29.9914C1890.08,-27.766 1936.33,-25.1541 1975.59,-22.937"/>
<polygon fill="black" stroke="black" points="1975.88,-26.426 1985.67,-22.3676 1975.49,-19.4371 1975.88,-26.426"/>
</g>
<!-- Moq.MockSequenceHelper -->
<g id="node36" class="node"><title>Moq.MockSequenceHelper</title>
<ellipse fill="none" stroke="black" cx="162" cy="-1592" rx="111.28" ry="18"/>
<text text-anchor="middle" x="162" y="-1588.3" font-family="Times New Roman,serif" font-size="14.00">Moq.MockSequenceHelper</text>
</g>
<!-- Moq.MockSequence -->
<g id="node37" class="node"><title>Moq.MockSequence</title>
<ellipse fill="none" stroke="black" cx="501" cy="-1592" rx="87.1846" ry="18"/>
<text text-anchor="middle" x="501" y="-1588.3" font-family="Times New Roman,serif" font-size="14.00">Moq.MockSequence</text>
</g>
<!-- Moq.MockSequenceHelper&#45;&gt;Moq.MockSequence -->
<g id="edge64" class="edge"><title>Moq.MockSequenceHelper&#45;&gt;Moq.MockSequence</title>
<path fill="none" stroke="black" d="M273.346,-1592C315.375,-1592 362.906,-1592 403.547,-1592"/>
<polygon fill="black" stroke="black" points="403.724,-1595.5 413.723,-1592 403.723,-1588.5 403.724,-1595.5"/>
</g>
<!-- Moq.Mock`1 -->
<g id="node38" class="node"><title>Moq.Mock`1</title>
<ellipse fill="none" stroke="black" cx="1761" cy="-160" rx="59.5901" ry="18"/>
<text text-anchor="middle" x="1761" y="-156.3" font-family="Times New Roman,serif" font-size="14.00">Moq.Mock`1</text>
</g>
<!-- Moq.Mock`1&#45;&gt;Moq.Mock -->
<g id="edge65" class="edge"><title>Moq.Mock`1&#45;&gt;Moq.Mock</title>
<path fill="none" stroke="black" d="M1813.74,-151.405C1867.54,-142.468 1951.49,-128.523 2006.87,-119.325"/>
<polygon fill="black" stroke="black" points="2007.57,-122.756 2016.86,-117.665 2006.42,-115.851 2007.57,-122.756"/>
</g>
<!-- Moq.Mock`1&#45;&gt;Moq.MockBehavior -->
<g id="edge66" class="edge"><title>Moq.Mock`1&#45;&gt;Moq.MockBehavior</title>
<path fill="none" stroke="black" d="M1820.82,-161.621C1904.78,-162.867 2063.52,-161.254 2196,-137 2228.07,-131.128 2262.93,-120.121 2290.32,-110.346"/>
<polygon fill="black" stroke="black" points="2291.85,-113.515 2300.05,-106.813 2289.46,-106.936 2291.85,-113.515"/>
</g>
<!-- Moq.Mock`1&#45;&gt;Moq.Times -->
<g id="edge67" class="edge"><title>Moq.Mock`1&#45;&gt;Moq.Times</title>
<path fill="none" stroke="black" d="M1780.22,-177.305C1809.67,-204.263 1870.66,-255.987 1932,-283 1954.21,-292.782 1980.13,-299.078 2003.02,-303.103"/>
<polygon fill="black" stroke="black" points="2002.52,-306.568 2012.96,-304.744 2003.66,-299.662 2002.52,-306.568"/>
</g>
<!-- Moq.Protected.IProtectedMock`1 -->
<g id="node39" class="node"><title>Moq.Protected.IProtectedMock`1</title>
<ellipse fill="none" stroke="black" cx="1761" cy="-348" rx="135.376" ry="18"/>
<text text-anchor="middle" x="1761" y="-344.3" font-family="Times New Roman,serif" font-size="14.00">Moq.Protected.IProtectedMock`1</text>
</g>
<!-- Moq.Protected.IProtectedMock`1&#45;&gt;Moq.IHideObjectMembers -->
<g id="edge68" class="edge"><title>Moq.Protected.IProtectedMock`1&#45;&gt;Moq.IHideObjectMembers</title>
<path fill="none" stroke="black" d="M1886.59,-341.317C1998.2,-338.093 2151.03,-341.402 2196,-380 2289.4,-460.168 2328.71,-867.075 2337.84,-978.663"/>
<polygon fill="black" stroke="black" points="2334.36,-979.117 2338.65,-988.806 2341.34,-978.558 2334.36,-979.117"/>
</g>
<!-- Moq.Protected.IProtectedMock`1&#45;&gt;Moq.Times -->
<g id="edge69" class="edge"><title>Moq.Protected.IProtectedMock`1&#45;&gt;Moq.Times</title>
<path fill="none" stroke="black" d="M1859.73,-335.662C1907.2,-329.669 1962.7,-322.663 2003.7,-317.487"/>
<polygon fill="black" stroke="black" points="2004.31,-320.937 2013.8,-316.212 2003.44,-313.992 2004.31,-320.937"/>
</g>
<!-- Moq.Protected.ItExpr -->
<g id="node40" class="node"><title>Moq.Protected.ItExpr</title>
<ellipse fill="none" stroke="black" cx="2064" cy="-202" rx="90.9839" ry="18"/>
<text text-anchor="middle" x="2064" y="-198.3" font-family="Times New Roman,serif" font-size="14.00">Moq.Protected.ItExpr</text>
</g>
<!-- Moq.Protected.ItExpr&#45;&gt;Moq.Range -->
<g id="edge70" class="edge"><title>Moq.Protected.ItExpr&#45;&gt;Moq.Range</title>
<path fill="none" stroke="black" d="M2129.13,-214.592C2176.05,-223.806 2239.09,-236.185 2283.99,-245.003"/>
<polygon fill="black" stroke="black" points="2283.37,-248.447 2293.86,-246.939 2284.72,-241.578 2283.37,-248.447"/>
</g>
</g>
</svg>
