<?xml version="1.0" encoding="UTF-8" standalone="no"?>
<!DOCTYPE svg PUBLIC "-//W3C//DTD SVG 1.1//EN"
 "http://www.w3.org/Graphics/SVG/1.1/DTD/svg11.dtd">
<!-- Generated by graphviz version 2.30.1 (20130214.1330)
 -->
<!-- Title: G Pages: 1 -->
<svg width="3534pt" height="1135pt"
 viewBox="0.00 0.00 3534.00 1135.47" xmlns="http://www.w3.org/2000/svg" xmlns:xlink="http://www.w3.org/1999/xlink">
<g id="graph0" class="graph" transform="scale(1 1) rotate(0) translate(4 1131.47)">
<title>G</title>
<polygon fill="white" stroke="white" points="-4,5 -4,-1131.47 3531,-1131.47 3531,5 -4,5"/>
<!-- Nancy.AfterPipeline -->
<g id="node1" class="node"><title>Nancy.AfterPipeline</title>
<ellipse fill="none" stroke="black" cx="187" cy="-767.473" rx="83.3857" ry="18"/>
<text text-anchor="middle" x="187" y="-763.773" font-family="Times New Roman,serif" font-size="14.00">Nancy.AfterPipeline</text>
</g>
<!-- Nancy.NancyContext -->
<g id="node2" class="node"><title>Nancy.NancyContext</title>
<ellipse fill="none" stroke="black" cx="564" cy="-539.473" rx="89.0842" ry="18"/>
<text text-anchor="middle" x="564" y="-535.773" font-family="Times New Roman,serif" font-size="14.00">Nancy.NancyContext</text>
</g>
<!-- Nancy.AfterPipeline&#45;&gt;Nancy.NancyContext -->
<g id="edge1" class="edge"><title>Nancy.AfterPipeline&#45;&gt;Nancy.NancyContext</title>
<path fill="none" stroke="black" d="M215.88,-750.523C282.592,-709.962 451.424,-607.312 526.286,-561.795"/>
<polygon fill="black" stroke="black" points="528.211,-564.722 534.937,-556.536 524.574,-558.74 528.211,-564.722"/>
</g>
<!-- Nancy.Diagnostics.RequestTrace -->
<g id="node15" class="node"><title>Nancy.Diagnostics.RequestTrace</title>
<ellipse fill="none" stroke="black" cx="899" cy="-474.473" rx="131.877" ry="18"/>
<text text-anchor="middle" x="899" y="-470.773" font-family="Times New Roman,serif" font-size="14.00">Nancy.Diagnostics.RequestTrace</text>
</g>
<!-- Nancy.NancyContext&#45;&gt;Nancy.Diagnostics.RequestTrace -->
<g id="edge42" class="edge"><title>Nancy.NancyContext&#45;&gt;Nancy.Diagnostics.RequestTrace</title>
<path fill="none" stroke="black" d="M628.812,-527.018C680.922,-516.846 755.05,-502.377 812.327,-491.196"/>
<polygon fill="black" stroke="black" points="813.31,-494.571 822.454,-489.22 811.968,-487.7 813.31,-494.571"/>
</g>
<!-- Nancy.DynamicDictionary -->
<g id="node18" class="node"><title>Nancy.DynamicDictionary</title>
<ellipse fill="none" stroke="black" cx="3419" cy="-312.473" rx="106.681" ry="18"/>
<text text-anchor="middle" x="3419" y="-308.773" font-family="Times New Roman,serif" font-size="14.00">Nancy.DynamicDictionary</text>
</g>
<!-- Nancy.NancyContext&#45;&gt;Nancy.DynamicDictionary -->
<g id="edge43" class="edge"><title>Nancy.NancyContext&#45;&gt;Nancy.DynamicDictionary</title>
<path fill="none" stroke="black" d="M566.012,-521.136C571.042,-449.44 599.773,-186.308 754,-69.4735 911.507,49.8458 998.401,-21.4735 1196,-21.4735 1196,-21.4735 1196,-21.4735 2800,-21.4735 3024.35,-21.4735 3084.98,-71.8181 3276,-189.473 3321.69,-217.616 3367.31,-260.391 3394.07,-287.365"/>
<polygon fill="black" stroke="black" points="3391.6,-289.845 3401.1,-294.529 3396.59,-284.941 3391.6,-289.845"/>
</g>
<!-- Nancy.Request -->
<g id="node23" class="node"><title>Nancy.Request</title>
<ellipse fill="none" stroke="black" cx="2799" cy="-289.473" rx="66.0889" ry="18"/>
<text text-anchor="middle" x="2799" y="-285.773" font-family="Times New Roman,serif" font-size="14.00">Nancy.Request</text>
</g>
<!-- Nancy.NancyContext&#45;&gt;Nancy.Request -->
<g id="edge44" class="edge"><title>Nancy.NancyContext&#45;&gt;Nancy.Request</title>
<path fill="none" stroke="black" d="M568.225,-521.111C580.04,-459.952 627.089,-262.304 754,-178.473 918.426,-69.862 998.941,-143.473 1196,-143.473 1196,-143.473 1196,-143.473 1817,-143.473 2167.08,-143.473 2261.72,-126.193 2602,-208.473 2658.42,-222.115 2719.67,-249.671 2758.42,-268.831"/>
<polygon fill="black" stroke="black" points="2757.26,-272.164 2767.77,-273.508 2760.39,-265.904 2757.26,-272.164"/>
</g>
<!-- Nancy.BeforePipeline -->
<g id="node3" class="node"><title>Nancy.BeforePipeline</title>
<ellipse fill="none" stroke="black" cx="3136" cy="-583.473" rx="89.0842" ry="18"/>
<text text-anchor="middle" x="3136" y="-579.773" font-family="Times New Roman,serif" font-size="14.00">Nancy.BeforePipeline</text>
</g>
<!-- Nancy.BeforePipeline&#45;&gt;Nancy.NancyContext -->
<g id="edge2" class="edge"><title>Nancy.BeforePipeline&#45;&gt;Nancy.NancyContext</title>
<path fill="none" stroke="black" d="M3095.79,-599.583C3008.78,-634.351 2792.22,-715.538 2602,-743.473 2195.48,-803.173 1140.02,-825.224 754,-684.473 684.826,-659.251 620.456,-598.981 587.664,-564.61"/>
<polygon fill="black" stroke="black" points="590.176,-562.172 580.778,-557.282 585.076,-566.966 590.176,-562.172"/>
</g>
<!-- Nancy.Bootstrapper.AppDomainAssemblyTypeScanner -->
<g id="node4" class="node"><title>Nancy.Bootstrapper.AppDomainAssemblyTypeScanner</title>
<ellipse fill="none" stroke="black" cx="1816" cy="-455.473" rx="215.562" ry="18"/>
<text text-anchor="middle" x="1816" y="-451.773" font-family="Times New Roman,serif" font-size="14.00">Nancy.Bootstrapper.AppDomainAssemblyTypeScanner</text>
</g>
<!-- Nancy.NancyEngine -->
<g id="node5" class="node"><title>Nancy.NancyEngine</title>
<ellipse fill="none" stroke="black" cx="2153" cy="-491.473" rx="84.485" ry="18"/>
<text text-anchor="middle" x="2153" y="-487.773" font-family="Times New Roman,serif" font-size="14.00">Nancy.NancyEngine</text>
</g>
<!-- Nancy.Bootstrapper.AppDomainAssemblyTypeScanner&#45;&gt;Nancy.NancyEngine -->
<g id="edge3" class="edge"><title>Nancy.Bootstrapper.AppDomainAssemblyTypeScanner&#45;&gt;Nancy.NancyEngine</title>
<path fill="none" stroke="black" d="M1949.4,-469.702C1988.85,-473.941 2031.02,-478.473 2066.62,-482.298"/>
<polygon fill="black" stroke="black" points="2066.64,-485.82 2076.96,-483.409 2067.39,-478.861 2066.64,-485.82"/>
</g>
<!-- Nancy.NancyEngine&#45;&gt;Nancy.AfterPipeline -->
<g id="edge45" class="edge"><title>Nancy.NancyEngine&#45;&gt;Nancy.AfterPipeline</title>
<path fill="none" stroke="black" d="M2119.62,-508.117C2000.41,-567.788 1573.44,-767.473 1198,-767.473 898,-767.473 898,-767.473 898,-767.473 676.503,-767.473 416.137,-767.473 280.6,-767.473"/>
<polygon fill="black" stroke="black" points="280.264,-763.974 270.264,-767.473 280.264,-770.974 280.264,-763.974"/>
</g>
<!-- Nancy.NancyEngine&#45;&gt;Nancy.NancyContext -->
<g id="edge46" class="edge"><title>Nancy.NancyEngine&#45;&gt;Nancy.NancyContext</title>
<path fill="none" stroke="black" d="M2074.56,-498.276C2060.41,-499.42 2045.77,-500.538 2032,-501.473 1593.29,-531.291 1483.57,-541.914 1044,-553.473 915.156,-556.862 882.801,-558.237 754,-553.473 722.096,-552.293 687.225,-549.997 656.219,-547.599"/>
<polygon fill="black" stroke="black" points="656.106,-544.08 645.863,-546.784 655.557,-551.058 656.106,-544.08"/>
</g>
<!-- Nancy.NancyEngine&#45;&gt;Nancy.BeforePipeline -->
<g id="edge47" class="edge"><title>Nancy.NancyEngine&#45;&gt;Nancy.BeforePipeline</title>
<path fill="none" stroke="black" d="M2174.9,-508.962C2197.63,-526.778 2235.85,-553.325 2274,-564.473 2414.64,-605.569 2844.6,-594.876 3038.44,-587.605"/>
<polygon fill="black" stroke="black" points="3038.75,-591.096 3048.61,-587.218 3038.49,-584.101 3038.75,-591.096"/>
</g>
<!-- Nancy.Bootstrapper.IPipelines -->
<g id="node6" class="node"><title>Nancy.Bootstrapper.IPipelines</title>
<ellipse fill="none" stroke="black" cx="2799" cy="-537.473" rx="122.379" ry="18"/>
<text text-anchor="middle" x="2799" y="-533.773" font-family="Times New Roman,serif" font-size="14.00">Nancy.Bootstrapper.IPipelines</text>
</g>
<!-- Nancy.NancyEngine&#45;&gt;Nancy.Bootstrapper.IPipelines -->
<g id="edge48" class="edge"><title>Nancy.NancyEngine&#45;&gt;Nancy.Bootstrapper.IPipelines</title>
<path fill="none" stroke="black" d="M2237.55,-492.66C2327.65,-494.489 2475.23,-499.079 2602,-510.473 2635.79,-513.511 2672.69,-518.224 2705.26,-522.868"/>
<polygon fill="black" stroke="black" points="2704.83,-526.341 2715.23,-524.305 2705.83,-519.413 2704.83,-526.341"/>
</g>
<!-- Nancy.ErrorPipeline -->
<g id="node7" class="node"><title>Nancy.ErrorPipeline</title>
<ellipse fill="none" stroke="black" cx="3136" cy="-491.473" rx="83.6854" ry="18"/>
<text text-anchor="middle" x="3136" y="-487.773" font-family="Times New Roman,serif" font-size="14.00">Nancy.ErrorPipeline</text>
</g>
<!-- Nancy.NancyEngine&#45;&gt;Nancy.ErrorPipeline -->
<g id="edge49" class="edge"><title>Nancy.NancyEngine&#45;&gt;Nancy.ErrorPipeline</title>
<path fill="none" stroke="black" d="M2234.97,-487.002C2380.27,-479.663 2694.83,-466.884 2960,-477.473 2989.02,-478.633 3020.69,-480.869 3049.01,-483.219"/>
<polygon fill="black" stroke="black" points="3049.02,-486.733 3059.28,-484.089 3049.61,-479.758 3049.02,-486.733"/>
</g>
<!-- Nancy.Diagnostics.IRequestTracing -->
<g id="node13" class="node"><title>Nancy.Diagnostics.IRequestTracing</title>
<ellipse fill="none" stroke="black" cx="2438" cy="-105.473" rx="141.875" ry="18"/>
<text text-anchor="middle" x="2438" y="-101.773" font-family="Times New Roman,serif" font-size="14.00">Nancy.Diagnostics.IRequestTracing</text>
</g>
<!-- Nancy.NancyEngine&#45;&gt;Nancy.Diagnostics.IRequestTracing -->
<g id="edge50" class="edge"><title>Nancy.NancyEngine&#45;&gt;Nancy.Diagnostics.IRequestTracing</title>
<path fill="none" stroke="black" d="M2157.72,-473.244C2168.33,-425.094 2202.66,-292.465 2274,-208.473 2304.64,-172.406 2351.14,-144.763 2386.65,-127.24"/>
<polygon fill="black" stroke="black" points="2388.4,-130.282 2395.88,-122.785 2385.36,-123.977 2388.4,-130.282"/>
</g>
<!-- Nancy.NancyEngine&#45;&gt;Nancy.Diagnostics.RequestTrace -->
<g id="edge51" class="edge"><title>Nancy.NancyEngine&#45;&gt;Nancy.Diagnostics.RequestTrace</title>
<path fill="none" stroke="black" d="M2068.34,-490.337C1857.53,-487.475 1302.74,-479.942 1040.78,-476.385"/>
<polygon fill="black" stroke="black" points="1040.49,-472.881 1030.44,-476.245 1040.39,-479.88 1040.49,-472.881"/>
</g>
<!-- Nancy.StaticConfiguration -->
<g id="node17" class="node"><title>Nancy.StaticConfiguration</title>
<ellipse fill="none" stroke="black" cx="1457" cy="-390.473" rx="106.681" ry="18"/>
<text text-anchor="middle" x="1457" y="-386.773" font-family="Times New Roman,serif" font-size="14.00">Nancy.StaticConfiguration</text>
</g>
<!-- Nancy.NancyEngine&#45;&gt;Nancy.StaticConfiguration -->
<g id="edge52" class="edge"><title>Nancy.NancyEngine&#45;&gt;Nancy.StaticConfiguration</title>
<path fill="none" stroke="black" d="M2126.64,-474.122C2103.22,-459.107 2066.88,-438.305 2032,-428.473 1948.81,-405.021 1715.69,-395.91 1573.43,-392.469"/>
<polygon fill="black" stroke="black" points="1573.43,-388.968 1563.35,-392.231 1573.26,-395.966 1573.43,-388.968"/>
</g>
<!-- Nancy.ErrorHandling.IStatusCodeHandler -->
<g id="node19" class="node"><title>Nancy.ErrorHandling.IStatusCodeHandler</title>
<ellipse fill="none" stroke="black" cx="2438" cy="-683.473" rx="163.571" ry="18"/>
<text text-anchor="middle" x="2438" y="-679.773" font-family="Times New Roman,serif" font-size="14.00">Nancy.ErrorHandling.IStatusCodeHandler</text>
</g>
<!-- Nancy.NancyEngine&#45;&gt;Nancy.ErrorHandling.IStatusCodeHandler -->
<g id="edge53" class="edge"><title>Nancy.NancyEngine&#45;&gt;Nancy.ErrorHandling.IStatusCodeHandler</title>
<path fill="none" stroke="black" d="M2161.42,-509.468C2176.76,-544.233 2215.53,-620.377 2274,-656.473 2281.89,-661.342 2290.38,-665.412 2299.2,-668.807"/>
<polygon fill="black" stroke="black" points="2298.29,-672.198 2308.89,-672.232 2300.62,-665.599 2298.29,-672.198"/>
</g>
<!-- Nancy.INancyContextFactory -->
<g id="node22" class="node"><title>Nancy.INancyContextFactory</title>
<ellipse fill="none" stroke="black" cx="2438" cy="-289.473" rx="120.479" ry="18"/>
<text text-anchor="middle" x="2438" y="-285.773" font-family="Times New Roman,serif" font-size="14.00">Nancy.INancyContextFactory</text>
</g>
<!-- Nancy.NancyEngine&#45;&gt;Nancy.INancyContextFactory -->
<g id="edge54" class="edge"><title>Nancy.NancyEngine&#45;&gt;Nancy.INancyContextFactory</title>
<path fill="none" stroke="black" d="M2166.45,-473.42C2186.36,-445.689 2227.85,-392.373 2274,-359.473 2304.45,-337.764 2342.69,-320.899 2374.48,-309.168"/>
<polygon fill="black" stroke="black" points="2375.9,-312.376 2384.12,-305.693 2373.53,-305.791 2375.9,-312.376"/>
</g>
<!-- Nancy.NancyEngine&#45;&gt;Nancy.Request -->
<g id="edge55" class="edge"><title>Nancy.NancyEngine&#45;&gt;Nancy.Request</title>
<path fill="none" stroke="black" d="M2188.44,-475.128C2212.17,-464.218 2244.61,-449.998 2274,-439.473 2439.58,-380.181 2640.95,-327.916 2738.85,-303.729"/>
<polygon fill="black" stroke="black" points="2739.69,-307.126 2748.56,-301.337 2738.02,-300.329 2739.69,-307.126"/>
</g>
<!-- Nancy.INancyEngine -->
<g id="node24" class="node"><title>Nancy.INancyEngine</title>
<ellipse fill="none" stroke="black" cx="2438" cy="-537.473" rx="87.1846" ry="18"/>
<text text-anchor="middle" x="2438" y="-533.773" font-family="Times New Roman,serif" font-size="14.00">Nancy.INancyEngine</text>
</g>
<!-- Nancy.NancyEngine&#45;&gt;Nancy.INancyEngine -->
<g id="edge56" class="edge"><title>Nancy.NancyEngine&#45;&gt;Nancy.INancyEngine</title>
<path fill="none" stroke="black" d="M2220.71,-502.317C2262.1,-509.044 2315.46,-517.718 2358.83,-524.768"/>
<polygon fill="black" stroke="black" points="2358.34,-528.234 2368.77,-526.384 2359.46,-521.324 2358.34,-528.234"/>
</g>
<!-- Nancy.IStaticContentProvider -->
<g id="node25" class="node"><title>Nancy.IStaticContentProvider</title>
<ellipse fill="none" stroke="black" cx="2438" cy="-629.473" rx="120.479" ry="18"/>
<text text-anchor="middle" x="2438" y="-625.773" font-family="Times New Roman,serif" font-size="14.00">Nancy.IStaticContentProvider</text>
</g>
<!-- Nancy.NancyEngine&#45;&gt;Nancy.IStaticContentProvider -->
<g id="edge57" class="edge"><title>Nancy.NancyEngine&#45;&gt;Nancy.IStaticContentProvider</title>
<path fill="none" stroke="black" d="M2168.63,-509.303C2189.41,-533.355 2229.88,-575.688 2274,-597.473 2291.18,-605.955 2310.41,-612.189 2329.48,-616.772"/>
<polygon fill="black" stroke="black" points="2328.9,-620.229 2339.43,-619.021 2330.45,-613.402 2328.9,-620.229"/>
</g>
<!-- Nancy.Routing.IRequestDispatcher -->
<g id="node33" class="node"><title>Nancy.Routing.IRequestDispatcher</title>
<ellipse fill="none" stroke="black" cx="2438" cy="-235.473" rx="139.976" ry="18"/>
<text text-anchor="middle" x="2438" y="-231.773" font-family="Times New Roman,serif" font-size="14.00">Nancy.Routing.IRequestDispatcher</text>
</g>
<!-- Nancy.NancyEngine&#45;&gt;Nancy.Routing.IRequestDispatcher -->
<g id="edge58" class="edge"><title>Nancy.NancyEngine&#45;&gt;Nancy.Routing.IRequestDispatcher</title>
<path fill="none" stroke="black" d="M2157.73,-473.284C2167.82,-429.133 2199.99,-316.001 2274,-262.473 2282.81,-256.103 2292.58,-251.027 2302.84,-247.002"/>
<polygon fill="black" stroke="black" points="2304.14,-250.253 2312.38,-243.593 2301.79,-243.66 2304.14,-250.253"/>
</g>
<!-- Nancy.Bootstrapper.IPipelines&#45;&gt;Nancy.AfterPipeline -->
<g id="edge4" class="edge"><title>Nancy.Bootstrapper.IPipelines&#45;&gt;Nancy.AfterPipeline</title>
<path fill="none" stroke="black" d="M2786.73,-555.536C2760.28,-596.119 2689.75,-694.192 2602,-735.473 2285.05,-884.575 2167.27,-805.473 1817,-805.473 898,-805.473 898,-805.473 898,-805.473 672.877,-805.473 408.176,-786.188 274.54,-775.095"/>
<polygon fill="black" stroke="black" points="274.622,-771.59 264.365,-774.245 274.039,-778.565 274.622,-771.59"/>
</g>
<!-- Nancy.Bootstrapper.IPipelines&#45;&gt;Nancy.BeforePipeline -->
<g id="edge5" class="edge"><title>Nancy.Bootstrapper.IPipelines&#45;&gt;Nancy.BeforePipeline</title>
<path fill="none" stroke="black" d="M2888.89,-549.68C2939.4,-556.615 3002.23,-565.243 3051.77,-572.045"/>
<polygon fill="black" stroke="black" points="3051.43,-575.531 3061.81,-573.424 3052.38,-568.596 3051.43,-575.531"/>
</g>
<!-- Nancy.Bootstrapper.IPipelines&#45;&gt;Nancy.ErrorPipeline -->
<g id="edge6" class="edge"><title>Nancy.Bootstrapper.IPipelines&#45;&gt;Nancy.ErrorPipeline</title>
<path fill="none" stroke="black" d="M2888.89,-525.267C2940.49,-518.183 3004.95,-509.331 3054.95,-502.465"/>
<polygon fill="black" stroke="black" points="3055.64,-505.903 3065.07,-501.075 3054.69,-498.968 3055.64,-505.903"/>
</g>
<!-- Nancy.ErrorPipeline&#45;&gt;Nancy.NancyContext -->
<g id="edge20" class="edge"><title>Nancy.ErrorPipeline&#45;&gt;Nancy.NancyContext</title>
<path fill="none" stroke="black" d="M3052.79,-489.099C2919.62,-486.061 2668.47,-483.994 2638,-510.473 2569.83,-569.718 2671.29,-652.542 2602,-710.473 2504.15,-792.286 1585.55,-615.473 1458,-615.473 1196,-615.473 1196,-615.473 1196,-615.473 992.559,-615.473 754.852,-576.051 637.766,-553.992"/>
<polygon fill="black" stroke="black" points="638.316,-550.534 627.839,-552.109 637.012,-557.411 638.316,-550.534"/>
</g>
<!-- Nancy.Bootstrapper.NancyInternalConfiguration -->
<g id="node8" class="node"><title>Nancy.Bootstrapper.NancyInternalConfiguration</title>
<ellipse fill="none" stroke="black" cx="187" cy="-893.473" rx="186.567" ry="18"/>
<text text-anchor="middle" x="187" y="-889.773" font-family="Times New Roman,serif" font-size="14.00">Nancy.Bootstrapper.NancyInternalConfiguration</text>
</g>
<!-- Nancy.Diagnostics.DefaultDiagnostics -->
<g id="node9" class="node"><title>Nancy.Diagnostics.DefaultDiagnostics</title>
<ellipse fill="none" stroke="black" cx="564" cy="-893.473" rx="149.473" ry="18"/>
<text text-anchor="middle" x="564" y="-889.773" font-family="Times New Roman,serif" font-size="14.00">Nancy.Diagnostics.DefaultDiagnostics</text>
</g>
<!-- Nancy.Bootstrapper.NancyInternalConfiguration&#45;&gt;Nancy.Diagnostics.DefaultDiagnostics -->
<g id="edge7" class="edge"><title>Nancy.Bootstrapper.NancyInternalConfiguration&#45;&gt;Nancy.Diagnostics.DefaultDiagnostics</title>
<path fill="none" stroke="black" d="M360.134,-886.744C378.161,-886.696 396.379,-886.732 414.114,-886.852"/>
<polygon fill="black" stroke="black" points="414.469,-890.355 424.496,-886.933 414.523,-883.355 414.469,-890.355"/>
</g>
<!-- Nancy.Diagnostics.DefaultDiagnostics&#45;&gt;Nancy.Bootstrapper.NancyInternalConfiguration -->
<g id="edge10" class="edge"><title>Nancy.Diagnostics.DefaultDiagnostics&#45;&gt;Nancy.Bootstrapper.NancyInternalConfiguration</title>
<path fill="none" stroke="black" d="M424.496,-900.014C406.812,-900.169 388.502,-900.237 370.258,-900.221"/>
<polygon fill="black" stroke="black" points="370.141,-896.721 360.134,-900.203 370.128,-903.721 370.141,-896.721"/>
</g>
<!-- Nancy.Diagnostics.DiagnosticsHook -->
<g id="node12" class="node"><title>Nancy.Diagnostics.DiagnosticsHook</title>
<ellipse fill="none" stroke="black" cx="899" cy="-872.473" rx="144.075" ry="18"/>
<text text-anchor="middle" x="899" y="-868.773" font-family="Times New Roman,serif" font-size="14.00">Nancy.Diagnostics.DiagnosticsHook</text>
</g>
<!-- Nancy.Diagnostics.DefaultDiagnostics&#45;&gt;Nancy.Diagnostics.DiagnosticsHook -->
<g id="edge11" class="edge"><title>Nancy.Diagnostics.DefaultDiagnostics&#45;&gt;Nancy.Diagnostics.DiagnosticsHook</title>
<path fill="none" stroke="black" d="M697.089,-885.144C717.687,-883.845 739.021,-882.499 759.752,-881.192"/>
<polygon fill="black" stroke="black" points="760.115,-884.676 769.875,-880.553 759.674,-877.69 760.115,-884.676"/>
</g>
<!-- Nancy.Conventions.IConvention -->
<g id="node10" class="node"><title>Nancy.Conventions.IConvention</title>
<ellipse fill="none" stroke="black" cx="187" cy="-947.473" rx="129.977" ry="18"/>
<text text-anchor="middle" x="187" y="-943.773" font-family="Times New Roman,serif" font-size="14.00">Nancy.Conventions.IConvention</text>
</g>
<!-- Nancy.Conventions.NancyConventions -->
<g id="node11" class="node"><title>Nancy.Conventions.NancyConventions</title>
<ellipse fill="none" stroke="black" cx="564" cy="-947.473" rx="154.073" ry="18"/>
<text text-anchor="middle" x="564" y="-943.773" font-family="Times New Roman,serif" font-size="14.00">Nancy.Conventions.NancyConventions</text>
</g>
<!-- Nancy.Conventions.IConvention&#45;&gt;Nancy.Conventions.NancyConventions -->
<g id="edge8" class="edge"><title>Nancy.Conventions.IConvention&#45;&gt;Nancy.Conventions.NancyConventions</title>
<path fill="none" stroke="black" d="M308.717,-941.119C341.024,-940.72 376.374,-940.623 410.167,-940.827"/>
<polygon fill="black" stroke="black" points="410.576,-944.33 420.6,-940.9 410.625,-937.33 410.576,-944.33"/>
</g>
<!-- Nancy.Conventions.NancyConventions&#45;&gt;Nancy.Conventions.IConvention -->
<g id="edge9" class="edge"><title>Nancy.Conventions.NancyConventions&#45;&gt;Nancy.Conventions.IConvention</title>
<path fill="none" stroke="black" d="M420.6,-954.047C387.178,-954.313 351.723,-954.278 318.836,-953.942"/>
<polygon fill="black" stroke="black" points="318.755,-950.441 308.717,-953.828 318.676,-957.44 318.755,-950.441"/>
</g>
<!-- Nancy.Diagnostics.DiagnosticsHook&#45;&gt;Nancy.Bootstrapper.NancyInternalConfiguration -->
<g id="edge12" class="edge"><title>Nancy.Diagnostics.DiagnosticsHook&#45;&gt;Nancy.Bootstrapper.NancyInternalConfiguration</title>
<path fill="none" stroke="black" d="M760.425,-867.416C746.1,-867.03 731.756,-866.703 718,-866.473 581.13,-864.193 546.638,-858.195 410,-866.473 374.198,-868.643 335.326,-872.762 300.262,-877.142"/>
<polygon fill="black" stroke="black" points="299.476,-873.714 289.996,-878.445 300.357,-880.658 299.476,-873.714"/>
</g>
<!-- Nancy.Diagnostics.IRequestTracing&#45;&gt;Nancy.NancyContext -->
<g id="edge13" class="edge"><title>Nancy.Diagnostics.IRequestTracing&#45;&gt;Nancy.NancyContext</title>
<path fill="none" stroke="black" d="M2296.03,-105.473C2170.36,-105.473 1981.42,-105.473 1817,-105.473 1196,-105.473 1196,-105.473 1196,-105.473 999.266,-105.473 916.754,-18.9502 754,-129.473 619.271,-220.965 578.739,-434.034 568.25,-511.053"/>
<polygon fill="black" stroke="black" points="564.724,-511.033 566.913,-521.399 571.666,-511.93 564.724,-511.033"/>
</g>
<!-- Nancy.Diagnostics.RequestTraceSession -->
<g id="node14" class="node"><title>Nancy.Diagnostics.RequestTraceSession</title>
<ellipse fill="none" stroke="black" cx="2799" cy="-86.4735" rx="160.572" ry="18"/>
<text text-anchor="middle" x="2799" y="-82.7735" font-family="Times New Roman,serif" font-size="14.00">Nancy.Diagnostics.RequestTraceSession</text>
</g>
<!-- Nancy.Diagnostics.IRequestTracing&#45;&gt;Nancy.Diagnostics.RequestTraceSession -->
<g id="edge14" class="edge"><title>Nancy.Diagnostics.IRequestTracing&#45;&gt;Nancy.Diagnostics.RequestTraceSession</title>
<path fill="none" stroke="black" d="M2569.11,-98.5872C2593.19,-97.3131 2618.55,-95.971 2643.27,-94.6627"/>
<polygon fill="black" stroke="black" points="2643.64,-98.1478 2653.44,-94.1241 2643.27,-91.1576 2643.64,-98.1478"/>
</g>
<!-- Nancy.Diagnostics.RequestTraceSession&#45;&gt;Nancy.Diagnostics.RequestTrace -->
<g id="edge16" class="edge"><title>Nancy.Diagnostics.RequestTraceSession&#45;&gt;Nancy.Diagnostics.RequestTrace</title>
<path fill="none" stroke="black" d="M2671.56,-75.5071C2565.15,-68.4382 2409.15,-63.1333 2274,-78.4735 1728.34,-140.408 1594.67,-204.902 1080,-396.473 1033.71,-413.705 982.09,-436.449 946.043,-452.927"/>
<polygon fill="black" stroke="black" points="944.395,-449.832 936.767,-457.186 947.316,-456.194 944.395,-449.832"/>
</g>
<!-- Nancy.Diagnostics.TraceLog -->
<g id="node16" class="node"><title>Nancy.Diagnostics.TraceLog</title>
<ellipse fill="none" stroke="black" cx="1197" cy="-423.473" rx="116.979" ry="18"/>
<text text-anchor="middle" x="1197" y="-419.773" font-family="Times New Roman,serif" font-size="14.00">Nancy.Diagnostics.TraceLog</text>
</g>
<!-- Nancy.Diagnostics.RequestTrace&#45;&gt;Nancy.Diagnostics.TraceLog -->
<g id="edge15" class="edge"><title>Nancy.Diagnostics.RequestTrace&#45;&gt;Nancy.Diagnostics.TraceLog</title>
<path fill="none" stroke="black" d="M981.667,-460.402C1021.03,-453.621 1068.28,-445.48 1108.39,-438.569"/>
<polygon fill="black" stroke="black" points="1109.16,-441.987 1118.42,-436.84 1107.97,-435.089 1109.16,-441.987"/>
</g>
<!-- Nancy.Diagnostics.TraceLog&#45;&gt;Nancy.StaticConfiguration -->
<g id="edge17" class="edge"><title>Nancy.Diagnostics.TraceLog&#45;&gt;Nancy.StaticConfiguration</title>
<path fill="none" stroke="black" d="M1287.51,-412.024C1311.33,-408.978 1337.13,-405.678 1361.21,-402.597"/>
<polygon fill="black" stroke="black" points="1361.94,-406.032 1371.42,-401.292 1361.06,-399.089 1361.94,-406.032"/>
</g>
<!-- Nancy.StaticConfiguration&#45;&gt;Nancy.Bootstrapper.AppDomainAssemblyTypeScanner -->
<g id="edge65" class="edge"><title>Nancy.StaticConfiguration&#45;&gt;Nancy.Bootstrapper.AppDomainAssemblyTypeScanner</title>
<path fill="none" stroke="black" d="M1517.19,-405.353C1542.59,-411.444 1572.65,-418.269 1600,-423.473 1629.31,-429.051 1661.02,-434.236 1690.86,-438.738"/>
<polygon fill="black" stroke="black" points="1690.49,-442.222 1700.9,-440.238 1691.53,-435.299 1690.49,-442.222"/>
</g>
<!-- Nancy.DynamicDictionary&#45;&gt;Nancy.StaticConfiguration -->
<g id="edge18" class="edge"><title>Nancy.DynamicDictionary&#45;&gt;Nancy.StaticConfiguration</title>
<path fill="none" stroke="black" d="M3380.63,-329.377C3352.51,-341.167 3312.66,-355.916 3276,-362.473 3234.03,-369.979 1967.65,-384.763 1573.75,-389.191"/>
<polygon fill="black" stroke="black" points="1573.44,-385.694 1563.48,-389.306 1573.52,-392.694 1573.44,-385.694"/>
</g>
<!-- Nancy.ErrorHandling.IStatusCodeHandler&#45;&gt;Nancy.NancyContext -->
<g id="edge19" class="edge"><title>Nancy.ErrorHandling.IStatusCodeHandler&#45;&gt;Nancy.NancyContext</title>
<path fill="none" stroke="black" d="M2274.05,-682.863C2019.27,-681.666 1511.06,-678.308 1080,-669.473 935.073,-666.503 892.56,-702.06 754,-659.473 690.369,-639.917 627.285,-592.817 592.496,-563.781"/>
<polygon fill="black" stroke="black" points="594.582,-560.962 584.689,-557.17 590.058,-566.303 594.582,-560.962"/>
</g>
<!-- Nancy.Extensions.StringExtensions -->
<g id="node20" class="node"><title>Nancy.Extensions.StringExtensions</title>
<ellipse fill="none" stroke="black" cx="3136" cy="-335.473" rx="139.976" ry="18"/>
<text text-anchor="middle" x="3136" y="-331.773" font-family="Times New Roman,serif" font-size="14.00">Nancy.Extensions.StringExtensions</text>
</g>
<!-- Nancy.Extensions.StringExtensions&#45;&gt;Nancy.StaticConfiguration -->
<g id="edge21" class="edge"><title>Nancy.Extensions.StringExtensions&#45;&gt;Nancy.StaticConfiguration</title>
<path fill="none" stroke="black" d="M2996.7,-333.671C2671.92,-330.053 1867.79,-324.821 1600,-357.473 1574.16,-360.624 1546.17,-366.568 1521.93,-372.553"/>
<polygon fill="black" stroke="black" points="1520.97,-369.183 1512.13,-375.022 1522.68,-375.971 1520.97,-369.183"/>
</g>
<!-- Nancy.Extensions.StringExtensions&#45;&gt;Nancy.DynamicDictionary -->
<g id="edge22" class="edge"><title>Nancy.Extensions.StringExtensions&#45;&gt;Nancy.DynamicDictionary</title>
<path fill="none" stroke="black" d="M3254.54,-325.853C3273.79,-324.277 3293.63,-322.653 3312.56,-321.103"/>
<polygon fill="black" stroke="black" points="3313,-324.58 3322.68,-320.276 3312.42,-317.603 3313,-324.58"/>
</g>
<!-- Nancy.HttpMultipart -->
<g id="node21" class="node"><title>Nancy.HttpMultipart</title>
<ellipse fill="none" stroke="black" cx="3136" cy="-216.473" rx="85.2851" ry="18"/>
<text text-anchor="middle" x="3136" y="-212.773" font-family="Times New Roman,serif" font-size="14.00">Nancy.HttpMultipart</text>
</g>
<!-- Nancy.HttpMultipart&#45;&gt;Nancy.StaticConfiguration -->
<g id="edge23" class="edge"><title>Nancy.HttpMultipart&#45;&gt;Nancy.StaticConfiguration</title>
<path fill="none" stroke="black" d="M3051,-214.823C2945.98,-212.85 2760.71,-209.664 2602,-208.473 2456.23,-207.38 2419.17,-195.23 2274,-208.473 1970.68,-236.143 1892.31,-246.88 1600,-332.473 1566.74,-342.214 1530.59,-357.042 1503.09,-369.267"/>
<polygon fill="black" stroke="black" points="1501.43,-366.177 1493.75,-373.47 1504.3,-372.561 1501.43,-366.177"/>
</g>
<!-- Nancy.INancyContextFactory&#45;&gt;Nancy.NancyContext -->
<g id="edge24" class="edge"><title>Nancy.INancyContextFactory&#45;&gt;Nancy.NancyContext</title>
<path fill="none" stroke="black" d="M2332.6,-280.793C2209.44,-271.316 1998.48,-257.473 1817,-257.473 1196,-257.473 1196,-257.473 1196,-257.473 944.011,-257.473 680.819,-447.247 594.383,-515.437"/>
<polygon fill="black" stroke="black" points="591.989,-512.868 586.343,-521.833 596.347,-518.346 591.989,-512.868"/>
</g>
<!-- Nancy.INancyContextFactory&#45;&gt;Nancy.Request -->
<g id="edge25" class="edge"><title>Nancy.INancyContextFactory&#45;&gt;Nancy.Request</title>
<path fill="none" stroke="black" d="M2558.54,-289.473C2612.6,-289.473 2674.87,-289.473 2722.35,-289.473"/>
<polygon fill="black" stroke="black" points="2722.55,-292.974 2732.55,-289.473 2722.55,-285.974 2722.55,-292.974"/>
</g>
<!-- Nancy.Request&#45;&gt;Nancy.DynamicDictionary -->
<g id="edge59" class="edge"><title>Nancy.Request&#45;&gt;Nancy.DynamicDictionary</title>
<path fill="none" stroke="black" d="M2864.97,-291.891C2969.29,-295.774 3175.5,-303.448 3304.52,-308.25"/>
<polygon fill="black" stroke="black" points="3304.71,-311.759 3314.83,-308.634 3304.97,-304.764 3304.71,-311.759"/>
</g>
<!-- Nancy.Request&#45;&gt;Nancy.Extensions.StringExtensions -->
<g id="edge60" class="edge"><title>Nancy.Request&#45;&gt;Nancy.Extensions.StringExtensions</title>
<path fill="none" stroke="black" d="M2858.74,-297.539C2905.91,-304.017 2973.37,-313.279 3029.81,-321.03"/>
<polygon fill="black" stroke="black" points="3029.47,-324.516 3039.85,-322.409 3030.42,-317.581 3029.47,-324.516"/>
</g>
<!-- Nancy.Request&#45;&gt;Nancy.HttpMultipart -->
<g id="edge61" class="edge"><title>Nancy.Request&#45;&gt;Nancy.HttpMultipart</title>
<path fill="none" stroke="black" d="M2851.24,-278.307C2908.74,-265.777 3002.31,-245.387 3066.16,-231.474"/>
<polygon fill="black" stroke="black" points="3067.12,-234.848 3076.14,-229.299 3065.63,-228.008 3067.12,-234.848"/>
</g>
<!-- Nancy.INancyEngine&#45;&gt;Nancy.NancyContext -->
<g id="edge26" class="edge"><title>Nancy.INancyEngine&#45;&gt;Nancy.NancyContext</title>
<path fill="none" stroke="black" d="M2350.81,-537.566C2041.91,-537.896 991.3,-539.018 663.512,-539.368"/>
<polygon fill="black" stroke="black" points="663.088,-535.869 653.092,-539.379 663.095,-542.869 663.088,-535.869"/>
</g>
<!-- Nancy.INancyEngine&#45;&gt;Nancy.Bootstrapper.IPipelines -->
<g id="edge27" class="edge"><title>Nancy.INancyEngine&#45;&gt;Nancy.Bootstrapper.IPipelines</title>
<path fill="none" stroke="black" d="M2525.45,-537.473C2567.68,-537.473 2619.42,-537.473 2666.42,-537.473"/>
<polygon fill="black" stroke="black" points="2666.68,-540.974 2676.68,-537.473 2666.68,-533.974 2666.68,-540.974"/>
</g>
<!-- Nancy.INancyEngine&#45;&gt;Nancy.Request -->
<g id="edge28" class="edge"><title>Nancy.INancyEngine&#45;&gt;Nancy.Request</title>
<path fill="none" stroke="black" d="M2463.96,-520.231C2527.24,-476.515 2693.97,-361.337 2765.09,-312.205"/>
<polygon fill="black" stroke="black" points="2767.44,-314.838 2773.68,-306.274 2763.46,-309.078 2767.44,-314.838"/>
</g>
<!-- Nancy.IStaticContentProvider&#45;&gt;Nancy.NancyContext -->
<g id="edge29" class="edge"><title>Nancy.IStaticContentProvider&#45;&gt;Nancy.NancyContext</title>
<path fill="none" stroke="black" d="M2326.73,-636.319C2202.8,-643.413 1995.55,-653.473 1817,-653.473 1196,-653.473 1196,-653.473 1196,-653.473 999.266,-653.473 944.65,-678.019 754,-629.473 697.669,-615.13 637.95,-583.577 601.066,-561.919"/>
<polygon fill="black" stroke="black" points="602.58,-558.747 592.196,-556.642 599.001,-564.763 602.58,-558.747"/>
</g>
<!-- Nancy.Json.JavaScriptConverter -->
<g id="node26" class="node"><title>Nancy.Json.JavaScriptConverter</title>
<ellipse fill="none" stroke="black" cx="187" cy="-1001.47" rx="129.177" ry="18"/>
<text text-anchor="middle" x="187" y="-997.773" font-family="Times New Roman,serif" font-size="14.00">Nancy.Json.JavaScriptConverter</text>
</g>
<!-- Nancy.Json.JavaScriptSerializer -->
<g id="node27" class="node"><title>Nancy.Json.JavaScriptSerializer</title>
<ellipse fill="none" stroke="black" cx="564" cy="-1001.47" rx="126.178" ry="18"/>
<text text-anchor="middle" x="564" y="-997.773" font-family="Times New Roman,serif" font-size="14.00">Nancy.Json.JavaScriptSerializer</text>
</g>
<!-- Nancy.Json.JavaScriptConverter&#45;&gt;Nancy.Json.JavaScriptSerializer -->
<g id="edge30" class="edge"><title>Nancy.Json.JavaScriptConverter&#45;&gt;Nancy.Json.JavaScriptSerializer</title>
<path fill="none" stroke="black" d="M308.2,-995.126C348.871,-994.619 394.413,-994.591 435.621,-995.042"/>
<polygon fill="black" stroke="black" points="435.68,-998.543 445.721,-995.163 435.764,-991.543 435.68,-998.543"/>
</g>
<!-- Nancy.Json.JavaScriptSerializer&#45;&gt;Nancy.Json.JavaScriptConverter -->
<g id="edge31" class="edge"><title>Nancy.Json.JavaScriptSerializer&#45;&gt;Nancy.Json.JavaScriptConverter</title>
<path fill="none" stroke="black" d="M445.721,-1007.78C405.289,-1008.31 359.766,-1008.36 318.354,-1007.94"/>
<polygon fill="black" stroke="black" points="318.239,-1004.44 308.2,-1007.82 318.159,-1011.43 318.239,-1004.44"/>
</g>
<!-- Nancy.Json.Json -->
<g id="node28" class="node"><title>Nancy.Json.Json</title>
<ellipse fill="none" stroke="black" cx="899" cy="-1001.47" rx="72.2875" ry="18"/>
<text text-anchor="middle" x="899" y="-997.773" font-family="Times New Roman,serif" font-size="14.00">Nancy.Json.Json</text>
</g>
<!-- Nancy.Json.JavaScriptSerializer&#45;&gt;Nancy.Json.Json -->
<g id="edge32" class="edge"><title>Nancy.Json.JavaScriptSerializer&#45;&gt;Nancy.Json.Json</title>
<path fill="none" stroke="black" d="M681.935,-994.997C727.717,-994.478 779.001,-994.698 820.112,-995.657"/>
<polygon fill="black" stroke="black" points="820.25,-999.162 830.336,-995.917 820.428,-992.164 820.25,-999.162"/>
</g>
<!-- Nancy.Json.Json&#45;&gt;Nancy.Json.JavaScriptSerializer -->
<g id="edge33" class="edge"><title>Nancy.Json.Json&#45;&gt;Nancy.Json.JavaScriptSerializer</title>
<path fill="none" stroke="black" d="M830.336,-1007.03C790.644,-1008.13 739.209,-1008.47 692.204,-1008.05"/>
<polygon fill="black" stroke="black" points="691.97,-1004.55 681.935,-1007.95 691.899,-1011.55 691.97,-1004.55"/>
</g>
<!-- Nancy.Json.JsonDeserializer -->
<g id="node29" class="node"><title>Nancy.Json.JsonDeserializer</title>
<ellipse fill="none" stroke="black" cx="1197" cy="-1039.47" rx="113.98" ry="18"/>
<text text-anchor="middle" x="1197" y="-1035.77" font-family="Times New Roman,serif" font-size="14.00">Nancy.Json.JsonDeserializer</text>
</g>
<!-- Nancy.Json.Json&#45;&gt;Nancy.Json.JsonDeserializer -->
<g id="edge34" class="edge"><title>Nancy.Json.Json&#45;&gt;Nancy.Json.JsonDeserializer</title>
<path fill="none" stroke="black" d="M970.148,-1004.64C1014.82,-1009.22 1072.73,-1016.6 1118.72,-1023.54"/>
<polygon fill="black" stroke="black" points="1118.23,-1027.01 1128.65,-1025.06 1119.29,-1020.09 1118.23,-1027.01"/>
</g>
<!-- Nancy.Json.JsonSerializer -->
<g id="node30" class="node"><title>Nancy.Json.JsonSerializer</title>
<ellipse fill="none" stroke="black" cx="1457" cy="-993.473" rx="104.782" ry="18"/>
<text text-anchor="middle" x="1457" y="-989.773" font-family="Times New Roman,serif" font-size="14.00">Nancy.Json.JsonSerializer</text>
</g>
<!-- Nancy.Json.Json&#45;&gt;Nancy.Json.JsonSerializer -->
<g id="edge35" class="edge"><title>Nancy.Json.Json&#45;&gt;Nancy.Json.JsonSerializer</title>
<path fill="none" stroke="black" d="M971.266,-1000.45C1065.11,-999.098 1231.2,-996.708 1342.45,-995.107"/>
<polygon fill="black" stroke="black" points="1342.75,-998.603 1352.7,-994.96 1342.65,-991.604 1342.75,-998.603"/>
</g>
<!-- Nancy.Json.JsonDeserializer&#45;&gt;Nancy.Json.JavaScriptSerializer -->
<g id="edge36" class="edge"><title>Nancy.Json.JsonDeserializer&#45;&gt;Nancy.Json.JavaScriptSerializer</title>
<path fill="none" stroke="black" d="M1083.17,-1040.3C993.738,-1040.07 865.68,-1037.81 754,-1028.47 721.96,-1025.8 687.065,-1021.27 656.079,-1016.68"/>
<polygon fill="black" stroke="black" points="656.573,-1013.22 646.164,-1015.19 655.533,-1020.14 656.573,-1013.22"/>
</g>
<!-- Nancy.Json.JsonDeserializer&#45;&gt;Nancy.Json.Json -->
<g id="edge37" class="edge"><title>Nancy.Json.JsonDeserializer&#45;&gt;Nancy.Json.Json</title>
<path fill="none" stroke="black" d="M1091.73,-1032.57C1048.83,-1027.6 1000.54,-1021.13 963.16,-1015.23"/>
<polygon fill="black" stroke="black" points="963.348,-1011.71 952.919,-1013.58 962.237,-1018.63 963.348,-1011.71"/>
</g>
<!-- Nancy.Json.JsonDeserializer&#45;&gt;Nancy.Json.JsonSerializer -->
<g id="edge38" class="edge"><title>Nancy.Json.JsonDeserializer&#45;&gt;Nancy.Json.JsonSerializer</title>
<path fill="none" stroke="black" d="M1273.32,-1026.04C1304.86,-1020.42 1341.61,-1013.87 1373.85,-1008.12"/>
<polygon fill="black" stroke="black" points="1374.47,-1011.57 1383.7,-1006.36 1373.24,-1004.67 1374.47,-1011.57"/>
</g>
<!-- Nancy.Json.JsonSerializer&#45;&gt;Nancy.Json.JavaScriptSerializer -->
<g id="edge39" class="edge"><title>Nancy.Json.JsonSerializer&#45;&gt;Nancy.Json.JavaScriptSerializer</title>
<path fill="none" stroke="black" d="M1363.88,-985.241C1229.6,-974.543 972.295,-958.96 754,-974.473 721.481,-976.784 686.052,-981.305 654.748,-985.997"/>
<polygon fill="black" stroke="black" points="654.096,-982.555 644.739,-987.523 655.152,-989.475 654.096,-982.555"/>
</g>
<!-- Nancy.ModelBinding.BindingContext -->
<g id="node31" class="node"><title>Nancy.ModelBinding.BindingContext</title>
<ellipse fill="none" stroke="black" cx="187" cy="-1055.47" rx="146.774" ry="18"/>
<text text-anchor="middle" x="187" y="-1051.77" font-family="Times New Roman,serif" font-size="14.00">Nancy.ModelBinding.BindingContext</text>
</g>
<!-- Nancy.ModelBinding.ITypeConverter -->
<g id="node32" class="node"><title>Nancy.ModelBinding.ITypeConverter</title>
<ellipse fill="none" stroke="black" cx="564" cy="-1055.47" rx="148.374" ry="18"/>
<text text-anchor="middle" x="564" y="-1051.77" font-family="Times New Roman,serif" font-size="14.00">Nancy.ModelBinding.ITypeConverter</text>
</g>
<!-- Nancy.ModelBinding.BindingContext&#45;&gt;Nancy.ModelBinding.ITypeConverter -->
<g id="edge40" class="edge"><title>Nancy.ModelBinding.BindingContext&#45;&gt;Nancy.ModelBinding.ITypeConverter</title>
<path fill="none" stroke="black" d="M324.179,-1048.95C353.92,-1048.68 385.527,-1048.65 415.68,-1048.86"/>
<polygon fill="black" stroke="black" points="415.817,-1052.36 425.845,-1048.94 415.873,-1045.36 415.817,-1052.36"/>
</g>
<!-- Nancy.ModelBinding.ITypeConverter&#45;&gt;Nancy.ModelBinding.BindingContext -->
<g id="edge41" class="edge"><title>Nancy.ModelBinding.ITypeConverter&#45;&gt;Nancy.ModelBinding.BindingContext</title>
<path fill="none" stroke="black" d="M425.845,-1062C396.064,-1062.27 364.452,-1062.29 334.332,-1062.08"/>
<polygon fill="black" stroke="black" points="334.207,-1058.58 324.179,-1061.99 334.15,-1065.58 334.207,-1058.58"/>
</g>
<!-- Nancy.Routing.IRequestDispatcher&#45;&gt;Nancy.NancyContext -->
<g id="edge62" class="edge"><title>Nancy.Routing.IRequestDispatcher&#45;&gt;Nancy.NancyContext</title>
<path fill="none" stroke="black" d="M2343.21,-222.194C2221.98,-206.206 2004.19,-181.473 1817,-181.473 1196,-181.473 1196,-181.473 1196,-181.473 994.881,-181.473 922.224,-168.248 754,-278.473 662.81,-338.224 600.935,-458.244 576.584,-512.156"/>
<polygon fill="black" stroke="black" points="573.329,-510.863 572.476,-521.424 579.728,-513.7 573.329,-510.863"/>
</g>
<!-- Nancy.Routing.Trie.ITrieNodeFactory -->
<g id="node34" class="node"><title>Nancy.Routing.Trie.ITrieNodeFactory</title>
<ellipse fill="none" stroke="black" cx="187" cy="-1109.47" rx="150.574" ry="18"/>
<text text-anchor="middle" x="187" y="-1105.77" font-family="Times New Roman,serif" font-size="14.00">Nancy.Routing.Trie.ITrieNodeFactory</text>
</g>
<!-- Nancy.Routing.Trie.Nodes.TrieNode -->
<g id="node35" class="node"><title>Nancy.Routing.Trie.Nodes.TrieNode</title>
<ellipse fill="none" stroke="black" cx="564" cy="-1109.47" rx="145.674" ry="18"/>
<text text-anchor="middle" x="564" y="-1105.77" font-family="Times New Roman,serif" font-size="14.00">Nancy.Routing.Trie.Nodes.TrieNode</text>
</g>
<!-- Nancy.Routing.Trie.ITrieNodeFactory&#45;&gt;Nancy.Routing.Trie.Nodes.TrieNode -->
<g id="edge63" class="edge"><title>Nancy.Routing.Trie.ITrieNodeFactory&#45;&gt;Nancy.Routing.Trie.Nodes.TrieNode</title>
<path fill="none" stroke="black" d="M327.636,-1102.92C357.196,-1102.67 388.457,-1102.66 418.204,-1102.88"/>
<polygon fill="black" stroke="black" points="418.2,-1106.38 428.229,-1102.97 418.259,-1099.38 418.2,-1106.38"/>
</g>
<!-- Nancy.Routing.Trie.Nodes.TrieNode&#45;&gt;Nancy.Routing.Trie.ITrieNodeFactory -->
<g id="edge64" class="edge"><title>Nancy.Routing.Trie.Nodes.TrieNode&#45;&gt;Nancy.Routing.Trie.ITrieNodeFactory</title>
<path fill="none" stroke="black" d="M428.229,-1115.98C398.866,-1116.26 367.625,-1116.3 337.721,-1116.1"/>
<polygon fill="black" stroke="black" points="337.662,-1112.6 327.636,-1116.02 337.609,-1119.6 337.662,-1112.6"/>
</g>
</g>
</svg>
