<?xml version="1.0" encoding="UTF-8" standalone="no"?>
<!DOCTYPE svg PUBLIC "-//W3C//DTD SVG 1.1//EN"
 "http://www.w3.org/Graphics/SVG/1.1/DTD/svg11.dtd">
<!-- Generated by graphviz version 2.30.1 (20130214.1330)
 -->
<!-- Title: G Pages: 1 -->
<svg width="242pt" height="154pt"
 viewBox="0.00 0.00 242.00 154.00" xmlns="http://www.w3.org/2000/svg" xmlns:xlink="http://www.w3.org/1999/xlink">
<g id="graph0" class="graph" transform="scale(1 1) rotate(0) translate(4 150)">
<title>G</title>
<polygon fill="white" stroke="white" points="-4,5 -4,-150 239,-150 239,5 -4,5"/>
<!-- aa4 -->
<g id="node1" class="node"><title>aa4</title>
<ellipse fill="none" stroke="black" cx="27" cy="-45" rx="27" ry="18"/>
<text text-anchor="middle" x="27" y="-41.3" font-family="Times New Roman,serif" font-size="14.00">aa4</text>
</g>
<!-- asr -->
<g id="node2" class="node"><title>asr</title>
<ellipse fill="none" stroke="black" cx="207" cy="-73" rx="27" ry="18"/>
<text text-anchor="middle" x="207" y="-69.3" font-family="Times New Roman,serif" font-size="14.00">asr</text>
</g>
<!-- aa4&#45;&gt;asr -->
<g id="edge1" class="edge"><title>aa4&#45;&gt;asr</title>
<path fill="none" stroke="black" d="M54.2645,-44.1761C85.815,-46.8982 138.767,-55.0854 173.035,-62.4322"/>
<polygon fill="black" stroke="black" points="172.502,-65.8996 183.026,-64.6783 174.037,-59.0701 172.502,-65.8996"/>
</g>
<!-- oc -->
<g id="node3" class="node"><title>oc</title>
<ellipse fill="none" stroke="black" cx="117" cy="-18" rx="27" ry="18"/>
<text text-anchor="middle" x="117" y="-14.3" font-family="Times New Roman,serif" font-size="14.00">oc</text>
</g>
<!-- aa4&#45;&gt;oc -->
<g id="edge2" class="edge"><title>aa4&#45;&gt;oc</title>
<path fill="none" stroke="black" d="M47.5301,-33.2878C57.067,-29.4625 68.8528,-25.536 79.9424,-22.4118"/>
<polygon fill="black" stroke="black" points="81.0728,-25.7333 89.8465,-19.7943 79.2841,-18.9657 81.0728,-25.7333"/>
</g>
<!-- asr&#45;&gt;aa4 -->
<g id="edge4" class="edge"><title>asr&#45;&gt;aa4</title>
<path fill="none" stroke="black" d="M179.831,-73.8321C148.389,-71.1267 95.5933,-62.9723 61.2814,-55.6355"/>
<polygon fill="black" stroke="black" points="61.7938,-52.1636 51.2704,-53.3918 60.2628,-58.9941 61.7938,-52.1636"/>
</g>
<!-- oc&#45;&gt;aa4 -->
<g id="edge5" class="edge"><title>oc&#45;&gt;aa4</title>
<path fill="none" stroke="black" d="M96.4016,-29.7396C86.8182,-33.5797 74.9762,-37.5196 63.8537,-40.6455"/>
<polygon fill="black" stroke="black" points="62.7051,-37.3287 53.9269,-43.2612 64.4887,-44.0976 62.7051,-37.3287"/>
</g>
<!-- oc&#45;&gt;asr -->
<g id="edge6" class="edge"><title>oc&#45;&gt;asr</title>
<path fill="none" stroke="black" d="M137.53,-30.2063C149.461,-37.6632 164.912,-47.3199 178.116,-55.5724"/>
<polygon fill="black" stroke="black" points="176.492,-58.685 186.827,-61.0171 180.202,-52.749 176.492,-58.685"/>
</g>
<!-- akj -->
<g id="node4" class="node"><title>akj</title>
<ellipse fill="none" stroke="black" cx="27" cy="-128" rx="27" ry="18"/>
<text text-anchor="middle" x="27" y="-124.3" font-family="Times New Roman,serif" font-size="14.00">akj</text>
</g>
<!-- ol -->
<g id="node5" class="node"><title>ol</title>
<ellipse fill="none" stroke="black" cx="117" cy="-128" rx="27" ry="18"/>
<text text-anchor="middle" x="117" y="-124.3" font-family="Times New Roman,serif" font-size="14.00">ol</text>
</g>
<!-- akj&#45;&gt;ol -->
<g id="edge3" class="edge"><title>akj&#45;&gt;ol</title>
<path fill="none" stroke="black" d="M52.5129,-121.877C61.4017,-121.266 71.6201,-121.102 81.2245,-121.384"/>
<polygon fill="black" stroke="black" points="81.1579,-124.884 91.3133,-121.865 81.4915,-117.892 81.1579,-124.884"/>
</g>
<!-- ol&#45;&gt;akj -->
<g id="edge7" class="edge"><title>ol&#45;&gt;akj</title>
<path fill="none" stroke="black" d="M91.3133,-134.135C82.4074,-134.74 72.1844,-134.899 62.588,-134.611"/>
<polygon fill="black" stroke="black" points="62.6704,-131.111 52.5129,-134.123 62.3321,-138.103 62.6704,-131.111"/>
</g>
</g>
</svg>
