<?xml version="1.0" encoding="UTF-8" standalone="no"?>
<!DOCTYPE svg PUBLIC "-//W3C//DTD SVG 1.1//EN"
 "http://www.w3.org/Graphics/SVG/1.1/DTD/svg11.dtd">
<!-- Generated by graphviz version 2.30.1 (20130214.1330)
 -->
<!-- Title: G Pages: 1 -->
<svg width="2552pt" height="441pt"
 viewBox="0.00 0.00 2552.00 440.95" xmlns="http://www.w3.org/2000/svg" xmlns:xlink="http://www.w3.org/1999/xlink">
<g id="graph0" class="graph" transform="scale(1 1) rotate(0) translate(4 436.952)">
<title>G</title>
<polygon fill="white" stroke="white" points="-4,5 -4,-436.952 2549,-436.952 2549,5 -4,5"/>
<!-- NuGet.Constants -->
<g id="node1" class="node"><title>NuGet.Constants</title>
<ellipse fill="none" stroke="black" cx="111" cy="-23.9522" rx="73.387" ry="18"/>
<text text-anchor="middle" x="111" y="-20.2522" font-family="Times New Roman,serif" font-size="14.00">NuGet.Constants</text>
</g>
<!-- NuGet.IPackage -->
<g id="node2" class="node"><title>NuGet.IPackage</title>
<ellipse fill="none" stroke="black" cx="377" cy="-46.9522" rx="70.3881" ry="18"/>
<text text-anchor="middle" x="377" y="-43.2522" font-family="Times New Roman,serif" font-size="14.00">NuGet.IPackage</text>
</g>
<!-- NuGet.Constants&#45;&gt;NuGet.IPackage -->
<g id="edge1" class="edge"><title>NuGet.Constants&#45;&gt;NuGet.IPackage</title>
<path fill="none" stroke="black" d="M180.33,-29.9051C216.918,-33.0927 262.088,-37.028 299.806,-40.3141"/>
<polygon fill="black" stroke="black" points="299.968,-43.8413 310.234,-41.2225 300.575,-36.8677 299.968,-43.8413"/>
</g>
<!-- NuGet.IPackageMetadata -->
<g id="node11" class="node"><title>NuGet.IPackageMetadata</title>
<ellipse fill="none" stroke="black" cx="660" cy="-46.9522" rx="103.182" ry="18"/>
<text text-anchor="middle" x="660" y="-43.2522" font-family="Times New Roman,serif" font-size="14.00">NuGet.IPackageMetadata</text>
</g>
<!-- NuGet.IPackage&#45;&gt;NuGet.IPackageMetadata -->
<g id="edge9" class="edge"><title>NuGet.IPackage&#45;&gt;NuGet.IPackageMetadata</title>
<path fill="none" stroke="black" d="M447.461,-46.9522C477.286,-46.9522 512.908,-46.9522 546.339,-46.9522"/>
<polygon fill="black" stroke="black" points="546.635,-50.4522 556.635,-46.9522 546.635,-43.4522 546.635,-50.4522"/>
</g>
<!-- NuGet.Crc32 -->
<g id="node3" class="node"><title>NuGet.Crc32</title>
<ellipse fill="none" stroke="black" cx="111" cy="-100.952" rx="59.5901" ry="18"/>
<text text-anchor="middle" x="111" y="-97.2522" font-family="Times New Roman,serif" font-size="14.00">NuGet.Crc32</text>
</g>
<!-- NuGet.StreamExtensions -->
<g id="node4" class="node"><title>NuGet.StreamExtensions</title>
<ellipse fill="none" stroke="black" cx="377" cy="-100.952" rx="102.082" ry="18"/>
<text text-anchor="middle" x="377" y="-97.2522" font-family="Times New Roman,serif" font-size="14.00">NuGet.StreamExtensions</text>
</g>
<!-- NuGet.Crc32&#45;&gt;NuGet.StreamExtensions -->
<g id="edge2" class="edge"><title>NuGet.Crc32&#45;&gt;NuGet.StreamExtensions</title>
<path fill="none" stroke="black" d="M167.988,-95.3162C198.019,-94.3199 236.013,-93.9919 271.289,-94.332"/>
<polygon fill="black" stroke="black" points="271.605,-97.8358 281.645,-94.4523 271.686,-90.8363 271.605,-97.8358"/>
</g>
<!-- NuGet.StreamExtensions&#45;&gt;NuGet.Crc32 -->
<g id="edge30" class="edge"><title>NuGet.StreamExtensions&#45;&gt;NuGet.Crc32</title>
<path fill="none" stroke="black" d="M281.645,-107.452C247.457,-107.918 209.591,-107.733 178.324,-106.897"/>
<polygon fill="black" stroke="black" points="178.088,-103.388 167.988,-106.588 177.879,-110.385 178.088,-103.388"/>
</g>
<!-- NuGet.DataServicePackage -->
<g id="node5" class="node"><title>NuGet.DataServicePackage</title>
<ellipse fill="none" stroke="black" cx="111" cy="-238.952" rx="110.48" ry="18"/>
<text text-anchor="middle" x="111" y="-235.252" font-family="Times New Roman,serif" font-size="14.00">NuGet.DataServicePackage</text>
</g>
<!-- NuGet.MachineCache -->
<g id="node6" class="node"><title>NuGet.MachineCache</title>
<ellipse fill="none" stroke="black" cx="377" cy="-192.952" rx="90.9839" ry="18"/>
<text text-anchor="middle" x="377" y="-189.252" font-family="Times New Roman,serif" font-size="14.00">NuGet.MachineCache</text>
</g>
<!-- NuGet.DataServicePackage&#45;&gt;NuGet.MachineCache -->
<g id="edge3" class="edge"><title>NuGet.DataServicePackage&#45;&gt;NuGet.MachineCache</title>
<path fill="none" stroke="black" d="M187.298,-225.832C221.977,-219.79 263.101,-212.624 298.093,-206.527"/>
<polygon fill="black" stroke="black" points="299.013,-209.919 308.264,-204.755 297.812,-203.023 299.013,-209.919"/>
</g>
<!-- NuGet.OptimizedZipPackage -->
<g id="node7" class="node"><title>NuGet.OptimizedZipPackage</title>
<ellipse fill="none" stroke="black" cx="948" cy="-230.952" rx="116.979" ry="18"/>
<text text-anchor="middle" x="948" y="-227.252" font-family="Times New Roman,serif" font-size="14.00">NuGet.OptimizedZipPackage</text>
</g>
<!-- NuGet.DataServicePackage&#45;&gt;NuGet.OptimizedZipPackage -->
<g id="edge4" class="edge"><title>NuGet.DataServicePackage&#45;&gt;NuGet.OptimizedZipPackage</title>
<path fill="none" stroke="black" d="M221.591,-237.902C376.2,-236.421 657.66,-233.724 820.807,-232.161"/>
<polygon fill="black" stroke="black" points="820.93,-235.66 830.896,-232.065 820.863,-228.661 820.93,-235.66"/>
</g>
<!-- NuGet.PackageRepositoryExtensions -->
<g id="node8" class="node"><title>NuGet.PackageRepositoryExtensions</title>
<ellipse fill="none" stroke="black" cx="1738" cy="-219.952" rx="147.574" ry="18"/>
<text text-anchor="middle" x="1738" y="-216.252" font-family="Times New Roman,serif" font-size="14.00">NuGet.PackageRepositoryExtensions</text>
</g>
<!-- NuGet.DataServicePackage&#45;&gt;NuGet.PackageRepositoryExtensions -->
<g id="edge5" class="edge"><title>NuGet.DataServicePackage&#45;&gt;NuGet.PackageRepositoryExtensions</title>
<path fill="none" stroke="black" d="M175.603,-253.606C277.186,-275.69 482.585,-314.952 659,-314.952 659,-314.952 659,-314.952 1225,-314.952 1388.72,-314.952 1577.02,-267.414 1673.19,-239.594"/>
<polygon fill="black" stroke="black" points="1674.43,-242.878 1683.05,-236.718 1672.47,-236.158 1674.43,-242.878"/>
</g>
<!-- NuGet.ZipPackage -->
<g id="node9" class="node"><title>NuGet.ZipPackage</title>
<ellipse fill="none" stroke="black" cx="1224" cy="-246.952" rx="79.0865" ry="18"/>
<text text-anchor="middle" x="1224" y="-243.252" font-family="Times New Roman,serif" font-size="14.00">NuGet.ZipPackage</text>
</g>
<!-- NuGet.DataServicePackage&#45;&gt;NuGet.ZipPackage -->
<g id="edge6" class="edge"><title>NuGet.DataServicePackage&#45;&gt;NuGet.ZipPackage</title>
<path fill="none" stroke="black" d="M209.726,-247.144C225.843,-248.257 242.383,-249.254 258,-249.952 619.434,-266.107 710.444,-271.104 1072,-257.952 1093.98,-257.153 1117.73,-255.7 1139.74,-254.108"/>
<polygon fill="black" stroke="black" points="1140,-257.598 1149.71,-253.368 1139.48,-250.617 1140,-257.598"/>
</g>
<!-- NuGet.LocalPackageRepository -->
<g id="node14" class="node"><title>NuGet.LocalPackageRepository</title>
<ellipse fill="none" stroke="black" cx="660" cy="-192.952" rx="128.077" ry="18"/>
<text text-anchor="middle" x="660" y="-189.252" font-family="Times New Roman,serif" font-size="14.00">NuGet.LocalPackageRepository</text>
</g>
<!-- NuGet.MachineCache&#45;&gt;NuGet.LocalPackageRepository -->
<g id="edge14" class="edge"><title>NuGet.MachineCache&#45;&gt;NuGet.LocalPackageRepository</title>
<path fill="none" stroke="black" d="M468.07,-192.952C485.204,-192.952 503.491,-192.952 521.707,-192.952"/>
<polygon fill="black" stroke="black" points="521.812,-196.452 531.812,-192.952 521.812,-189.452 521.812,-196.452"/>
</g>
<!-- NuGet.OptimizedZipPackage&#45;&gt;NuGet.ZipPackage -->
<g id="edge24" class="edge"><title>NuGet.OptimizedZipPackage&#45;&gt;NuGet.ZipPackage</title>
<path fill="none" stroke="black" d="M1057.69,-237.299C1083.95,-238.832 1111.67,-240.451 1136.74,-241.915"/>
<polygon fill="black" stroke="black" points="1136.76,-245.422 1146.94,-242.511 1137.16,-238.434 1136.76,-245.422"/>
</g>
<!-- NuGet.DataServicePackageRepository -->
<g id="node10" class="node"><title>NuGet.DataServicePackageRepository</title>
<ellipse fill="none" stroke="black" cx="2074" cy="-219.952" rx="151.373" ry="18"/>
<text text-anchor="middle" x="2074" y="-216.252" font-family="Times New Roman,serif" font-size="14.00">NuGet.DataServicePackageRepository</text>
</g>
<!-- NuGet.PackageRepositoryExtensions&#45;&gt;NuGet.DataServicePackageRepository -->
<g id="edge28" class="edge"><title>NuGet.PackageRepositoryExtensions&#45;&gt;NuGet.DataServicePackageRepository</title>
<path fill="none" stroke="black" d="M1875.33,-213.304C1891.02,-213.199 1907.08,-213.175 1922.93,-213.233"/>
<polygon fill="black" stroke="black" points="1923.29,-216.735 1933.31,-213.283 1923.33,-209.735 1923.29,-216.735"/>
</g>
<!-- NuGet.PackageUtility -->
<g id="node24" class="node"><title>NuGet.PackageUtility</title>
<ellipse fill="none" stroke="black" cx="1465" cy="-219.952" rx="89.0842" ry="18"/>
<text text-anchor="middle" x="1465" y="-216.252" font-family="Times New Roman,serif" font-size="14.00">NuGet.PackageUtility</text>
</g>
<!-- NuGet.ZipPackage&#45;&gt;NuGet.PackageUtility -->
<g id="edge34" class="edge"><title>NuGet.ZipPackage&#45;&gt;NuGet.PackageUtility</title>
<path fill="none" stroke="black" d="M1295.42,-238.997C1320.93,-236.115 1350.07,-232.823 1376.85,-229.797"/>
<polygon fill="black" stroke="black" points="1377.45,-233.252 1386.99,-228.652 1376.66,-226.297 1377.45,-233.252"/>
</g>
<!-- NuGet.DataServicePackageRepository&#45;&gt;NuGet.DataServicePackage -->
<g id="edge7" class="edge"><title>NuGet.DataServicePackageRepository&#45;&gt;NuGet.DataServicePackage</title>
<path fill="none" stroke="black" d="M1995.27,-204.56C1880.15,-183.143 1657.32,-146.952 1466,-146.952 659,-146.952 659,-146.952 659,-146.952 480.578,-146.952 430.63,-120.86 258,-165.952 217.795,-176.454 175.748,-198.875 147.16,-216.115"/>
<polygon fill="black" stroke="black" points="145.063,-213.296 138.37,-221.509 148.724,-219.262 145.063,-213.296"/>
</g>
<!-- NuGet.DataServicePackageRepository&#45;&gt;NuGet.PackageRepositoryExtensions -->
<g id="edge8" class="edge"><title>NuGet.DataServicePackageRepository&#45;&gt;NuGet.PackageRepositoryExtensions</title>
<path fill="none" stroke="black" d="M1933.31,-226.621C1917.58,-226.715 1901.51,-226.727 1885.69,-226.658"/>
<polygon fill="black" stroke="black" points="1885.35,-223.156 1875.33,-226.6 1885.31,-230.156 1885.35,-223.156"/>
</g>
<!-- NuGet.PackageDependencySet -->
<g id="node12" class="node"><title>NuGet.PackageDependencySet</title>
<ellipse fill="none" stroke="black" cx="948" cy="-96.9522" rx="124.278" ry="18"/>
<text text-anchor="middle" x="948" y="-93.2522" font-family="Times New Roman,serif" font-size="14.00">NuGet.PackageDependencySet</text>
</g>
<!-- NuGet.IPackageMetadata&#45;&gt;NuGet.PackageDependencySet -->
<g id="edge10" class="edge"><title>NuGet.IPackageMetadata&#45;&gt;NuGet.PackageDependencySet</title>
<path fill="none" stroke="black" d="M733.54,-59.6339C771.375,-66.2484 817.983,-74.3967 857.985,-81.3901"/>
<polygon fill="black" stroke="black" points="857.55,-84.867 868.003,-83.1415 858.755,-77.9716 857.55,-84.867"/>
</g>
<!-- NuGet.PackageReferenceSet -->
<g id="node13" class="node"><title>NuGet.PackageReferenceSet</title>
<ellipse fill="none" stroke="black" cx="1224" cy="-46.9522" rx="115.88" ry="18"/>
<text text-anchor="middle" x="1224" y="-43.2522" font-family="Times New Roman,serif" font-size="14.00">NuGet.PackageReferenceSet</text>
</g>
<!-- NuGet.IPackageMetadata&#45;&gt;NuGet.PackageReferenceSet -->
<g id="edge11" class="edge"><title>NuGet.IPackageMetadata&#45;&gt;NuGet.PackageReferenceSet</title>
<path fill="none" stroke="black" d="M763.426,-46.9522C857.549,-46.9522 997.312,-46.9522 1097.98,-46.9522"/>
<polygon fill="black" stroke="black" points="1098.21,-50.4522 1108.21,-46.9522 1098.21,-43.4522 1098.21,-50.4522"/>
</g>
<!-- NuGet.PackageDependency -->
<g id="node23" class="node"><title>NuGet.PackageDependency</title>
<ellipse fill="none" stroke="black" cx="1224" cy="-100.952" rx="112.38" ry="18"/>
<text text-anchor="middle" x="1224" y="-97.2522" font-family="Times New Roman,serif" font-size="14.00">NuGet.PackageDependency</text>
</g>
<!-- NuGet.PackageDependencySet&#45;&gt;NuGet.PackageDependency -->
<g id="edge26" class="edge"><title>NuGet.PackageDependencySet&#45;&gt;NuGet.PackageDependency</title>
<path fill="none" stroke="black" d="M1071.57,-98.7416C1081.52,-98.8867 1091.56,-99.0333 1101.49,-99.1783"/>
<polygon fill="black" stroke="black" points="1101.74,-102.682 1111.79,-99.3287 1101.85,-95.683 1101.74,-102.682"/>
</g>
<!-- NuGet.VersionUtility -->
<g id="node21" class="node"><title>NuGet.VersionUtility</title>
<ellipse fill="none" stroke="black" cx="1465" cy="-46.9522" rx="87.1846" ry="18"/>
<text text-anchor="middle" x="1465" y="-43.2522" font-family="Times New Roman,serif" font-size="14.00">NuGet.VersionUtility</text>
</g>
<!-- NuGet.PackageReferenceSet&#45;&gt;NuGet.VersionUtility -->
<g id="edge27" class="edge"><title>NuGet.PackageReferenceSet&#45;&gt;NuGet.VersionUtility</title>
<path fill="none" stroke="black" d="M1339.95,-46.9522C1349.16,-46.9522 1358.41,-46.9522 1367.47,-46.9522"/>
<polygon fill="black" stroke="black" points="1367.61,-50.4522 1377.61,-46.9522 1367.61,-43.4522 1367.61,-50.4522"/>
</g>
<!-- NuGet.LocalPackageRepository&#45;&gt;NuGet.OptimizedZipPackage -->
<g id="edge12" class="edge"><title>NuGet.LocalPackageRepository&#45;&gt;NuGet.OptimizedZipPackage</title>
<path fill="none" stroke="black" d="M753.856,-205.29C784.19,-209.32 817.97,-213.808 848.692,-217.89"/>
<polygon fill="black" stroke="black" points="848.61,-221.41 858.983,-219.258 849.532,-214.471 848.61,-221.41"/>
</g>
<!-- NuGet.UnzippedPackage -->
<g id="node15" class="node"><title>NuGet.UnzippedPackage</title>
<ellipse fill="none" stroke="black" cx="1224" cy="-192.952" rx="102.882" ry="18"/>
<text text-anchor="middle" x="1224" y="-189.252" font-family="Times New Roman,serif" font-size="14.00">NuGet.UnzippedPackage</text>
</g>
<!-- NuGet.LocalPackageRepository&#45;&gt;NuGet.UnzippedPackage -->
<g id="edge13" class="edge"><title>NuGet.LocalPackageRepository&#45;&gt;NuGet.UnzippedPackage</title>
<path fill="none" stroke="black" d="M788.175,-192.952C885.337,-192.952 1017.96,-192.952 1111.11,-192.952"/>
<polygon fill="black" stroke="black" points="1111.13,-196.452 1121.13,-192.952 1111.13,-189.452 1111.13,-196.452"/>
</g>
<!-- NuGet.UnzippedPackage&#45;&gt;NuGet.PackageUtility -->
<g id="edge31" class="edge"><title>NuGet.UnzippedPackage&#45;&gt;NuGet.PackageUtility</title>
<path fill="none" stroke="black" d="M1310.61,-202.624C1332.12,-205.053 1355.22,-207.663 1376.8,-210.102"/>
<polygon fill="black" stroke="black" points="1376.6,-213.601 1386.93,-211.246 1377.39,-206.645 1376.6,-213.601"/>
</g>
<!-- NuGet.Manifest -->
<g id="node16" class="node"><title>NuGet.Manifest</title>
<ellipse fill="none" stroke="black" cx="111" cy="-387.952" rx="68.4888" ry="18"/>
<text text-anchor="middle" x="111" y="-384.252" font-family="Times New Roman,serif" font-size="14.00">NuGet.Manifest</text>
</g>
<!-- NuGet.ManifestReader -->
<g id="node17" class="node"><title>NuGet.ManifestReader</title>
<ellipse fill="none" stroke="black" cx="377" cy="-414.952" rx="94.4839" ry="18"/>
<text text-anchor="middle" x="377" y="-411.252" font-family="Times New Roman,serif" font-size="14.00">NuGet.ManifestReader</text>
</g>
<!-- NuGet.Manifest&#45;&gt;NuGet.ManifestReader -->
<g id="edge15" class="edge"><title>NuGet.Manifest&#45;&gt;NuGet.ManifestReader</title>
<path fill="none" stroke="black" d="M179.301,-388.865C216.043,-391.66 261.669,-396.255 299.726,-400.967"/>
<polygon fill="black" stroke="black" points="299.376,-404.451 309.736,-402.232 300.253,-397.506 299.376,-404.451"/>
</g>
<!-- NuGet.ManifestSchemaUtility -->
<g id="node18" class="node"><title>NuGet.ManifestSchemaUtility</title>
<ellipse fill="none" stroke="black" cx="377" cy="-360.952" rx="118.079" ry="18"/>
<text text-anchor="middle" x="377" y="-357.252" font-family="Times New Roman,serif" font-size="14.00">NuGet.ManifestSchemaUtility</text>
</g>
<!-- NuGet.Manifest&#45;&gt;NuGet.ManifestSchemaUtility -->
<g id="edge16" class="edge"><title>NuGet.Manifest&#45;&gt;NuGet.ManifestSchemaUtility</title>
<path fill="none" stroke="black" d="M165.424,-376.94C190.78,-373.459 222.217,-369.848 252.998,-366.796"/>
<polygon fill="black" stroke="black" points="253.347,-370.279 262.96,-365.825 252.668,-363.312 253.347,-370.279"/>
</g>
<!-- NuGet.ManifestReader&#45;&gt;NuGet.Manifest -->
<g id="edge17" class="edge"><title>NuGet.ManifestReader&#45;&gt;NuGet.Manifest</title>
<path fill="none" stroke="black" d="M283.9,-412.001C248.162,-408.866 208.118,-404.571 175.675,-400.336"/>
<polygon fill="black" stroke="black" points="175.8,-396.822 165.424,-398.965 174.872,-403.76 175.8,-396.822"/>
</g>
<!-- NuGet.ManifestSchemaUtility&#45;&gt;NuGet.Manifest -->
<g id="edge18" class="edge"><title>NuGet.ManifestSchemaUtility&#45;&gt;NuGet.Manifest</title>
<path fill="none" stroke="black" d="M300.907,-374.79C266.056,-379.126 224.66,-383.377 189.514,-386.235"/>
<polygon fill="black" stroke="black" points="188.996,-382.765 179.301,-387.039 189.545,-389.743 188.996,-382.765"/>
</g>
<!-- NuGet.NetPortableProfile -->
<g id="node19" class="node"><title>NuGet.NetPortableProfile</title>
<ellipse fill="none" stroke="black" cx="1738" cy="-46.9522" rx="103.982" ry="18"/>
<text text-anchor="middle" x="1738" y="-43.2522" font-family="Times New Roman,serif" font-size="14.00">NuGet.NetPortableProfile</text>
</g>
<!-- NuGet.NetPortableProfileTable -->
<g id="node20" class="node"><title>NuGet.NetPortableProfileTable</title>
<ellipse fill="none" stroke="black" cx="2074" cy="-46.9522" rx="124.278" ry="18"/>
<text text-anchor="middle" x="2074" y="-43.2522" font-family="Times New Roman,serif" font-size="14.00">NuGet.NetPortableProfileTable</text>
</g>
<!-- NuGet.NetPortableProfile&#45;&gt;NuGet.NetPortableProfileTable -->
<g id="edge19" class="edge"><title>NuGet.NetPortableProfile&#45;&gt;NuGet.NetPortableProfileTable</title>
<path fill="none" stroke="black" d="M1836.06,-40.7586C1870.91,-40.1707 1910.74,-40.0487 1947.66,-40.3924"/>
<polygon fill="black" stroke="black" points="1947.95,-43.8956 1957.98,-40.5016 1948.02,-36.896 1947.95,-43.8956"/>
</g>
<!-- NuGet.NetPortableProfile&#45;&gt;NuGet.VersionUtility -->
<g id="edge20" class="edge"><title>NuGet.NetPortableProfile&#45;&gt;NuGet.VersionUtility</title>
<path fill="none" stroke="black" d="M1640.71,-53.4444C1613.51,-53.8115 1584,-53.7865 1557.11,-53.3693"/>
<polygon fill="black" stroke="black" points="1557,-49.867 1546.94,-53.1902 1556.88,-56.8659 1557,-49.867"/>
</g>
<!-- NuGet.NetPortableProfileTable&#45;&gt;NuGet.NetPortableProfile -->
<g id="edge22" class="edge"><title>NuGet.NetPortableProfileTable&#45;&gt;NuGet.NetPortableProfile</title>
<path fill="none" stroke="black" d="M1957.98,-53.4027C1921.84,-53.8321 1882.08,-53.7997 1846.47,-53.3056"/>
<polygon fill="black" stroke="black" points="1846.11,-49.7997 1836.06,-53.1457 1846,-56.7989 1846.11,-49.7997"/>
</g>
<!-- NuGet.NetPortableProfileCollection -->
<g id="node22" class="node"><title>NuGet.NetPortableProfileCollection</title>
<ellipse fill="none" stroke="black" cx="2403" cy="-23.9522" rx="141.075" ry="18"/>
<text text-anchor="middle" x="2403" y="-20.2522" font-family="Times New Roman,serif" font-size="14.00">NuGet.NetPortableProfileCollection</text>
</g>
<!-- NuGet.NetPortableProfileTable&#45;&gt;NuGet.NetPortableProfileCollection -->
<g id="edge23" class="edge"><title>NuGet.NetPortableProfileTable&#45;&gt;NuGet.NetPortableProfileCollection</title>
<path fill="none" stroke="black" d="M2186.16,-39.1333C2212.8,-37.2601 2241.5,-35.2413 2269.01,-33.3065"/>
<polygon fill="black" stroke="black" points="2269.35,-36.791 2279.08,-32.5979 2268.86,-29.8082 2269.35,-36.791"/>
</g>
<!-- NuGet.VersionUtility&#45;&gt;NuGet.Constants -->
<g id="edge32" class="edge"><title>NuGet.VersionUtility&#45;&gt;NuGet.Constants</title>
<path fill="none" stroke="black" d="M1409.41,-33.0181C1387.92,-28.072 1362.93,-22.9849 1340,-19.9522 1167.52,2.85645 1122.98,-0.952151 949,-0.952151 659,-0.952151 659,-0.952151 659,-0.952151 492.798,-0.952151 298.44,-11.6828 191.931,-18.4851"/>
<polygon fill="black" stroke="black" points="191.656,-14.9954 181.902,-19.1306 192.106,-21.981 191.656,-14.9954"/>
</g>
<!-- NuGet.VersionUtility&#45;&gt;NuGet.NetPortableProfile -->
<g id="edge33" class="edge"><title>NuGet.VersionUtility&#45;&gt;NuGet.NetPortableProfile</title>
<path fill="none" stroke="black" d="M1546.94,-40.7141C1573.2,-40.1944 1602.73,-40.0704 1630.55,-40.342"/>
<polygon fill="black" stroke="black" points="1630.67,-43.8435 1640.71,-40.4599 1630.75,-36.844 1630.67,-43.8435"/>
</g>
<!-- NuGet.NetPortableProfileCollection&#45;&gt;NuGet.NetPortableProfile -->
<g id="edge21" class="edge"><title>NuGet.NetPortableProfileCollection&#45;&gt;NuGet.NetPortableProfile</title>
<path fill="none" stroke="black" d="M2272.19,-17.1563C2175.51,-13.482 2040.33,-11.2697 1922,-19.9522 1888.62,-22.4014 1852.09,-27.3314 1820.5,-32.3163"/>
<polygon fill="black" stroke="black" points="1819.75,-28.8922 1810.43,-33.9336 1820.86,-35.8036 1819.75,-28.8922"/>
</g>
<!-- NuGet.PackageDependency&#45;&gt;NuGet.VersionUtility -->
<g id="edge25" class="edge"><title>NuGet.PackageDependency&#45;&gt;NuGet.VersionUtility</title>
<path fill="none" stroke="black" d="M1289.68,-86.339C1322.38,-78.9509 1362.07,-69.9831 1395.31,-62.4719"/>
<polygon fill="black" stroke="black" points="1396.42,-65.8088 1405.41,-60.1909 1394.88,-58.9809 1396.42,-65.8088"/>
</g>
<!-- NuGet.PackageUtility&#45;&gt;NuGet.PackageRepositoryExtensions -->
<g id="edge29" class="edge"><title>NuGet.PackageUtility&#45;&gt;NuGet.PackageRepositoryExtensions</title>
<path fill="none" stroke="black" d="M1554.36,-219.952C1562.69,-219.952 1571.28,-219.952 1580,-219.952"/>
<polygon fill="black" stroke="black" points="1580.29,-223.452 1590.29,-219.952 1580.29,-216.452 1580.29,-223.452"/>
</g>
</g>
</svg>
