<?xml version="1.0" encoding="UTF-8" standalone="no"?>
<!DOCTYPE svg PUBLIC "-//W3C//DTD SVG 1.1//EN"
 "http://www.w3.org/Graphics/SVG/1.1/DTD/svg11.dtd">
<!-- Generated by graphviz version 2.30.1 (20130214.1330)
 -->
<!-- Title: G Pages: 1 -->
<svg width="2186pt" height="107pt"
 viewBox="0.00 0.00 2186.00 106.94" xmlns="http://www.w3.org/2000/svg" xmlns:xlink="http://www.w3.org/1999/xlink">
<g id="graph0" class="graph" transform="scale(1 1) rotate(0) translate(4 102.943)">
<title>G</title>
<polygon fill="white" stroke="white" points="-4,5 -4,-102.943 2183,-102.943 2183,5 -4,5"/>
<!-- Microsoft.AspNet.SignalR.Hubs.HubConnectionContext -->
<g id="node1" class="node"><title>Microsoft.AspNet.SignalR.Hubs.HubConnectionContext</title>
<ellipse fill="none" stroke="black" cx="219" cy="-24.0619" rx="218.261" ry="18"/>
<text text-anchor="middle" x="219" y="-20.3619" font-family="Times New Roman,serif" font-size="14.00">Microsoft.AspNet.SignalR.Hubs.HubConnectionContext</text>
</g>
<!-- Microsoft.AspNet.SignalR.Hubs.IHubPipelineInvoker -->
<g id="node2" class="node"><title>Microsoft.AspNet.SignalR.Hubs.IHubPipelineInvoker</title>
<ellipse fill="none" stroke="black" cx="681" cy="-57.0619" rx="206.863" ry="18"/>
<text text-anchor="middle" x="681" y="-53.3619" font-family="Times New Roman,serif" font-size="14.00">Microsoft.AspNet.SignalR.Hubs.IHubPipelineInvoker</text>
</g>
<!-- Microsoft.AspNet.SignalR.Hubs.HubConnectionContext&#45;&gt;Microsoft.AspNet.SignalR.Hubs.IHubPipelineInvoker -->
<g id="edge1" class="edge"><title>Microsoft.AspNet.SignalR.Hubs.HubConnectionContext&#45;&gt;Microsoft.AspNet.SignalR.Hubs.IHubPipelineInvoker</title>
<path fill="none" stroke="black" d="M384.447,-35.8592C425.428,-38.7991 469.439,-41.9564 510.652,-44.913"/>
<polygon fill="black" stroke="black" points="510.561,-48.4154 520.786,-45.64 511.062,-41.4333 510.561,-48.4154"/>
</g>
<!-- Microsoft.AspNet.SignalR.Hubs.IHub -->
<g id="node3" class="node"><title>Microsoft.AspNet.SignalR.Hubs.IHub</title>
<ellipse fill="none" stroke="black" cx="2027" cy="-61.0619" rx="150.574" ry="18"/>
<text text-anchor="middle" x="2027" y="-57.3619" font-family="Times New Roman,serif" font-size="14.00">Microsoft.AspNet.SignalR.Hubs.IHub</text>
</g>
<!-- Microsoft.AspNet.SignalR.Hubs.IHubPipelineInvoker&#45;&gt;Microsoft.AspNet.SignalR.Hubs.IHub -->
<g id="edge5" class="edge"><title>Microsoft.AspNet.SignalR.Hubs.IHubPipelineInvoker&#45;&gt;Microsoft.AspNet.SignalR.Hubs.IHub</title>
<path fill="none" stroke="black" d="M793.832,-72.1626C834.707,-76.9883 881.369,-81.691 924,-84.0619 1330.49,-106.668 1433.48,-101.034 1840,-79.0619 1861.35,-77.9079 1884.04,-76.1551 1905.95,-74.1882"/>
<polygon fill="black" stroke="black" points="1906.32,-77.6691 1915.96,-73.2709 1905.68,-70.6983 1906.32,-77.6691"/>
</g>
<!-- Microsoft.AspNet.SignalR.Hubs.IHubIncomingInvokerContext -->
<g id="node4" class="node"><title>Microsoft.AspNet.SignalR.Hubs.IHubIncomingInvokerContext</title>
<ellipse fill="none" stroke="black" cx="1165" cy="-57.0619" rx="241.257" ry="18"/>
<text text-anchor="middle" x="1165" y="-53.3619" font-family="Times New Roman,serif" font-size="14.00">Microsoft.AspNet.SignalR.Hubs.IHubIncomingInvokerContext</text>
</g>
<!-- Microsoft.AspNet.SignalR.Hubs.IHubPipelineInvoker&#45;&gt;Microsoft.AspNet.SignalR.Hubs.IHubIncomingInvokerContext -->
<g id="edge6" class="edge"><title>Microsoft.AspNet.SignalR.Hubs.IHubPipelineInvoker&#45;&gt;Microsoft.AspNet.SignalR.Hubs.IHubIncomingInvokerContext</title>
<path fill="none" stroke="black" d="M887.809,-57.0619C896.361,-57.0619 904.973,-57.0619 913.602,-57.0619"/>
<polygon fill="black" stroke="black" points="913.735,-60.562 923.735,-57.0619 913.735,-53.562 913.735,-60.562"/>
</g>
<!-- Microsoft.AspNet.SignalR.Hubs.IHub&#45;&gt;Microsoft.AspNet.SignalR.Hubs.HubConnectionContext -->
<g id="edge2" class="edge"><title>Microsoft.AspNet.SignalR.Hubs.IHub&#45;&gt;Microsoft.AspNet.SignalR.Hubs.HubConnectionContext</title>
<path fill="none" stroke="black" d="M1976.59,-43.9707C1939.52,-32.0862 1887.24,-17.3005 1840,-11.0619 1664.63,12.0977 1618.89,-10.121 1442,-11.0619 1093.71,-12.9144 689.608,-17.7368 444.493,-20.9584"/>
<polygon fill="black" stroke="black" points="444.345,-17.4599 434.392,-21.0914 444.438,-24.4593 444.345,-17.4599"/>
</g>
<!-- Microsoft.AspNet.SignalR.Hubs.IHubIncomingInvokerContext&#45;&gt;Microsoft.AspNet.SignalR.Hubs.IHub -->
<g id="edge3" class="edge"><title>Microsoft.AspNet.SignalR.Hubs.IHubIncomingInvokerContext&#45;&gt;Microsoft.AspNet.SignalR.Hubs.IHub</title>
<path fill="none" stroke="black" d="M1387.43,-64.0447C1405.89,-64.4551 1424.27,-64.8049 1442,-65.0619 1618.87,-67.6247 1663.12,-66.9636 1840,-65.0619 1849.35,-64.9614 1858.96,-64.8325 1868.66,-64.6828"/>
<polygon fill="black" stroke="black" points="1868.84,-68.1804 1878.79,-64.5198 1868.73,-61.1813 1868.84,-68.1804"/>
</g>
<!-- Microsoft.AspNet.SignalR.Hubs.MethodDescriptor -->
<g id="node5" class="node"><title>Microsoft.AspNet.SignalR.Hubs.MethodDescriptor</title>
<ellipse fill="none" stroke="black" cx="1641" cy="-38.0619" rx="198.765" ry="18"/>
<text text-anchor="middle" x="1641" y="-34.3619" font-family="Times New Roman,serif" font-size="14.00">Microsoft.AspNet.SignalR.Hubs.MethodDescriptor</text>
</g>
<!-- Microsoft.AspNet.SignalR.Hubs.IHubIncomingInvokerContext&#45;&gt;Microsoft.AspNet.SignalR.Hubs.MethodDescriptor -->
<g id="edge4" class="edge"><title>Microsoft.AspNet.SignalR.Hubs.IHubIncomingInvokerContext&#45;&gt;Microsoft.AspNet.SignalR.Hubs.MethodDescriptor</title>
<path fill="none" stroke="black" d="M1377.7,-48.576C1401.23,-47.6329 1425.1,-46.6762 1448.36,-45.7438"/>
<polygon fill="black" stroke="black" points="1448.79,-49.2294 1458.64,-45.3316 1448.51,-42.235 1448.79,-49.2294"/>
</g>
<!-- Microsoft.AspNet.SignalR.Hubs.MethodDescriptor&#45;&gt;Microsoft.AspNet.SignalR.Hubs.IHub -->
<g id="edge7" class="edge"><title>Microsoft.AspNet.SignalR.Hubs.MethodDescriptor&#45;&gt;Microsoft.AspNet.SignalR.Hubs.IHub</title>
<path fill="none" stroke="black" d="M1807.36,-47.9661C1832.17,-49.4525 1857.6,-50.9752 1881.92,-52.4322"/>
<polygon fill="black" stroke="black" points="1881.72,-55.9261 1891.91,-53.0304 1882.14,-48.9387 1881.72,-55.9261"/>
</g>
</g>
</svg>
