<?xml version="1.0" encoding="UTF-8" standalone="no"?>
<!DOCTYPE svg PUBLIC "-//W3C//DTD SVG 1.1//EN"
 "http://www.w3.org/Graphics/SVG/1.1/DTD/svg11.dtd">
<!-- Generated by graphviz version 2.30.1 (20130214.1330)
 -->
<!-- Title: G Pages: 1 -->
<svg width="2892pt" height="291pt"
 viewBox="0.00 0.00 2892.00 291.00" xmlns="http://www.w3.org/2000/svg" xmlns:xlink="http://www.w3.org/1999/xlink">
<g id="graph0" class="graph" transform="scale(1 1) rotate(0) translate(4 287)">
<title>G</title>
<polygon fill="white" stroke="white" points="-4,5 -4,-287 2889,-287 2889,5 -4,5"/>
<!-- Microsoft.AspNet.SignalR.ConnectionConfiguration -->
<g id="node1" class="node"><title>Microsoft.AspNet.SignalR.ConnectionConfiguration</title>
<ellipse fill="none" stroke="black" cx="232" cy="-23" rx="202.264" ry="18"/>
<text text-anchor="middle" x="232" y="-19.3" font-family="Times New Roman,serif" font-size="14.00">Microsoft.AspNet.SignalR.ConnectionConfiguration</text>
</g>
<!-- Microsoft.AspNet.SignalR.GlobalHost -->
<g id="node2" class="node"><title>Microsoft.AspNet.SignalR.GlobalHost</title>
<ellipse fill="none" stroke="black" cx="747" cy="-46" rx="152.173" ry="18"/>
<text text-anchor="middle" x="747" y="-42.3" font-family="Times New Roman,serif" font-size="14.00">Microsoft.AspNet.SignalR.GlobalHost</text>
</g>
<!-- Microsoft.AspNet.SignalR.ConnectionConfiguration&#45;&gt;Microsoft.AspNet.SignalR.GlobalHost -->
<g id="edge1" class="edge"><title>Microsoft.AspNet.SignalR.ConnectionConfiguration&#45;&gt;Microsoft.AspNet.SignalR.GlobalHost</title>
<path fill="none" stroke="black" d="M412.783,-31.0604C472.043,-33.7173 537.32,-36.644 594.274,-39.1975"/>
<polygon fill="black" stroke="black" points="594.294,-42.7018 604.44,-39.6533 594.607,-35.7088 594.294,-42.7018"/>
</g>
<!-- Microsoft.AspNet.SignalR.DefaultDependencyResolver -->
<g id="node3" class="node"><title>Microsoft.AspNet.SignalR.DefaultDependencyResolver</title>
<ellipse fill="none" stroke="black" cx="1271" cy="-46" rx="213.662" ry="18"/>
<text text-anchor="middle" x="1271" y="-42.3" font-family="Times New Roman,serif" font-size="14.00">Microsoft.AspNet.SignalR.DefaultDependencyResolver</text>
</g>
<!-- Microsoft.AspNet.SignalR.GlobalHost&#45;&gt;Microsoft.AspNet.SignalR.DefaultDependencyResolver -->
<g id="edge4" class="edge"><title>Microsoft.AspNet.SignalR.GlobalHost&#45;&gt;Microsoft.AspNet.SignalR.DefaultDependencyResolver</title>
<path fill="none" stroke="black" d="M899.335,-46C945.386,-46 997.004,-46 1046.75,-46"/>
<polygon fill="black" stroke="black" points="1047.01,-49.5001 1057.01,-46 1047.01,-42.5001 1047.01,-49.5001"/>
</g>
<!-- Microsoft.AspNet.SignalR.Hubs.HubPipeline -->
<g id="node4" class="node"><title>Microsoft.AspNet.SignalR.Hubs.HubPipeline</title>
<ellipse fill="none" stroke="black" cx="1817" cy="-100" rx="176.269" ry="18"/>
<text text-anchor="middle" x="1817" y="-96.3" font-family="Times New Roman,serif" font-size="14.00">Microsoft.AspNet.SignalR.Hubs.HubPipeline</text>
</g>
<!-- Microsoft.AspNet.SignalR.DefaultDependencyResolver&#45;&gt;Microsoft.AspNet.SignalR.Hubs.HubPipeline -->
<g id="edge2" class="edge"><title>Microsoft.AspNet.SignalR.DefaultDependencyResolver&#45;&gt;Microsoft.AspNet.SignalR.Hubs.HubPipeline</title>
<path fill="none" stroke="black" d="M1409.98,-59.6963C1492.62,-67.9 1597.27,-78.2882 1679.63,-86.4633"/>
<polygon fill="black" stroke="black" points="1679.52,-89.9693 1689.82,-87.4743 1680.21,-83.0036 1679.52,-89.9693"/>
</g>
<!-- Microsoft.AspNet.SignalR.Infrastructure.PerformanceCounterManager -->
<g id="node5" class="node"><title>Microsoft.AspNet.SignalR.Infrastructure.PerformanceCounterManager</title>
<ellipse fill="none" stroke="black" cx="1817" cy="-46" rx="268.352" ry="18"/>
<text text-anchor="middle" x="1817" y="-42.3" font-family="Times New Roman,serif" font-size="14.00">Microsoft.AspNet.SignalR.Infrastructure.PerformanceCounterManager</text>
</g>
<!-- Microsoft.AspNet.SignalR.DefaultDependencyResolver&#45;&gt;Microsoft.AspNet.SignalR.Infrastructure.PerformanceCounterManager -->
<g id="edge3" class="edge"><title>Microsoft.AspNet.SignalR.DefaultDependencyResolver&#45;&gt;Microsoft.AspNet.SignalR.Infrastructure.PerformanceCounterManager</title>
<path fill="none" stroke="black" d="M1470.32,-39.4751C1498.71,-39.2977 1528.25,-39.2251 1557.58,-39.2575"/>
<polygon fill="black" stroke="black" points="1557.94,-42.7579 1567.95,-39.2733 1557.95,-35.7579 1557.94,-42.7579"/>
</g>
<!-- Microsoft.AspNet.SignalR.Hubs.HubDispatcher -->
<g id="node9" class="node"><title>Microsoft.AspNet.SignalR.Hubs.HubDispatcher</title>
<ellipse fill="none" stroke="black" cx="2309" cy="-73" rx="186.567" ry="18"/>
<text text-anchor="middle" x="2309" y="-69.3" font-family="Times New Roman,serif" font-size="14.00">Microsoft.AspNet.SignalR.Hubs.HubDispatcher</text>
</g>
<!-- Microsoft.AspNet.SignalR.Hubs.HubPipeline&#45;&gt;Microsoft.AspNet.SignalR.Hubs.HubDispatcher -->
<g id="edge8" class="edge"><title>Microsoft.AspNet.SignalR.Hubs.HubPipeline&#45;&gt;Microsoft.AspNet.SignalR.Hubs.HubDispatcher</title>
<path fill="none" stroke="black" d="M1972.37,-91.4941C2024.42,-88.6261 2082.82,-85.408 2136.13,-82.4702"/>
<polygon fill="black" stroke="black" points="2136.58,-85.9509 2146.37,-81.9059 2136.2,-78.9615 2136.58,-85.9509"/>
</g>
<!-- Microsoft.AspNet.SignalR.Infrastructure.PerformanceCounterManager&#45;&gt;Microsoft.AspNet.SignalR.DefaultDependencyResolver -->
<g id="edge15" class="edge"><title>Microsoft.AspNet.SignalR.Infrastructure.PerformanceCounterManager&#45;&gt;Microsoft.AspNet.SignalR.DefaultDependencyResolver</title>
<path fill="none" stroke="black" d="M1567.95,-52.7267C1538.68,-52.7838 1509.05,-52.736 1480.41,-52.5833"/>
<polygon fill="black" stroke="black" points="1480.34,-49.0829 1470.32,-52.5249 1480.3,-56.0828 1480.34,-49.0829"/>
</g>
<!-- Microsoft.AspNet.SignalR.HubConfiguration -->
<g id="node6" class="node"><title>Microsoft.AspNet.SignalR.HubConfiguration</title>
<ellipse fill="none" stroke="black" cx="2708" cy="-36" rx="175.469" ry="18"/>
<text text-anchor="middle" x="2708" y="-32.3" font-family="Times New Roman,serif" font-size="14.00">Microsoft.AspNet.SignalR.HubConfiguration</text>
</g>
<!-- Microsoft.AspNet.SignalR.HubConfiguration&#45;&gt;Microsoft.AspNet.SignalR.ConnectionConfiguration -->
<g id="edge5" class="edge"><title>Microsoft.AspNet.SignalR.HubConfiguration&#45;&gt;Microsoft.AspNet.SignalR.ConnectionConfiguration</title>
<path fill="none" stroke="black" d="M2559.6,-26.3763C2383.31,-15.7122 2079.24,-0 1818,-0 1270,-0 1270,-0 1270,-0 977.657,-2.84217e-014 639.07,-9.24924 430.453,-16.017"/>
<polygon fill="black" stroke="black" points="430.19,-12.5236 420.309,-16.3474 430.418,-19.5199 430.19,-12.5236"/>
</g>
<!-- Microsoft.AspNet.SignalR.Hubs.HubConnectionContext -->
<g id="node7" class="node"><title>Microsoft.AspNet.SignalR.Hubs.HubConnectionContext</title>
<ellipse fill="none" stroke="black" cx="232" cy="-178" rx="218.261" ry="18"/>
<text text-anchor="middle" x="232" y="-174.3" font-family="Times New Roman,serif" font-size="14.00">Microsoft.AspNet.SignalR.Hubs.HubConnectionContext</text>
</g>
<!-- Microsoft.AspNet.SignalR.Hubs.IHubPipelineInvoker -->
<g id="node8" class="node"><title>Microsoft.AspNet.SignalR.Hubs.IHubPipelineInvoker</title>
<ellipse fill="none" stroke="black" cx="747" cy="-211" rx="206.863" ry="18"/>
<text text-anchor="middle" x="747" y="-207.3" font-family="Times New Roman,serif" font-size="14.00">Microsoft.AspNet.SignalR.Hubs.IHubPipelineInvoker</text>
</g>
<!-- Microsoft.AspNet.SignalR.Hubs.HubConnectionContext&#45;&gt;Microsoft.AspNet.SignalR.Hubs.IHubPipelineInvoker -->
<g id="edge6" class="edge"><title>Microsoft.AspNet.SignalR.Hubs.HubConnectionContext&#45;&gt;Microsoft.AspNet.SignalR.Hubs.IHubPipelineInvoker</title>
<path fill="none" stroke="black" d="M404.892,-189.057C457.96,-192.471 516.469,-196.235 569.822,-199.667"/>
<polygon fill="black" stroke="black" points="569.866,-203.177 580.07,-200.326 570.316,-196.191 569.866,-203.177"/>
</g>
<!-- Microsoft.AspNet.SignalR.Hubs.IHub -->
<g id="node10" class="node"><title>Microsoft.AspNet.SignalR.Hubs.IHub</title>
<ellipse fill="none" stroke="black" cx="2309" cy="-215" rx="150.574" ry="18"/>
<text text-anchor="middle" x="2309" y="-211.3" font-family="Times New Roman,serif" font-size="14.00">Microsoft.AspNet.SignalR.Hubs.IHub</text>
</g>
<!-- Microsoft.AspNet.SignalR.Hubs.IHubPipelineInvoker&#45;&gt;Microsoft.AspNet.SignalR.Hubs.IHub -->
<g id="edge12" class="edge"><title>Microsoft.AspNet.SignalR.Hubs.IHubPipelineInvoker&#45;&gt;Microsoft.AspNet.SignalR.Hubs.IHub</title>
<path fill="none" stroke="black" d="M871.359,-225.384C920.628,-230.456 977.926,-235.513 1030,-238 1498.8,-260.391 1617.16,-255.663 2086,-234 2117.47,-232.546 2151.38,-230.094 2183,-227.427"/>
<polygon fill="black" stroke="black" points="2183.51,-230.896 2193.18,-226.554 2182.91,-223.921 2183.51,-230.896"/>
</g>
<!-- Microsoft.AspNet.SignalR.Hubs.IHubIncomingInvokerContext -->
<g id="node11" class="node"><title>Microsoft.AspNet.SignalR.Hubs.IHubIncomingInvokerContext</title>
<ellipse fill="none" stroke="black" cx="1271" cy="-211" rx="241.257" ry="18"/>
<text text-anchor="middle" x="1271" y="-207.3" font-family="Times New Roman,serif" font-size="14.00">Microsoft.AspNet.SignalR.Hubs.IHubIncomingInvokerContext</text>
</g>
<!-- Microsoft.AspNet.SignalR.Hubs.IHubPipelineInvoker&#45;&gt;Microsoft.AspNet.SignalR.Hubs.IHubIncomingInvokerContext -->
<g id="edge13" class="edge"><title>Microsoft.AspNet.SignalR.Hubs.IHubPipelineInvoker&#45;&gt;Microsoft.AspNet.SignalR.Hubs.IHubIncomingInvokerContext</title>
<path fill="none" stroke="black" d="M953.934,-211C975.446,-211 997.481,-211 1019.42,-211"/>
<polygon fill="black" stroke="black" points="1019.49,-214.5 1029.49,-211 1019.49,-207.5 1019.49,-214.5"/>
</g>
<!-- Microsoft.AspNet.SignalR.Hubs.HubDispatcher&#45;&gt;Microsoft.AspNet.SignalR.HubConfiguration -->
<g id="edge7" class="edge"><title>Microsoft.AspNet.SignalR.Hubs.HubDispatcher&#45;&gt;Microsoft.AspNet.SignalR.HubConfiguration</title>
<path fill="none" stroke="black" d="M2443.85,-60.5251C2483.59,-56.8214 2527.21,-52.756 2567.31,-49.0187"/>
<polygon fill="black" stroke="black" points="2567.8,-52.489 2577.43,-48.076 2567.15,-45.5192 2567.8,-52.489"/>
</g>
<!-- Microsoft.AspNet.SignalR.Hubs.IHub&#45;&gt;Microsoft.AspNet.SignalR.Hubs.HubConnectionContext -->
<g id="edge9" class="edge"><title>Microsoft.AspNet.SignalR.Hubs.IHub&#45;&gt;Microsoft.AspNet.SignalR.Hubs.HubConnectionContext</title>
<path fill="none" stroke="black" d="M2250.63,-198.398C2206.15,-186.427 2142.74,-171.31 2086,-165 1463.48,-95.7631 716.046,-139.361 393.784,-164.21"/>
<polygon fill="black" stroke="black" points="393.136,-160.75 383.436,-165.013 393.677,-167.729 393.136,-160.75"/>
</g>
<!-- Microsoft.AspNet.SignalR.Hubs.IHubIncomingInvokerContext&#45;&gt;Microsoft.AspNet.SignalR.Hubs.IHub -->
<g id="edge10" class="edge"><title>Microsoft.AspNet.SignalR.Hubs.IHubIncomingInvokerContext&#45;&gt;Microsoft.AspNet.SignalR.Hubs.IHub</title>
<path fill="none" stroke="black" d="M1493.43,-217.983C1511.89,-218.393 1530.27,-218.743 1548,-219 1787.09,-222.464 1846.9,-221.154 2086,-219 2106.71,-218.813 2128.51,-218.529 2150.03,-218.196"/>
<polygon fill="black" stroke="black" points="2150.29,-221.692 2160.23,-218.034 2150.17,-214.693 2150.29,-221.692"/>
</g>
<!-- Microsoft.AspNet.SignalR.Hubs.MethodDescriptor -->
<g id="node12" class="node"><title>Microsoft.AspNet.SignalR.Hubs.MethodDescriptor</title>
<ellipse fill="none" stroke="black" cx="1817" cy="-192" rx="198.765" ry="18"/>
<text text-anchor="middle" x="1817" y="-188.3" font-family="Times New Roman,serif" font-size="14.00">Microsoft.AspNet.SignalR.Hubs.MethodDescriptor</text>
</g>
<!-- Microsoft.AspNet.SignalR.Hubs.IHubIncomingInvokerContext&#45;&gt;Microsoft.AspNet.SignalR.Hubs.MethodDescriptor -->
<g id="edge11" class="edge"><title>Microsoft.AspNet.SignalR.Hubs.IHubIncomingInvokerContext&#45;&gt;Microsoft.AspNet.SignalR.Hubs.MethodDescriptor</title>
<path fill="none" stroke="black" d="M1489.74,-203.395C1533.14,-201.879 1578.46,-200.296 1621.04,-198.809"/>
<polygon fill="black" stroke="black" points="1621.35,-202.301 1631.22,-198.454 1621.11,-195.305 1621.35,-202.301"/>
</g>
<!-- Microsoft.AspNet.SignalR.Hubs.MethodDescriptor&#45;&gt;Microsoft.AspNet.SignalR.Hubs.IHub -->
<g id="edge14" class="edge"><title>Microsoft.AspNet.SignalR.Hubs.MethodDescriptor&#45;&gt;Microsoft.AspNet.SignalR.Hubs.IHub</title>
<path fill="none" stroke="black" d="M1993.86,-200.255C2047.65,-202.779 2106.27,-205.531 2158.15,-207.966"/>
<polygon fill="black" stroke="black" points="2158.28,-211.476 2168.44,-208.449 2158.61,-204.484 2158.28,-211.476"/>
</g>
<!-- Microsoft.AspNet.SignalR.Transports.HttpRequestLifeTime -->
<g id="node13" class="node"><title>Microsoft.AspNet.SignalR.Transports.HttpRequestLifeTime</title>
<ellipse fill="none" stroke="black" cx="232" cy="-265" rx="231.259" ry="18"/>
<text text-anchor="middle" x="232" y="-261.3" font-family="Times New Roman,serif" font-size="14.00">Microsoft.AspNet.SignalR.Transports.HttpRequestLifeTime</text>
</g>
<!-- Microsoft.AspNet.SignalR.Transports.TransportDisconnectBase -->
<g id="node14" class="node"><title>Microsoft.AspNet.SignalR.Transports.TransportDisconnectBase</title>
<ellipse fill="none" stroke="black" cx="747" cy="-265" rx="246.956" ry="18"/>
<text text-anchor="middle" x="747" y="-261.3" font-family="Times New Roman,serif" font-size="14.00">Microsoft.AspNet.SignalR.Transports.TransportDisconnectBase</text>
</g>
<!-- Microsoft.AspNet.SignalR.Transports.HttpRequestLifeTime&#45;&gt;Microsoft.AspNet.SignalR.Transports.TransportDisconnectBase -->
<g id="edge16" class="edge"><title>Microsoft.AspNet.SignalR.Transports.HttpRequestLifeTime&#45;&gt;Microsoft.AspNet.SignalR.Transports.TransportDisconnectBase</title>
<path fill="none" stroke="black" d="M447.215,-258.332C467.075,-258.254 487.283,-258.232 507.345,-258.265"/>
<polygon fill="black" stroke="black" points="507.491,-261.765 517.499,-258.286 507.506,-254.765 507.491,-261.765"/>
</g>
<!-- Microsoft.AspNet.SignalR.Transports.TransportDisconnectBase&#45;&gt;Microsoft.AspNet.SignalR.Transports.HttpRequestLifeTime -->
<g id="edge17" class="edge"><title>Microsoft.AspNet.SignalR.Transports.TransportDisconnectBase&#45;&gt;Microsoft.AspNet.SignalR.Transports.HttpRequestLifeTime</title>
<path fill="none" stroke="black" d="M517.499,-271.714C497.5,-271.766 477.272,-271.762 457.308,-271.703"/>
<polygon fill="black" stroke="black" points="457.227,-268.202 447.215,-271.668 457.202,-275.202 457.227,-268.202"/>
</g>
</g>
</svg>
