<?xml version="1.0" encoding="UTF-8" standalone="no"?>
<!DOCTYPE svg PUBLIC "-//W3C//DTD SVG 1.1//EN"
 "http://www.w3.org/Graphics/SVG/1.1/DTD/svg11.dtd">
<!-- Generated by graphviz version 2.30.1 (20130214.1330)
 -->
<!-- Title: G Pages: 1 -->
<svg width="1332pt" height="1083pt"
 viewBox="0.00 0.00 1332.00 1083.43" xmlns="http://www.w3.org/2000/svg" xmlns:xlink="http://www.w3.org/1999/xlink">
<g id="graph0" class="graph" transform="scale(1 1) rotate(0) translate(4 1079.43)">
<title>G</title>
<polygon fill="white" stroke="white" points="-4,5 -4,-1079.43 1329,-1079.43 1329,5 -4,5"/>
<!-- TickSpec.AfterScenarioAttribute -->
<g id="node1" class="node"><title>TickSpec.AfterScenarioAttribute</title>
<ellipse fill="none" stroke="black" cx="486" cy="-840" rx="129.977" ry="18"/>
<text text-anchor="middle" x="486" y="-836.3" font-family="Times New Roman,serif" font-size="14.00">TickSpec.AfterScenarioAttribute</text>
</g>
<!-- TickSpec.EventAttribute -->
<g id="node2" class="node"><title>TickSpec.EventAttribute</title>
<ellipse fill="none" stroke="black" cx="764" cy="-786" rx="100.983" ry="18"/>
<text text-anchor="middle" x="764" y="-782.3" font-family="Times New Roman,serif" font-size="14.00">TickSpec.EventAttribute</text>
</g>
<!-- TickSpec.AfterScenarioAttribute&#45;&gt;TickSpec.EventAttribute -->
<g id="edge1" class="edge"><title>TickSpec.AfterScenarioAttribute&#45;&gt;TickSpec.EventAttribute</title>
<path fill="none" stroke="black" d="M562.054,-825.316C600.299,-817.833 646.753,-808.744 685.358,-801.191"/>
<polygon fill="black" stroke="black" points="686.366,-804.56 695.508,-799.205 685.022,-797.69 686.366,-804.56"/>
</g>
<!-- TickSpec.AfterStepAttribute -->
<g id="node3" class="node"><title>TickSpec.AfterStepAttribute</title>
<ellipse fill="none" stroke="black" cx="486" cy="-786" rx="115.08" ry="18"/>
<text text-anchor="middle" x="486" y="-782.3" font-family="Times New Roman,serif" font-size="14.00">TickSpec.AfterStepAttribute</text>
</g>
<!-- TickSpec.AfterStepAttribute&#45;&gt;TickSpec.EventAttribute -->
<g id="edge2" class="edge"><title>TickSpec.AfterStepAttribute&#45;&gt;TickSpec.EventAttribute</title>
<path fill="none" stroke="black" d="M601.252,-786C618.2,-786 635.64,-786 652.509,-786"/>
<polygon fill="black" stroke="black" points="652.929,-789.5 662.929,-786 652.929,-782.5 652.929,-789.5"/>
</g>
<!-- TickSpec.BeforeScenarioAttribute -->
<g id="node4" class="node"><title>TickSpec.BeforeScenarioAttribute</title>
<ellipse fill="none" stroke="black" cx="486" cy="-732" rx="135.676" ry="18"/>
<text text-anchor="middle" x="486" y="-728.3" font-family="Times New Roman,serif" font-size="14.00">TickSpec.BeforeScenarioAttribute</text>
</g>
<!-- TickSpec.BeforeScenarioAttribute&#45;&gt;TickSpec.EventAttribute -->
<g id="edge3" class="edge"><title>TickSpec.BeforeScenarioAttribute&#45;&gt;TickSpec.EventAttribute</title>
<path fill="none" stroke="black" d="M563.149,-746.899C601.085,-754.321 646.883,-763.281 685.062,-770.751"/>
<polygon fill="black" stroke="black" points="684.617,-774.23 695.103,-772.716 685.961,-767.361 684.617,-774.23"/>
</g>
<!-- TickSpec.BeforeStepAttribute -->
<g id="node5" class="node"><title>TickSpec.BeforeStepAttribute</title>
<ellipse fill="none" stroke="black" cx="486" cy="-678" rx="120.779" ry="18"/>
<text text-anchor="middle" x="486" y="-674.3" font-family="Times New Roman,serif" font-size="14.00">TickSpec.BeforeStepAttribute</text>
</g>
<!-- TickSpec.BeforeStepAttribute&#45;&gt;TickSpec.EventAttribute -->
<g id="edge4" class="edge"><title>TickSpec.BeforeStepAttribute&#45;&gt;TickSpec.EventAttribute</title>
<path fill="none" stroke="black" d="M572.077,-690.649C588.902,-694.363 606.226,-699.073 622,-705 661.108,-719.694 702.118,-744.467 729.763,-762.756"/>
<polygon fill="black" stroke="black" points="727.995,-765.784 738.25,-768.445 731.893,-759.969 727.995,-765.784"/>
</g>
<!-- TickSpec.BlockParser -->
<g id="node6" class="node"><title>TickSpec.BlockParser</title>
<ellipse fill="none" stroke="black" cx="764" cy="-394" rx="92.8835" ry="18"/>
<text text-anchor="middle" x="764" y="-390.3" font-family="Times New Roman,serif" font-size="14.00">TickSpec.BlockParser</text>
</g>
<!-- TickSpec.LineParser -->
<g id="node7" class="node"><title>TickSpec.LineParser</title>
<ellipse fill="none" stroke="black" cx="1013" cy="-494" rx="87.1846" ry="18"/>
<text text-anchor="middle" x="1013" y="-490.3" font-family="Times New Roman,serif" font-size="14.00">TickSpec.LineParser</text>
</g>
<!-- TickSpec.BlockParser&#45;&gt;TickSpec.LineParser -->
<g id="edge5" class="edge"><title>TickSpec.BlockParser&#45;&gt;TickSpec.LineParser</title>
<path fill="none" stroke="black" d="M834.895,-405.709C847.126,-409.477 859.335,-414.447 870,-421 890.661,-433.695 885.607,-448.879 906,-462 916.396,-468.689 928.258,-474.036 940.194,-478.295"/>
<polygon fill="black" stroke="black" points="939.161,-481.64 949.755,-481.481 941.374,-474.999 939.161,-481.64"/>
</g>
<!-- TickSpec.LineSource -->
<g id="node8" class="node"><title>TickSpec.LineSource</title>
<ellipse fill="none" stroke="black" cx="1013" cy="-256" rx="89.8845" ry="18"/>
<text text-anchor="middle" x="1013" y="-252.3" font-family="Times New Roman,serif" font-size="14.00">TickSpec.LineSource</text>
</g>
<!-- TickSpec.BlockParser&#45;&gt;TickSpec.LineSource -->
<g id="edge6" class="edge"><title>TickSpec.BlockParser&#45;&gt;TickSpec.LineSource</title>
<path fill="none" stroke="black" d="M791.485,-376.549C813.082,-362.033 844.135,-340.504 870,-320 886.776,-306.702 887.316,-298.449 906,-288 917.12,-281.781 929.588,-276.637 941.96,-272.429"/>
<polygon fill="black" stroke="black" points="943.387,-275.646 951.834,-269.251 941.243,-268.983 943.387,-275.646"/>
</g>
<!-- TickSpec.Seq -->
<g id="node9" class="node"><title>TickSpec.Seq</title>
<ellipse fill="none" stroke="black" cx="1013" cy="-348" rx="62.2891" ry="18"/>
<text text-anchor="middle" x="1013" y="-344.3" font-family="Times New Roman,serif" font-size="14.00">TickSpec.Seq</text>
</g>
<!-- TickSpec.BlockParser&#45;&gt;TickSpec.Seq -->
<g id="edge7" class="edge"><title>TickSpec.BlockParser&#45;&gt;TickSpec.Seq</title>
<path fill="none" stroke="black" d="M831.516,-381.612C868.478,-374.729 914.162,-366.221 950.319,-359.487"/>
<polygon fill="black" stroke="black" points="951.059,-362.91 960.25,-357.638 949.778,-356.028 951.059,-362.91"/>
</g>
<!-- TickSpec.StepException -->
<g id="node10" class="node"><title>TickSpec.StepException</title>
<ellipse fill="none" stroke="black" cx="1013" cy="-402" rx="101.282" ry="18"/>
<text text-anchor="middle" x="1013" y="-398.3" font-family="Times New Roman,serif" font-size="14.00">TickSpec.StepException</text>
</g>
<!-- TickSpec.BlockParser&#45;&gt;TickSpec.StepException -->
<g id="edge8" class="edge"><title>TickSpec.BlockParser&#45;&gt;TickSpec.StepException</title>
<path fill="none" stroke="black" d="M855.921,-396.945C871.154,-397.438 887.1,-397.955 902.736,-398.461"/>
<polygon fill="black" stroke="black" points="902.849,-401.966 912.957,-398.792 903.075,-394.97 902.849,-401.966"/>
</g>
<!-- TickSpec.StepType -->
<g id="node11" class="node"><title>TickSpec.StepType</title>
<ellipse fill="none" stroke="black" cx="1240" cy="-517" rx="83.6854" ry="18"/>
<text text-anchor="middle" x="1240" y="-513.3" font-family="Times New Roman,serif" font-size="14.00">TickSpec.StepType</text>
</g>
<!-- TickSpec.BlockParser&#45;&gt;TickSpec.StepType -->
<g id="edge9" class="edge"><title>TickSpec.BlockParser&#45;&gt;TickSpec.StepType</title>
<path fill="none" stroke="black" d="M819.709,-408.494C845.749,-415.158 877.382,-422.915 906,-429 1000.49,-449.092 1027.35,-439.678 1120,-467 1145.95,-474.653 1173.9,-486.211 1196.18,-496.287"/>
<polygon fill="black" stroke="black" points="1194.82,-499.51 1205.36,-500.499 1197.73,-493.148 1194.82,-499.51"/>
</g>
<!-- TickSpec.Table -->
<g id="node12" class="node"><title>TickSpec.Table</title>
<ellipse fill="none" stroke="black" cx="1240" cy="-210" rx="68.7879" ry="18"/>
<text text-anchor="middle" x="1240" y="-206.3" font-family="Times New Roman,serif" font-size="14.00">TickSpec.Table</text>
</g>
<!-- TickSpec.BlockParser&#45;&gt;TickSpec.Table -->
<g id="edge10" class="edge"><title>TickSpec.BlockParser&#45;&gt;TickSpec.Table</title>
<path fill="none" stroke="black" d="M792.25,-376.717C819.872,-359.976 864.359,-335.111 906,-321 997.488,-289.996 1029.7,-317.3 1120,-283 1152.15,-270.79 1185.21,-249.693 1208.3,-233.309"/>
<polygon fill="black" stroke="black" points="1210.58,-235.98 1216.64,-227.289 1206.49,-230.304 1210.58,-235.98"/>
</g>
<!-- TickSpec.LineParser&#45;&gt;TickSpec.StepType -->
<g id="edge21" class="edge"><title>TickSpec.LineParser&#45;&gt;TickSpec.StepType</title>
<path fill="none" stroke="black" d="M1091.43,-501.915C1111.64,-503.981 1133.53,-506.219 1154.1,-508.322"/>
<polygon fill="black" stroke="black" points="1153.78,-511.807 1164.09,-509.342 1154.49,-504.843 1153.78,-511.807"/>
</g>
<!-- TickSpec.LineSource&#45;&gt;TickSpec.Table -->
<g id="edge22" class="edge"><title>TickSpec.LineSource&#45;&gt;TickSpec.Table</title>
<path fill="none" stroke="black" d="M1076.38,-243.248C1107.24,-236.938 1144.43,-229.334 1175.45,-222.992"/>
<polygon fill="black" stroke="black" points="1176.2,-226.413 1185.29,-220.98 1174.79,-219.554 1176.2,-226.413"/>
</g>
<!-- TickSpec.Feature -->
<g id="node13" class="node"><title>TickSpec.Feature</title>
<ellipse fill="none" stroke="black" cx="486" cy="-624" rx="75.2868" ry="18"/>
<text text-anchor="middle" x="486" y="-620.3" font-family="Times New Roman,serif" font-size="14.00">TickSpec.Feature</text>
</g>
<!-- TickSpec.Scenario -->
<g id="node14" class="node"><title>TickSpec.Scenario</title>
<ellipse fill="none" stroke="black" cx="764" cy="-624" rx="79.8859" ry="18"/>
<text text-anchor="middle" x="764" y="-620.3" font-family="Times New Roman,serif" font-size="14.00">TickSpec.Scenario</text>
</g>
<!-- TickSpec.Feature&#45;&gt;TickSpec.Scenario -->
<g id="edge11" class="edge"><title>TickSpec.Feature&#45;&gt;TickSpec.Scenario</title>
<path fill="none" stroke="black" d="M561.69,-624C596.274,-624 637.632,-624 673.839,-624"/>
<polygon fill="black" stroke="black" points="673.905,-627.5 683.905,-624 673.905,-620.5 673.905,-627.5"/>
</g>
<!-- TickSpec.Action -->
<g id="node21" class="node"><title>TickSpec.Action</title>
<ellipse fill="none" stroke="black" cx="1013" cy="-624" rx="72.5877" ry="18"/>
<text text-anchor="middle" x="1013" y="-620.3" font-family="Times New Roman,serif" font-size="14.00">TickSpec.Action</text>
</g>
<!-- TickSpec.Scenario&#45;&gt;TickSpec.Action -->
<g id="edge23" class="edge"><title>TickSpec.Scenario&#45;&gt;TickSpec.Action</title>
<path fill="none" stroke="black" d="M844.172,-624C871.568,-624 902.321,-624 929.944,-624"/>
<polygon fill="black" stroke="black" points="929.967,-627.5 939.967,-624 929.967,-620.5 929.967,-627.5"/>
</g>
<!-- TickSpec.FeatureParser -->
<g id="node15" class="node"><title>TickSpec.FeatureParser</title>
<ellipse fill="none" stroke="black" cx="486" cy="-448" rx="98.2828" ry="18"/>
<text text-anchor="middle" x="486" y="-444.3" font-family="Times New Roman,serif" font-size="14.00">TickSpec.FeatureParser</text>
</g>
<!-- TickSpec.FeatureParser&#45;&gt;TickSpec.BlockParser -->
<g id="edge12" class="edge"><title>TickSpec.FeatureParser&#45;&gt;TickSpec.BlockParser</title>
<path fill="none" stroke="black" d="M553.812,-434.928C594.281,-427.01 645.997,-416.892 687.882,-408.697"/>
<polygon fill="black" stroke="black" points="688.614,-412.12 697.756,-406.765 687.27,-405.251 688.614,-412.12"/>
</g>
<!-- TickSpec.FeatureParser&#45;&gt;TickSpec.LineParser -->
<g id="edge13" class="edge"><title>TickSpec.FeatureParser&#45;&gt;TickSpec.LineParser</title>
<path fill="none" stroke="black" d="M556.258,-460.596C587.279,-465.809 624.374,-471.452 658,-475 745.07,-484.186 844.682,-489.03 916.012,-491.521"/>
<polygon fill="black" stroke="black" points="916.212,-495.029 926.326,-491.871 916.45,-488.034 916.212,-495.029"/>
</g>
<!-- TickSpec.FeatureParser&#45;&gt;TickSpec.LineSource -->
<g id="edge14" class="edge"><title>TickSpec.FeatureParser&#45;&gt;TickSpec.LineSource</title>
<path fill="none" stroke="black" d="M568.967,-438.239C587.445,-433.487 606.235,-426.44 622,-416 644.531,-401.079 636.31,-383.118 658,-367 751.874,-297.242 793.513,-311.02 906,-279 916.331,-276.059 927.32,-273.287 938.162,-270.755"/>
<polygon fill="black" stroke="black" points="939.083,-274.135 948.054,-268.498 937.526,-267.31 939.083,-274.135"/>
</g>
<!-- TickSpec.FeatureParser&#45;&gt;TickSpec.StepType -->
<g id="edge15" class="edge"><title>TickSpec.FeatureParser&#45;&gt;TickSpec.StepType</title>
<path fill="none" stroke="black" d="M534.385,-463.69C568.419,-474.369 615.584,-487.972 658,-496 829.116,-528.388 1033.5,-526.657 1148.57,-522.086"/>
<polygon fill="black" stroke="black" points="1148.9,-525.576 1158.75,-521.665 1148.61,-518.582 1148.9,-525.576"/>
</g>
<!-- TickSpec.FeatureParser&#45;&gt;TickSpec.Table -->
<g id="edge16" class="edge"><title>TickSpec.FeatureParser&#45;&gt;TickSpec.Table</title>
<path fill="none" stroke="black" d="M576.001,-440.665C593.415,-435.251 609.98,-426.611 622,-413 703.887,-320.276 567.889,-221.753 658,-137 695.418,-101.807 1071.3,-103.658 1120,-120 1158,-132.753 1193.55,-162.976 1215.72,-184.887"/>
<polygon fill="black" stroke="black" points="1213.47,-187.59 1222.98,-192.249 1218.45,-182.673 1213.47,-187.59"/>
</g>
<!-- TickSpec.FeatureSource -->
<g id="node16" class="node"><title>TickSpec.FeatureSource</title>
<ellipse fill="none" stroke="black" cx="764" cy="-72" rx="100.983" ry="18"/>
<text text-anchor="middle" x="764" y="-68.3" font-family="Times New Roman,serif" font-size="14.00">TickSpec.FeatureSource</text>
</g>
<!-- TickSpec.FeatureParser&#45;&gt;TickSpec.FeatureSource -->
<g id="edge17" class="edge"><title>TickSpec.FeatureParser&#45;&gt;TickSpec.FeatureSource</title>
<path fill="none" stroke="black" d="M578.811,-442.048C595.198,-436.938 610.64,-428.784 622,-416 714.718,-311.655 568.619,-211.217 658,-104 663.438,-97.4771 670.164,-92.2555 677.566,-88.0797"/>
<polygon fill="black" stroke="black" points="679.119,-91.2164 686.528,-83.6429 676.013,-84.9431 679.119,-91.2164"/>
</g>
<!-- TickSpec.List -->
<g id="node17" class="node"><title>TickSpec.List</title>
<ellipse fill="none" stroke="black" cx="764" cy="-448" rx="61.99" ry="18"/>
<text text-anchor="middle" x="764" y="-444.3" font-family="Times New Roman,serif" font-size="14.00">TickSpec.List</text>
</g>
<!-- TickSpec.FeatureParser&#45;&gt;TickSpec.List -->
<g id="edge18" class="edge"><title>TickSpec.FeatureParser&#45;&gt;TickSpec.List</title>
<path fill="none" stroke="black" d="M584.307,-448C619.738,-448 659.099,-448 691.842,-448"/>
<polygon fill="black" stroke="black" points="692.227,-451.5 702.226,-448 692.226,-444.5 692.227,-451.5"/>
</g>
<!-- TickSpec.ScenarioSource -->
<g id="node18" class="node"><title>TickSpec.ScenarioSource</title>
<ellipse fill="none" stroke="black" cx="764" cy="-18" rx="105.881" ry="18"/>
<text text-anchor="middle" x="764" y="-14.3" font-family="Times New Roman,serif" font-size="14.00">TickSpec.ScenarioSource</text>
</g>
<!-- TickSpec.FeatureParser&#45;&gt;TickSpec.ScenarioSource -->
<g id="edge19" class="edge"><title>TickSpec.FeatureParser&#45;&gt;TickSpec.ScenarioSource</title>
<path fill="none" stroke="black" d="M542.233,-433.165C570.741,-422.563 603.364,-405.236 622,-378 706.062,-255.144 560.583,-157.561 658,-45 661.695,-40.7303 665.966,-37.0906 670.628,-33.9917"/>
<polygon fill="black" stroke="black" points="672.454,-36.9794 679.399,-28.9788 668.98,-30.9019 672.454,-36.9794"/>
</g>
<!-- TickSpec.GivenAttribute -->
<g id="node19" class="node"><title>TickSpec.GivenAttribute</title>
<ellipse fill="none" stroke="black" cx="157" cy="-291" rx="101.282" ry="18"/>
<text text-anchor="middle" x="157" y="-287.3" font-family="Times New Roman,serif" font-size="14.00">TickSpec.GivenAttribute</text>
</g>
<!-- TickSpec.StepAttribute -->
<g id="node20" class="node"><title>TickSpec.StepAttribute</title>
<ellipse fill="none" stroke="black" cx="486" cy="-318" rx="96.6831" ry="18"/>
<text text-anchor="middle" x="486" y="-314.3" font-family="Times New Roman,serif" font-size="14.00">TickSpec.StepAttribute</text>
</g>
<!-- TickSpec.GivenAttribute&#45;&gt;TickSpec.StepAttribute -->
<g id="edge20" class="edge"><title>TickSpec.GivenAttribute&#45;&gt;TickSpec.StepAttribute</title>
<path fill="none" stroke="black" d="M249.523,-298.557C292.38,-302.096 343.482,-306.315 387.111,-309.917"/>
<polygon fill="black" stroke="black" points="386.909,-313.413 397.163,-310.747 387.485,-306.436 386.909,-313.413"/>
</g>
<!-- TickSpec.ScenarioGen -->
<g id="node22" class="node"><title>TickSpec.ScenarioGen</title>
<ellipse fill="none" stroke="black" cx="764" cy="-164" rx="94.7833" ry="18"/>
<text text-anchor="middle" x="764" y="-160.3" font-family="Times New Roman,serif" font-size="14.00">TickSpec.ScenarioGen</text>
</g>
<!-- TickSpec.ScenarioGen&#45;&gt;TickSpec.LineSource -->
<g id="edge24" class="edge"><title>TickSpec.ScenarioGen&#45;&gt;TickSpec.LineSource</title>
<path fill="none" stroke="black" d="M825.797,-177.68C840.425,-181.506 855.895,-186.003 870,-191 904.786,-203.324 942.724,-220.918 970.628,-234.694"/>
<polygon fill="black" stroke="black" points="969.176,-237.881 979.688,-239.207 972.297,-231.615 969.176,-237.881"/>
</g>
<!-- TickSpec.ScenarioGen&#45;&gt;TickSpec.Table -->
<g id="edge25" class="edge"><title>TickSpec.ScenarioGen&#45;&gt;TickSpec.Table</title>
<path fill="none" stroke="black" d="M816.963,-149.004C887.138,-131.223 1015.45,-107.489 1120,-137 1154.07,-146.617 1188,-169.024 1210.86,-186.496"/>
<polygon fill="black" stroke="black" points="1208.73,-189.271 1218.76,-192.676 1213.04,-183.758 1208.73,-189.271"/>
</g>
<!-- TickSpec.ServiceProvider -->
<g id="node23" class="node"><title>TickSpec.ServiceProvider</title>
<ellipse fill="none" stroke="black" cx="1013" cy="-164" rx="106.681" ry="18"/>
<text text-anchor="middle" x="1013" y="-160.3" font-family="Times New Roman,serif" font-size="14.00">TickSpec.ServiceProvider</text>
</g>
<!-- TickSpec.ScenarioGen&#45;&gt;TickSpec.ServiceProvider -->
<g id="edge26" class="edge"><title>TickSpec.ScenarioGen&#45;&gt;TickSpec.ServiceProvider</title>
<path fill="none" stroke="black" d="M859.085,-164C871.12,-164 883.552,-164 895.884,-164"/>
<polygon fill="black" stroke="black" points="896.21,-167.5 906.21,-164 896.21,-160.5 896.21,-167.5"/>
</g>
<!-- TickSpec.ScenarioRun -->
<g id="node24" class="node"><title>TickSpec.ScenarioRun</title>
<ellipse fill="none" stroke="black" cx="764" cy="-218" rx="94.7833" ry="18"/>
<text text-anchor="middle" x="764" y="-214.3" font-family="Times New Roman,serif" font-size="14.00">TickSpec.ScenarioRun</text>
</g>
<!-- TickSpec.ScenarioRun&#45;&gt;TickSpec.LineSource -->
<g id="edge27" class="edge"><title>TickSpec.ScenarioRun&#45;&gt;TickSpec.LineSource</title>
<path fill="none" stroke="black" d="M838.106,-229.247C867.373,-233.75 901.199,-238.954 931.193,-243.568"/>
<polygon fill="black" stroke="black" points="930.79,-247.047 941.206,-245.109 931.855,-240.129 930.79,-247.047"/>
</g>
<!-- TickSpec.ScenarioRun&#45;&gt;TickSpec.Table -->
<g id="edge28" class="edge"><title>TickSpec.ScenarioRun&#45;&gt;TickSpec.Table</title>
<path fill="none" stroke="black" d="M858.647,-216.419C947.095,-214.927 1078.21,-212.714 1161.09,-211.315"/>
<polygon fill="black" stroke="black" points="1161.27,-214.813 1171.21,-211.144 1161.15,-207.814 1161.27,-214.813"/>
</g>
<!-- TickSpec.ScenarioRun&#45;&gt;TickSpec.ServiceProvider -->
<g id="edge29" class="edge"><title>TickSpec.ScenarioRun&#45;&gt;TickSpec.ServiceProvider</title>
<path fill="none" stroke="black" d="M827.01,-204.443C860.306,-197.164 901.608,-188.134 936.734,-180.455"/>
<polygon fill="black" stroke="black" points="937.92,-183.778 946.942,-178.223 936.425,-176.94 937.92,-183.778"/>
</g>
<!-- TickSpec.StepArgumentTransformation -->
<g id="node25" class="node"><title>TickSpec.StepArgumentTransformation</title>
<ellipse fill="none" stroke="black" cx="157" cy="-237" rx="156.772" ry="18"/>
<text text-anchor="middle" x="157" y="-233.3" font-family="Times New Roman,serif" font-size="14.00">TickSpec.StepArgumentTransformation</text>
</g>
<!-- TickSpec.ParserAttribute -->
<g id="node26" class="node"><title>TickSpec.ParserAttribute</title>
<ellipse fill="none" stroke="black" cx="486" cy="-251" rx="102.882" ry="18"/>
<text text-anchor="middle" x="486" y="-247.3" font-family="Times New Roman,serif" font-size="14.00">TickSpec.ParserAttribute</text>
</g>
<!-- TickSpec.StepArgumentTransformation&#45;&gt;TickSpec.ParserAttribute -->
<g id="edge30" class="edge"><title>TickSpec.StepArgumentTransformation&#45;&gt;TickSpec.ParserAttribute</title>
<path fill="none" stroke="black" d="M304.284,-243.263C328.281,-244.29 352.778,-245.339 375.677,-246.32"/>
<polygon fill="black" stroke="black" points="375.59,-249.819 385.731,-246.75 375.89,-242.825 375.59,-249.819"/>
</g>
<!-- TickSpec.StepDefinitions -->
<g id="node27" class="node"><title>TickSpec.StepDefinitions</title>
<ellipse fill="none" stroke="black" cx="157" cy="-651" rx="103.982" ry="18"/>
<text text-anchor="middle" x="157" y="-647.3" font-family="Times New Roman,serif" font-size="14.00">TickSpec.StepDefinitions</text>
</g>
<!-- TickSpec.StepDefinitions&#45;&gt;TickSpec.AfterScenarioAttribute -->
<g id="edge31" class="edge"><title>TickSpec.StepDefinitions&#45;&gt;TickSpec.AfterScenarioAttribute</title>
<path fill="none" stroke="black" d="M173.384,-668.964C203.551,-702.936 274.174,-776.454 350,-813 359.808,-817.727 370.401,-821.627 381.188,-824.845"/>
<polygon fill="black" stroke="black" points="380.56,-828.303 391.132,-827.611 382.436,-821.559 380.56,-828.303"/>
</g>
<!-- TickSpec.StepDefinitions&#45;&gt;TickSpec.EventAttribute -->
<g id="edge32" class="edge"><title>TickSpec.StepDefinitions&#45;&gt;TickSpec.EventAttribute</title>
<path fill="none" stroke="black" d="M160.602,-669.268C170.766,-732.928 214.18,-945.651 350,-1029 453.035,-1092.23 517.242,-1089.33 622,-1029 703.826,-981.876 742.529,-867.059 756.536,-813.88"/>
<polygon fill="black" stroke="black" points="759.949,-814.658 759.013,-804.104 753.164,-812.938 759.949,-814.658"/>
</g>
<!-- TickSpec.StepDefinitions&#45;&gt;TickSpec.AfterStepAttribute -->
<g id="edge33" class="edge"><title>TickSpec.StepDefinitions&#45;&gt;TickSpec.AfterStepAttribute</title>
<path fill="none" stroke="black" d="M183.133,-668.583C218.658,-692.612 286.346,-735.411 350,-759 363.293,-763.926 377.673,-768.019 391.923,-771.4"/>
<polygon fill="black" stroke="black" points="391.227,-774.831 401.753,-773.629 392.774,-768.004 391.227,-774.831"/>
</g>
<!-- TickSpec.StepDefinitions&#45;&gt;TickSpec.BeforeScenarioAttribute -->
<g id="edge34" class="edge"><title>TickSpec.StepDefinitions&#45;&gt;TickSpec.BeforeScenarioAttribute</title>
<path fill="none" stroke="black" d="M209.465,-666.634C247.966,-678.047 302.022,-693.473 350,-705 364.966,-708.595 380.944,-712.09 396.479,-715.308"/>
<polygon fill="black" stroke="black" points="396.11,-718.805 406.608,-717.381 397.513,-711.947 396.11,-718.805"/>
</g>
<!-- TickSpec.StepDefinitions&#45;&gt;TickSpec.BeforeStepAttribute -->
<g id="edge35" class="edge"><title>TickSpec.StepDefinitions&#45;&gt;TickSpec.BeforeStepAttribute</title>
<path fill="none" stroke="black" d="M251.267,-658.701C288.091,-661.741 330.783,-665.267 369.527,-668.466"/>
<polygon fill="black" stroke="black" points="369.558,-671.98 379.812,-669.315 370.134,-665.004 369.558,-671.98"/>
</g>
<!-- TickSpec.StepDefinitions&#45;&gt;TickSpec.StepType -->
<g id="edge36" class="edge"><title>TickSpec.StepDefinitions&#45;&gt;TickSpec.StepType</title>
<path fill="none" stroke="black" d="M194.97,-634.112C232.975,-617.619 294.302,-593.388 350,-582 685.857,-513.328 779.359,-575.465 1120,-537 1135.11,-535.293 1151.22,-532.946 1166.55,-530.459"/>
<polygon fill="black" stroke="black" points="1167.2,-533.9 1176.49,-528.81 1166.06,-526.994 1167.2,-533.9"/>
</g>
<!-- TickSpec.StepDefinitions&#45;&gt;TickSpec.Feature -->
<g id="edge37" class="edge"><title>TickSpec.StepDefinitions&#45;&gt;TickSpec.Feature</title>
<path fill="none" stroke="black" d="M251.267,-643.299C299.632,-639.306 358.119,-634.476 404.488,-630.648"/>
<polygon fill="black" stroke="black" points="404.812,-634.133 414.49,-629.822 404.236,-627.157 404.812,-634.133"/>
</g>
<!-- TickSpec.StepDefinitions&#45;&gt;TickSpec.Scenario -->
<g id="edge38" class="edge"><title>TickSpec.StepDefinitions&#45;&gt;TickSpec.Scenario</title>
<path fill="none" stroke="black" d="M202.646,-634.674C241.092,-621.533 298.376,-604.121 350,-597 469.755,-580.48 501.652,-585.581 622,-597 647.185,-599.39 674.564,-604.129 698.438,-608.979"/>
<polygon fill="black" stroke="black" points="697.936,-612.449 708.439,-611.057 699.361,-605.595 697.936,-612.449"/>
</g>
<!-- TickSpec.StepDefinitions&#45;&gt;TickSpec.FeatureParser -->
<g id="edge39" class="edge"><title>TickSpec.StepDefinitions&#45;&gt;TickSpec.FeatureParser</title>
<path fill="none" stroke="black" d="M183.806,-633.573C220.406,-609.002 289.66,-563.037 350,-526 381.815,-506.472 418.53,-485.347 445.633,-470.014"/>
<polygon fill="black" stroke="black" points="447.446,-473.009 454.435,-465.046 444.006,-466.913 447.446,-473.009"/>
</g>
<!-- TickSpec.StepDefinitions&#45;&gt;TickSpec.FeatureSource -->
<g id="edge40" class="edge"><title>TickSpec.StepDefinitions&#45;&gt;TickSpec.FeatureSource</title>
<path fill="none" stroke="black" d="M167.123,-632.866C190.583,-588.322 257.705,-473.355 350,-421 456.455,-360.612 536.596,-465.667 622,-378 707.707,-290.022 578.611,-197.719 658,-104 663.533,-97.4679 670.358,-92.2429 677.85,-88.0674"/>
<polygon fill="black" stroke="black" points="679.47,-91.1712 686.915,-83.6325 676.394,-84.8835 679.47,-91.1712"/>
</g>
<!-- TickSpec.StepDefinitions&#45;&gt;TickSpec.ScenarioSource -->
<g id="edge41" class="edge"><title>TickSpec.StepDefinitions&#45;&gt;TickSpec.ScenarioSource</title>
<path fill="none" stroke="black" d="M170.393,-632.965C211.826,-572.722 343.303,-382.008 350,-378 402.246,-346.732 578.974,-388.082 622,-345 716.895,-249.981 569.525,-146.025 658,-45 661.759,-40.7078 666.1,-37.0536 670.832,-33.9463"/>
<polygon fill="black" stroke="black" points="672.743,-36.887 679.732,-28.9244 669.303,-30.7905 672.743,-36.887"/>
</g>
<!-- TickSpec.StepDefinitions&#45;&gt;TickSpec.StepAttribute -->
<g id="edge42" class="edge"><title>TickSpec.StepDefinitions&#45;&gt;TickSpec.StepAttribute</title>
<path fill="none" stroke="black" d="M172.005,-633.005C200.693,-595.696 267.361,-506.65 314,-426 332.711,-393.645 320.951,-373.518 350,-350 361.484,-340.702 375.216,-334.023 389.459,-329.241"/>
<polygon fill="black" stroke="black" points="390.83,-332.483 399.38,-326.225 388.794,-325.785 390.83,-332.483"/>
</g>
<!-- TickSpec.StepDefinitions&#45;&gt;TickSpec.ParserAttribute -->
<g id="edge43" class="edge"><title>TickSpec.StepDefinitions&#45;&gt;TickSpec.ParserAttribute</title>
<path fill="none" stroke="black" d="M173.72,-633.091C204.935,-596.636 275.073,-510.119 314,-426 340.079,-369.645 306.698,-335.508 350,-291 361.575,-279.102 376.509,-270.702 392.204,-264.781"/>
<polygon fill="black" stroke="black" points="393.727,-267.959 402.052,-261.406 391.457,-261.337 393.727,-267.959"/>
</g>
<!-- TickSpec.Dict -->
<g id="node28" class="node"><title>TickSpec.Dict</title>
<ellipse fill="none" stroke="black" cx="486" cy="-1002" rx="63.8893" ry="18"/>
<text text-anchor="middle" x="486" y="-998.3" font-family="Times New Roman,serif" font-size="14.00">TickSpec.Dict</text>
</g>
<!-- TickSpec.StepDefinitions&#45;&gt;TickSpec.Dict -->
<g id="edge44" class="edge"><title>TickSpec.StepDefinitions&#45;&gt;TickSpec.Dict</title>
<path fill="none" stroke="black" d="M163.044,-669.32C179.454,-725.249 236.912,-894.841 350,-975 368.096,-987.827 390.813,-994.902 412.423,-998.71"/>
<polygon fill="black" stroke="black" points="412.166,-1002.21 422.584,-1000.28 413.237,-995.295 412.166,-1002.21"/>
</g>
<!-- TickSpec.FeatureGen -->
<g id="node29" class="node"><title>TickSpec.FeatureGen</title>
<ellipse fill="none" stroke="black" cx="486" cy="-948" rx="90.1842" ry="18"/>
<text text-anchor="middle" x="486" y="-944.3" font-family="Times New Roman,serif" font-size="14.00">TickSpec.FeatureGen</text>
</g>
<!-- TickSpec.StepDefinitions&#45;&gt;TickSpec.FeatureGen -->
<g id="edge45" class="edge"><title>TickSpec.StepDefinitions&#45;&gt;TickSpec.FeatureGen</title>
<path fill="none" stroke="black" d="M165.13,-669.055C185.601,-718.358 249.602,-855.934 350,-921 362.587,-929.157 377.115,-934.938 391.877,-939.017"/>
<polygon fill="black" stroke="black" points="391.041,-942.415 401.592,-941.459 392.748,-935.627 391.041,-942.415"/>
</g>
<!-- TickSpec.TextReader -->
<g id="node30" class="node"><title>TickSpec.TextReader</title>
<ellipse fill="none" stroke="black" cx="486" cy="-894" rx="90.9839" ry="18"/>
<text text-anchor="middle" x="486" y="-890.3" font-family="Times New Roman,serif" font-size="14.00">TickSpec.TextReader</text>
</g>
<!-- TickSpec.StepDefinitions&#45;&gt;TickSpec.TextReader -->
<g id="edge46" class="edge"><title>TickSpec.StepDefinitions&#45;&gt;TickSpec.TextReader</title>
<path fill="none" stroke="black" d="M168.29,-669.047C193.368,-711.24 262.085,-816.573 350,-867 363.181,-874.56 378.141,-880.031 393.183,-883.983"/>
<polygon fill="black" stroke="black" points="392.52,-887.424 403.062,-886.368 394.163,-880.619 392.52,-887.424"/>
</g>
<!-- TickSpec.ThenAttribute -->
<g id="node31" class="node"><title>TickSpec.ThenAttribute</title>
<ellipse fill="none" stroke="black" cx="157" cy="-399" rx="98.5829" ry="18"/>
<text text-anchor="middle" x="157" y="-395.3" font-family="Times New Roman,serif" font-size="14.00">TickSpec.ThenAttribute</text>
</g>
<!-- TickSpec.ThenAttribute&#45;&gt;TickSpec.StepAttribute -->
<g id="edge47" class="edge"><title>TickSpec.ThenAttribute&#45;&gt;TickSpec.StepAttribute</title>
<path fill="none" stroke="black" d="M243.34,-390.179C266.723,-386.172 291.748,-380.375 314,-372 331.549,-365.395 332.662,-357.14 350,-350 367.275,-342.886 386.474,-337.146 404.845,-332.599"/>
<polygon fill="black" stroke="black" points="405.738,-335.985 414.655,-330.262 404.116,-329.175 405.738,-335.985"/>
</g>
<!-- TickSpec.WhenAttribute -->
<g id="node32" class="node"><title>TickSpec.WhenAttribute</title>
<ellipse fill="none" stroke="black" cx="157" cy="-345" rx="101.282" ry="18"/>
<text text-anchor="middle" x="157" y="-341.3" font-family="Times New Roman,serif" font-size="14.00">TickSpec.WhenAttribute</text>
</g>
<!-- TickSpec.WhenAttribute&#45;&gt;TickSpec.StepAttribute -->
<g id="edge48" class="edge"><title>TickSpec.WhenAttribute&#45;&gt;TickSpec.StepAttribute</title>
<path fill="none" stroke="black" d="M249.523,-337.443C292.38,-333.904 343.482,-329.685 387.111,-326.083"/>
<polygon fill="black" stroke="black" points="387.485,-329.564 397.163,-325.253 386.909,-322.587 387.485,-329.564"/>
</g>
</g>
</svg>
