<?xml version="1.0" encoding="UTF-8" standalone="no"?>
<!DOCTYPE svg PUBLIC "-//W3C//DTD SVG 1.1//EN"
 "http://www.w3.org/Graphics/SVG/1.1/DTD/svg11.dtd">
<!-- Generated by graphviz version 2.30.1 (20130214.1330)
 -->
<!-- Title: G Pages: 1 -->
<svg width="1142pt" height="244pt"
 viewBox="0.00 0.00 1142.00 244.00" xmlns="http://www.w3.org/2000/svg" xmlns:xlink="http://www.w3.org/1999/xlink">
<g id="graph0" class="graph" transform="scale(1 1) rotate(0) translate(4 240)">
<title>G</title>
<polygon fill="white" stroke="white" points="-4,5 -4,-240 1139,-240 1139,5 -4,5"/>
<!-- IntelliFactory.WebSharper.Formlet.Data -->
<g id="node1" class="node"><title>IntelliFactory.WebSharper.Formlet.Data</title>
<ellipse fill="none" stroke="black" cx="571" cy="-218" rx="156.772" ry="18"/>
<text text-anchor="middle" x="571" y="-214.3" font-family="Times New Roman,serif" font-size="14.00">IntelliFactory.WebSharper.Formlet.Data</text>
</g>
<!-- IntelliFactory.WebSharper.Formlet.Body -->
<g id="node2" class="node"><title>IntelliFactory.WebSharper.Formlet.Body</title>
<ellipse fill="none" stroke="black" cx="969" cy="-149" rx="159.772" ry="18"/>
<text text-anchor="middle" x="969" y="-145.3" font-family="Times New Roman,serif" font-size="14.00">IntelliFactory.WebSharper.Formlet.Body</text>
</g>
<!-- IntelliFactory.WebSharper.Formlet.Data&#45;&gt;IntelliFactory.WebSharper.Formlet.Body -->
<g id="edge1" class="edge"><title>IntelliFactory.WebSharper.Formlet.Data&#45;&gt;IntelliFactory.WebSharper.Formlet.Body</title>
<path fill="none" stroke="black" d="M663.803,-203.422C696.695,-198.091 734.033,-191.914 768,-186 803.462,-179.826 842.394,-172.702 876.41,-166.364"/>
<polygon fill="black" stroke="black" points="877.144,-169.787 886.332,-164.511 875.859,-162.906 877.144,-169.787"/>
</g>
<!-- IntelliFactory.WebSharper.Formlet.Enhance -->
<g id="node3" class="node"><title>IntelliFactory.WebSharper.Formlet.Enhance</title>
<ellipse fill="none" stroke="black" cx="571" cy="-18" rx="170.87" ry="18"/>
<text text-anchor="middle" x="571" y="-14.3" font-family="Times New Roman,serif" font-size="14.00">IntelliFactory.WebSharper.Formlet.Enhance</text>
</g>
<!-- IntelliFactory.WebSharper.Formlet.Layout -->
<g id="node4" class="node"><title>IntelliFactory.WebSharper.Formlet.Layout</title>
<ellipse fill="none" stroke="black" cx="969" cy="-45" rx="165.171" ry="18"/>
<text text-anchor="middle" x="969" y="-41.3" font-family="Times New Roman,serif" font-size="14.00">IntelliFactory.WebSharper.Formlet.Layout</text>
</g>
<!-- IntelliFactory.WebSharper.Formlet.Enhance&#45;&gt;IntelliFactory.WebSharper.Formlet.Layout -->
<g id="edge2" class="edge"><title>IntelliFactory.WebSharper.Formlet.Enhance&#45;&gt;IntelliFactory.WebSharper.Formlet.Layout</title>
<path fill="none" stroke="black" d="M714.965,-27.7476C748.639,-30.0435 784.619,-32.4967 818.569,-34.8115"/>
<polygon fill="black" stroke="black" points="818.344,-38.3042 828.559,-35.4927 818.821,-31.3205 818.344,-38.3042"/>
</g>
<!-- IntelliFactory.WebSharper.Formlet.Formlet -->
<g id="node5" class="node"><title>IntelliFactory.WebSharper.Formlet.Formlet</title>
<ellipse fill="none" stroke="black" cx="169" cy="-149" rx="168.17" ry="18"/>
<text text-anchor="middle" x="169" y="-145.3" font-family="Times New Roman,serif" font-size="14.00">IntelliFactory.WebSharper.Formlet.Formlet</text>
</g>
<!-- IntelliFactory.WebSharper.Formlet.Formlet&#45;&gt;IntelliFactory.WebSharper.Formlet.Body -->
<g id="edge3" class="edge"><title>IntelliFactory.WebSharper.Formlet.Formlet&#45;&gt;IntelliFactory.WebSharper.Formlet.Body</title>
<path fill="none" stroke="black" d="M334.226,-152.5C347.682,-152.701 361.071,-152.873 374,-153 549.103,-154.717 592.898,-154.751 768,-153 779.012,-152.89 790.365,-152.746 801.806,-152.578"/>
<polygon fill="black" stroke="black" points="801.93,-156.076 811.875,-152.424 801.823,-149.077 801.93,-156.076"/>
</g>
<!-- IntelliFactory.WebSharper.Formlet.FormletBuilder -->
<g id="node6" class="node"><title>IntelliFactory.WebSharper.Formlet.FormletBuilder</title>
<ellipse fill="none" stroke="black" cx="571" cy="-126" rx="194.166" ry="18"/>
<text text-anchor="middle" x="571" y="-122.3" font-family="Times New Roman,serif" font-size="14.00">IntelliFactory.WebSharper.Formlet.FormletBuilder</text>
</g>
<!-- IntelliFactory.WebSharper.Formlet.Formlet&#45;&gt;IntelliFactory.WebSharper.Formlet.FormletBuilder -->
<g id="edge4" class="edge"><title>IntelliFactory.WebSharper.Formlet.Formlet&#45;&gt;IntelliFactory.WebSharper.Formlet.FormletBuilder</title>
<path fill="none" stroke="black" d="M317.525,-140.517C342.783,-139.065 369.243,-137.544 395.132,-136.055"/>
<polygon fill="black" stroke="black" points="395.625,-139.532 405.408,-135.464 395.223,-132.544 395.625,-139.532"/>
</g>
<!-- IntelliFactory.WebSharper.Formlet.FormletBuilder&#45;&gt;IntelliFactory.WebSharper.Formlet.Body -->
<g id="edge5" class="edge"><title>IntelliFactory.WebSharper.Formlet.FormletBuilder&#45;&gt;IntelliFactory.WebSharper.Formlet.Body</title>
<path fill="none" stroke="black" d="M735.927,-135.521C762.624,-137.072 790.174,-138.672 816.554,-140.204"/>
<polygon fill="black" stroke="black" points="816.417,-143.702 826.604,-140.788 816.823,-136.714 816.417,-143.702"/>
</g>
<!-- IntelliFactory.WebSharper.Formlet.LayoutProvider -->
<g id="node7" class="node"><title>IntelliFactory.WebSharper.Formlet.LayoutProvider</title>
<ellipse fill="none" stroke="black" cx="571" cy="-72" rx="196.065" ry="18"/>
<text text-anchor="middle" x="571" y="-68.3" font-family="Times New Roman,serif" font-size="14.00">IntelliFactory.WebSharper.Formlet.LayoutProvider</text>
</g>
<!-- IntelliFactory.WebSharper.Formlet.LayoutProvider&#45;&gt;IntelliFactory.WebSharper.Formlet.Body -->
<g id="edge6" class="edge"><title>IntelliFactory.WebSharper.Formlet.LayoutProvider&#45;&gt;IntelliFactory.WebSharper.Formlet.Body</title>
<path fill="none" stroke="black" d="M691.015,-86.2961C716.501,-89.9431 743.212,-94.2087 768,-99 811.709,-107.449 860.159,-119.491 898.424,-129.641"/>
<polygon fill="black" stroke="black" points="897.864,-133.113 908.428,-132.312 899.67,-126.35 897.864,-133.113"/>
</g>
<!-- IntelliFactory.WebSharper.Formlet.LayoutProvider&#45;&gt;IntelliFactory.WebSharper.Formlet.Layout -->
<g id="edge7" class="edge"><title>IntelliFactory.WebSharper.Formlet.LayoutProvider&#45;&gt;IntelliFactory.WebSharper.Formlet.Layout</title>
<path fill="none" stroke="black" d="M729.078,-61.2901C758.536,-59.2816 789.257,-57.187 818.477,-55.1947"/>
<polygon fill="black" stroke="black" points="819.007,-58.6668 828.746,-54.4946 818.531,-51.683 819.007,-58.6668"/>
</g>
</g>
</svg>
