<?xml version="1.0" encoding="UTF-8" standalone="no"?>
<!DOCTYPE svg PUBLIC "-//W3C//DTD SVG 1.1//EN"
 "http://www.w3.org/Graphics/SVG/1.1/DTD/svg11.dtd">
<!-- Generated by graphviz version 2.30.1 (20130214.1330)
 -->
<!-- Title: G Pages: 1 -->
<svg width="1128pt" height="692pt"
 viewBox="0.00 0.00 1128.00 692.00" xmlns="http://www.w3.org/2000/svg" xmlns:xlink="http://www.w3.org/1999/xlink">
<g id="graph0" class="graph" transform="scale(1 1) rotate(0) translate(4 688)">
<title>G</title>
<polygon fill="white" stroke="white" points="-4,5 -4,-688 1125,-688 1125,5 -4,5"/>
<!-- IntelliFactory.WebSharper.ArrayModuleProxy -->
<g id="node1" class="node"><title>IntelliFactory.WebSharper.ArrayModuleProxy</title>
<ellipse fill="none" stroke="black" cx="205" cy="-342" rx="179.268" ry="18"/>
<text text-anchor="middle" x="205" y="-338.3" font-family="Times New Roman,serif" font-size="14.00">IntelliFactory.WebSharper.ArrayModuleProxy</text>
</g>
<!-- IntelliFactory.WebSharper.Enumerator -->
<g id="node2" class="node"><title>IntelliFactory.WebSharper.Enumerator</title>
<ellipse fill="none" stroke="black" cx="618" cy="-230" rx="151.373" ry="18"/>
<text text-anchor="middle" x="618" y="-226.3" font-family="Times New Roman,serif" font-size="14.00">IntelliFactory.WebSharper.Enumerator</text>
</g>
<!-- IntelliFactory.WebSharper.ArrayModuleProxy&#45;&gt;IntelliFactory.WebSharper.Enumerator -->
<g id="edge1" class="edge"><title>IntelliFactory.WebSharper.ArrayModuleProxy&#45;&gt;IntelliFactory.WebSharper.Enumerator</title>
<path fill="none" stroke="black" d="M337.032,-329.748C361.504,-326.028 386.7,-321.214 410,-315 468.157,-299.491 531.739,-271.621 572.877,-252.033"/>
<polygon fill="black" stroke="black" points="574.572,-255.102 582.069,-247.616 571.54,-248.792 574.572,-255.102"/>
</g>
<!-- IntelliFactory.WebSharper.JavaScript -->
<g id="node8" class="node"><title>IntelliFactory.WebSharper.JavaScript</title>
<ellipse fill="none" stroke="black" cx="973" cy="-149" rx="146.774" ry="18"/>
<text text-anchor="middle" x="973" y="-145.3" font-family="Times New Roman,serif" font-size="14.00">IntelliFactory.WebSharper.JavaScript</text>
</g>
<!-- IntelliFactory.WebSharper.Enumerator&#45;&gt;IntelliFactory.WebSharper.JavaScript -->
<g id="edge5" class="edge"><title>IntelliFactory.WebSharper.Enumerator&#45;&gt;IntelliFactory.WebSharper.JavaScript</title>
<path fill="none" stroke="black" d="M688.741,-213.997C747.554,-200.502 831.699,-181.194 892.989,-167.13"/>
<polygon fill="black" stroke="black" points="894.041,-170.48 903.005,-164.832 892.475,-163.657 894.041,-170.48"/>
</g>
<!-- IntelliFactory.WebSharper.AsyncBuilderProxy -->
<g id="node3" class="node"><title>IntelliFactory.WebSharper.AsyncBuilderProxy</title>
<ellipse fill="none" stroke="black" cx="205" cy="-504" rx="180.868" ry="18"/>
<text text-anchor="middle" x="205" y="-500.3" font-family="Times New Roman,serif" font-size="14.00">IntelliFactory.WebSharper.AsyncBuilderProxy</text>
</g>
<!-- IntelliFactory.WebSharper.Concurrency -->
<g id="node4" class="node"><title>IntelliFactory.WebSharper.Concurrency</title>
<ellipse fill="none" stroke="black" cx="618" cy="-477" rx="156.772" ry="18"/>
<text text-anchor="middle" x="618" y="-473.3" font-family="Times New Roman,serif" font-size="14.00">IntelliFactory.WebSharper.Concurrency</text>
</g>
<!-- IntelliFactory.WebSharper.AsyncBuilderProxy&#45;&gt;IntelliFactory.WebSharper.Concurrency -->
<g id="edge2" class="edge"><title>IntelliFactory.WebSharper.AsyncBuilderProxy&#45;&gt;IntelliFactory.WebSharper.Concurrency</title>
<path fill="none" stroke="black" d="M356.416,-494.119C393.918,-491.655 434.063,-489.018 471.331,-486.569"/>
<polygon fill="black" stroke="black" points="472.013,-490.032 481.762,-485.884 471.554,-483.047 472.013,-490.032"/>
</g>
<!-- IntelliFactory.WebSharper.AsyncProxy -->
<g id="node5" class="node"><title>IntelliFactory.WebSharper.AsyncProxy</title>
<ellipse fill="none" stroke="black" cx="205" cy="-450" rx="154.873" ry="18"/>
<text text-anchor="middle" x="205" y="-446.3" font-family="Times New Roman,serif" font-size="14.00">IntelliFactory.WebSharper.AsyncProxy</text>
</g>
<!-- IntelliFactory.WebSharper.AsyncProxy&#45;&gt;IntelliFactory.WebSharper.Concurrency -->
<g id="edge3" class="edge"><title>IntelliFactory.WebSharper.AsyncProxy&#45;&gt;IntelliFactory.WebSharper.Concurrency</title>
<path fill="none" stroke="black" d="M340.008,-458.803C382.08,-461.567 428.72,-464.631 471.545,-467.445"/>
<polygon fill="black" stroke="black" points="471.559,-470.953 481.767,-468.116 472.018,-463.968 471.559,-470.953"/>
</g>
<!-- IntelliFactory.WebSharper.CommonExtensionsProxy -->
<g id="node6" class="node"><title>IntelliFactory.WebSharper.CommonExtensionsProxy</title>
<ellipse fill="none" stroke="black" cx="205" cy="-666" rx="204.964" ry="18"/>
<text text-anchor="middle" x="205" y="-662.3" font-family="Times New Roman,serif" font-size="14.00">IntelliFactory.WebSharper.CommonExtensionsProxy</text>
</g>
<!-- IntelliFactory.WebSharper.Pervasives -->
<g id="node7" class="node"><title>IntelliFactory.WebSharper.Pervasives</title>
<ellipse fill="none" stroke="black" cx="618" cy="-612" rx="147.574" ry="18"/>
<text text-anchor="middle" x="618" y="-608.3" font-family="Times New Roman,serif" font-size="14.00">IntelliFactory.WebSharper.Pervasives</text>
</g>
<!-- IntelliFactory.WebSharper.CommonExtensionsProxy&#45;&gt;IntelliFactory.WebSharper.Pervasives -->
<g id="edge4" class="edge"><title>IntelliFactory.WebSharper.CommonExtensionsProxy&#45;&gt;IntelliFactory.WebSharper.Pervasives</title>
<path fill="none" stroke="black" d="M319.668,-651.066C378.174,-643.379 449.183,-634.049 507.133,-626.435"/>
<polygon fill="black" stroke="black" points="507.595,-629.905 517.054,-625.132 506.683,-622.964 507.595,-629.905"/>
</g>
<!-- IntelliFactory.WebSharper.IEnumerableProxy`1 -->
<g id="node9" class="node"><title>IntelliFactory.WebSharper.IEnumerableProxy`1</title>
<ellipse fill="none" stroke="black" cx="205" cy="-288" rx="183.867" ry="18"/>
<text text-anchor="middle" x="205" y="-284.3" font-family="Times New Roman,serif" font-size="14.00">IntelliFactory.WebSharper.IEnumerableProxy`1</text>
</g>
<!-- IntelliFactory.WebSharper.IEnumerableProxy`1&#45;&gt;IntelliFactory.WebSharper.Enumerator -->
<g id="edge6" class="edge"><title>IntelliFactory.WebSharper.IEnumerableProxy`1&#45;&gt;IntelliFactory.WebSharper.Enumerator</title>
<path fill="none" stroke="black" d="M316.95,-273.665C347.148,-269.668 379.842,-265.254 410,-261 443.995,-256.205 481.091,-250.727 514.369,-245.724"/>
<polygon fill="black" stroke="black" points="515.2,-249.138 524.567,-244.187 514.157,-242.216 515.2,-249.138"/>
</g>
<!-- IntelliFactory.WebSharper.IntrinsicFunctionProxy -->
<g id="node10" class="node"><title>IntelliFactory.WebSharper.IntrinsicFunctionProxy</title>
<ellipse fill="none" stroke="black" cx="205" cy="-612" rx="192.266" ry="18"/>
<text text-anchor="middle" x="205" y="-608.3" font-family="Times New Roman,serif" font-size="14.00">IntelliFactory.WebSharper.IntrinsicFunctionProxy</text>
</g>
<!-- IntelliFactory.WebSharper.IntrinsicFunctionProxy&#45;&gt;IntelliFactory.WebSharper.Pervasives -->
<g id="edge7" class="edge"><title>IntelliFactory.WebSharper.IntrinsicFunctionProxy&#45;&gt;IntelliFactory.WebSharper.Pervasives</title>
<path fill="none" stroke="black" d="M397.662,-612C418.519,-612 439.567,-612 459.941,-612"/>
<polygon fill="black" stroke="black" points="460.206,-615.5 470.206,-612 460.206,-608.5 460.206,-615.5"/>
</g>
<!-- IntelliFactory.WebSharper.Json -->
<g id="node11" class="node"><title>IntelliFactory.WebSharper.Json</title>
<ellipse fill="none" stroke="black" cx="618" cy="-21" rx="126.178" ry="18"/>
<text text-anchor="middle" x="618" y="-17.3" font-family="Times New Roman,serif" font-size="14.00">IntelliFactory.WebSharper.Json</text>
</g>
<!-- IntelliFactory.WebSharper.Json&#45;&gt;IntelliFactory.WebSharper.JavaScript -->
<g id="edge8" class="edge"><title>IntelliFactory.WebSharper.Json&#45;&gt;IntelliFactory.WebSharper.JavaScript</title>
<path fill="none" stroke="black" d="M707.697,-33.7463C734.558,-38.9038 763.858,-45.855 790,-55 842.762,-73.457 899.344,-104.685 935.165,-126.044"/>
<polygon fill="black" stroke="black" points="933.437,-129.089 943.809,-131.248 937.047,-123.092 933.437,-129.089"/>
</g>
<!-- IntelliFactory.WebSharper.ListModuleProxy -->
<g id="node12" class="node"><title>IntelliFactory.WebSharper.ListModuleProxy</title>
<ellipse fill="none" stroke="black" cx="205" cy="-234" rx="172.769" ry="18"/>
<text text-anchor="middle" x="205" y="-230.3" font-family="Times New Roman,serif" font-size="14.00">IntelliFactory.WebSharper.ListModuleProxy</text>
</g>
<!-- IntelliFactory.WebSharper.ListModuleProxy&#45;&gt;IntelliFactory.WebSharper.Enumerator -->
<g id="edge9" class="edge"><title>IntelliFactory.WebSharper.ListModuleProxy&#45;&gt;IntelliFactory.WebSharper.Enumerator</title>
<path fill="none" stroke="black" d="M377.325,-232.333C403.576,-232.077 430.592,-231.814 456.595,-231.561"/>
<polygon fill="black" stroke="black" points="456.927,-235.058 466.892,-231.461 456.858,-228.058 456.927,-235.058"/>
</g>
<!-- IntelliFactory.WebSharper.ListProxy`1 -->
<g id="node13" class="node"><title>IntelliFactory.WebSharper.ListProxy`1</title>
<ellipse fill="none" stroke="black" cx="205" cy="-180" rx="152.173" ry="18"/>
<text text-anchor="middle" x="205" y="-176.3" font-family="Times New Roman,serif" font-size="14.00">IntelliFactory.WebSharper.ListProxy`1</text>
</g>
<!-- IntelliFactory.WebSharper.ListProxy`1&#45;&gt;IntelliFactory.WebSharper.Enumerator -->
<g id="edge10" class="edge"><title>IntelliFactory.WebSharper.ListProxy`1&#45;&gt;IntelliFactory.WebSharper.Enumerator</title>
<path fill="none" stroke="black" d="M311.576,-192.844C369.583,-199.901 441.63,-208.665 501.179,-215.91"/>
<polygon fill="black" stroke="black" points="501.034,-219.418 511.384,-217.151 501.879,-212.469 501.034,-219.418"/>
</g>
<!-- IntelliFactory.WebSharper.OperatorsProxy -->
<g id="node14" class="node"><title>IntelliFactory.WebSharper.OperatorsProxy</title>
<ellipse fill="none" stroke="black" cx="205" cy="-558" rx="167.87" ry="18"/>
<text text-anchor="middle" x="205" y="-554.3" font-family="Times New Roman,serif" font-size="14.00">IntelliFactory.WebSharper.OperatorsProxy</text>
</g>
<!-- IntelliFactory.WebSharper.OperatorsProxy&#45;&gt;IntelliFactory.WebSharper.Pervasives -->
<g id="edge11" class="edge"><title>IntelliFactory.WebSharper.OperatorsProxy&#45;&gt;IntelliFactory.WebSharper.Pervasives</title>
<path fill="none" stroke="black" d="M311.843,-571.906C371.66,-579.766 446.342,-589.578 506.853,-597.528"/>
<polygon fill="black" stroke="black" points="506.451,-601.005 516.822,-598.838 507.363,-594.065 506.451,-601.005"/>
</g>
<!-- IntelliFactory.WebSharper.Remoting -->
<g id="node15" class="node"><title>IntelliFactory.WebSharper.Remoting</title>
<ellipse fill="none" stroke="black" cx="205" cy="-18" rx="144.075" ry="18"/>
<text text-anchor="middle" x="205" y="-14.3" font-family="Times New Roman,serif" font-size="14.00">IntelliFactory.WebSharper.Remoting</text>
</g>
<!-- IntelliFactory.WebSharper.Remoting&#45;&gt;IntelliFactory.WebSharper.Json -->
<g id="edge12" class="edge"><title>IntelliFactory.WebSharper.Remoting&#45;&gt;IntelliFactory.WebSharper.Json</title>
<path fill="none" stroke="black" d="M349.171,-19.045C392.173,-19.3589 439.197,-19.7022 481.675,-20.0122"/>
<polygon fill="black" stroke="black" points="481.774,-23.5129 491.799,-20.0861 481.825,-16.5131 481.774,-23.5129"/>
</g>
<!-- IntelliFactory.WebSharper.RuntimeHelpersProxy -->
<g id="node16" class="node"><title>IntelliFactory.WebSharper.RuntimeHelpersProxy</title>
<ellipse fill="none" stroke="black" cx="205" cy="-126" rx="189.267" ry="18"/>
<text text-anchor="middle" x="205" y="-122.3" font-family="Times New Roman,serif" font-size="14.00">IntelliFactory.WebSharper.RuntimeHelpersProxy</text>
</g>
<!-- IntelliFactory.WebSharper.RuntimeHelpersProxy&#45;&gt;IntelliFactory.WebSharper.Enumerator -->
<g id="edge13" class="edge"><title>IntelliFactory.WebSharper.RuntimeHelpersProxy&#45;&gt;IntelliFactory.WebSharper.Enumerator</title>
<path fill="none" stroke="black" d="M351.934,-137.387C371.781,-141.218 391.627,-146.292 410,-153 427.835,-159.511 428.799,-167.961 446,-176 476.413,-190.214 511.544,-202.034 542.022,-210.956"/>
<polygon fill="black" stroke="black" points="541.165,-214.351 551.743,-213.75 543.099,-207.623 541.165,-214.351"/>
</g>
<!-- IntelliFactory.WebSharper.Enumerable -->
<g id="node17" class="node"><title>IntelliFactory.WebSharper.Enumerable</title>
<ellipse fill="none" stroke="black" cx="618" cy="-82" rx="151.373" ry="18"/>
<text text-anchor="middle" x="618" y="-78.3" font-family="Times New Roman,serif" font-size="14.00">IntelliFactory.WebSharper.Enumerable</text>
</g>
<!-- IntelliFactory.WebSharper.RuntimeHelpersProxy&#45;&gt;IntelliFactory.WebSharper.Enumerable -->
<g id="edge14" class="edge"><title>IntelliFactory.WebSharper.RuntimeHelpersProxy&#45;&gt;IntelliFactory.WebSharper.Enumerable</title>
<path fill="none" stroke="black" d="M331.267,-112.589C383.176,-107.032 443.188,-100.608 494.774,-95.085"/>
<polygon fill="black" stroke="black" points="495.403,-98.5378 504.974,-93.9931 494.658,-91.5775 495.403,-98.5378"/>
</g>
<!-- IntelliFactory.WebSharper.SeqModuleProxy -->
<g id="node18" class="node"><title>IntelliFactory.WebSharper.SeqModuleProxy</title>
<ellipse fill="none" stroke="black" cx="205" cy="-72" rx="172.769" ry="18"/>
<text text-anchor="middle" x="205" y="-68.3" font-family="Times New Roman,serif" font-size="14.00">IntelliFactory.WebSharper.SeqModuleProxy</text>
</g>
<!-- IntelliFactory.WebSharper.SeqModuleProxy&#45;&gt;IntelliFactory.WebSharper.Enumerator -->
<g id="edge15" class="edge"><title>IntelliFactory.WebSharper.SeqModuleProxy&#45;&gt;IntelliFactory.WebSharper.Enumerator</title>
<path fill="none" stroke="black" d="M368.422,-77.9352C383.301,-82.968 397.466,-89.8127 410,-99 440.469,-121.334 417.59,-151.099 446,-176 465.429,-193.029 490.23,-204.692 514.879,-212.678"/>
<polygon fill="black" stroke="black" points="514.088,-216.096 524.674,-215.669 516.131,-209.401 514.088,-216.096"/>
</g>
<!-- IntelliFactory.WebSharper.SeqModuleProxy&#45;&gt;IntelliFactory.WebSharper.Enumerable -->
<g id="edge16" class="edge"><title>IntelliFactory.WebSharper.SeqModuleProxy&#45;&gt;IntelliFactory.WebSharper.Enumerable</title>
<path fill="none" stroke="black" d="M373.466,-76.0746C401.753,-76.7628 431.036,-77.4753 459.069,-78.1574"/>
<polygon fill="black" stroke="black" points="459.255,-81.6629 469.337,-78.4072 459.425,-74.6649 459.255,-81.6629"/>
</g>
<!-- IntelliFactory.WebSharper.StringProxy -->
<g id="node19" class="node"><title>IntelliFactory.WebSharper.StringProxy</title>
<ellipse fill="none" stroke="black" cx="205" cy="-396" rx="152.973" ry="18"/>
<text text-anchor="middle" x="205" y="-392.3" font-family="Times New Roman,serif" font-size="14.00">IntelliFactory.WebSharper.StringProxy</text>
</g>
<!-- IntelliFactory.WebSharper.StringProxy&#45;&gt;IntelliFactory.WebSharper.Enumerator -->
<g id="edge17" class="edge"><title>IntelliFactory.WebSharper.StringProxy&#45;&gt;IntelliFactory.WebSharper.Enumerator</title>
<path fill="none" stroke="black" d="M339.325,-387.33C363.335,-383.26 387.778,-377.402 410,-369 480.959,-342.172 551.77,-286.937 589.384,-254.759"/>
<polygon fill="black" stroke="black" points="592.065,-257.068 597.334,-247.876 587.483,-251.776 592.065,-257.068"/>
</g>
<!-- IntelliFactory.WebSharper.UncheckedProxy -->
<g id="node20" class="node"><title>IntelliFactory.WebSharper.UncheckedProxy</title>
<ellipse fill="none" stroke="black" cx="618" cy="-149" rx="172.47" ry="18"/>
<text text-anchor="middle" x="618" y="-145.3" font-family="Times New Roman,serif" font-size="14.00">IntelliFactory.WebSharper.UncheckedProxy</text>
</g>
<!-- IntelliFactory.WebSharper.UncheckedProxy&#45;&gt;IntelliFactory.WebSharper.JavaScript -->
<g id="edge18" class="edge"><title>IntelliFactory.WebSharper.UncheckedProxy&#45;&gt;IntelliFactory.WebSharper.JavaScript</title>
<path fill="none" stroke="black" d="M790.33,-149C798.822,-149 807.33,-149 815.776,-149"/>
<polygon fill="black" stroke="black" points="816.041,-152.5 826.041,-149 816.041,-145.5 816.041,-152.5"/>
</g>
</g>
</svg>
