<?xml version="1.0" encoding="UTF-8" standalone="no"?>
<!DOCTYPE svg PUBLIC "-//W3C//DTD SVG 1.1//EN"
 "http://www.w3.org/Graphics/SVG/1.1/DTD/svg11.dtd">
<!-- Generated by graphviz version 2.30.1 (20130214.1330)
 -->
<!-- Title: G Pages: 1 -->
<svg width="1584pt" height="925pt"
 viewBox="0.00 0.00 1584.00 925.37" xmlns="http://www.w3.org/2000/svg" xmlns:xlink="http://www.w3.org/1999/xlink">
<g id="graph0" class="graph" transform="scale(1 1) rotate(0) translate(4 921.369)">
<title>G</title>
<polygon fill="white" stroke="white" points="-4,5 -4,-921.369 1581,-921.369 1581,5 -4,5"/>
<!-- IntelliFactory.WebSharper.Html.Activator -->
<g id="node1" class="node"><title>IntelliFactory.WebSharper.Html.Activator</title>
<ellipse fill="none" stroke="black" cx="1025" cy="-769.369" rx="163.271" ry="18"/>
<text text-anchor="middle" x="1025" y="-765.669" font-family="Times New Roman,serif" font-size="14.00">IntelliFactory.WebSharper.Html.Activator</text>
</g>
<!-- IntelliFactory.WebSharper.Html.IPagelet -->
<g id="node2" class="node"><title>IntelliFactory.WebSharper.Html.IPagelet</title>
<ellipse fill="none" stroke="black" cx="1411" cy="-639.369" rx="157.872" ry="18"/>
<text text-anchor="middle" x="1411" y="-635.669" font-family="Times New Roman,serif" font-size="14.00">IntelliFactory.WebSharper.Html.IPagelet</text>
</g>
<!-- IntelliFactory.WebSharper.Html.Activator&#45;&gt;IntelliFactory.WebSharper.Html.IPagelet -->
<g id="edge1" class="edge"><title>IntelliFactory.WebSharper.Html.Activator&#45;&gt;IntelliFactory.WebSharper.Html.IPagelet</title>
<path fill="none" stroke="black" d="M1133.79,-755.885C1159.13,-751.276 1185.79,-745.228 1210,-737.369 1268.9,-718.247 1332.38,-684.693 1371.66,-662.25"/>
<polygon fill="black" stroke="black" points="1373.71,-665.108 1380.63,-657.08 1370.21,-659.044 1373.71,-665.108"/>
</g>
<!-- IntelliFactory.WebSharper.Html.Attribute -->
<g id="node3" class="node"><title>IntelliFactory.WebSharper.Html.Attribute</title>
<ellipse fill="none" stroke="black" cx="1025" cy="-227.369" rx="161.372" ry="18"/>
<text text-anchor="middle" x="1025" y="-223.669" font-family="Times New Roman,serif" font-size="14.00">IntelliFactory.WebSharper.Html.Attribute</text>
</g>
<!-- IntelliFactory.WebSharper.Html.Interfaces -->
<g id="node4" class="node"><title>IntelliFactory.WebSharper.Html.Interfaces</title>
<ellipse fill="none" stroke="black" cx="1411" cy="-292.369" rx="165.171" ry="18"/>
<text text-anchor="middle" x="1411" y="-288.669" font-family="Times New Roman,serif" font-size="14.00">IntelliFactory.WebSharper.Html.Interfaces</text>
</g>
<!-- IntelliFactory.WebSharper.Html.Attribute&#45;&gt;IntelliFactory.WebSharper.Html.Interfaces -->
<g id="edge2" class="edge"><title>IntelliFactory.WebSharper.Html.Attribute&#45;&gt;IntelliFactory.WebSharper.Html.Interfaces</title>
<path fill="none" stroke="black" d="M1114.58,-242.363C1173.22,-252.289 1250.21,-265.321 1310.89,-275.593"/>
<polygon fill="black" stroke="black" points="1310.43,-279.063 1320.87,-277.282 1311.59,-272.162 1310.43,-279.063"/>
</g>
<!-- IntelliFactory.WebSharper.Html.AttributeBuilder -->
<g id="node5" class="node"><title>IntelliFactory.WebSharper.Html.AttributeBuilder</title>
<ellipse fill="none" stroke="black" cx="576" cy="-181.369" rx="186.567" ry="18"/>
<text text-anchor="middle" x="576" y="-177.669" font-family="Times New Roman,serif" font-size="14.00">IntelliFactory.WebSharper.Html.AttributeBuilder</text>
</g>
<!-- IntelliFactory.WebSharper.Html.AttributeBuilder&#45;&gt;IntelliFactory.WebSharper.Html.IPagelet -->
<g id="edge3" class="edge"><title>IntelliFactory.WebSharper.Html.AttributeBuilder&#45;&gt;IntelliFactory.WebSharper.Html.IPagelet</title>
<path fill="none" stroke="black" d="M754.85,-176.246C929.421,-172.877 1174.57,-173.234 1210,-200.369 1253.87,-233.964 1225.32,-268.13 1246,-319.369 1291.51,-432.096 1362.68,-558.488 1394.14,-612.527"/>
<polygon fill="black" stroke="black" points="1391.12,-614.296 1399.18,-621.163 1397.16,-610.764 1391.12,-614.296"/>
</g>
<!-- IntelliFactory.WebSharper.Html.AttributeBuilder&#45;&gt;IntelliFactory.WebSharper.Html.Attribute -->
<g id="edge4" class="edge"><title>IntelliFactory.WebSharper.Html.AttributeBuilder&#45;&gt;IntelliFactory.WebSharper.Html.Attribute</title>
<path fill="none" stroke="black" d="M704.195,-194.458C764.089,-200.622 835.392,-207.96 895.455,-214.141"/>
<polygon fill="black" stroke="black" points="895.457,-217.659 905.762,-215.201 896.173,-210.696 895.457,-217.659"/>
</g>
<!-- IntelliFactory.WebSharper.Html.AttributeBuilder&#45;&gt;IntelliFactory.WebSharper.Html.Interfaces -->
<g id="edge5" class="edge"><title>IntelliFactory.WebSharper.Html.AttributeBuilder&#45;&gt;IntelliFactory.WebSharper.Html.Interfaces</title>
<path fill="none" stroke="black" d="M655.389,-164.984C776.915,-142.811 1016.9,-111.989 1210,-167.369 1278.24,-186.941 1345.79,-237.342 1382.28,-267.833"/>
<polygon fill="black" stroke="black" points="1380.12,-270.591 1390.01,-274.387 1384.65,-265.251 1380.12,-270.591"/>
</g>
<!-- IntelliFactory.WebSharper.Html.Default -->
<g id="node6" class="node"><title>IntelliFactory.WebSharper.Html.Default</title>
<ellipse fill="none" stroke="black" cx="156" cy="-433.369" rx="155.173" ry="18"/>
<text text-anchor="middle" x="156" y="-429.669" font-family="Times New Roman,serif" font-size="14.00">IntelliFactory.WebSharper.Html.Default</text>
</g>
<!-- IntelliFactory.WebSharper.Html.Default&#45;&gt;IntelliFactory.WebSharper.Html.IPagelet -->
<g id="edge6" class="edge"><title>IntelliFactory.WebSharper.Html.Default&#45;&gt;IntelliFactory.WebSharper.Html.IPagelet</title>
<path fill="none" stroke="black" d="M160.062,-451.719C171.496,-513.757 217.924,-716.465 348,-800.369 428.526,-852.311 1120.91,-862.666 1210,-827.369 1292.9,-794.524 1361.46,-709.26 1392.35,-665.749"/>
<polygon fill="black" stroke="black" points="1395.34,-667.585 1398.2,-657.382 1389.6,-663.577 1395.34,-667.585"/>
</g>
<!-- IntelliFactory.WebSharper.Html.Default&#45;&gt;IntelliFactory.WebSharper.Html.Attribute -->
<g id="edge7" class="edge"><title>IntelliFactory.WebSharper.Html.Default&#45;&gt;IntelliFactory.WebSharper.Html.Attribute</title>
<path fill="none" stroke="black" d="M168.351,-415.35C194.388,-375.903 262.78,-282.546 348,-246.369 438.664,-207.881 700.861,-211.682 870.801,-218.871"/>
<polygon fill="black" stroke="black" points="870.704,-222.37 880.845,-219.305 871.006,-215.377 870.704,-222.37"/>
</g>
<!-- IntelliFactory.WebSharper.Html.Default&#45;&gt;IntelliFactory.WebSharper.Html.Interfaces -->
<g id="edge8" class="edge"><title>IntelliFactory.WebSharper.Html.Default&#45;&gt;IntelliFactory.WebSharper.Html.Interfaces</title>
<path fill="none" stroke="black" d="M159.8,-415.137C170.502,-352.584 215.127,-146.109 348,-65.3689 511.705,34.1063 1035.47,8.59719 1210,-70.3689 1300.8,-111.453 1367.96,-215.902 1395.82,-265.471"/>
<polygon fill="black" stroke="black" points="1392.81,-267.275 1400.71,-274.34 1398.94,-263.893 1392.81,-267.275"/>
</g>
<!-- IntelliFactory.WebSharper.Html.Default&#45;&gt;IntelliFactory.WebSharper.Html.AttributeBuilder -->
<g id="edge9" class="edge"><title>IntelliFactory.WebSharper.Html.Default&#45;&gt;IntelliFactory.WebSharper.Html.AttributeBuilder</title>
<path fill="none" stroke="black" d="M166.57,-415.29C190.547,-372.011 257.79,-262.41 348,-213.369 364.675,-204.304 383.014,-197.506 401.819,-192.445"/>
<polygon fill="black" stroke="black" points="402.85,-195.794 411.689,-189.953 401.136,-189.007 402.85,-195.794"/>
</g>
<!-- IntelliFactory.WebSharper.Html.DeprecatedTagBuilder -->
<g id="node7" class="node"><title>IntelliFactory.WebSharper.Html.DeprecatedTagBuilder</title>
<ellipse fill="none" stroke="black" cx="576" cy="-685.369" rx="210.663" ry="18"/>
<text text-anchor="middle" x="576" y="-681.669" font-family="Times New Roman,serif" font-size="14.00">IntelliFactory.WebSharper.Html.DeprecatedTagBuilder</text>
</g>
<!-- IntelliFactory.WebSharper.Html.Default&#45;&gt;IntelliFactory.WebSharper.Html.DeprecatedTagBuilder -->
<g id="edge10" class="edge"><title>IntelliFactory.WebSharper.Html.Default&#45;&gt;IntelliFactory.WebSharper.Html.DeprecatedTagBuilder</title>
<path fill="none" stroke="black" d="M166.57,-451.447C190.547,-494.727 257.79,-604.328 348,-653.369 362.406,-661.2 378.054,-667.34 394.172,-672.129"/>
<polygon fill="black" stroke="black" points="393.689,-675.628 404.261,-674.94 395.567,-668.885 393.689,-675.628"/>
</g>
<!-- IntelliFactory.WebSharper.Html.Element -->
<g id="node8" class="node"><title>IntelliFactory.WebSharper.Html.Element</title>
<ellipse fill="none" stroke="black" cx="1025" cy="-639.369" rx="157.872" ry="18"/>
<text text-anchor="middle" x="1025" y="-635.669" font-family="Times New Roman,serif" font-size="14.00">IntelliFactory.WebSharper.Html.Element</text>
</g>
<!-- IntelliFactory.WebSharper.Html.Default&#45;&gt;IntelliFactory.WebSharper.Html.Element -->
<g id="edge11" class="edge"><title>IntelliFactory.WebSharper.Html.Default&#45;&gt;IntelliFactory.WebSharper.Html.Element</title>
<path fill="none" stroke="black" d="M168.351,-451.388C194.388,-490.834 262.78,-584.192 348,-620.369 439.061,-659.025 703.163,-655.022 873.031,-647.772"/>
<polygon fill="black" stroke="black" points="873.229,-651.266 883.068,-647.335 872.925,-644.273 873.229,-651.266"/>
</g>
<!-- IntelliFactory.WebSharper.Html.Implementation -->
<g id="node9" class="node"><title>IntelliFactory.WebSharper.Html.Implementation</title>
<ellipse fill="none" stroke="black" cx="1025" cy="-97.3689" rx="184.667" ry="18"/>
<text text-anchor="middle" x="1025" y="-93.6689" font-family="Times New Roman,serif" font-size="14.00">IntelliFactory.WebSharper.Html.Implementation</text>
</g>
<!-- IntelliFactory.WebSharper.Html.Default&#45;&gt;IntelliFactory.WebSharper.Html.Implementation -->
<g id="edge12" class="edge"><title>IntelliFactory.WebSharper.Html.Default&#45;&gt;IntelliFactory.WebSharper.Html.Implementation</title>
<path fill="none" stroke="black" d="M163.097,-415.223C181.478,-363.7 241.727,-216.252 348,-154.369 528.344,-49.3543 782.891,-62.4045 922.524,-80.3918"/>
<polygon fill="black" stroke="black" points="922.415,-83.9078 932.788,-81.7497 923.333,-76.9683 922.415,-83.9078"/>
</g>
<!-- IntelliFactory.WebSharper.Html.TagBuilder -->
<g id="node10" class="node"><title>IntelliFactory.WebSharper.Html.TagBuilder</title>
<ellipse fill="none" stroke="black" cx="576" cy="-479.369" rx="168.97" ry="18"/>
<text text-anchor="middle" x="576" y="-475.669" font-family="Times New Roman,serif" font-size="14.00">IntelliFactory.WebSharper.Html.TagBuilder</text>
</g>
<!-- IntelliFactory.WebSharper.Html.Default&#45;&gt;IntelliFactory.WebSharper.Html.TagBuilder -->
<g id="edge13" class="edge"><title>IntelliFactory.WebSharper.Html.Default&#45;&gt;IntelliFactory.WebSharper.Html.TagBuilder</title>
<path fill="none" stroke="black" d="M269.291,-445.726C324.269,-451.776 390.699,-459.087 447.571,-465.346"/>
<polygon fill="black" stroke="black" points="447.385,-468.846 457.707,-466.461 448.15,-461.888 447.385,-468.846"/>
</g>
<!-- IntelliFactory.WebSharper.Html.Text -->
<g id="node11" class="node"><title>IntelliFactory.WebSharper.Html.Text</title>
<ellipse fill="none" stroke="black" cx="1025" cy="-433.369" rx="145.674" ry="18"/>
<text text-anchor="middle" x="1025" y="-429.669" font-family="Times New Roman,serif" font-size="14.00">IntelliFactory.WebSharper.Html.Text</text>
</g>
<!-- IntelliFactory.WebSharper.Html.Default&#45;&gt;IntelliFactory.WebSharper.Html.Text -->
<g id="edge14" class="edge"><title>IntelliFactory.WebSharper.Html.Default&#45;&gt;IntelliFactory.WebSharper.Html.Text</title>
<path fill="none" stroke="black" d="M311.502,-433.369C468.826,-433.369 711.391,-433.369 868.922,-433.369"/>
<polygon fill="black" stroke="black" points="869.174,-436.869 879.174,-433.369 869.174,-429.869 869.174,-436.869"/>
</g>
<!-- IntelliFactory.WebSharper.Html.DeprecatedTagBuilder&#45;&gt;IntelliFactory.WebSharper.Html.IPagelet -->
<g id="edge18" class="edge"><title>IntelliFactory.WebSharper.Html.DeprecatedTagBuilder&#45;&gt;IntelliFactory.WebSharper.Html.IPagelet</title>
<path fill="none" stroke="black" d="M698.504,-700.046C826.489,-712.714 1033.54,-725.268 1210,-699.369 1260.86,-691.904 1316.74,-674.298 1356.48,-660.077"/>
<polygon fill="black" stroke="black" points="1357.76,-663.336 1365.97,-656.636 1355.37,-656.756 1357.76,-663.336"/>
</g>
<!-- IntelliFactory.WebSharper.Html.DeprecatedTagBuilder&#45;&gt;IntelliFactory.WebSharper.Html.Interfaces -->
<g id="edge19" class="edge"><title>IntelliFactory.WebSharper.Html.DeprecatedTagBuilder&#45;&gt;IntelliFactory.WebSharper.Html.Interfaces</title>
<path fill="none" stroke="black" d="M781.674,-689.348C952.621,-691.011 1174.05,-688.651 1210,-666.369 1226.65,-656.05 1353.81,-404.464 1396.26,-319.845"/>
<polygon fill="black" stroke="black" points="1399.42,-321.337 1400.78,-310.829 1393.17,-318.201 1399.42,-321.337"/>
</g>
<!-- IntelliFactory.WebSharper.Html.DeprecatedTagBuilder&#45;&gt;IntelliFactory.WebSharper.Html.Element -->
<g id="edge20" class="edge"><title>IntelliFactory.WebSharper.Html.DeprecatedTagBuilder&#45;&gt;IntelliFactory.WebSharper.Html.Element</title>
<path fill="none" stroke="black" d="M711.418,-671.536C770.358,-665.471 839.18,-658.388 897.221,-652.415"/>
<polygon fill="black" stroke="black" points="897.593,-655.896 907.182,-651.39 896.876,-648.933 897.593,-655.896"/>
</g>
<!-- IntelliFactory.WebSharper.Html.Element&#45;&gt;IntelliFactory.WebSharper.Html.IPagelet -->
<g id="edge21" class="edge"><title>IntelliFactory.WebSharper.Html.Element&#45;&gt;IntelliFactory.WebSharper.Html.IPagelet</title>
<path fill="none" stroke="black" d="M1183.02,-639.369C1202.79,-639.369 1223.07,-639.369 1242.98,-639.369"/>
<polygon fill="black" stroke="black" points="1243.04,-642.869 1253.04,-639.369 1243.04,-635.869 1243.04,-642.869"/>
</g>
<!-- IntelliFactory.WebSharper.Html.Element&#45;&gt;IntelliFactory.WebSharper.Html.Interfaces -->
<g id="edge22" class="edge"><title>IntelliFactory.WebSharper.Html.Element&#45;&gt;IntelliFactory.WebSharper.Html.Interfaces</title>
<path fill="none" stroke="black" d="M1095.94,-623.174C1132.51,-612.259 1176.51,-595.064 1210,-569.369 1302.12,-498.688 1370.3,-374.144 1397.29,-319.433"/>
<polygon fill="black" stroke="black" points="1400.47,-320.884 1401.7,-310.361 1394.18,-317.823 1400.47,-320.884"/>
</g>
<!-- IntelliFactory.WebSharper.Html.Implementation&#45;&gt;IntelliFactory.WebSharper.Html.Interfaces -->
<g id="edge31" class="edge"><title>IntelliFactory.WebSharper.Html.Implementation&#45;&gt;IntelliFactory.WebSharper.Html.Interfaces</title>
<path fill="none" stroke="black" d="M1152.32,-110.495C1172.14,-115.046 1192.01,-121.16 1210,-129.369 1283.62,-162.955 1352.93,-230.308 1387.35,-267.047"/>
<polygon fill="black" stroke="black" points="1384.8,-269.438 1394.16,-274.399 1389.93,-264.683 1384.8,-269.438"/>
</g>
<!-- IntelliFactory.WebSharper.Html.TagBuilder&#45;&gt;IntelliFactory.WebSharper.Html.IPagelet -->
<g id="edge34" class="edge"><title>IntelliFactory.WebSharper.Html.TagBuilder&#45;&gt;IntelliFactory.WebSharper.Html.IPagelet</title>
<path fill="none" stroke="black" d="M672.824,-494.131C797.142,-513.75 1020.55,-550.597 1210,-590.369 1252.39,-599.269 1299.46,-610.721 1337.28,-620.316"/>
<polygon fill="black" stroke="black" points="1336.64,-623.763 1347.19,-622.841 1338.37,-616.98 1336.64,-623.763"/>
</g>
<!-- IntelliFactory.WebSharper.Html.TagBuilder&#45;&gt;IntelliFactory.WebSharper.Html.Interfaces -->
<g id="edge35" class="edge"><title>IntelliFactory.WebSharper.Html.TagBuilder&#45;&gt;IntelliFactory.WebSharper.Html.Interfaces</title>
<path fill="none" stroke="black" d="M666.557,-494.573C792.542,-512.049 1027.14,-530.103 1210,-460.369 1287.53,-430.802 1356.41,-357.669 1389.39,-318.357"/>
<polygon fill="black" stroke="black" points="1392.21,-320.448 1395.88,-310.509 1386.81,-315.989 1392.21,-320.448"/>
</g>
<!-- IntelliFactory.WebSharper.Html.TagBuilder&#45;&gt;IntelliFactory.WebSharper.Html.Element -->
<g id="edge36" class="edge"><title>IntelliFactory.WebSharper.Html.TagBuilder&#45;&gt;IntelliFactory.WebSharper.Html.Element</title>
<path fill="none" stroke="black" d="M625.262,-496.644C708.165,-526.318 877.274,-586.85 966.277,-618.707"/>
<polygon fill="black" stroke="black" points="965.346,-622.091 975.94,-622.166 967.705,-615.501 965.346,-622.091"/>
</g>
<!-- IntelliFactory.WebSharper.Html.TagBuilder&#45;&gt;IntelliFactory.WebSharper.Html.Text -->
<g id="edge37" class="edge"><title>IntelliFactory.WebSharper.Html.TagBuilder&#45;&gt;IntelliFactory.WebSharper.Html.Text</title>
<path fill="none" stroke="black" d="M698.259,-466.89C761.699,-460.362 839.147,-452.392 902.606,-445.861"/>
<polygon fill="black" stroke="black" points="903.077,-449.331 912.666,-444.826 902.36,-442.368 903.077,-449.331"/>
</g>
<!-- IntelliFactory.WebSharper.Html.DeprecatedAttributeBuilder -->
<g id="node12" class="node"><title>IntelliFactory.WebSharper.Html.DeprecatedAttributeBuilder</title>
<ellipse fill="none" stroke="black" cx="576" cy="-273.369" rx="228.26" ry="18"/>
<text text-anchor="middle" x="576" y="-269.669" font-family="Times New Roman,serif" font-size="14.00">IntelliFactory.WebSharper.Html.DeprecatedAttributeBuilder</text>
</g>
<!-- IntelliFactory.WebSharper.Html.DeprecatedAttributeBuilder&#45;&gt;IntelliFactory.WebSharper.Html.IPagelet -->
<g id="edge15" class="edge"><title>IntelliFactory.WebSharper.Html.DeprecatedAttributeBuilder&#45;&gt;IntelliFactory.WebSharper.Html.IPagelet</title>
<path fill="none" stroke="black" d="M718.301,-287.481C891.977,-305.747 1168.87,-338.215 1210,-363.369 1309.3,-424.089 1374.07,-554.432 1398.76,-611.568"/>
<polygon fill="black" stroke="black" points="1395.65,-613.194 1402.77,-621.037 1402.09,-610.464 1395.65,-613.194"/>
</g>
<!-- IntelliFactory.WebSharper.Html.DeprecatedAttributeBuilder&#45;&gt;IntelliFactory.WebSharper.Html.Attribute -->
<g id="edge16" class="edge"><title>IntelliFactory.WebSharper.Html.DeprecatedAttributeBuilder&#45;&gt;IntelliFactory.WebSharper.Html.Attribute</title>
<path fill="none" stroke="black" d="M715.678,-259.098C773.111,-253.187 839.32,-246.374 895.626,-240.58"/>
<polygon fill="black" stroke="black" points="896.067,-244.053 905.657,-239.547 895.351,-237.09 896.067,-244.053"/>
</g>
<!-- IntelliFactory.WebSharper.Html.DeprecatedAttributeBuilder&#45;&gt;IntelliFactory.WebSharper.Html.Interfaces -->
<g id="edge17" class="edge"><title>IntelliFactory.WebSharper.Html.DeprecatedAttributeBuilder&#45;&gt;IntelliFactory.WebSharper.Html.Interfaces</title>
<path fill="none" stroke="black" d="M795.317,-278.348C933.888,-281.509 1110.62,-285.54 1238.99,-288.468"/>
<polygon fill="black" stroke="black" points="1239.23,-291.975 1249.31,-288.704 1239.39,-284.976 1239.23,-291.975"/>
</g>
<!-- IntelliFactory.WebSharper.Html.Events -->
<g id="node13" class="node"><title>IntelliFactory.WebSharper.Html.Events</title>
<ellipse fill="none" stroke="black" cx="1025" cy="-899.369" rx="153.273" ry="18"/>
<text text-anchor="middle" x="1025" y="-895.669" font-family="Times New Roman,serif" font-size="14.00">IntelliFactory.WebSharper.Html.Events</text>
</g>
<!-- IntelliFactory.WebSharper.Html.Events&#45;&gt;IntelliFactory.WebSharper.Html.IPagelet -->
<g id="edge23" class="edge"><title>IntelliFactory.WebSharper.Html.Events&#45;&gt;IntelliFactory.WebSharper.Html.IPagelet</title>
<path fill="none" stroke="black" d="M1152.16,-889.16C1172.32,-884.27 1192.33,-877.288 1210,-867.369 1297.78,-818.099 1365.99,-715.263 1394.91,-666.344"/>
<polygon fill="black" stroke="black" points="1398,-667.989 1400.01,-657.586 1391.95,-664.469 1398,-667.989"/>
</g>
<!-- IntelliFactory.WebSharper.Html.EventsPervasives -->
<g id="node14" class="node"><title>IntelliFactory.WebSharper.Html.EventsPervasives</title>
<ellipse fill="none" stroke="black" cx="576" cy="-899.369" rx="192.266" ry="18"/>
<text text-anchor="middle" x="576" y="-895.669" font-family="Times New Roman,serif" font-size="14.00">IntelliFactory.WebSharper.Html.EventsPervasives</text>
</g>
<!-- IntelliFactory.WebSharper.Html.EventsPervasives&#45;&gt;IntelliFactory.WebSharper.Html.Events -->
<g id="edge24" class="edge"><title>IntelliFactory.WebSharper.Html.EventsPervasives&#45;&gt;IntelliFactory.WebSharper.Html.Events</title>
<path fill="none" stroke="black" d="M768.513,-899.369C799.383,-899.369 831.084,-899.369 861.194,-899.369"/>
<polygon fill="black" stroke="black" points="861.341,-902.869 871.341,-899.369 861.341,-895.869 861.341,-902.869"/>
</g>
<!-- IntelliFactory.WebSharper.Html.Html5AttributeBuilder -->
<g id="node15" class="node"><title>IntelliFactory.WebSharper.Html.Html5AttributeBuilder</title>
<ellipse fill="none" stroke="black" cx="576" cy="-327.369" rx="208.763" ry="18"/>
<text text-anchor="middle" x="576" y="-323.669" font-family="Times New Roman,serif" font-size="14.00">IntelliFactory.WebSharper.Html.Html5AttributeBuilder</text>
</g>
<!-- IntelliFactory.WebSharper.Html.Html5AttributeBuilder&#45;&gt;IntelliFactory.WebSharper.Html.IPagelet -->
<g id="edge25" class="edge"><title>IntelliFactory.WebSharper.Html.Html5AttributeBuilder&#45;&gt;IntelliFactory.WebSharper.Html.IPagelet</title>
<path fill="none" stroke="black" d="M685.379,-342.709C732.811,-349.292 789.135,-356.933 840,-363.369 922.121,-373.76 1136.91,-367.516 1210,-406.369 1300.44,-454.441 1367.77,-561.584 1395.75,-612.064"/>
<polygon fill="black" stroke="black" points="1392.81,-613.979 1400.66,-621.087 1398.95,-610.631 1392.81,-613.979"/>
</g>
<!-- IntelliFactory.WebSharper.Html.Html5AttributeBuilder&#45;&gt;IntelliFactory.WebSharper.Html.Attribute -->
<g id="edge26" class="edge"><title>IntelliFactory.WebSharper.Html.Html5AttributeBuilder&#45;&gt;IntelliFactory.WebSharper.Html.Attribute</title>
<path fill="none" stroke="black" d="M722.448,-314.493C749.713,-310.832 777.853,-306.199 804,-300.369 862.365,-287.355 927.098,-264.853 971.141,-248.263"/>
<polygon fill="black" stroke="black" points="972.385,-251.534 980.491,-244.713 969.9,-244.99 972.385,-251.534"/>
</g>
<!-- IntelliFactory.WebSharper.Html.Html5AttributeBuilder&#45;&gt;IntelliFactory.WebSharper.Html.Interfaces -->
<g id="edge27" class="edge"><title>IntelliFactory.WebSharper.Html.Html5AttributeBuilder&#45;&gt;IntelliFactory.WebSharper.Html.Interfaces</title>
<path fill="none" stroke="black" d="M763.941,-319.514C908.895,-313.424 1107.8,-305.067 1246.47,-299.24"/>
<polygon fill="black" stroke="black" points="1246.92,-302.724 1256.76,-298.807 1246.63,-295.73 1246.92,-302.724"/>
</g>
<!-- IntelliFactory.WebSharper.Html.Html5TagBuilder -->
<g id="node16" class="node"><title>IntelliFactory.WebSharper.Html.Html5TagBuilder</title>
<ellipse fill="none" stroke="black" cx="576" cy="-593.369" rx="191.166" ry="18"/>
<text text-anchor="middle" x="576" y="-589.669" font-family="Times New Roman,serif" font-size="14.00">IntelliFactory.WebSharper.Html.Html5TagBuilder</text>
</g>
<!-- IntelliFactory.WebSharper.Html.Html5TagBuilder&#45;&gt;IntelliFactory.WebSharper.Html.IPagelet -->
<g id="edge28" class="edge"><title>IntelliFactory.WebSharper.Html.Html5TagBuilder&#45;&gt;IntelliFactory.WebSharper.Html.IPagelet</title>
<path fill="none" stroke="black" d="M767.026,-593.915C892.887,-595.545 1061.53,-600.152 1210,-612.369 1241.82,-614.987 1276.34,-619.164 1307.59,-623.456"/>
<polygon fill="black" stroke="black" points="1307.23,-626.94 1317.62,-624.852 1308.19,-620.006 1307.23,-626.94"/>
</g>
<!-- IntelliFactory.WebSharper.Html.Html5TagBuilder&#45;&gt;IntelliFactory.WebSharper.Html.Interfaces -->
<g id="edge29" class="edge"><title>IntelliFactory.WebSharper.Html.Html5TagBuilder&#45;&gt;IntelliFactory.WebSharper.Html.Interfaces</title>
<path fill="none" stroke="black" d="M726.654,-582.29C886.546,-568.506 1128.06,-541.511 1210,-499.369 1293.74,-456.303 1362.56,-364.481 1393.06,-319.013"/>
<polygon fill="black" stroke="black" points="1396.05,-320.839 1398.64,-310.566 1390.21,-316.98 1396.05,-320.839"/>
</g>
<!-- IntelliFactory.WebSharper.Html.Html5TagBuilder&#45;&gt;IntelliFactory.WebSharper.Html.Element -->
<g id="edge30" class="edge"><title>IntelliFactory.WebSharper.Html.Html5TagBuilder&#45;&gt;IntelliFactory.WebSharper.Html.Element</title>
<path fill="none" stroke="black" d="M705.691,-606.612C765.791,-612.797 837.117,-620.137 897.003,-626.3"/>
<polygon fill="black" stroke="black" points="896.971,-629.815 907.277,-627.357 897.688,-622.852 896.971,-629.815"/>
</g>
<!-- IntelliFactory.WebSharper.Html.Operators -->
<g id="node17" class="node"><title>IntelliFactory.WebSharper.Html.Operators</title>
<ellipse fill="none" stroke="black" cx="576" cy="-773.369" rx="165.971" ry="18"/>
<text text-anchor="middle" x="576" y="-769.669" font-family="Times New Roman,serif" font-size="14.00">IntelliFactory.WebSharper.Html.Operators</text>
</g>
<!-- IntelliFactory.WebSharper.Html.Operators&#45;&gt;IntelliFactory.WebSharper.Html.IPagelet -->
<g id="edge32" class="edge"><title>IntelliFactory.WebSharper.Html.Operators&#45;&gt;IntelliFactory.WebSharper.Html.IPagelet</title>
<path fill="none" stroke="black" d="M639.396,-790.114C755.494,-818.163 1010.96,-865.159 1210,-796.369 1285.44,-770.295 1354.09,-702.725 1387.91,-665.288"/>
<polygon fill="black" stroke="black" points="1390.94,-667.142 1394.97,-657.342 1385.71,-662.492 1390.94,-667.142"/>
</g>
<!-- IntelliFactory.WebSharper.Html.Operators&#45;&gt;IntelliFactory.WebSharper.Html.Element -->
<g id="edge33" class="edge"><title>IntelliFactory.WebSharper.Html.Operators&#45;&gt;IntelliFactory.WebSharper.Html.Element</title>
<path fill="none" stroke="black" d="M642.846,-756.75C688.311,-745.012 750.06,-728.551 804,-712.369 859.007,-695.867 921.051,-675.078 965.194,-659.91"/>
<polygon fill="black" stroke="black" points="966.577,-663.136 974.892,-656.569 964.297,-656.517 966.577,-663.136"/>
</g>
</g>
</svg>
