<?xml version="1.0" encoding="UTF-8" standalone="no"?>
<!DOCTYPE svg PUBLIC "-//W3C//DTD SVG 1.1//EN"
 "http://www.w3.org/Graphics/SVG/1.1/DTD/svg11.dtd">
<!-- Generated by graphviz version 2.30.1 (20130214.1330)
 -->
<!-- Title: G Pages: 1 -->
<svg width="1710pt" height="473pt"
 viewBox="0.00 0.00 1710.00 473.00" xmlns="http://www.w3.org/2000/svg" xmlns:xlink="http://www.w3.org/1999/xlink">
<g id="graph0" class="graph" transform="scale(1 1) rotate(0) translate(4 469)">
<title>G</title>
<polygon fill="white" stroke="white" points="-4,5 -4,-469 1707,-469 1707,5 -4,5"/>
<!-- IntelliFactory.WebSharper.Html.AttributeBuilder -->
<g id="node1" class="node"><title>IntelliFactory.WebSharper.Html.AttributeBuilder</title>
<ellipse fill="none" stroke="black" cx="633" cy="-139" rx="186.567" ry="18"/>
<text text-anchor="middle" x="633" y="-135.3" font-family="Times New Roman,serif" font-size="14.00">IntelliFactory.WebSharper.Html.AttributeBuilder</text>
</g>
<!-- IntelliFactory.WebSharper.Html.IPagelet -->
<g id="node2" class="node"><title>IntelliFactory.WebSharper.Html.IPagelet</title>
<ellipse fill="none" stroke="black" cx="1537" cy="-90.0005" rx="157.872" ry="18"/>
<text text-anchor="middle" x="1537" y="-86.3005" font-family="Times New Roman,serif" font-size="14.00">IntelliFactory.WebSharper.Html.IPagelet</text>
</g>
<!-- IntelliFactory.WebSharper.Html.AttributeBuilder&#45;&gt;IntelliFactory.WebSharper.Html.IPagelet -->
<g id="edge1" class="edge"><title>IntelliFactory.WebSharper.Html.AttributeBuilder&#45;&gt;IntelliFactory.WebSharper.Html.IPagelet</title>
<path fill="none" stroke="black" d="M671.709,-121.321C719.096,-100.17 803.503,-65.9866 880,-53.0005 1079.81,-19.0812 1134.18,-34.4892 1336,-53.0005 1375.86,-56.6561 1419.62,-64.3277 1456.03,-71.7425"/>
<polygon fill="black" stroke="black" points="1455.59,-75.2258 1466.09,-73.8235 1457.01,-68.3709 1455.59,-75.2258"/>
</g>
<!-- IntelliFactory.WebSharper.Html.Interfaces -->
<g id="node3" class="node"><title>IntelliFactory.WebSharper.Html.Interfaces</title>
<ellipse fill="none" stroke="black" cx="1537" cy="-251" rx="165.171" ry="18"/>
<text text-anchor="middle" x="1537" y="-247.3" font-family="Times New Roman,serif" font-size="14.00">IntelliFactory.WebSharper.Html.Interfaces</text>
</g>
<!-- IntelliFactory.WebSharper.Html.AttributeBuilder&#45;&gt;IntelliFactory.WebSharper.Html.Interfaces -->
<g id="edge2" class="edge"><title>IntelliFactory.WebSharper.Html.AttributeBuilder&#45;&gt;IntelliFactory.WebSharper.Html.Interfaces</title>
<path fill="none" stroke="black" d="M787.909,-149.117C807.211,-153.179 826.353,-158.655 844,-166 862.713,-173.79 861.077,-186.734 880,-194 974.846,-230.422 1234.87,-217.279 1336,-227 1363.13,-229.608 1392.27,-232.852 1419.69,-236.104"/>
<polygon fill="black" stroke="black" points="1419.37,-239.589 1429.71,-237.301 1420.2,-232.639 1419.37,-239.589"/>
</g>
<!-- IntelliFactory.WebSharper.Html.Default -->
<g id="node4" class="node"><title>IntelliFactory.WebSharper.Html.Default</title>
<ellipse fill="none" stroke="black" cx="193" cy="-193" rx="155.173" ry="18"/>
<text text-anchor="middle" x="193" y="-189.3" font-family="Times New Roman,serif" font-size="14.00">IntelliFactory.WebSharper.Html.Default</text>
</g>
<!-- IntelliFactory.WebSharper.Html.Default&#45;&gt;IntelliFactory.WebSharper.Html.AttributeBuilder -->
<g id="edge3" class="edge"><title>IntelliFactory.WebSharper.Html.Default&#45;&gt;IntelliFactory.WebSharper.Html.AttributeBuilder</title>
<path fill="none" stroke="black" d="M300.028,-179.929C362.519,-172.224 441.911,-162.436 507.385,-154.364"/>
<polygon fill="black" stroke="black" points="507.858,-157.832 517.354,-153.135 507.001,-150.885 507.858,-157.832"/>
</g>
<!-- IntelliFactory.WebSharper.Html.Default&#45;&gt;IntelliFactory.WebSharper.Html.IPagelet -->
<g id="edge4" class="edge"><title>IntelliFactory.WebSharper.Html.Default&#45;&gt;IntelliFactory.WebSharper.Html.IPagelet</title>
<path fill="none" stroke="black" d="M236.212,-175.675C281.494,-157.643 355.835,-129.624 422,-112 816.151,-7.01421 932.567,31.1552 1336,-29.0005 1387.08,-36.6171 1443.16,-54.6077 1482.9,-69.0894"/>
<polygon fill="black" stroke="black" points="1481.79,-72.4113 1492.38,-72.5922 1484.21,-65.8447 1481.79,-72.4113"/>
</g>
<!-- IntelliFactory.WebSharper.Html.DeprecatedTagBuilder -->
<g id="node5" class="node"><title>IntelliFactory.WebSharper.Html.DeprecatedTagBuilder</title>
<ellipse fill="none" stroke="black" cx="633" cy="-339" rx="210.663" ry="18"/>
<text text-anchor="middle" x="633" y="-335.3" font-family="Times New Roman,serif" font-size="14.00">IntelliFactory.WebSharper.Html.DeprecatedTagBuilder</text>
</g>
<!-- IntelliFactory.WebSharper.Html.Default&#45;&gt;IntelliFactory.WebSharper.Html.DeprecatedTagBuilder -->
<g id="edge5" class="edge"><title>IntelliFactory.WebSharper.Html.Default&#45;&gt;IntelliFactory.WebSharper.Html.DeprecatedTagBuilder</title>
<path fill="none" stroke="black" d="M220.367,-210.755C261.488,-237.496 344.26,-287.573 422,-312 438.05,-317.044 455.073,-321.147 472.208,-324.484"/>
<polygon fill="black" stroke="black" points="471.832,-327.974 482.304,-326.362 473.113,-321.092 471.832,-327.974"/>
</g>
<!-- IntelliFactory.WebSharper.Html.Element -->
<g id="node6" class="node"><title>IntelliFactory.WebSharper.Html.Element</title>
<ellipse fill="none" stroke="black" cx="1108" cy="-297" rx="157.872" ry="18"/>
<text text-anchor="middle" x="1108" y="-293.3" font-family="Times New Roman,serif" font-size="14.00">IntelliFactory.WebSharper.Html.Element</text>
</g>
<!-- IntelliFactory.WebSharper.Html.Default&#45;&gt;IntelliFactory.WebSharper.Html.Element -->
<g id="edge6" class="edge"><title>IntelliFactory.WebSharper.Html.Default&#45;&gt;IntelliFactory.WebSharper.Html.Element</title>
<path fill="none" stroke="black" d="M299.498,-206.119C338.023,-210.745 381.958,-215.828 422,-220 609.3,-239.52 657.006,-235.735 844,-258 897.816,-264.408 957.589,-273.142 1006.54,-280.72"/>
<polygon fill="black" stroke="black" points="1006.07,-284.19 1016.49,-282.269 1007.15,-277.273 1006.07,-284.19"/>
</g>
<!-- IntelliFactory.WebSharper.Html.TagBuilder -->
<g id="node7" class="node"><title>IntelliFactory.WebSharper.Html.TagBuilder</title>
<ellipse fill="none" stroke="black" cx="633" cy="-193" rx="168.97" ry="18"/>
<text text-anchor="middle" x="633" y="-189.3" font-family="Times New Roman,serif" font-size="14.00">IntelliFactory.WebSharper.Html.TagBuilder</text>
</g>
<!-- IntelliFactory.WebSharper.Html.Default&#45;&gt;IntelliFactory.WebSharper.Html.TagBuilder -->
<g id="edge7" class="edge"><title>IntelliFactory.WebSharper.Html.Default&#45;&gt;IntelliFactory.WebSharper.Html.TagBuilder</title>
<path fill="none" stroke="black" d="M348.422,-193C382.384,-193 418.62,-193 453.444,-193"/>
<polygon fill="black" stroke="black" points="453.711,-196.501 463.711,-193 453.711,-189.501 453.711,-196.501"/>
</g>
<!-- IntelliFactory.WebSharper.Html.DeprecatedTagBuilder&#45;&gt;IntelliFactory.WebSharper.Html.Interfaces -->
<g id="edge10" class="edge"><title>IntelliFactory.WebSharper.Html.DeprecatedTagBuilder&#45;&gt;IntelliFactory.WebSharper.Html.Interfaces</title>
<path fill="none" stroke="black" d="M795.862,-350.456C939.151,-357.073 1153.29,-358.319 1336,-324 1390.65,-313.735 1450.14,-290.325 1489.9,-272.765"/>
<polygon fill="black" stroke="black" points="1491.37,-275.941 1499.07,-268.664 1488.52,-269.551 1491.37,-275.941"/>
</g>
<!-- IntelliFactory.WebSharper.Html.DeprecatedTagBuilder&#45;&gt;IntelliFactory.WebSharper.Html.Element -->
<g id="edge11" class="edge"><title>IntelliFactory.WebSharper.Html.DeprecatedTagBuilder&#45;&gt;IntelliFactory.WebSharper.Html.Element</title>
<path fill="none" stroke="black" d="M779.775,-326.056C841.23,-320.599 912.319,-314.287 972.505,-308.943"/>
<polygon fill="black" stroke="black" points="973.186,-312.396 982.837,-308.026 972.567,-305.424 973.186,-312.396"/>
</g>
<!-- IntelliFactory.WebSharper.Html.Element&#45;&gt;IntelliFactory.WebSharper.Html.IPagelet -->
<g id="edge12" class="edge"><title>IntelliFactory.WebSharper.Html.Element&#45;&gt;IntelliFactory.WebSharper.Html.IPagelet</title>
<path fill="none" stroke="black" d="M1149.08,-279.593C1194.67,-259.609 1271.2,-225.52 1336,-194 1391.34,-167.08 1454.16,-133.991 1494.39,-112.469"/>
<polygon fill="black" stroke="black" points="1496.2,-115.468 1503.36,-107.659 1492.89,-109.298 1496.2,-115.468"/>
</g>
<!-- IntelliFactory.WebSharper.Html.Element&#45;&gt;IntelliFactory.WebSharper.Html.Interfaces -->
<g id="edge13" class="edge"><title>IntelliFactory.WebSharper.Html.Element&#45;&gt;IntelliFactory.WebSharper.Html.Interfaces</title>
<path fill="none" stroke="black" d="M1223.43,-284.673C1280.64,-278.51 1350.05,-271.032 1408.92,-264.691"/>
<polygon fill="black" stroke="black" points="1409.46,-268.153 1419.02,-263.602 1408.71,-261.193 1409.46,-268.153"/>
</g>
<!-- IntelliFactory.WebSharper.Html.TagBuilder&#45;&gt;IntelliFactory.WebSharper.Html.IPagelet -->
<g id="edge20" class="edge"><title>IntelliFactory.WebSharper.Html.TagBuilder&#45;&gt;IntelliFactory.WebSharper.Html.IPagelet</title>
<path fill="none" stroke="black" d="M797.878,-188.885C814.429,-183.631 830.195,-176.234 844,-166 875.322,-142.782 847.258,-107.171 880,-86.0005 965.095,-30.9794 1234.67,-84.9873 1336,-86.0005 1347.6,-86.1165 1359.57,-86.2703 1371.63,-86.45"/>
<polygon fill="black" stroke="black" points="1371.72,-89.9517 1381.77,-86.6069 1371.83,-82.9526 1371.72,-89.9517"/>
</g>
<!-- IntelliFactory.WebSharper.Html.TagBuilder&#45;&gt;IntelliFactory.WebSharper.Html.Interfaces -->
<g id="edge21" class="edge"><title>IntelliFactory.WebSharper.Html.TagBuilder&#45;&gt;IntelliFactory.WebSharper.Html.Interfaces</title>
<path fill="none" stroke="black" d="M726.619,-208.05C772.615,-214.949 829.103,-222.564 880,-227 1043.07,-241.216 1229.66,-247.035 1362.04,-249.405"/>
<polygon fill="black" stroke="black" points="1362.22,-252.908 1372.28,-249.583 1362.34,-245.909 1362.22,-252.908"/>
</g>
<!-- IntelliFactory.WebSharper.Html.TagBuilder&#45;&gt;IntelliFactory.WebSharper.Html.Element -->
<g id="edge22" class="edge"><title>IntelliFactory.WebSharper.Html.TagBuilder&#45;&gt;IntelliFactory.WebSharper.Html.Element</title>
<path fill="none" stroke="black" d="M779.999,-201.954C802.277,-207.037 824.362,-214.409 844,-225 865.051,-236.354 858.886,-253.765 880,-265 900.999,-276.174 924.565,-283.875 948.355,-289.115"/>
<polygon fill="black" stroke="black" points="947.694,-292.552 958.195,-291.144 949.108,-285.697 947.694,-292.552"/>
</g>
<!-- IntelliFactory.WebSharper.Html.DeprecatedAttributeBuilder -->
<g id="node8" class="node"><title>IntelliFactory.WebSharper.Html.DeprecatedAttributeBuilder</title>
<ellipse fill="none" stroke="black" cx="1108" cy="-167" rx="228.26" ry="18"/>
<text text-anchor="middle" x="1108" y="-163.3" font-family="Times New Roman,serif" font-size="14.00">IntelliFactory.WebSharper.Html.DeprecatedAttributeBuilder</text>
</g>
<!-- IntelliFactory.WebSharper.Html.DeprecatedAttributeBuilder&#45;&gt;IntelliFactory.WebSharper.Html.IPagelet -->
<g id="edge8" class="edge"><title>IntelliFactory.WebSharper.Html.DeprecatedAttributeBuilder&#45;&gt;IntelliFactory.WebSharper.Html.IPagelet</title>
<path fill="none" stroke="black" d="M1250.79,-152.941C1279.11,-149.344 1308.58,-145.038 1336,-140 1380.11,-131.897 1428.95,-119.748 1467.33,-109.454"/>
<polygon fill="black" stroke="black" points="1468.62,-112.732 1477.36,-106.744 1466.79,-105.975 1468.62,-112.732"/>
</g>
<!-- IntelliFactory.WebSharper.Html.DeprecatedAttributeBuilder&#45;&gt;IntelliFactory.WebSharper.Html.Interfaces -->
<g id="edge9" class="edge"><title>IntelliFactory.WebSharper.Html.DeprecatedAttributeBuilder&#45;&gt;IntelliFactory.WebSharper.Html.Interfaces</title>
<path fill="none" stroke="black" d="M1234.03,-182.013C1267.29,-186.719 1303.12,-192.431 1336,-199 1380.41,-207.873 1429.64,-220.637 1468.15,-231.299"/>
<polygon fill="black" stroke="black" points="1467.63,-234.788 1478.21,-234.103 1469.51,-228.046 1467.63,-234.788"/>
</g>
<!-- IntelliFactory.WebSharper.Html.EventsPervasives -->
<g id="node9" class="node"><title>IntelliFactory.WebSharper.Html.EventsPervasives</title>
<ellipse fill="none" stroke="black" cx="193" cy="-447" rx="192.266" ry="18"/>
<text text-anchor="middle" x="193" y="-443.3" font-family="Times New Roman,serif" font-size="14.00">IntelliFactory.WebSharper.Html.EventsPervasives</text>
</g>
<!-- IntelliFactory.WebSharper.Html.Events -->
<g id="node10" class="node"><title>IntelliFactory.WebSharper.Html.Events</title>
<ellipse fill="none" stroke="black" cx="633" cy="-447" rx="153.273" ry="18"/>
<text text-anchor="middle" x="633" y="-443.3" font-family="Times New Roman,serif" font-size="14.00">IntelliFactory.WebSharper.Html.Events</text>
</g>
<!-- IntelliFactory.WebSharper.Html.EventsPervasives&#45;&gt;IntelliFactory.WebSharper.Html.Events -->
<g id="edge14" class="edge"><title>IntelliFactory.WebSharper.Html.EventsPervasives&#45;&gt;IntelliFactory.WebSharper.Html.Events</title>
<path fill="none" stroke="black" d="M385.476,-447C413.461,-447 442.055,-447 469.391,-447"/>
<polygon fill="black" stroke="black" points="469.402,-450.501 479.402,-447 469.401,-443.501 469.402,-450.501"/>
</g>
<!-- IntelliFactory.WebSharper.Html.Html5AttributeBuilder -->
<g id="node11" class="node"><title>IntelliFactory.WebSharper.Html.Html5AttributeBuilder</title>
<ellipse fill="none" stroke="black" cx="1108" cy="-113" rx="208.763" ry="18"/>
<text text-anchor="middle" x="1108" y="-109.3" font-family="Times New Roman,serif" font-size="14.00">IntelliFactory.WebSharper.Html.Html5AttributeBuilder</text>
</g>
<!-- IntelliFactory.WebSharper.Html.Html5AttributeBuilder&#45;&gt;IntelliFactory.WebSharper.Html.IPagelet -->
<g id="edge15" class="edge"><title>IntelliFactory.WebSharper.Html.Html5AttributeBuilder&#45;&gt;IntelliFactory.WebSharper.Html.IPagelet</title>
<path fill="none" stroke="black" d="M1285.45,-103.496C1318.08,-101.739 1351.9,-99.917 1383.73,-98.2022"/>
<polygon fill="black" stroke="black" points="1384.2,-101.682 1394,-97.6495 1383.82,-94.6925 1384.2,-101.682"/>
</g>
<!-- IntelliFactory.WebSharper.Html.Html5AttributeBuilder&#45;&gt;IntelliFactory.WebSharper.Html.Interfaces -->
<g id="edge16" class="edge"><title>IntelliFactory.WebSharper.Html.Html5AttributeBuilder&#45;&gt;IntelliFactory.WebSharper.Html.Interfaces</title>
<path fill="none" stroke="black" d="M1270.35,-124.333C1292.7,-128.169 1315.13,-133.259 1336,-140 1398.79,-160.291 1464.34,-201.011 1502.6,-227.088"/>
<polygon fill="black" stroke="black" points="1501.05,-230.265 1511.27,-233.06 1505.02,-224.502 1501.05,-230.265"/>
</g>
<!-- IntelliFactory.WebSharper.Html.Html5TagBuilder -->
<g id="node12" class="node"><title>IntelliFactory.WebSharper.Html.Html5TagBuilder</title>
<ellipse fill="none" stroke="black" cx="633" cy="-393" rx="191.166" ry="18"/>
<text text-anchor="middle" x="633" y="-389.3" font-family="Times New Roman,serif" font-size="14.00">IntelliFactory.WebSharper.Html.Html5TagBuilder</text>
</g>
<!-- IntelliFactory.WebSharper.Html.Html5TagBuilder&#45;&gt;IntelliFactory.WebSharper.Html.Interfaces -->
<g id="edge17" class="edge"><title>IntelliFactory.WebSharper.Html.Html5TagBuilder&#45;&gt;IntelliFactory.WebSharper.Html.Interfaces</title>
<path fill="none" stroke="black" d="M793.138,-402.854C937.418,-407.424 1154.61,-403.331 1336,-354 1398.1,-337.111 1463.13,-299.286 1501.58,-274.477"/>
<polygon fill="black" stroke="black" points="1503.84,-277.179 1510.3,-268.779 1500.01,-271.319 1503.84,-277.179"/>
</g>
<!-- IntelliFactory.WebSharper.Html.Html5TagBuilder&#45;&gt;IntelliFactory.WebSharper.Html.Element -->
<g id="edge18" class="edge"><title>IntelliFactory.WebSharper.Html.Html5TagBuilder&#45;&gt;IntelliFactory.WebSharper.Html.Element</title>
<path fill="none" stroke="black" d="M759.905,-379.493C787.71,-375.765 816.939,-371.267 844,-366 912.016,-352.763 988.502,-332.02 1041.38,-316.731"/>
<polygon fill="black" stroke="black" points="1042.68,-319.999 1051.3,-313.847 1040.72,-313.278 1042.68,-319.999"/>
</g>
<!-- IntelliFactory.WebSharper.Html.Operators -->
<g id="node13" class="node"><title>IntelliFactory.WebSharper.Html.Operators</title>
<ellipse fill="none" stroke="black" cx="633" cy="-285" rx="165.971" ry="18"/>
<text text-anchor="middle" x="633" y="-281.3" font-family="Times New Roman,serif" font-size="14.00">IntelliFactory.WebSharper.Html.Operators</text>
</g>
<!-- IntelliFactory.WebSharper.Html.Operators&#45;&gt;IntelliFactory.WebSharper.Html.Element -->
<g id="edge19" class="edge"><title>IntelliFactory.WebSharper.Html.Operators&#45;&gt;IntelliFactory.WebSharper.Html.Element</title>
<path fill="none" stroke="black" d="M794.466,-289.072C842.49,-290.29 895.194,-291.627 943.416,-292.85"/>
<polygon fill="black" stroke="black" points="943.549,-296.355 953.635,-293.11 943.727,-289.357 943.549,-296.355"/>
</g>
</g>
</svg>
