<?xml version="1.0" encoding="UTF-8" standalone="no"?>
<!DOCTYPE svg PUBLIC "-//W3C//DTD SVG 1.1//EN"
 "http://www.w3.org/Graphics/SVG/1.1/DTD/svg11.dtd">
<!-- Generated by graphviz version 2.30.1 (20130214.1330)
 -->
<!-- Title: G Pages: 1 -->
<svg width="2170pt" height="287pt"
 viewBox="0.00 0.00 2170.00 286.89" xmlns="http://www.w3.org/2000/svg" xmlns:xlink="http://www.w3.org/1999/xlink">
<g id="graph0" class="graph" transform="scale(1 1) rotate(0) translate(4 282.885)">
<title>G</title>
<polygon fill="white" stroke="white" points="-4,5 -4,-282.885 2167,-282.885 2167,5 -4,5"/>
<!-- System.Data.Entity.Infrastructure.DbCollectionEntry -->
<g id="node1" class="node"><title>System.Data.Entity.Infrastructure.DbCollectionEntry</title>
<ellipse fill="none" stroke="black" cx="202" cy="-119.709" rx="201.464" ry="18"/>
<text text-anchor="middle" x="202" y="-116.009" font-family="Times New Roman,serif" font-size="14.00">System.Data.Entity.Infrastructure.DbCollectionEntry</text>
</g>
<!-- System.Data.Entity.Infrastructure.DbEntityEntry -->
<g id="node2" class="node"><title>System.Data.Entity.Infrastructure.DbEntityEntry</title>
<ellipse fill="none" stroke="black" cx="625" cy="-119.709" rx="185.467" ry="18"/>
<text text-anchor="middle" x="625" y="-116.009" font-family="Times New Roman,serif" font-size="14.00">System.Data.Entity.Infrastructure.DbEntityEntry</text>
</g>
<!-- System.Data.Entity.Infrastructure.DbCollectionEntry&#45;&gt;System.Data.Entity.Infrastructure.DbEntityEntry -->
<g id="edge1" class="edge"><title>System.Data.Entity.Infrastructure.DbCollectionEntry&#45;&gt;System.Data.Entity.Infrastructure.DbEntityEntry</title>
<path fill="none" stroke="black" d="M389.189,-112.999C406.852,-112.94 424.747,-112.946 442.367,-113.016"/>
<polygon fill="black" stroke="black" points="442.69,-116.517 452.706,-113.064 442.723,-109.517 442.69,-116.517"/>
</g>
<!-- System.Data.Entity.Infrastructure.DbMemberEntry -->
<g id="node3" class="node"><title>System.Data.Entity.Infrastructure.DbMemberEntry</title>
<ellipse fill="none" stroke="black" cx="1967" cy="-174.709" rx="194.166" ry="18"/>
<text text-anchor="middle" x="1967" y="-171.009" font-family="Times New Roman,serif" font-size="14.00">System.Data.Entity.Infrastructure.DbMemberEntry</text>
</g>
<!-- System.Data.Entity.Infrastructure.DbCollectionEntry&#45;&gt;System.Data.Entity.Infrastructure.DbMemberEntry -->
<g id="edge2" class="edge"><title>System.Data.Entity.Infrastructure.DbCollectionEntry&#45;&gt;System.Data.Entity.Infrastructure.DbMemberEntry</title>
<path fill="none" stroke="black" d="M272.754,-102.772C447.106,-62.6368 915.899,31.745 1306,-11.7088 1531.39,-36.8156 1790.26,-116.063 1905.37,-154.033"/>
<polygon fill="black" stroke="black" points="1904.47,-157.422 1915.07,-157.245 1906.68,-150.777 1904.47,-157.422"/>
</g>
<!-- System.Data.Entity.Infrastructure.DbEntityEntry&#45;&gt;System.Data.Entity.Infrastructure.DbCollectionEntry -->
<g id="edge4" class="edge"><title>System.Data.Entity.Infrastructure.DbEntityEntry&#45;&gt;System.Data.Entity.Infrastructure.DbCollectionEntry</title>
<path fill="none" stroke="black" d="M452.706,-126.354C435.214,-126.449 417.347,-126.479 399.612,-126.446"/>
<polygon fill="black" stroke="black" points="399.198,-122.945 389.189,-126.419 399.18,-129.945 399.198,-122.945"/>
</g>
<!-- System.Data.Entity.Infrastructure.DbEntityEntry&#45;&gt;System.Data.Entity.Infrastructure.DbMemberEntry -->
<g id="edge5" class="edge"><title>System.Data.Entity.Infrastructure.DbEntityEntry&#45;&gt;System.Data.Entity.Infrastructure.DbMemberEntry</title>
<path fill="none" stroke="black" d="M661.365,-137.467C703.252,-162.004 776.179,-204.226 846,-220.709 1214.74,-307.757 1670.12,-230.667 1867.3,-192.648"/>
<polygon fill="black" stroke="black" points="1868.2,-196.039 1877.35,-190.701 1866.87,-189.167 1868.2,-196.039"/>
</g>
<!-- System.Data.Entity.Infrastructure.DbComplexPropertyEntry -->
<g id="node4" class="node"><title>System.Data.Entity.Infrastructure.DbComplexPropertyEntry</title>
<ellipse fill="none" stroke="black" cx="1076" cy="-202.709" rx="229.359" ry="18"/>
<text text-anchor="middle" x="1076" y="-199.009" font-family="Times New Roman,serif" font-size="14.00">System.Data.Entity.Infrastructure.DbComplexPropertyEntry</text>
</g>
<!-- System.Data.Entity.Infrastructure.DbEntityEntry&#45;&gt;System.Data.Entity.Infrastructure.DbComplexPropertyEntry -->
<g id="edge6" class="edge"><title>System.Data.Entity.Infrastructure.DbEntityEntry&#45;&gt;System.Data.Entity.Infrastructure.DbComplexPropertyEntry</title>
<path fill="none" stroke="black" d="M691.623,-136.533C735.191,-147.304 793.764,-161.024 846,-170.709 876.808,-176.421 910.117,-181.624 941.539,-186.098"/>
<polygon fill="black" stroke="black" points="941.279,-189.596 951.669,-187.525 942.255,-182.665 941.279,-189.596"/>
</g>
<!-- System.Data.Entity.Infrastructure.DbPropertyEntry -->
<g id="node5" class="node"><title>System.Data.Entity.Infrastructure.DbPropertyEntry</title>
<ellipse fill="none" stroke="black" cx="1539" cy="-174.709" rx="196.065" ry="18"/>
<text text-anchor="middle" x="1539" y="-171.009" font-family="Times New Roman,serif" font-size="14.00">System.Data.Entity.Infrastructure.DbPropertyEntry</text>
</g>
<!-- System.Data.Entity.Infrastructure.DbEntityEntry&#45;&gt;System.Data.Entity.Infrastructure.DbPropertyEntry -->
<g id="edge7" class="edge"><title>System.Data.Entity.Infrastructure.DbEntityEntry&#45;&gt;System.Data.Entity.Infrastructure.DbPropertyEntry</title>
<path fill="none" stroke="black" d="M802.654,-124.896C974.704,-133.443 1233.06,-149.149 1393.3,-160.891"/>
<polygon fill="black" stroke="black" points="1393.48,-164.414 1403.71,-161.659 1393.99,-157.433 1393.48,-164.414"/>
</g>
<!-- System.Data.Entity.Infrastructure.DbReferenceEntry -->
<g id="node6" class="node"><title>System.Data.Entity.Infrastructure.DbReferenceEntry</title>
<ellipse fill="none" stroke="black" cx="1076" cy="-92.7088" rx="200.665" ry="18"/>
<text text-anchor="middle" x="1076" y="-89.0088" font-family="Times New Roman,serif" font-size="14.00">System.Data.Entity.Infrastructure.DbReferenceEntry</text>
</g>
<!-- System.Data.Entity.Infrastructure.DbEntityEntry&#45;&gt;System.Data.Entity.Infrastructure.DbReferenceEntry -->
<g id="edge8" class="edge"><title>System.Data.Entity.Infrastructure.DbEntityEntry&#45;&gt;System.Data.Entity.Infrastructure.DbReferenceEntry</title>
<path fill="none" stroke="black" d="M748.395,-106.262C786.738,-103.422 830.13,-100.601 872.47,-98.1665"/>
<polygon fill="black" stroke="black" points="872.844,-101.651 882.629,-97.5886 872.447,-94.6623 872.844,-101.651"/>
</g>
<!-- System.Data.Entity.Validation.DbEntityValidationResult -->
<g id="node7" class="node"><title>System.Data.Entity.Validation.DbEntityValidationResult</title>
<ellipse fill="none" stroke="black" cx="1076" cy="-38.7088" rx="213.362" ry="18"/>
<text text-anchor="middle" x="1076" y="-35.0088" font-family="Times New Roman,serif" font-size="14.00">System.Data.Entity.Validation.DbEntityValidationResult</text>
</g>
<!-- System.Data.Entity.Infrastructure.DbEntityEntry&#45;&gt;System.Data.Entity.Validation.DbEntityValidationResult -->
<g id="edge9" class="edge"><title>System.Data.Entity.Infrastructure.DbEntityEntry&#45;&gt;System.Data.Entity.Validation.DbEntityValidationResult</title>
<path fill="none" stroke="black" d="M665.03,-102.012C708.769,-87.4726 781.952,-68.2994 846,-56.7088 859.313,-54.2995 873.103,-52.0558 887.011,-49.9966"/>
<polygon fill="black" stroke="black" points="887.757,-53.4252 897.153,-48.5301 886.755,-46.4972 887.757,-53.4252"/>
</g>
<!-- System.Data.Entity.Infrastructure.DbMemberEntry&#45;&gt;System.Data.Entity.Infrastructure.DbEntityEntry -->
<g id="edge10" class="edge"><title>System.Data.Entity.Infrastructure.DbMemberEntry&#45;&gt;System.Data.Entity.Infrastructure.DbEntityEntry</title>
<path fill="none" stroke="black" d="M1911.11,-191.995C1746.81,-234.641 1245.55,-333.029 846,-238.709 770.885,-220.976 692.175,-173.453 652.387,-143.876"/>
<polygon fill="black" stroke="black" points="654.344,-140.967 644.274,-137.674 650.093,-146.528 654.344,-140.967"/>
</g>
<!-- System.Data.Entity.Infrastructure.DbComplexPropertyEntry&#45;&gt;System.Data.Entity.Infrastructure.DbPropertyEntry -->
<g id="edge3" class="edge"><title>System.Data.Entity.Infrastructure.DbComplexPropertyEntry&#45;&gt;System.Data.Entity.Infrastructure.DbPropertyEntry</title>
<path fill="none" stroke="black" d="M1212.82,-188.243C1252.53,-185.358 1296.78,-182.512 1339.53,-180.072"/>
<polygon fill="black" stroke="black" points="1339.99,-183.551 1349.78,-179.493 1339.6,-176.563 1339.99,-183.551"/>
</g>
<!-- System.Data.Entity.Infrastructure.DbPropertyEntry&#45;&gt;System.Data.Entity.Infrastructure.DbEntityEntry -->
<g id="edge11" class="edge"><title>System.Data.Entity.Infrastructure.DbPropertyEntry&#45;&gt;System.Data.Entity.Infrastructure.DbEntityEntry</title>
<path fill="none" stroke="black" d="M1352.48,-169.079C1178.94,-160.361 923.572,-144.786 766.392,-133.21"/>
<polygon fill="black" stroke="black" points="766.414,-129.702 756.183,-132.453 765.897,-136.683 766.414,-129.702"/>
</g>
<!-- System.Data.Entity.Infrastructure.DbPropertyEntry&#45;&gt;System.Data.Entity.Infrastructure.DbMemberEntry -->
<g id="edge12" class="edge"><title>System.Data.Entity.Infrastructure.DbPropertyEntry&#45;&gt;System.Data.Entity.Infrastructure.DbMemberEntry</title>
<path fill="none" stroke="black" d="M1735.54,-174.709C1744.44,-174.709 1753.38,-174.709 1762.3,-174.709"/>
<polygon fill="black" stroke="black" points="1762.36,-178.209 1772.36,-174.709 1762.36,-171.209 1762.36,-178.209"/>
</g>
<!-- System.Data.Entity.Infrastructure.DbPropertyEntry&#45;&gt;System.Data.Entity.Infrastructure.DbComplexPropertyEntry -->
<g id="edge13" class="edge"><title>System.Data.Entity.Infrastructure.DbPropertyEntry&#45;&gt;System.Data.Entity.Infrastructure.DbComplexPropertyEntry</title>
<path fill="none" stroke="black" d="M1411.86,-188.463C1377.59,-191.007 1339.42,-193.544 1301.47,-195.823"/>
<polygon fill="black" stroke="black" points="1301.08,-192.34 1291.3,-196.428 1301.5,-199.328 1301.08,-192.34"/>
</g>
<!-- System.Data.Entity.Infrastructure.DbReferenceEntry&#45;&gt;System.Data.Entity.Infrastructure.DbEntityEntry -->
<g id="edge14" class="edge"><title>System.Data.Entity.Infrastructure.DbReferenceEntry&#45;&gt;System.Data.Entity.Infrastructure.DbEntityEntry</title>
<path fill="none" stroke="black" d="M947.363,-106.541C906.326,-109.544 859.948,-112.505 815.453,-114.993"/>
<polygon fill="black" stroke="black" points="815.184,-111.502 805.392,-115.549 815.57,-118.491 815.184,-111.502"/>
</g>
<!-- System.Data.Entity.Infrastructure.DbReferenceEntry&#45;&gt;System.Data.Entity.Infrastructure.DbMemberEntry -->
<g id="edge15" class="edge"><title>System.Data.Entity.Infrastructure.DbReferenceEntry&#45;&gt;System.Data.Entity.Infrastructure.DbMemberEntry</title>
<path fill="none" stroke="black" d="M1231.59,-104.137C1365.23,-114.368 1563.51,-130.391 1736,-147.709 1769.62,-151.085 1805.96,-155.154 1839.61,-159.099"/>
<polygon fill="black" stroke="black" points="1839.62,-162.624 1849.96,-160.318 1840.44,-155.672 1839.62,-162.624"/>
</g>
<!-- System.Data.Entity.Validation.DbEntityValidationResult&#45;&gt;System.Data.Entity.Infrastructure.DbEntityEntry -->
<g id="edge16" class="edge"><title>System.Data.Entity.Validation.DbEntityValidationResult&#45;&gt;System.Data.Entity.Infrastructure.DbEntityEntry</title>
<path fill="none" stroke="black" d="M984.344,-54.9817C942.114,-60.2297 891.301,-66.5108 846,-74.7088 805.501,-82.0377 761.35,-92.3983 723.3,-101.473"/>
<polygon fill="black" stroke="black" points="722.167,-98.1448 713.253,-103.871 723.792,-104.953 722.167,-98.1448"/>
</g>
</g>
</svg>
