<?xml version="1.0" encoding="UTF-8" standalone="no"?>
<!DOCTYPE svg PUBLIC "-//W3C//DTD SVG 1.1//EN"
 "http://www.w3.org/Graphics/SVG/1.1/DTD/svg11.dtd">
<!-- Generated by graphviz version 2.30.1 (20130214.1330)
 -->
<!-- Title: G Pages: 1 -->
<svg width="362pt" height="44pt"
 viewBox="0.00 0.00 362.00 44.00" xmlns="http://www.w3.org/2000/svg" xmlns:xlink="http://www.w3.org/1999/xlink">
<g id="graph0" class="graph" transform="scale(1 1) rotate(0) translate(4 40)">
<title>G</title>
<polygon fill="white" stroke="white" points="-4,5 -4,-40 359,-40 359,5 -4,5"/>
<!-- Elmah.ErrorLog -->
<g id="node1" class="node"><title>Elmah.ErrorLog</title>
<ellipse fill="none" stroke="black" cx="70" cy="-18" rx="69.5877" ry="18"/>
<text text-anchor="middle" x="70" y="-14.3" font-family="Times New Roman,serif" font-size="14.00">Elmah.ErrorLog</text>
</g>
<!-- Elmah.ErrorLogEntry -->
<g id="node2" class="node"><title>Elmah.ErrorLogEntry</title>
<ellipse fill="none" stroke="black" cx="265" cy="-18" rx="89.0842" ry="18"/>
<text text-anchor="middle" x="265" y="-14.3" font-family="Times New Roman,serif" font-size="14.00">Elmah.ErrorLogEntry</text>
</g>
<!-- Elmah.ErrorLog&#45;&gt;Elmah.ErrorLogEntry -->
<g id="edge1" class="edge"><title>Elmah.ErrorLog&#45;&gt;Elmah.ErrorLogEntry</title>
<path fill="none" stroke="black" d="M135.266,-11.5965C147.003,-11.3351 159.458,-11.2216 171.819,-11.256"/>
<polygon fill="black" stroke="black" points="172.14,-14.758 182.162,-11.3197 172.183,-7.7581 172.14,-14.758"/>
</g>
<!-- Elmah.ErrorLogEntry&#45;&gt;Elmah.ErrorLog -->
<g id="edge2" class="edge"><title>Elmah.ErrorLogEntry&#45;&gt;Elmah.ErrorLog</title>
<path fill="none" stroke="black" d="M182.162,-24.6803C169.918,-24.7975 157.351,-24.7669 145.276,-24.5883"/>
<polygon fill="black" stroke="black" points="145.329,-21.0888 135.266,-24.4035 145.2,-28.0876 145.329,-21.0888"/>
</g>
</g>
</svg>
