<?xml version="1.0" encoding="UTF-8" standalone="no"?>
<!DOCTYPE svg PUBLIC "-//W3C//DTD SVG 1.1//EN"
 "http://www.w3.org/Graphics/SVG/1.1/DTD/svg11.dtd">
<!-- Generated by graphviz version 2.30.1 (20130214.1330)
 -->
<!-- Title: G Pages: 1 -->
<svg width="820pt" height="284pt"
 viewBox="0.00 0.00 820.00 284.00" xmlns="http://www.w3.org/2000/svg" xmlns:xlink="http://www.w3.org/1999/xlink">
<g id="graph0" class="graph" transform="scale(1 1) rotate(0) translate(4 280)">
<title>G</title>
<polygon fill="white" stroke="white" points="-4,5 -4,-280 817,-280 817,5 -4,5"/>
<!-- Elmah.ErrorDigestRssHandler -->
<g id="node1" class="node"><title>Elmah.ErrorDigestRssHandler</title>
<ellipse fill="none" stroke="black" cx="120" cy="-37" rx="120.479" ry="18"/>
<text text-anchor="middle" x="120" y="-33.3" font-family="Times New Roman,serif" font-size="14.00">Elmah.ErrorDigestRssHandler</text>
</g>
<!-- Elmah.ErrorLogPageFactory -->
<g id="node2" class="node"><title>Elmah.ErrorLogPageFactory</title>
<ellipse fill="none" stroke="black" cx="391" cy="-37" rx="115.08" ry="18"/>
<text text-anchor="middle" x="391" y="-33.3" font-family="Times New Roman,serif" font-size="14.00">Elmah.ErrorLogPageFactory</text>
</g>
<!-- Elmah.ErrorDigestRssHandler&#45;&gt;Elmah.ErrorLogPageFactory -->
<g id="edge1" class="edge"><title>Elmah.ErrorDigestRssHandler&#45;&gt;Elmah.ErrorLogPageFactory</title>
<path fill="none" stroke="black" d="M231.966,-30.3427C245.708,-30.2334 259.788,-30.2208 273.609,-30.3047"/>
<polygon fill="black" stroke="black" points="273.591,-33.8045 283.618,-30.3828 273.645,-26.8048 273.591,-33.8045"/>
</g>
<!-- Elmah.ErrorLogPageFactory&#45;&gt;Elmah.ErrorDigestRssHandler -->
<g id="edge7" class="edge"><title>Elmah.ErrorLogPageFactory&#45;&gt;Elmah.ErrorDigestRssHandler</title>
<path fill="none" stroke="black" d="M283.618,-43.6172C269.958,-43.748 255.894,-43.7822 242.023,-43.7198"/>
<polygon fill="black" stroke="black" points="241.987,-40.2196 231.966,-43.6573 241.944,-47.2195 241.987,-40.2196"/>
</g>
<!-- Elmah.ErrorLogDownloadHandler -->
<g id="node7" class="node"><title>Elmah.ErrorLogDownloadHandler</title>
<ellipse fill="none" stroke="black" cx="677" cy="-72" rx="135.376" ry="18"/>
<text text-anchor="middle" x="677" y="-68.3" font-family="Times New Roman,serif" font-size="14.00">Elmah.ErrorLogDownloadHandler</text>
</g>
<!-- Elmah.ErrorLogPageFactory&#45;&gt;Elmah.ErrorLogDownloadHandler -->
<g id="edge8" class="edge"><title>Elmah.ErrorLogPageFactory&#45;&gt;Elmah.ErrorLogDownloadHandler</title>
<path fill="none" stroke="black" d="M498.559,-43.5727C529.534,-47.0507 562.912,-51.2784 592.27,-55.464"/>
<polygon fill="black" stroke="black" points="592.078,-58.9726 602.476,-56.9415 593.081,-52.0448 592.078,-58.9726"/>
</g>
<!-- Elmah.ErrorRssHandler -->
<g id="node8" class="node"><title>Elmah.ErrorRssHandler</title>
<ellipse fill="none" stroke="black" cx="677" cy="-18" rx="96.6831" ry="18"/>
<text text-anchor="middle" x="677" y="-14.3" font-family="Times New Roman,serif" font-size="14.00">Elmah.ErrorRssHandler</text>
</g>
<!-- Elmah.ErrorLogPageFactory&#45;&gt;Elmah.ErrorRssHandler -->
<g id="edge9" class="edge"><title>Elmah.ErrorLogPageFactory&#45;&gt;Elmah.ErrorRssHandler</title>
<path fill="none" stroke="black" d="M477.209,-25.0541C506.348,-22.5589 539.306,-20.2508 569.887,-18.5445"/>
<polygon fill="black" stroke="black" points="570.362,-22.024 580.158,-17.9894 569.984,-15.0342 570.362,-22.024"/>
</g>
<!-- Elmah.ErrorLog -->
<g id="node3" class="node"><title>Elmah.ErrorLog</title>
<ellipse fill="none" stroke="black" cx="120" cy="-203" rx="69.5877" ry="18"/>
<text text-anchor="middle" x="120" y="-199.3" font-family="Times New Roman,serif" font-size="14.00">Elmah.ErrorLog</text>
</g>
<!-- Elmah.ErrorLogEntry -->
<g id="node4" class="node"><title>Elmah.ErrorLogEntry</title>
<ellipse fill="none" stroke="black" cx="677" cy="-258" rx="89.0842" ry="18"/>
<text text-anchor="middle" x="677" y="-254.3" font-family="Times New Roman,serif" font-size="14.00">Elmah.ErrorLogEntry</text>
</g>
<!-- Elmah.ErrorLog&#45;&gt;Elmah.ErrorLogEntry -->
<g id="edge2" class="edge"><title>Elmah.ErrorLog&#45;&gt;Elmah.ErrorLogEntry</title>
<path fill="none" stroke="black" d="M187.154,-207.739C214.554,-212.071 246.716,-217.434 276,-221 384.351,-234.194 510.028,-241.73 591.162,-247.656"/>
<polygon fill="black" stroke="black" points="591.092,-251.161 601.323,-248.408 591.609,-244.18 591.092,-251.161"/>
</g>
<!-- Elmah.MemoryErrorLog -->
<g id="node5" class="node"><title>Elmah.MemoryErrorLog</title>
<ellipse fill="none" stroke="black" cx="391" cy="-203" rx="100.182" ry="18"/>
<text text-anchor="middle" x="391" y="-199.3" font-family="Times New Roman,serif" font-size="14.00">Elmah.MemoryErrorLog</text>
</g>
<!-- Elmah.ErrorLog&#45;&gt;Elmah.MemoryErrorLog -->
<g id="edge3" class="edge"><title>Elmah.ErrorLog&#45;&gt;Elmah.MemoryErrorLog</title>
<path fill="none" stroke="black" d="M185.775,-197.131C216.196,-196.285 253.195,-196.048 287.301,-196.421"/>
<polygon fill="black" stroke="black" points="287.263,-199.92 297.307,-196.549 287.353,-192.921 287.263,-199.92"/>
</g>
<!-- Elmah.ServiceCenter -->
<g id="node6" class="node"><title>Elmah.ServiceCenter</title>
<ellipse fill="none" stroke="black" cx="391" cy="-149" rx="86.3847" ry="18"/>
<text text-anchor="middle" x="391" y="-145.3" font-family="Times New Roman,serif" font-size="14.00">Elmah.ServiceCenter</text>
</g>
<!-- Elmah.ErrorLog&#45;&gt;Elmah.ServiceCenter -->
<g id="edge4" class="edge"><title>Elmah.ErrorLog&#45;&gt;Elmah.ServiceCenter</title>
<path fill="none" stroke="black" d="M175.436,-192.072C216.541,-183.821 273.333,-172.42 318.163,-163.421"/>
<polygon fill="black" stroke="black" points="319.002,-166.822 328.117,-161.423 317.624,-159.959 319.002,-166.822"/>
</g>
<!-- Elmah.ErrorLogEntry&#45;&gt;Elmah.ErrorLog -->
<g id="edge6" class="edge"><title>Elmah.ErrorLogEntry&#45;&gt;Elmah.ErrorLog</title>
<path fill="none" stroke="black" d="M589.536,-261.484C508.355,-259.629 383.629,-252.106 276,-239 239.946,-234.61 199.529,-227.496 169.008,-220.411"/>
<polygon fill="black" stroke="black" points="169.599,-216.953 159.057,-218.014 167.959,-223.759 169.599,-216.953"/>
</g>
<!-- Elmah.MemoryErrorLog&#45;&gt;Elmah.ErrorLog -->
<g id="edge11" class="edge"><title>Elmah.MemoryErrorLog&#45;&gt;Elmah.ErrorLog</title>
<path fill="none" stroke="black" d="M297.307,-209.451C264.152,-209.94 227.234,-209.829 195.782,-209.12"/>
<polygon fill="black" stroke="black" points="195.859,-205.621 185.775,-208.869 195.683,-212.619 195.859,-205.621"/>
</g>
<!-- Elmah.MemoryErrorLog&#45;&gt;Elmah.ErrorLogEntry -->
<g id="edge12" class="edge"><title>Elmah.MemoryErrorLog&#45;&gt;Elmah.ErrorLogEntry</title>
<path fill="none" stroke="black" d="M459.664,-216.104C502.435,-224.387 557.736,-235.097 601.719,-243.615"/>
<polygon fill="black" stroke="black" points="601.297,-247.098 611.78,-245.563 602.628,-240.225 601.297,-247.098"/>
</g>
<!-- Elmah.ServiceContainer -->
<g id="node9" class="node"><title>Elmah.ServiceContainer</title>
<ellipse fill="none" stroke="black" cx="677" cy="-126" rx="97.4827" ry="18"/>
<text text-anchor="middle" x="677" y="-122.3" font-family="Times New Roman,serif" font-size="14.00">Elmah.ServiceContainer</text>
</g>
<!-- Elmah.ServiceCenter&#45;&gt;Elmah.ServiceContainer -->
<g id="edge13" class="edge"><title>Elmah.ServiceCenter&#45;&gt;Elmah.ServiceContainer</title>
<path fill="none" stroke="black" d="M471.866,-142.532C504.642,-139.878 542.92,-136.778 577.416,-133.984"/>
<polygon fill="black" stroke="black" points="577.827,-137.462 587.512,-133.166 577.262,-130.485 577.827,-137.462"/>
</g>
<!-- Elmah.ErrorLogDownloadHandler&#45;&gt;Elmah.ErrorLogPageFactory -->
<g id="edge5" class="edge"><title>Elmah.ErrorLogDownloadHandler&#45;&gt;Elmah.ErrorLogPageFactory</title>
<path fill="none" stroke="black" d="M556.057,-63.8954C527.204,-60.5317 497.105,-56.6347 470.684,-52.8113"/>
<polygon fill="black" stroke="black" points="471.151,-49.3424 460.748,-51.3508 470.133,-56.268 471.151,-49.3424"/>
</g>
<!-- Elmah.ErrorRssHandler&#45;&gt;Elmah.ErrorLogPageFactory -->
<g id="edge10" class="edge"><title>Elmah.ErrorRssHandler&#45;&gt;Elmah.ErrorLogPageFactory</title>
<path fill="none" stroke="black" d="M600.4,-29.1037C574.472,-31.4308 544.733,-33.639 515.993,-35.4062"/>
<polygon fill="black" stroke="black" points="515.65,-31.9204 505.877,-36.0124 516.069,-38.9079 515.65,-31.9204"/>
</g>
<!-- Elmah.ServiceContainer&#45;&gt;Elmah.ErrorLog -->
<g id="edge14" class="edge"><title>Elmah.ServiceContainer&#45;&gt;Elmah.ErrorLog</title>
<path fill="none" stroke="black" d="M602.119,-114.439C520.878,-104.207 387.115,-94.7171 276,-122 230.242,-133.235 183.004,-160.613 152.894,-180.434"/>
<polygon fill="black" stroke="black" points="150.856,-177.587 144.496,-186.061 154.752,-183.402 150.856,-177.587"/>
</g>
</g>
</svg>
