<?xml version="1.0" encoding="UTF-8" standalone="no"?>
<!DOCTYPE svg PUBLIC "-//W3C//DTD SVG 1.1//EN"
 "http://www.w3.org/Graphics/SVG/1.1/DTD/svg11.dtd">
<!-- Generated by graphviz version 2.30.1 (20130214.1330)
 -->
<!-- Title: G Pages: 1 -->
<svg width="2340pt" height="871pt"
 viewBox="0.00 0.00 2340.00 871.00" xmlns="http://www.w3.org/2000/svg" xmlns:xlink="http://www.w3.org/1999/xlink">
<g id="graph0" class="graph" transform="scale(1 1) rotate(0) translate(4 867)">
<title>G</title>
<polygon fill="white" stroke="white" points="-4,5 -4,-867 2337,-867 2337,5 -4,5"/>
<!-- FParsec.CharStream -->
<g id="node1" class="node"><title>FParsec.CharStream</title>
<ellipse fill="none" stroke="black" cx="1306" cy="-565" rx="85.5853" ry="18"/>
<text text-anchor="middle" x="1306" y="-561.3" font-family="Times New Roman,serif" font-size="14.00">FParsec.CharStream</text>
</g>
<!-- FParsec.Buffer -->
<g id="node2" class="node"><title>FParsec.Buffer</title>
<ellipse fill="none" stroke="black" cx="2198" cy="-328" rx="65.7887" ry="18"/>
<text text-anchor="middle" x="2198" y="-324.3" font-family="Times New Roman,serif" font-size="14.00">FParsec.Buffer</text>
</g>
<!-- FParsec.CharStream&#45;&gt;FParsec.Buffer -->
<g id="edge1" class="edge"><title>FParsec.CharStream&#45;&gt;FParsec.Buffer</title>
<path fill="none" stroke="black" d="M1377.01,-554.811C1455.22,-542.91 1585.4,-521.561 1696,-496 1845.54,-461.44 1883.47,-452.649 2028,-401 2072.29,-385.172 2121.51,-363.418 2155.35,-347.782"/>
<polygon fill="black" stroke="black" points="2156.88,-350.932 2164.47,-343.544 2153.93,-344.583 2156.88,-350.932"/>
</g>
<!-- FParsec.CaseFoldTable -->
<g id="node3" class="node"><title>FParsec.CaseFoldTable</title>
<ellipse fill="none" stroke="black" cx="2198" cy="-446" rx="98.5829" ry="18"/>
<text text-anchor="middle" x="2198" y="-442.3" font-family="Times New Roman,serif" font-size="14.00">FParsec.CaseFoldTable</text>
</g>
<!-- FParsec.CharStream&#45;&gt;FParsec.CaseFoldTable -->
<g id="edge2" class="edge"><title>FParsec.CharStream&#45;&gt;FParsec.CaseFoldTable</title>
<path fill="none" stroke="black" d="M1392.06,-565.411C1556.08,-565.476 1910.27,-561.885 2028,-531 2077.51,-518.011 2129.37,-489.335 2162.37,-468.886"/>
<polygon fill="black" stroke="black" points="2164.56,-471.643 2171.16,-463.356 2160.84,-465.718 2164.56,-471.643"/>
</g>
<!-- FParsec.CharStreamIndexToken -->
<g id="node4" class="node"><title>FParsec.CharStreamIndexToken</title>
<ellipse fill="none" stroke="black" cx="1566" cy="-747" rx="129.977" ry="18"/>
<text text-anchor="middle" x="1566" y="-743.3" font-family="Times New Roman,serif" font-size="14.00">FParsec.CharStreamIndexToken</text>
</g>
<!-- FParsec.CharStream&#45;&gt;FParsec.CharStreamIndexToken -->
<g id="edge3" class="edge"><title>FParsec.CharStream&#45;&gt;FParsec.CharStreamIndexToken</title>
<path fill="none" stroke="black" d="M1334.4,-582.199C1353.92,-599.04 1380.11,-625.243 1400,-651 1419.01,-675.613 1410.66,-692.973 1436,-711 1448.24,-719.705 1462.67,-725.721 1477.38,-730.006"/>
<polygon fill="black" stroke="black" points="1476.51,-733.394 1487.07,-732.583 1478.31,-726.629 1476.51,-733.394"/>
</g>
<!-- FParsec.Cloning.CloneImage -->
<g id="node5" class="node"><title>FParsec.Cloning.CloneImage</title>
<ellipse fill="none" stroke="black" cx="1880" cy="-601" rx="116.979" ry="18"/>
<text text-anchor="middle" x="1880" y="-597.3" font-family="Times New Roman,serif" font-size="14.00">FParsec.Cloning.CloneImage</text>
</g>
<!-- FParsec.CharStream&#45;&gt;FParsec.Cloning.CloneImage -->
<g id="edge4" class="edge"><title>FParsec.CharStream&#45;&gt;FParsec.Cloning.CloneImage</title>
<path fill="none" stroke="black" d="M1388.35,-570.12C1485.78,-576.252 1649.75,-586.572 1761.07,-593.578"/>
<polygon fill="black" stroke="black" points="1761.14,-597.089 1771.34,-594.224 1761.58,-590.103 1761.14,-597.089"/>
</g>
<!-- FParsec.Cloning.Cloner -->
<g id="node6" class="node"><title>FParsec.Cloning.Cloner</title>
<ellipse fill="none" stroke="black" cx="1566" cy="-639" rx="98.2828" ry="18"/>
<text text-anchor="middle" x="1566" y="-635.3" font-family="Times New Roman,serif" font-size="14.00">FParsec.Cloning.Cloner</text>
</g>
<!-- FParsec.CharStream&#45;&gt;FParsec.Cloning.Cloner -->
<g id="edge5" class="edge"><title>FParsec.CharStream&#45;&gt;FParsec.Cloning.Cloner</title>
<path fill="none" stroke="black" d="M1351.53,-580.37C1376.28,-588.69 1407.7,-598.893 1436,-607 1454.89,-612.411 1475.49,-617.762 1494.56,-622.496"/>
<polygon fill="black" stroke="black" points="1493.84,-625.922 1504.39,-624.912 1495.51,-619.124 1493.84,-625.922"/>
</g>
<!-- FParsec.Position -->
<g id="node7" class="node"><title>FParsec.Position</title>
<ellipse fill="none" stroke="black" cx="1566" cy="-297" rx="72.5877" ry="18"/>
<text text-anchor="middle" x="1566" y="-293.3" font-family="Times New Roman,serif" font-size="14.00">FParsec.Position</text>
</g>
<!-- FParsec.CharStream&#45;&gt;FParsec.Position -->
<g id="edge6" class="edge"><title>FParsec.CharStream&#45;&gt;FParsec.Position</title>
<path fill="none" stroke="black" d="M1336.29,-548.042C1356.46,-535.123 1382.65,-515.72 1400,-493 1425.4,-459.742 1411.32,-439.794 1436,-406 1461.86,-370.594 1501.52,-339.361 1530.04,-319.506"/>
<polygon fill="black" stroke="black" points="1532.22,-322.251 1538.5,-313.717 1528.27,-316.473 1532.22,-322.251"/>
</g>
<!-- FParsec.StringBuffer -->
<g id="node8" class="node"><title>FParsec.StringBuffer</title>
<ellipse fill="none" stroke="black" cx="1566" cy="-693" rx="87.1846" ry="18"/>
<text text-anchor="middle" x="1566" y="-689.3" font-family="Times New Roman,serif" font-size="14.00">FParsec.StringBuffer</text>
</g>
<!-- FParsec.CharStream&#45;&gt;FParsec.StringBuffer -->
<g id="edge7" class="edge"><title>FParsec.CharStream&#45;&gt;FParsec.StringBuffer</title>
<path fill="none" stroke="black" d="M1324.02,-582.632C1347.16,-605.52 1390.87,-645.011 1436,-666 1450.13,-672.569 1465.86,-677.554 1481.35,-681.332"/>
<polygon fill="black" stroke="black" points="1480.95,-684.83 1491.48,-683.646 1482.51,-678.006 1480.95,-684.83"/>
</g>
<!-- FParsec.Text -->
<g id="node9" class="node"><title>FParsec.Text</title>
<ellipse fill="none" stroke="black" cx="1880" cy="-276" rx="59.5901" ry="18"/>
<text text-anchor="middle" x="1880" y="-272.3" font-family="Times New Roman,serif" font-size="14.00">FParsec.Text</text>
</g>
<!-- FParsec.CharStream&#45;&gt;FParsec.Text -->
<g id="edge8" class="edge"><title>FParsec.CharStream&#45;&gt;FParsec.Text</title>
<path fill="none" stroke="black" d="M1335.99,-548.109C1361.51,-533.971 1400.1,-514.339 1436,-503 1547.69,-467.721 1591.9,-513.671 1696,-460 1769.87,-421.917 1832.3,-343.181 1861.42,-302.152"/>
<polygon fill="black" stroke="black" points="1864.43,-303.962 1867.29,-293.76 1858.69,-299.952 1864.43,-303.962"/>
</g>
<!-- FParsec.TwoChars -->
<g id="node10" class="node"><title>FParsec.TwoChars</title>
<ellipse fill="none" stroke="black" cx="1566" cy="-433" rx="81.4863" ry="18"/>
<text text-anchor="middle" x="1566" y="-429.3" font-family="Times New Roman,serif" font-size="14.00">FParsec.TwoChars</text>
</g>
<!-- FParsec.CharStream&#45;&gt;FParsec.TwoChars -->
<g id="edge9" class="edge"><title>FParsec.CharStream&#45;&gt;FParsec.TwoChars</title>
<path fill="none" stroke="black" d="M1329.56,-547.555C1348.4,-532.983 1375.96,-511.652 1400,-493 1416.01,-480.573 1417.77,-473.855 1436,-465 1452.8,-456.84 1471.88,-450.641 1490.11,-445.978"/>
<polygon fill="black" stroke="black" points="1490.95,-449.376 1499.84,-443.611 1489.29,-442.575 1490.95,-449.376"/>
</g>
<!-- FParsec.CharStreamIndexToken&#45;&gt;FParsec.CharStream -->
<g id="edge10" class="edge"><title>FParsec.CharStreamIndexToken&#45;&gt;FParsec.CharStream</title>
<path fill="none" stroke="black" d="M1451.77,-738.273C1446.24,-735.592 1440.94,-732.515 1436,-729 1410.66,-710.973 1419.01,-693.613 1400,-669 1377.73,-640.167 1347.57,-610.776 1327.71,-590.365"/>
<polygon fill="black" stroke="black" points="1330.1,-587.793 1320.65,-583.002 1325.05,-592.64 1330.1,-587.793"/>
</g>
<!-- FParsec.Cloning.Cloner&#45;&gt;FParsec.Cloning.CloneImage -->
<g id="edge20" class="edge"><title>FParsec.Cloning.Cloner&#45;&gt;FParsec.Cloning.CloneImage</title>
<path fill="none" stroke="black" d="M1648.16,-629.115C1687.78,-624.29 1735.83,-618.437 1777.82,-613.324"/>
<polygon fill="black" stroke="black" points="1778.28,-616.793 1787.79,-612.109 1777.44,-609.844 1778.28,-616.793"/>
</g>
<!-- FParsec.Cloning.CloneEventHandlers -->
<g id="node13" class="node"><title>FParsec.Cloning.CloneEventHandlers</title>
<ellipse fill="none" stroke="black" cx="1880" cy="-655" rx="147.574" ry="18"/>
<text text-anchor="middle" x="1880" y="-651.3" font-family="Times New Roman,serif" font-size="14.00">FParsec.Cloning.CloneEventHandlers</text>
</g>
<!-- FParsec.Cloning.Cloner&#45;&gt;FParsec.Cloning.CloneEventHandlers -->
<g id="edge21" class="edge"><title>FParsec.Cloning.Cloner&#45;&gt;FParsec.Cloning.CloneEventHandlers</title>
<path fill="none" stroke="black" d="M1664.01,-637.673C1694.35,-638.746 1728.19,-640.389 1759.88,-642.312"/>
<polygon fill="black" stroke="black" points="1759.89,-645.819 1770.08,-642.946 1760.32,-638.832 1759.89,-645.819"/>
</g>
<!-- FParsec.Cloning.CloneEvents -->
<g id="node14" class="node"><title>FParsec.Cloning.CloneEvents</title>
<ellipse fill="none" stroke="black" cx="2198" cy="-678" rx="119.679" ry="18"/>
<text text-anchor="middle" x="2198" y="-674.3" font-family="Times New Roman,serif" font-size="14.00">FParsec.Cloning.CloneEvents</text>
</g>
<!-- FParsec.Cloning.Cloner&#45;&gt;FParsec.Cloning.CloneEvents -->
<g id="edge22" class="edge"><title>FParsec.Cloning.Cloner&#45;&gt;FParsec.Cloning.CloneEvents</title>
<path fill="none" stroke="black" d="M1638.68,-651.19C1657.53,-655.158 1677.71,-660.095 1696,-666 1712.66,-671.379 1714.87,-678.365 1732,-682 1856.2,-708.357 2003.29,-700.821 2098.28,-691.087"/>
<polygon fill="black" stroke="black" points="2098.87,-694.544 2108.45,-690.016 2098.14,-687.582 2098.87,-694.544"/>
</g>
<!-- FParsec.Position&#45;&gt;FParsec.Text -->
<g id="edge55" class="edge"><title>FParsec.Position&#45;&gt;FParsec.Text</title>
<path fill="none" stroke="black" d="M1636.63,-292.313C1688.83,-288.8 1759.86,-284.019 1811.52,-280.542"/>
<polygon fill="black" stroke="black" points="1811.85,-284.028 1821.59,-279.864 1811.38,-277.044 1811.85,-284.028"/>
</g>
<!-- FParsec.Text&#45;&gt;FParsec.Buffer -->
<g id="edge62" class="edge"><title>FParsec.Text&#45;&gt;FParsec.Buffer</title>
<path fill="none" stroke="black" d="M1932.83,-284.529C1987.12,-293.462 2072.54,-307.518 2131.47,-317.216"/>
<polygon fill="black" stroke="black" points="2130.98,-320.684 2141.42,-318.854 2132.12,-313.777 2130.98,-320.684"/>
</g>
<!-- FParsec.Text&#45;&gt;FParsec.CaseFoldTable -->
<g id="edge63" class="edge"><title>FParsec.Text&#45;&gt;FParsec.CaseFoldTable</title>
<path fill="none" stroke="black" d="M1910.16,-291.688C1966.67,-322.086 2091.19,-389.077 2155.99,-423.94"/>
<polygon fill="black" stroke="black" points="2154.64,-427.187 2165.11,-428.843 2157.96,-421.023 2154.64,-427.187"/>
</g>
<!-- FParsec.UnmanagedMemoryPool -->
<g id="node23" class="node"><title>FParsec.UnmanagedMemoryPool</title>
<ellipse fill="none" stroke="black" cx="2198" cy="-198" rx="133.776" ry="18"/>
<text text-anchor="middle" x="2198" y="-194.3" font-family="Times New Roman,serif" font-size="14.00">FParsec.UnmanagedMemoryPool</text>
</g>
<!-- FParsec.Text&#45;&gt;FParsec.UnmanagedMemoryPool -->
<g id="edge64" class="edge"><title>FParsec.Text&#45;&gt;FParsec.UnmanagedMemoryPool</title>
<path fill="none" stroke="black" d="M1926.95,-264.658C1978.35,-251.971 2062.35,-231.237 2123.03,-216.259"/>
<polygon fill="black" stroke="black" points="2124.07,-219.608 2132.94,-213.813 2122.39,-212.812 2124.07,-219.608"/>
</g>
<!-- FParsec.CharStreamState`1 -->
<g id="node11" class="node"><title>FParsec.CharStreamState`1</title>
<ellipse fill="none" stroke="black" cx="961" cy="-493" rx="111.28" ry="18"/>
<text text-anchor="middle" x="961" y="-489.3" font-family="Times New Roman,serif" font-size="14.00">FParsec.CharStreamState`1</text>
</g>
<!-- FParsec.CharStreamState`1&#45;&gt;FParsec.CharStream -->
<g id="edge11" class="edge"><title>FParsec.CharStreamState`1&#45;&gt;FParsec.CharStream</title>
<path fill="none" stroke="black" d="M1052.11,-503.374C1090.54,-508.596 1135.72,-515.799 1176,-525 1201.2,-530.756 1228.62,-538.973 1251.68,-546.464"/>
<polygon fill="black" stroke="black" points="1250.68,-549.82 1261.27,-549.621 1252.87,-543.171 1250.68,-549.82"/>
</g>
<!-- FParsec.CharStreamState`1&#45;&gt;FParsec.CharStreamIndexToken -->
<g id="edge12" class="edge"><title>FParsec.CharStreamState`1&#45;&gt;FParsec.CharStreamIndexToken</title>
<path fill="none" stroke="black" d="M997.524,-510.082C1106.69,-562.565 1430.25,-718.055 1436,-720 1447.89,-724.024 1460.6,-727.563 1473.24,-730.641"/>
<polygon fill="black" stroke="black" points="1472.81,-734.135 1483.34,-733.01 1474.41,-727.319 1472.81,-734.135"/>
</g>
<!-- FParsec.CharStreamState`1&#45;&gt;FParsec.Position -->
<g id="edge13" class="edge"><title>FParsec.CharStreamState`1&#45;&gt;FParsec.Position</title>
<path fill="none" stroke="black" d="M1063.86,-486.115C1099.74,-482.128 1140.07,-475.855 1176,-466 1309.95,-429.264 1457.7,-354.912 1526.19,-318.321"/>
<polygon fill="black" stroke="black" points="1528.16,-321.232 1535.31,-313.416 1524.85,-315.066 1528.16,-321.232"/>
</g>
<!-- FParsec.CharStream`1 -->
<g id="node12" class="node"><title>FParsec.CharStream`1</title>
<ellipse fill="none" stroke="black" cx="961" cy="-347" rx="92.8835" ry="18"/>
<text text-anchor="middle" x="961" y="-343.3" font-family="Times New Roman,serif" font-size="14.00">FParsec.CharStream`1</text>
</g>
<!-- FParsec.CharStream`1&#45;&gt;FParsec.CharStream -->
<g id="edge14" class="edge"><title>FParsec.CharStream`1&#45;&gt;FParsec.CharStream</title>
<path fill="none" stroke="black" d="M1034.36,-358.234C1078.06,-367.525 1133.36,-383.907 1176,-412 1226.6,-445.341 1268.13,-504.27 1289.46,-538.445"/>
<polygon fill="black" stroke="black" points="1286.48,-540.278 1294.69,-546.977 1292.45,-536.622 1286.48,-540.278"/>
</g>
<!-- FParsec.CharStream`1&#45;&gt;FParsec.Buffer -->
<g id="edge15" class="edge"><title>FParsec.CharStream`1&#45;&gt;FParsec.Buffer</title>
<path fill="none" stroke="black" d="M1044.67,-354.866C1093.34,-359.1 1156.11,-363.879 1212,-366 1554,-378.977 1962.77,-348.489 2125.28,-334.526"/>
<polygon fill="black" stroke="black" points="2125.96,-337.98 2135.62,-333.631 2125.36,-331.006 2125.96,-337.98"/>
</g>
<!-- FParsec.CharStream`1&#45;&gt;FParsec.Position -->
<g id="edge16" class="edge"><title>FParsec.CharStream`1&#45;&gt;FParsec.Position</title>
<path fill="none" stroke="black" d="M1046.8,-339.969C1163.78,-330.269 1373.04,-312.917 1486.56,-303.504"/>
<polygon fill="black" stroke="black" points="1486.9,-306.988 1496.57,-302.674 1486.32,-300.012 1486.9,-306.988"/>
</g>
<!-- FParsec.CharStream`1&#45;&gt;FParsec.Text -->
<g id="edge17" class="edge"><title>FParsec.CharStream`1&#45;&gt;FParsec.Text</title>
<path fill="none" stroke="black" d="M1052.11,-350.662C1191.12,-354.855 1465.89,-357.348 1696,-324 1741.91,-317.347 1792.85,-303.427 1829.31,-292.282"/>
<polygon fill="black" stroke="black" points="1830.68,-295.523 1839.19,-289.221 1828.61,-288.837 1830.68,-295.523"/>
</g>
<!-- FParsec.Cloning.CloneEventHandlers&#45;&gt;FParsec.Cloning.Cloner -->
<g id="edge18" class="edge"><title>FParsec.Cloning.CloneEventHandlers&#45;&gt;FParsec.Cloning.Cloner</title>
<path fill="none" stroke="black" d="M1732.31,-654.217C1706.82,-652.968 1681,-651.462 1657.58,-649.837"/>
<polygon fill="black" stroke="black" points="1657.57,-646.328 1647.35,-649.109 1657.07,-653.31 1657.57,-646.328"/>
</g>
<!-- FParsec.Cloning.CloneEventHandlers&#45;&gt;FParsec.Cloning.CloneEvents -->
<g id="edge19" class="edge"><title>FParsec.Cloning.CloneEventHandlers&#45;&gt;FParsec.Cloning.CloneEvents</title>
<path fill="none" stroke="black" d="M2007.25,-664.189C2031.25,-665.936 2056.26,-667.756 2079.95,-669.48"/>
<polygon fill="black" stroke="black" points="2079.79,-672.978 2090.01,-670.213 2080.3,-665.996 2079.79,-672.978"/>
</g>
<!-- FParsec.ErrorMessage -->
<g id="node15" class="node"><title>FParsec.ErrorMessage</title>
<ellipse fill="none" stroke="black" cx="1306" cy="-173" rx="93.6835" ry="18"/>
<text text-anchor="middle" x="1306" y="-169.3" font-family="Times New Roman,serif" font-size="14.00">FParsec.ErrorMessage</text>
</g>
<!-- FParsec.ErrorMessage&#45;&gt;FParsec.Position -->
<g id="edge23" class="edge"><title>FParsec.ErrorMessage&#45;&gt;FParsec.Position</title>
<path fill="none" stroke="black" d="M1366.76,-186.879C1378.08,-190.469 1389.62,-194.818 1400,-200 1417.89,-208.933 1419.17,-216.202 1436,-227 1464.27,-245.134 1497.63,-263.152 1523.34,-276.366"/>
<polygon fill="black" stroke="black" points="1521.94,-279.583 1532.44,-281.008 1525.12,-273.347 1521.94,-279.583"/>
</g>
<!-- FParsec.ErrorMessage&#45;&gt;FParsec.Text -->
<g id="edge24" class="edge"><title>FParsec.ErrorMessage&#45;&gt;FParsec.Text</title>
<path fill="none" stroke="black" d="M1377.96,-184.617C1396.82,-187.687 1417.18,-190.984 1436,-194 1551.51,-212.509 1581.09,-213.09 1696,-235 1738.83,-243.166 1786.92,-254.007 1823.06,-262.491"/>
<polygon fill="black" stroke="black" points="1822.38,-265.927 1832.92,-264.817 1823.99,-259.114 1822.38,-265.927"/>
</g>
<!-- FParsec.ErrorMessageList -->
<g id="node16" class="node"><title>FParsec.ErrorMessageList</title>
<ellipse fill="none" stroke="black" cx="961" cy="-175" rx="107.482" ry="18"/>
<text text-anchor="middle" x="961" y="-171.3" font-family="Times New Roman,serif" font-size="14.00">FParsec.ErrorMessageList</text>
</g>
<!-- FParsec.ErrorMessage&#45;&gt;FParsec.ErrorMessageList -->
<g id="edge25" class="edge"><title>FParsec.ErrorMessage&#45;&gt;FParsec.ErrorMessageList</title>
<path fill="none" stroke="black" d="M1218.59,-179.453C1174.53,-180.613 1120.45,-181.068 1073.31,-180.717"/>
<polygon fill="black" stroke="black" points="1073.09,-177.215 1063.06,-180.627 1073.02,-184.215 1073.09,-177.215"/>
</g>
<!-- FParsec.ErrorMessageType -->
<g id="node17" class="node"><title>FParsec.ErrorMessageType</title>
<ellipse fill="none" stroke="black" cx="1566" cy="-167" rx="112.38" ry="18"/>
<text text-anchor="middle" x="1566" y="-163.3" font-family="Times New Roman,serif" font-size="14.00">FParsec.ErrorMessageType</text>
</g>
<!-- FParsec.ErrorMessage&#45;&gt;FParsec.ErrorMessageType -->
<g id="edge26" class="edge"><title>FParsec.ErrorMessage&#45;&gt;FParsec.ErrorMessageType</title>
<path fill="none" stroke="black" d="M1399.05,-170.859C1413.77,-170.517 1429.19,-170.158 1444.46,-169.803"/>
<polygon fill="black" stroke="black" points="1444.54,-173.303 1454.45,-169.571 1444.37,-166.304 1444.54,-173.303"/>
</g>
<!-- FParsec.ErrorMessageList&#45;&gt;FParsec.ErrorMessage -->
<g id="edge27" class="edge"><title>FParsec.ErrorMessageList&#45;&gt;FParsec.ErrorMessage</title>
<path fill="none" stroke="black" d="M1060.75,-168.246C1106.47,-167.216 1160.66,-166.901 1206.37,-167.399"/>
<polygon fill="black" stroke="black" points="1206.54,-170.901 1216.59,-167.526 1206.63,-163.902 1206.54,-170.901"/>
</g>
<!-- FParsec.Errors -->
<g id="node18" class="node"><title>FParsec.Errors</title>
<ellipse fill="none" stroke="black" cx="545" cy="-246" rx="65.7887" ry="18"/>
<text text-anchor="middle" x="545" y="-242.3" font-family="Times New Roman,serif" font-size="14.00">FParsec.Errors</text>
</g>
<!-- FParsec.Errors&#45;&gt;FParsec.ErrorMessage -->
<g id="edge28" class="edge"><title>FParsec.Errors&#45;&gt;FParsec.ErrorMessage</title>
<path fill="none" stroke="black" d="M609.298,-242.126C757.956,-232.95 1121.01,-210.054 1176,-202 1196.88,-198.941 1219.41,-194.338 1239.7,-189.695"/>
<polygon fill="black" stroke="black" points="1240.52,-193.098 1249.47,-187.419 1238.93,-186.28 1240.52,-193.098"/>
</g>
<!-- FParsec.Errors&#45;&gt;FParsec.ErrorMessageList -->
<g id="edge29" class="edge"><title>FParsec.Errors&#45;&gt;FParsec.ErrorMessageList</title>
<path fill="none" stroke="black" d="M598.101,-235.186C638.395,-226.982 695.623,-215.674 746,-207 785.846,-200.139 830.015,-193.391 867.828,-187.873"/>
<polygon fill="black" stroke="black" points="868.412,-191.325 877.806,-186.424 867.406,-184.398 868.412,-191.325"/>
</g>
<!-- FParsec.Strings -->
<g id="node19" class="node"><title>FParsec.Strings</title>
<ellipse fill="none" stroke="black" cx="1306" cy="-227" rx="68.4888" ry="18"/>
<text text-anchor="middle" x="1306" y="-223.3" font-family="Times New Roman,serif" font-size="14.00">FParsec.Strings</text>
</g>
<!-- FParsec.Errors&#45;&gt;FParsec.Strings -->
<g id="edge30" class="edge"><title>FParsec.Errors&#45;&gt;FParsec.Strings</title>
<path fill="none" stroke="black" d="M610.873,-245.818C725.125,-245.285 969.686,-243.194 1176,-235 1193.34,-234.311 1211.97,-233.309 1229.53,-232.245"/>
<polygon fill="black" stroke="black" points="1229.97,-235.725 1239.73,-231.613 1229.54,-228.738 1229.97,-235.725"/>
</g>
<!-- FParsec.Strings&#45;&gt;FParsec.Position -->
<g id="edge59" class="edge"><title>FParsec.Strings&#45;&gt;FParsec.Position</title>
<path fill="none" stroke="black" d="M1351.34,-240.578C1376.17,-248.049 1407.72,-257.331 1436,-265 1457.72,-270.891 1481.62,-276.939 1502.89,-282.169"/>
<polygon fill="black" stroke="black" points="1502.23,-285.611 1512.77,-284.589 1503.89,-278.811 1502.23,-285.611"/>
</g>
<!-- FParsec.Strings&#45;&gt;FParsec.Text -->
<g id="edge60" class="edge"><title>FParsec.Strings&#45;&gt;FParsec.Text</title>
<path fill="none" stroke="black" d="M1371.23,-232.502C1480.47,-241.86 1701.38,-260.784 1812.29,-270.285"/>
<polygon fill="black" stroke="black" points="1812.09,-273.781 1822.35,-271.147 1812.68,-266.806 1812.09,-273.781"/>
</g>
<!-- FParsec.FastGenericEqualityERComparer`1 -->
<g id="node20" class="node"><title>FParsec.FastGenericEqualityERComparer`1</title>
<ellipse fill="none" stroke="black" cx="172" cy="-845" rx="171.67" ry="18"/>
<text text-anchor="middle" x="172" y="-841.3" font-family="Times New Roman,serif" font-size="14.00">FParsec.FastGenericEqualityERComparer`1</text>
</g>
<!-- FParsec.FastGenericEqualityERComparer -->
<g id="node21" class="node"><title>FParsec.FastGenericEqualityERComparer</title>
<ellipse fill="none" stroke="black" cx="545" cy="-845" rx="164.371" ry="18"/>
<text text-anchor="middle" x="545" y="-841.3" font-family="Times New Roman,serif" font-size="14.00">FParsec.FastGenericEqualityERComparer</text>
</g>
<!-- FParsec.FastGenericEqualityERComparer`1&#45;&gt;FParsec.FastGenericEqualityERComparer -->
<g id="edge31" class="edge"><title>FParsec.FastGenericEqualityERComparer`1&#45;&gt;FParsec.FastGenericEqualityERComparer</title>
<path fill="none" stroke="black" d="M343.84,-845C352.588,-845 361.38,-845 370.137,-845"/>
<polygon fill="black" stroke="black" points="370.397,-848.5 380.397,-845 370.397,-841.5 370.397,-848.5"/>
</g>
<!-- FParsec.IdentifierValidator -->
<g id="node22" class="node"><title>FParsec.IdentifierValidator</title>
<ellipse fill="none" stroke="black" cx="1566" cy="-48" rx="108.581" ry="18"/>
<text text-anchor="middle" x="1566" y="-44.3" font-family="Times New Roman,serif" font-size="14.00">FParsec.IdentifierValidator</text>
</g>
<!-- FParsec.IdentifierValidator&#45;&gt;FParsec.Buffer -->
<g id="edge32" class="edge"><title>FParsec.IdentifierValidator&#45;&gt;FParsec.Buffer</title>
<path fill="none" stroke="black" d="M1651.14,-59.226C1666.99,-63.9289 1682.73,-70.5852 1696,-80 1719.83,-96.9083 1709.27,-116.643 1732,-135 1841.67,-223.582 1898.29,-193.784 2028,-249 2072.26,-267.842 2122.06,-291.415 2156.06,-307.885"/>
<polygon fill="black" stroke="black" points="2154.69,-311.111 2165.21,-312.332 2157.75,-304.815 2154.69,-311.111"/>
</g>
<!-- FParsec.IdentifierValidator&#45;&gt;FParsec.Text -->
<g id="edge33" class="edge"><title>FParsec.IdentifierValidator&#45;&gt;FParsec.Text</title>
<path fill="none" stroke="black" d="M1657.86,-57.7486C1671.95,-62.6654 1685.34,-69.7769 1696,-80 1737.11,-119.431 1695.42,-159.336 1732,-203 1755.88,-231.505 1793.61,-249.918 1824.87,-261.121"/>
<polygon fill="black" stroke="black" points="1823.74,-264.436 1834.34,-264.37 1826.02,-257.814 1823.74,-264.436"/>
</g>
<!-- FParsec.IdentifierValidator&#45;&gt;FParsec.UnmanagedMemoryPool -->
<g id="edge34" class="edge"><title>FParsec.IdentifierValidator&#45;&gt;FParsec.UnmanagedMemoryPool</title>
<path fill="none" stroke="black" d="M1628.84,-62.7244C1744.9,-90.358 1994.99,-149.902 2121.06,-179.919"/>
<polygon fill="black" stroke="black" points="2120.49,-183.38 2131.03,-182.292 2122.11,-176.571 2120.49,-183.38"/>
</g>
<!-- FParsec.InfixOperator`3 -->
<g id="node24" class="node"><title>FParsec.InfixOperator`3</title>
<ellipse fill="none" stroke="black" cx="172" cy="-126" rx="99.3824" ry="18"/>
<text text-anchor="middle" x="172" y="-122.3" font-family="Times New Roman,serif" font-size="14.00">FParsec.InfixOperator`3</text>
</g>
<!-- FParsec.Associativity -->
<g id="node25" class="node"><title>FParsec.Associativity</title>
<ellipse fill="none" stroke="black" cx="545" cy="-72" rx="89.8845" ry="18"/>
<text text-anchor="middle" x="545" y="-68.3" font-family="Times New Roman,serif" font-size="14.00">FParsec.Associativity</text>
</g>
<!-- FParsec.InfixOperator`3&#45;&gt;FParsec.Associativity -->
<g id="edge35" class="edge"><title>FParsec.InfixOperator`3&#45;&gt;FParsec.Associativity</title>
<path fill="none" stroke="black" d="M250.322,-114.746C312.207,-105.738 398.782,-93.1369 461.895,-83.9506"/>
<polygon fill="black" stroke="black" points="462.423,-87.4106 471.815,-82.5067 461.415,-80.4836 462.423,-87.4106"/>
</g>
<!-- FParsec.Internal.ParserCombinatorInInfiniteLoopHelper -->
<g id="node26" class="node"><title>FParsec.Internal.ParserCombinatorInInfiniteLoopHelper</title>
<ellipse fill="none" stroke="black" cx="961" cy="-677" rx="214.462" ry="18"/>
<text text-anchor="middle" x="961" y="-673.3" font-family="Times New Roman,serif" font-size="14.00">FParsec.Internal.ParserCombinatorInInfiniteLoopHelper</text>
</g>
<!-- FParsec.Internal.ParserCombinatorInInfiniteLoopHelper&#45;&gt;FParsec.CharStream -->
<g id="edge36" class="edge"><title>FParsec.Internal.ParserCombinatorInInfiniteLoopHelper&#45;&gt;FParsec.CharStream</title>
<path fill="none" stroke="black" d="M1121.72,-665.067C1140.33,-661.277 1158.79,-656.362 1176,-650 1213.97,-635.964 1252.01,-608.931 1276.84,-589.106"/>
<polygon fill="black" stroke="black" points="1279.18,-591.713 1284.73,-582.689 1274.77,-586.281 1279.18,-591.713"/>
</g>
<!-- FParsec.Many1CharsTill`3 -->
<g id="node27" class="node"><title>FParsec.Many1CharsTill`3</title>
<ellipse fill="none" stroke="black" cx="545" cy="-677" rx="108.581" ry="18"/>
<text text-anchor="middle" x="545" y="-673.3" font-family="Times New Roman,serif" font-size="14.00">FParsec.Many1CharsTill`3</text>
</g>
<!-- FParsec.Many1CharsTill`3&#45;&gt;FParsec.CharStream -->
<g id="edge37" class="edge"><title>FParsec.Many1CharsTill`3&#45;&gt;FParsec.CharStream</title>
<path fill="none" stroke="black" d="M626.089,-689.057C773.061,-709.776 1079.61,-746.05 1176,-704 1228.41,-681.138 1269.08,-625.323 1289.82,-591.788"/>
<polygon fill="black" stroke="black" points="1292.97,-593.338 1295.13,-582.966 1286.97,-589.726 1292.97,-593.338"/>
</g>
<!-- FParsec.Many1CharsTill`3&#45;&gt;FParsec.Internal.ParserCombinatorInInfiniteLoopHelper -->
<g id="edge38" class="edge"><title>FParsec.Many1CharsTill`3&#45;&gt;FParsec.Internal.ParserCombinatorInInfiniteLoopHelper</title>
<path fill="none" stroke="black" d="M653.693,-677C679.303,-677 707.572,-677 736.272,-677"/>
<polygon fill="black" stroke="black" points="736.438,-680.5 746.438,-677 736.438,-673.5 736.438,-680.5"/>
</g>
<!-- FParsec._16CharBuffer -->
<g id="node28" class="node"><title>FParsec._16CharBuffer</title>
<ellipse fill="none" stroke="black" cx="961" cy="-623" rx="96.6831" ry="18"/>
<text text-anchor="middle" x="961" y="-619.3" font-family="Times New Roman,serif" font-size="14.00">FParsec._16CharBuffer</text>
</g>
<!-- FParsec.Many1CharsTill`3&#45;&gt;FParsec._16CharBuffer -->
<g id="edge39" class="edge"><title>FParsec.Many1CharsTill`3&#45;&gt;FParsec._16CharBuffer</title>
<path fill="none" stroke="black" d="M629.176,-665.607C665.098,-660.729 707.61,-655.013 746,-650 786.648,-644.692 831.662,-638.987 869.877,-634.194"/>
<polygon fill="black" stroke="black" points="870.464,-637.648 879.951,-632.932 869.594,-630.703 870.464,-637.648"/>
</g>
<!-- FParsec.Many1Chars`1 -->
<g id="node29" class="node"><title>FParsec.Many1Chars`1</title>
<ellipse fill="none" stroke="black" cx="545" cy="-623" rx="96.6831" ry="18"/>
<text text-anchor="middle" x="545" y="-619.3" font-family="Times New Roman,serif" font-size="14.00">FParsec.Many1Chars`1</text>
</g>
<!-- FParsec.Many1Chars`1&#45;&gt;FParsec.CharStream -->
<g id="edge40" class="edge"><title>FParsec.Many1Chars`1&#45;&gt;FParsec.CharStream</title>
<path fill="none" stroke="black" d="M620.395,-611.537C657.971,-606.109 704.319,-599.963 746,-596 909.033,-580.499 1099.61,-571.974 1210.85,-567.957"/>
<polygon fill="black" stroke="black" points="1211.16,-571.448 1221.03,-567.594 1210.91,-564.452 1211.16,-571.448"/>
</g>
<!-- FParsec.Many1Chars`1&#45;&gt;FParsec.Internal.ParserCombinatorInInfiniteLoopHelper -->
<g id="edge41" class="edge"><title>FParsec.Many1Chars`1&#45;&gt;FParsec.Internal.ParserCombinatorInInfiniteLoopHelper</title>
<path fill="none" stroke="black" d="M623.385,-633.606C660.47,-638.648 705.525,-644.715 746,-650 773.201,-653.552 802.357,-657.282 830.123,-660.797"/>
<polygon fill="black" stroke="black" points="829.923,-664.3 840.283,-662.082 830.801,-657.355 829.923,-664.3"/>
</g>
<!-- FParsec.Many1Chars`1&#45;&gt;FParsec._16CharBuffer -->
<g id="edge42" class="edge"><title>FParsec.Many1Chars`1&#45;&gt;FParsec._16CharBuffer</title>
<path fill="none" stroke="black" d="M642.021,-623C705.393,-623 788.469,-623 853.813,-623"/>
<polygon fill="black" stroke="black" points="854.142,-626.5 864.142,-623 854.142,-619.5 854.142,-626.5"/>
</g>
<!-- FParsec.ManyCharsTill`3 -->
<g id="node30" class="node"><title>FParsec.ManyCharsTill`3</title>
<ellipse fill="none" stroke="black" cx="545" cy="-489" rx="103.982" ry="18"/>
<text text-anchor="middle" x="545" y="-485.3" font-family="Times New Roman,serif" font-size="14.00">FParsec.ManyCharsTill`3</text>
</g>
<!-- FParsec.ManyCharsTill`3&#45;&gt;FParsec.CharStream -->
<g id="edge43" class="edge"><title>FParsec.ManyCharsTill`3&#45;&gt;FParsec.CharStream</title>
<path fill="none" stroke="black" d="M619.437,-501.705C657.174,-507.897 703.95,-515.055 746,-520 909.861,-539.268 1101.73,-552.745 1212.72,-559.655"/>
<polygon fill="black" stroke="black" points="1212.68,-563.159 1222.88,-560.283 1213.11,-556.173 1212.68,-563.159"/>
</g>
<!-- FParsec.ManyCharsTill`3&#45;&gt;FParsec.ErrorMessageList -->
<g id="edge44" class="edge"><title>FParsec.ManyCharsTill`3&#45;&gt;FParsec.ErrorMessageList</title>
<path fill="none" stroke="black" d="M565.578,-471.247C600.743,-439.636 677.347,-372.034 746,-320 806.564,-274.097 880.638,-225.478 923.851,-197.82"/>
<polygon fill="black" stroke="black" points="925.782,-200.74 932.328,-192.41 922.016,-194.84 925.782,-200.74"/>
</g>
<!-- FParsec.ManyChars`1 -->
<g id="node31" class="node"><title>FParsec.ManyChars`1</title>
<ellipse fill="none" stroke="black" cx="961" cy="-439" rx="92.0841" ry="18"/>
<text text-anchor="middle" x="961" y="-435.3" font-family="Times New Roman,serif" font-size="14.00">FParsec.ManyChars`1</text>
</g>
<!-- FParsec.ManyChars`1&#45;&gt;FParsec.CharStream -->
<g id="edge45" class="edge"><title>FParsec.ManyChars`1&#45;&gt;FParsec.CharStream</title>
<path fill="none" stroke="black" d="M1053.19,-439.963C1092.22,-443.02 1137.56,-450.195 1176,-466 1217.23,-482.95 1256.68,-516.658 1280.86,-540"/>
<polygon fill="black" stroke="black" points="1278.57,-542.66 1288.15,-547.18 1283.48,-537.671 1278.57,-542.66"/>
</g>
<!-- FParsec.OperatorPrecedenceParser`3 -->
<g id="node32" class="node"><title>FParsec.OperatorPrecedenceParser`3</title>
<ellipse fill="none" stroke="black" cx="172" cy="-297" rx="147.574" ry="18"/>
<text text-anchor="middle" x="172" y="-293.3" font-family="Times New Roman,serif" font-size="14.00">FParsec.OperatorPrecedenceParser`3</text>
</g>
<!-- FParsec.OperatorPrecedenceParser`3&#45;&gt;FParsec.CharStream -->
<g id="edge46" class="edge"><title>FParsec.OperatorPrecedenceParser`3&#45;&gt;FParsec.CharStream</title>
<path fill="none" stroke="black" d="M175.861,-315.421C187.244,-381.726 235.921,-609.29 380,-704 527.875,-801.206 1016.59,-803.839 1176,-727 1234.22,-698.937 1274.28,-630.404 1292.98,-592.076"/>
<polygon fill="black" stroke="black" points="1296.15,-593.561 1297.27,-583.025 1289.83,-590.562 1296.15,-593.561"/>
</g>
<!-- FParsec.OperatorPrecedenceParser`3&#45;&gt;FParsec.CharStreamIndexToken -->
<g id="edge47" class="edge"><title>FParsec.OperatorPrecedenceParser`3&#45;&gt;FParsec.CharStreamIndexToken</title>
<path fill="none" stroke="black" d="M174.672,-315.279C182.289,-386.676 220.583,-648.052 380,-755 555.675,-872.855 1213.81,-796.197 1465.9,-761.484"/>
<polygon fill="black" stroke="black" points="1466.72,-764.904 1476.14,-760.065 1465.76,-757.97 1466.72,-764.904"/>
</g>
<!-- FParsec.OperatorPrecedenceParser`3&#45;&gt;FParsec.Position -->
<g id="edge48" class="edge"><title>FParsec.OperatorPrecedenceParser`3&#45;&gt;FParsec.Position</title>
<path fill="none" stroke="black" d="M319.665,-297C611.153,-297 1254.86,-297 1482.92,-297"/>
<polygon fill="black" stroke="black" points="1483.14,-300.5 1493.14,-297 1483.14,-293.5 1483.14,-300.5"/>
</g>
<!-- FParsec.OperatorPrecedenceParser`3&#45;&gt;FParsec.TwoChars -->
<g id="edge49" class="edge"><title>FParsec.OperatorPrecedenceParser`3&#45;&gt;FParsec.TwoChars</title>
<path fill="none" stroke="black" d="M264.59,-311.081C377.54,-328.037 575.516,-356.421 746,-374 1011.28,-401.353 1326.21,-420.236 1476.56,-428.421"/>
<polygon fill="black" stroke="black" points="1476.48,-431.922 1486.66,-428.968 1476.86,-424.932 1476.48,-431.922"/>
</g>
<!-- FParsec.OperatorPrecedenceParser`3&#45;&gt;FParsec.ErrorMessageList -->
<g id="edge50" class="edge"><title>FParsec.OperatorPrecedenceParser`3&#45;&gt;FParsec.ErrorMessageList</title>
<path fill="none" stroke="black" d="M209.791,-279.467C250.437,-260.975 318.321,-232.666 380,-219 537.951,-184.004 725.355,-175.578 843.49,-174.172"/>
<polygon fill="black" stroke="black" points="843.677,-177.67 853.64,-174.066 843.604,-170.67 843.677,-177.67"/>
</g>
<!-- FParsec.OperatorPrecedenceParser`3&#45;&gt;FParsec.Errors -->
<g id="edge51" class="edge"><title>FParsec.OperatorPrecedenceParser`3&#45;&gt;FParsec.Errors</title>
<path fill="none" stroke="black" d="M270.961,-283.534C335.565,-274.653 418.55,-263.245 475.99,-255.349"/>
<polygon fill="black" stroke="black" points="476.621,-258.795 486.051,-253.966 475.668,-251.861 476.621,-258.795"/>
</g>
<!-- FParsec.OperatorPrecedenceParser`3&#45;&gt;FParsec.Associativity -->
<g id="edge52" class="edge"><title>FParsec.OperatorPrecedenceParser`3&#45;&gt;FParsec.Associativity</title>
<path fill="none" stroke="black" d="M198.424,-279.172C233.635,-253.726 298.087,-204.361 344,-153 363.224,-131.495 355.762,-114.638 380,-99 399.326,-86.5312 422.516,-79.2093 445.289,-75.0381"/>
<polygon fill="black" stroke="black" points="446.057,-78.4591 455.359,-73.3868 444.924,-71.5514 446.057,-78.4591"/>
</g>
<!-- FParsec.Operator`3 -->
<g id="node33" class="node"><title>FParsec.Operator`3</title>
<ellipse fill="none" stroke="black" cx="172" cy="-18" rx="83.3857" ry="18"/>
<text text-anchor="middle" x="172" y="-14.3" font-family="Times New Roman,serif" font-size="14.00">FParsec.Operator`3</text>
</g>
<!-- FParsec.Operator`3&#45;&gt;FParsec.Associativity -->
<g id="edge53" class="edge"><title>FParsec.Operator`3&#45;&gt;FParsec.Associativity</title>
<path fill="none" stroke="black" d="M241.479,-27.9674C303.713,-37.0257 395.648,-50.407 461.823,-60.039"/>
<polygon fill="black" stroke="black" points="461.404,-63.5147 471.803,-61.4916 462.412,-56.5877 461.404,-63.5147"/>
</g>
<!-- FParsec.OperatorType -->
<g id="node34" class="node"><title>FParsec.OperatorType</title>
<ellipse fill="none" stroke="black" cx="545" cy="-18" rx="94.7833" ry="18"/>
<text text-anchor="middle" x="545" y="-14.3" font-family="Times New Roman,serif" font-size="14.00">FParsec.OperatorType</text>
</g>
<!-- FParsec.Operator`3&#45;&gt;FParsec.OperatorType -->
<g id="edge54" class="edge"><title>FParsec.Operator`3&#45;&gt;FParsec.OperatorType</title>
<path fill="none" stroke="black" d="M255.337,-18C309.61,-18 381.158,-18 439.444,-18"/>
<polygon fill="black" stroke="black" points="439.793,-21.5001 449.793,-18 439.793,-14.5001 439.793,-21.5001"/>
</g>
<!-- FParsec.Reply`1 -->
<g id="node35" class="node"><title>FParsec.Reply`1</title>
<ellipse fill="none" stroke="black" cx="545" cy="-126" rx="71.4873" ry="18"/>
<text text-anchor="middle" x="545" y="-122.3" font-family="Times New Roman,serif" font-size="14.00">FParsec.Reply`1</text>
</g>
<!-- FParsec.Reply`1&#45;&gt;FParsec.Text -->
<g id="edge56" class="edge"><title>FParsec.Reply`1&#45;&gt;FParsec.Text</title>
<path fill="none" stroke="black" d="M604.89,-116.091C658.753,-107.108 732.11,-95.1042 746,-94 851.347,-85.6255 1607.59,-82.0993 1696,-140 1723.95,-158.307 1707.73,-183.031 1732,-206 1758.67,-231.248 1796.14,-248.9 1826.57,-260.162"/>
<polygon fill="black" stroke="black" points="1825.59,-263.527 1836.18,-263.595 1827.94,-256.935 1825.59,-263.527"/>
</g>
<!-- FParsec.Reply`1&#45;&gt;FParsec.ErrorMessageList -->
<g id="edge57" class="edge"><title>FParsec.Reply`1&#45;&gt;FParsec.ErrorMessageList</title>
<path fill="none" stroke="black" d="M610.233,-133.602C677.724,-141.59 784.691,-154.251 862.578,-163.469"/>
<polygon fill="black" stroke="black" points="862.545,-166.99 872.887,-164.69 863.368,-160.038 862.545,-166.99"/>
</g>
<!-- FParsec.ReplyStatus -->
<g id="node36" class="node"><title>FParsec.ReplyStatus</title>
<ellipse fill="none" stroke="black" cx="961" cy="-121" rx="87.1846" ry="18"/>
<text text-anchor="middle" x="961" y="-117.3" font-family="Times New Roman,serif" font-size="14.00">FParsec.ReplyStatus</text>
</g>
<!-- FParsec.Reply`1&#45;&gt;FParsec.ReplyStatus -->
<g id="edge58" class="edge"><title>FParsec.Reply`1&#45;&gt;FParsec.ReplyStatus</title>
<path fill="none" stroke="black" d="M616.699,-125.146C684.773,-124.324 788.251,-123.074 863.804,-122.162"/>
<polygon fill="black" stroke="black" points="863.849,-125.662 873.806,-122.041 863.765,-118.662 863.849,-125.662"/>
</g>
<!-- FParsec.TernaryOperator`3 -->
<g id="node37" class="node"><title>FParsec.TernaryOperator`3</title>
<ellipse fill="none" stroke="black" cx="172" cy="-72" rx="111.28" ry="18"/>
<text text-anchor="middle" x="172" y="-68.3" font-family="Times New Roman,serif" font-size="14.00">FParsec.TernaryOperator`3</text>
</g>
<!-- FParsec.TernaryOperator`3&#45;&gt;FParsec.Associativity -->
<g id="edge61" class="edge"><title>FParsec.TernaryOperator`3&#45;&gt;FParsec.Associativity</title>
<path fill="none" stroke="black" d="M283.308,-72C334.664,-72 395.275,-72 445.124,-72"/>
<polygon fill="black" stroke="black" points="445.267,-75.5001 455.267,-72 445.267,-68.5001 445.267,-75.5001"/>
</g>
</g>
</svg>
