<?xml version="1.0" encoding="UTF-8" standalone="no"?>
<!DOCTYPE svg PUBLIC "-//W3C//DTD SVG 1.1//EN"
 "http://www.w3.org/Graphics/SVG/1.1/DTD/svg11.dtd">
<!-- Generated by graphviz version 2.30.1 (20130214.1330)
 -->
<!-- Title: G Pages: 1 -->
<svg width="476pt" height="44pt"
 viewBox="0.00 0.00 476.00 44.00" xmlns="http://www.w3.org/2000/svg" xmlns:xlink="http://www.w3.org/1999/xlink">
<g id="graph0" class="graph" transform="scale(1 1) rotate(0) translate(4 40)">
<title>G</title>
<polygon fill="white" stroke="white" points="-4,5 -4,-40 473,-40 473,5 -4,5"/>
<!-- FParsec.CharStream -->
<g id="node1" class="node"><title>FParsec.CharStream</title>
<ellipse fill="none" stroke="black" cx="86" cy="-18" rx="85.5853" ry="18"/>
<text text-anchor="middle" x="86" y="-14.3" font-family="Times New Roman,serif" font-size="14.00">FParsec.CharStream</text>
</g>
<!-- FParsec.CharStreamIndexToken -->
<g id="node2" class="node"><title>FParsec.CharStreamIndexToken</title>
<ellipse fill="none" stroke="black" cx="338" cy="-18" rx="129.977" ry="18"/>
<text text-anchor="middle" x="338" y="-14.3" font-family="Times New Roman,serif" font-size="14.00">FParsec.CharStreamIndexToken</text>
</g>
<!-- FParsec.CharStream&#45;&gt;FParsec.CharStreamIndexToken -->
<g id="edge1" class="edge"><title>FParsec.CharStream&#45;&gt;FParsec.CharStreamIndexToken</title>
<path fill="none" stroke="black" d="M166.445,-11.6653C179.446,-11.4179 193.208,-11.281 207.052,-11.2547"/>
<polygon fill="black" stroke="black" points="207.136,-14.7546 217.136,-11.2551 207.137,-7.75461 207.136,-14.7546"/>
</g>
<!-- FParsec.CharStreamIndexToken&#45;&gt;FParsec.CharStream -->
<g id="edge2" class="edge"><title>FParsec.CharStreamIndexToken&#45;&gt;FParsec.CharStream</title>
<path fill="none" stroke="black" d="M217.136,-24.7449C203.562,-24.7717 189.908,-24.6922 176.814,-24.5065"/>
<polygon fill="black" stroke="black" points="176.502,-21.0009 166.445,-24.3347 176.386,-28 176.502,-21.0009"/>
</g>
</g>
</svg>
