<?xml version="1.0" encoding="UTF-8" standalone="no"?>
<!DOCTYPE svg PUBLIC "-//W3C//DTD SVG 1.1//EN"
 "http://www.w3.org/Graphics/SVG/1.1/DTD/svg11.dtd">
<!-- Generated by graphviz version 2.30.1 (20130214.1330)
 -->
<!-- Title: G Pages: 1 -->
<svg width="1552pt" height="422pt"
 viewBox="0.00 0.00 1552.00 422.00" xmlns="http://www.w3.org/2000/svg" xmlns:xlink="http://www.w3.org/1999/xlink">
<g id="graph0" class="graph" transform="scale(1 1) rotate(0) translate(4 418)">
<title>G</title>
<polygon fill="white" stroke="white" points="-4,5 -4,-418 1549,-418 1549,5 -4,5"/>
<!-- FParsec.CharStream -->
<g id="node1" class="node"><title>FParsec.CharStream</title>
<ellipse fill="none" stroke="black" cx="614" cy="-180" rx="85.5853" ry="18"/>
<text text-anchor="middle" x="614" y="-176.3" font-family="Times New Roman,serif" font-size="14.00">FParsec.CharStream</text>
</g>
<!-- FParsec.CharStreamIndexToken -->
<g id="node2" class="node"><title>FParsec.CharStreamIndexToken</title>
<ellipse fill="none" stroke="black" cx="928" cy="-180" rx="129.977" ry="18"/>
<text text-anchor="middle" x="928" y="-176.3" font-family="Times New Roman,serif" font-size="14.00">FParsec.CharStreamIndexToken</text>
</g>
<!-- FParsec.CharStream&#45;&gt;FParsec.CharStreamIndexToken -->
<g id="edge1" class="edge"><title>FParsec.CharStream&#45;&gt;FParsec.CharStreamIndexToken</title>
<path fill="none" stroke="black" d="M694.943,-174.021C725.918,-173.339 762.191,-173.11 796.733,-173.332"/>
<polygon fill="black" stroke="black" points="796.878,-176.833 806.905,-173.411 796.932,-169.834 796.878,-176.833"/>
</g>
<!-- FParsec.Position -->
<g id="node3" class="node"><title>FParsec.Position</title>
<ellipse fill="none" stroke="black" cx="928" cy="-126" rx="72.5877" ry="18"/>
<text text-anchor="middle" x="928" y="-122.3" font-family="Times New Roman,serif" font-size="14.00">FParsec.Position</text>
</g>
<!-- FParsec.CharStream&#45;&gt;FParsec.Position -->
<g id="edge2" class="edge"><title>FParsec.CharStream&#45;&gt;FParsec.Position</title>
<path fill="none" stroke="black" d="M680.786,-168.614C732.769,-159.617 805.115,-147.095 857.931,-137.954"/>
<polygon fill="black" stroke="black" points="858.633,-141.385 867.889,-136.231 857.439,-134.487 858.633,-141.385"/>
</g>
<!-- FParsec.TwoChars -->
<g id="node4" class="node"><title>FParsec.TwoChars</title>
<ellipse fill="none" stroke="black" cx="928" cy="-234" rx="81.4863" ry="18"/>
<text text-anchor="middle" x="928" y="-230.3" font-family="Times New Roman,serif" font-size="14.00">FParsec.TwoChars</text>
</g>
<!-- FParsec.CharStream&#45;&gt;FParsec.TwoChars -->
<g id="edge3" class="edge"><title>FParsec.CharStream&#45;&gt;FParsec.TwoChars</title>
<path fill="none" stroke="black" d="M680.786,-191.386C731.342,-200.136 801.157,-212.219 853.536,-221.285"/>
<polygon fill="black" stroke="black" points="852.986,-224.742 863.437,-222.999 854.18,-217.844 852.986,-224.742"/>
</g>
<!-- FParsec.CharStreamIndexToken&#45;&gt;FParsec.CharStream -->
<g id="edge4" class="edge"><title>FParsec.CharStreamIndexToken&#45;&gt;FParsec.CharStream</title>
<path fill="none" stroke="black" d="M806.905,-186.589C773.066,-186.898 736.844,-186.763 705.088,-186.183"/>
<polygon fill="black" stroke="black" points="705.011,-182.681 694.943,-185.979 704.87,-189.68 705.011,-182.681"/>
</g>
<!-- FParsec.CharStreamState`1 -->
<g id="node5" class="node"><title>FParsec.CharStreamState`1</title>
<ellipse fill="none" stroke="black" cx="614" cy="-126" rx="111.28" ry="18"/>
<text text-anchor="middle" x="614" y="-122.3" font-family="Times New Roman,serif" font-size="14.00">FParsec.CharStreamState`1</text>
</g>
<!-- FParsec.CharStreamState`1&#45;&gt;FParsec.CharStreamIndexToken -->
<g id="edge5" class="edge"><title>FParsec.CharStreamState`1&#45;&gt;FParsec.CharStreamIndexToken</title>
<path fill="none" stroke="black" d="M690.526,-139.072C734.379,-146.662 789.915,-156.274 836.146,-164.275"/>
<polygon fill="black" stroke="black" points="835.714,-167.752 846.164,-166.009 836.907,-160.855 835.714,-167.752"/>
</g>
<!-- FParsec.CharStreamState`1&#45;&gt;FParsec.Position -->
<g id="edge6" class="edge"><title>FParsec.CharStreamState`1&#45;&gt;FParsec.Position</title>
<path fill="none" stroke="black" d="M725.439,-126C764.696,-126 808.173,-126 844.667,-126"/>
<polygon fill="black" stroke="black" points="844.766,-129.5 854.766,-126 844.766,-122.5 844.766,-129.5"/>
</g>
<!-- FParsec.CharStream`1 -->
<g id="node6" class="node"><title>FParsec.CharStream`1</title>
<ellipse fill="none" stroke="black" cx="215" cy="-180" rx="92.8835" ry="18"/>
<text text-anchor="middle" x="215" y="-176.3" font-family="Times New Roman,serif" font-size="14.00">FParsec.CharStream`1</text>
</g>
<!-- FParsec.CharStream`1&#45;&gt;FParsec.CharStream -->
<g id="edge7" class="edge"><title>FParsec.CharStream`1&#45;&gt;FParsec.CharStream</title>
<path fill="none" stroke="black" d="M308.078,-180C371.131,-180 454.525,-180 518.161,-180"/>
<polygon fill="black" stroke="black" points="518.199,-183.5 528.199,-180 518.199,-176.5 518.199,-183.5"/>
</g>
<!-- FParsec.Cloning.Cloner -->
<g id="node7" class="node"><title>FParsec.Cloning.Cloner</title>
<ellipse fill="none" stroke="black" cx="215" cy="-234" rx="98.2828" ry="18"/>
<text text-anchor="middle" x="215" y="-230.3" font-family="Times New Roman,serif" font-size="14.00">FParsec.Cloning.Cloner</text>
</g>
<!-- FParsec.Cloning.CloneImage -->
<g id="node8" class="node"><title>FParsec.Cloning.CloneImage</title>
<ellipse fill="none" stroke="black" cx="614" cy="-234" rx="116.979" ry="18"/>
<text text-anchor="middle" x="614" y="-230.3" font-family="Times New Roman,serif" font-size="14.00">FParsec.Cloning.CloneImage</text>
</g>
<!-- FParsec.Cloning.Cloner&#45;&gt;FParsec.Cloning.CloneImage -->
<g id="edge8" class="edge"><title>FParsec.Cloning.Cloner&#45;&gt;FParsec.Cloning.CloneImage</title>
<path fill="none" stroke="black" d="M313.371,-234C365.672,-234 430.753,-234 486.886,-234"/>
<polygon fill="black" stroke="black" points="486.895,-237.5 496.895,-234 486.895,-230.5 486.895,-237.5"/>
</g>
<!-- FParsec.ErrorMessage -->
<g id="node9" class="node"><title>FParsec.ErrorMessage</title>
<ellipse fill="none" stroke="black" cx="1188" cy="-72" rx="93.6835" ry="18"/>
<text text-anchor="middle" x="1188" y="-68.3" font-family="Times New Roman,serif" font-size="14.00">FParsec.ErrorMessage</text>
</g>
<!-- FParsec.ErrorMessageType -->
<g id="node10" class="node"><title>FParsec.ErrorMessageType</title>
<ellipse fill="none" stroke="black" cx="1431" cy="-72" rx="112.38" ry="18"/>
<text text-anchor="middle" x="1431" y="-68.3" font-family="Times New Roman,serif" font-size="14.00">FParsec.ErrorMessageType</text>
</g>
<!-- FParsec.ErrorMessage&#45;&gt;FParsec.ErrorMessageType -->
<g id="edge9" class="edge"><title>FParsec.ErrorMessage&#45;&gt;FParsec.ErrorMessageType</title>
<path fill="none" stroke="black" d="M1281.83,-72C1290.5,-72 1299.38,-72 1308.26,-72"/>
<polygon fill="black" stroke="black" points="1308.28,-75.5001 1318.28,-72 1308.28,-68.5001 1308.28,-75.5001"/>
</g>
<!-- FParsec.ErrorMessageList -->
<g id="node11" class="node"><title>FParsec.ErrorMessageList</title>
<ellipse fill="none" stroke="black" cx="928" cy="-72" rx="107.482" ry="18"/>
<text text-anchor="middle" x="928" y="-68.3" font-family="Times New Roman,serif" font-size="14.00">FParsec.ErrorMessageList</text>
</g>
<!-- FParsec.ErrorMessageList&#45;&gt;FParsec.ErrorMessage -->
<g id="edge10" class="edge"><title>FParsec.ErrorMessageList&#45;&gt;FParsec.ErrorMessage</title>
<path fill="none" stroke="black" d="M1035.43,-72C1051.37,-72 1067.78,-72 1083.66,-72"/>
<polygon fill="black" stroke="black" points="1084,-75.5001 1094,-72 1084,-68.5001 1084,-75.5001"/>
</g>
<!-- FParsec.InfixOperator`3 -->
<g id="node12" class="node"><title>FParsec.InfixOperator`3</title>
<ellipse fill="none" stroke="black" cx="215" cy="-396" rx="99.3824" ry="18"/>
<text text-anchor="middle" x="215" y="-392.3" font-family="Times New Roman,serif" font-size="14.00">FParsec.InfixOperator`3</text>
</g>
<!-- FParsec.Associativity -->
<g id="node13" class="node"><title>FParsec.Associativity</title>
<ellipse fill="none" stroke="black" cx="614" cy="-342" rx="89.8845" ry="18"/>
<text text-anchor="middle" x="614" y="-338.3" font-family="Times New Roman,serif" font-size="14.00">FParsec.Associativity</text>
</g>
<!-- FParsec.InfixOperator`3&#45;&gt;FParsec.Associativity -->
<g id="edge11" class="edge"><title>FParsec.InfixOperator`3&#45;&gt;FParsec.Associativity</title>
<path fill="none" stroke="black" d="M298.111,-386.049C337.954,-381.116 386.498,-374.953 430,-369 463.448,-364.423 500.284,-359.052 532.086,-354.311"/>
<polygon fill="black" stroke="black" points="532.851,-357.736 542.223,-352.796 531.816,-350.813 532.851,-357.736"/>
</g>
<!-- FParsec.Internal.ParserCombinatorInInfiniteLoopHelper -->
<g id="node14" class="node"><title>FParsec.Internal.ParserCombinatorInInfiniteLoopHelper</title>
<ellipse fill="none" stroke="black" cx="215" cy="-126" rx="214.462" ry="18"/>
<text text-anchor="middle" x="215" y="-122.3" font-family="Times New Roman,serif" font-size="14.00">FParsec.Internal.ParserCombinatorInInfiniteLoopHelper</text>
</g>
<!-- FParsec.Internal.ParserCombinatorInInfiniteLoopHelper&#45;&gt;FParsec.CharStream -->
<g id="edge12" class="edge"><title>FParsec.Internal.ParserCombinatorInInfiniteLoopHelper&#45;&gt;FParsec.CharStream</title>
<path fill="none" stroke="black" d="M337.155,-140.836C367.489,-144.675 399.948,-148.888 430,-153 464.023,-157.656 501.55,-163.133 533.719,-167.932"/>
<polygon fill="black" stroke="black" points="533.556,-171.447 543.964,-169.465 534.592,-164.524 533.556,-171.447"/>
</g>
<!-- FParsec.OperatorPrecedenceParser`3 -->
<g id="node15" class="node"><title>FParsec.OperatorPrecedenceParser`3</title>
<ellipse fill="none" stroke="black" cx="614" cy="-72" rx="147.574" ry="18"/>
<text text-anchor="middle" x="614" y="-68.3" font-family="Times New Roman,serif" font-size="14.00">FParsec.OperatorPrecedenceParser`3</text>
</g>
<!-- FParsec.OperatorPrecedenceParser`3&#45;&gt;FParsec.Position -->
<g id="edge13" class="edge"><title>FParsec.OperatorPrecedenceParser`3&#45;&gt;FParsec.Position</title>
<path fill="none" stroke="black" d="M699.843,-86.6844C749.436,-95.2679 811.24,-105.965 857.856,-114.033"/>
<polygon fill="black" stroke="black" points="857.411,-117.508 867.862,-115.765 858.605,-110.61 857.411,-117.508"/>
</g>
<!-- FParsec.OperatorPrecedenceParser`3&#45;&gt;FParsec.ErrorMessageList -->
<g id="edge14" class="edge"><title>FParsec.OperatorPrecedenceParser`3&#45;&gt;FParsec.ErrorMessageList</title>
<path fill="none" stroke="black" d="M761.864,-72C778.071,-72 794.409,-72 810.177,-72"/>
<polygon fill="black" stroke="black" points="810.449,-75.5001 820.449,-72 810.449,-68.5001 810.449,-75.5001"/>
</g>
<!-- FParsec.Operator`3 -->
<g id="node16" class="node"><title>FParsec.Operator`3</title>
<ellipse fill="none" stroke="black" cx="215" cy="-288" rx="83.3857" ry="18"/>
<text text-anchor="middle" x="215" y="-284.3" font-family="Times New Roman,serif" font-size="14.00">FParsec.Operator`3</text>
</g>
<!-- FParsec.Operator`3&#45;&gt;FParsec.Associativity -->
<g id="edge15" class="edge"><title>FParsec.Operator`3&#45;&gt;FParsec.Associativity</title>
<path fill="none" stroke="black" d="M287.871,-296.686C329.428,-301.804 382.696,-308.527 430,-315 463.448,-319.577 500.284,-324.948 532.086,-329.689"/>
<polygon fill="black" stroke="black" points="531.816,-333.187 542.223,-331.204 532.851,-326.264 531.816,-333.187"/>
</g>
<!-- FParsec.OperatorType -->
<g id="node17" class="node"><title>FParsec.OperatorType</title>
<ellipse fill="none" stroke="black" cx="614" cy="-288" rx="94.7833" ry="18"/>
<text text-anchor="middle" x="614" y="-284.3" font-family="Times New Roman,serif" font-size="14.00">FParsec.OperatorType</text>
</g>
<!-- FParsec.Operator`3&#45;&gt;FParsec.OperatorType -->
<g id="edge16" class="edge"><title>FParsec.Operator`3&#45;&gt;FParsec.OperatorType</title>
<path fill="none" stroke="black" d="M298.259,-288C359.269,-288 442.899,-288 508.619,-288"/>
<polygon fill="black" stroke="black" points="509.007,-291.5 519.007,-288 509.007,-284.5 509.007,-291.5"/>
</g>
<!-- FParsec.Reply`1 -->
<g id="node18" class="node"><title>FParsec.Reply`1</title>
<ellipse fill="none" stroke="black" cx="614" cy="-18" rx="71.4873" ry="18"/>
<text text-anchor="middle" x="614" y="-14.3" font-family="Times New Roman,serif" font-size="14.00">FParsec.Reply`1</text>
</g>
<!-- FParsec.Reply`1&#45;&gt;FParsec.ErrorMessageList -->
<g id="edge17" class="edge"><title>FParsec.Reply`1&#45;&gt;FParsec.ErrorMessageList</title>
<path fill="none" stroke="black" d="M673.319,-28.0936C720.956,-36.3386 788.929,-48.1031 842.526,-57.3794"/>
<polygon fill="black" stroke="black" points="842.249,-60.8836 852.7,-59.1404 843.443,-53.9861 842.249,-60.8836"/>
</g>
<!-- FParsec.ReplyStatus -->
<g id="node19" class="node"><title>FParsec.ReplyStatus</title>
<ellipse fill="none" stroke="black" cx="928" cy="-18" rx="87.1846" ry="18"/>
<text text-anchor="middle" x="928" y="-14.3" font-family="Times New Roman,serif" font-size="14.00">FParsec.ReplyStatus</text>
</g>
<!-- FParsec.Reply`1&#45;&gt;FParsec.ReplyStatus -->
<g id="edge18" class="edge"><title>FParsec.Reply`1&#45;&gt;FParsec.ReplyStatus</title>
<path fill="none" stroke="black" d="M685.798,-18C728.594,-18 783.731,-18 830.485,-18"/>
<polygon fill="black" stroke="black" points="830.633,-21.5001 840.633,-18 830.633,-14.5001 830.633,-21.5001"/>
</g>
<!-- FParsec.TernaryOperator`3 -->
<g id="node20" class="node"><title>FParsec.TernaryOperator`3</title>
<ellipse fill="none" stroke="black" cx="215" cy="-342" rx="111.28" ry="18"/>
<text text-anchor="middle" x="215" y="-338.3" font-family="Times New Roman,serif" font-size="14.00">FParsec.TernaryOperator`3</text>
</g>
<!-- FParsec.TernaryOperator`3&#45;&gt;FParsec.Associativity -->
<g id="edge19" class="edge"><title>FParsec.TernaryOperator`3&#45;&gt;FParsec.Associativity</title>
<path fill="none" stroke="black" d="M326.323,-342C385.199,-342 457.065,-342 514.113,-342"/>
<polygon fill="black" stroke="black" points="514.222,-345.5 524.222,-342 514.222,-338.5 514.222,-345.5"/>
</g>
</g>
</svg>
