<?xml version="1.0" encoding="UTF-8" standalone="no"?>
<!DOCTYPE svg PUBLIC "-//W3C//DTD SVG 1.1//EN"
 "http://www.w3.org/Graphics/SVG/1.1/DTD/svg11.dtd">
<!-- Generated by graphviz version 2.30.1 (20130214.1330)
 -->
<!-- Title: G Pages: 1 -->
<svg width="1334pt" height="1514pt"
 viewBox="0.00 0.00 1334.00 1514.00" xmlns="http://www.w3.org/2000/svg" xmlns:xlink="http://www.w3.org/1999/xlink">
<g id="graph0" class="graph" transform="scale(1 1) rotate(0) translate(4 1510)">
<title>G</title>
<polygon fill="white" stroke="white" points="-4,5 -4,-1510 1331,-1510 1331,5 -4,5"/>
<!-- Microsoft.FSharp.Collections.Array2DModule -->
<g id="node1" class="node"><title>Microsoft.FSharp.Collections.Array2DModule</title>
<ellipse fill="none" stroke="black" cx="720" cy="-440" rx="180.868" ry="18"/>
<text text-anchor="middle" x="720" y="-436.3" font-family="Times New Roman,serif" font-size="14.00">Microsoft.FSharp.Collections.Array2DModule</text>
</g>
<!-- Microsoft.FSharp.Core.Unit -->
<g id="node2" class="node"><title>Microsoft.FSharp.Core.Unit</title>
<ellipse fill="none" stroke="black" cx="1153" cy="-829" rx="114.28" ry="18"/>
<text text-anchor="middle" x="1153" y="-825.3" font-family="Times New Roman,serif" font-size="14.00">Microsoft.FSharp.Core.Unit</text>
</g>
<!-- Microsoft.FSharp.Collections.Array2DModule&#45;&gt;Microsoft.FSharp.Core.Unit -->
<g id="edge1" class="edge"><title>Microsoft.FSharp.Collections.Array2DModule&#45;&gt;Microsoft.FSharp.Core.Unit</title>
<path fill="none" stroke="black" d="M887.716,-446.845C907.732,-452.491 927.052,-460.581 944,-472 1065.37,-553.775 1125.4,-731.961 1144.77,-800.942"/>
<polygon fill="black" stroke="black" points="1141.42,-801.954 1147.43,-810.674 1148.17,-800.105 1141.42,-801.954"/>
</g>
<!-- Microsoft.FSharp.Collections.Array3DModule -->
<g id="node3" class="node"><title>Microsoft.FSharp.Collections.Array3DModule</title>
<ellipse fill="none" stroke="black" cx="720" cy="-386" rx="180.868" ry="18"/>
<text text-anchor="middle" x="720" y="-382.3" font-family="Times New Roman,serif" font-size="14.00">Microsoft.FSharp.Collections.Array3DModule</text>
</g>
<!-- Microsoft.FSharp.Collections.Array3DModule&#45;&gt;Microsoft.FSharp.Core.Unit -->
<g id="edge2" class="edge"><title>Microsoft.FSharp.Collections.Array3DModule&#45;&gt;Microsoft.FSharp.Core.Unit</title>
<path fill="none" stroke="black" d="M896.232,-390.102C913.282,-395.421 929.575,-402.836 944,-413 1081.43,-509.836 1132.9,-724.329 1147.33,-801.042"/>
<polygon fill="black" stroke="black" points="1143.89,-801.712 1149.12,-810.925 1150.78,-800.461 1143.89,-801.712"/>
</g>
<!-- Microsoft.FSharp.Collections.ArrayModule -->
<g id="node4" class="node"><title>Microsoft.FSharp.Collections.ArrayModule</title>
<ellipse fill="none" stroke="black" cx="720" cy="-332" rx="170.07" ry="18"/>
<text text-anchor="middle" x="720" y="-328.3" font-family="Times New Roman,serif" font-size="14.00">Microsoft.FSharp.Collections.ArrayModule</text>
</g>
<!-- Microsoft.FSharp.Collections.ArrayModule&#45;&gt;Microsoft.FSharp.Core.Unit -->
<g id="edge3" class="edge"><title>Microsoft.FSharp.Collections.ArrayModule&#45;&gt;Microsoft.FSharp.Core.Unit</title>
<path fill="none" stroke="black" d="M889.94,-333.364C909.368,-338.894 927.937,-347.107 944,-359 1095.15,-470.907 1138.4,-717.118 1148.97,-800.64"/>
<polygon fill="black" stroke="black" points="1145.51,-801.151 1150.18,-810.661 1152.46,-800.314 1145.51,-801.151"/>
</g>
<!-- Microsoft.FSharp.Collections.ListModule -->
<g id="node5" class="node"><title>Microsoft.FSharp.Collections.ListModule</title>
<ellipse fill="none" stroke="black" cx="720" cy="-278" rx="163.271" ry="18"/>
<text text-anchor="middle" x="720" y="-274.3" font-family="Times New Roman,serif" font-size="14.00">Microsoft.FSharp.Collections.ListModule</text>
</g>
<!-- Microsoft.FSharp.Collections.ListModule&#45;&gt;Microsoft.FSharp.Core.Unit -->
<g id="edge4" class="edge"><title>Microsoft.FSharp.Collections.ListModule&#45;&gt;Microsoft.FSharp.Core.Unit</title>
<path fill="none" stroke="black" d="M882.984,-276.76C905.025,-282.33 926.163,-291.25 944,-305 1109.2,-432.345 1143.5,-710.801 1150.35,-800.529"/>
<polygon fill="black" stroke="black" points="1146.88,-801.018 1151.07,-810.746 1153.86,-800.524 1146.88,-801.018"/>
</g>
<!-- Microsoft.FSharp.Collections.MapModule -->
<g id="node6" class="node"><title>Microsoft.FSharp.Collections.MapModule</title>
<ellipse fill="none" stroke="black" cx="720" cy="-1380" rx="166.271" ry="18"/>
<text text-anchor="middle" x="720" y="-1376.3" font-family="Times New Roman,serif" font-size="14.00">Microsoft.FSharp.Collections.MapModule</text>
</g>
<!-- Microsoft.FSharp.Collections.MapModule&#45;&gt;Microsoft.FSharp.Core.Unit -->
<g id="edge5" class="edge"><title>Microsoft.FSharp.Collections.MapModule&#45;&gt;Microsoft.FSharp.Core.Unit</title>
<path fill="none" stroke="black" d="M886.411,-1380.34C907.212,-1374.73 927.09,-1366.04 944,-1353 1109.2,-1225.65 1143.5,-947.199 1150.35,-857.471"/>
<polygon fill="black" stroke="black" points="1153.86,-857.476 1151.07,-847.254 1146.88,-856.982 1153.86,-857.476"/>
</g>
<!-- Microsoft.FSharp.Collections.SeqModule -->
<g id="node7" class="node"><title>Microsoft.FSharp.Collections.SeqModule</title>
<ellipse fill="none" stroke="black" cx="720" cy="-1326" rx="163.571" ry="18"/>
<text text-anchor="middle" x="720" y="-1322.3" font-family="Times New Roman,serif" font-size="14.00">Microsoft.FSharp.Collections.SeqModule</text>
</g>
<!-- Microsoft.FSharp.Collections.SeqModule&#45;&gt;Microsoft.FSharp.Core.Unit -->
<g id="edge6" class="edge"><title>Microsoft.FSharp.Collections.SeqModule&#45;&gt;Microsoft.FSharp.Core.Unit</title>
<path fill="none" stroke="black" d="M883.945,-1326.25C905.537,-1320.75 926.292,-1312.11 944,-1299 1095.15,-1187.09 1138.4,-940.882 1148.97,-857.36"/>
<polygon fill="black" stroke="black" points="1152.46,-857.686 1150.18,-847.339 1145.51,-856.849 1152.46,-857.686"/>
</g>
<!-- Microsoft.FSharp.Collections.SetModule -->
<g id="node8" class="node"><title>Microsoft.FSharp.Collections.SetModule</title>
<ellipse fill="none" stroke="black" cx="720" cy="-1272" rx="161.372" ry="18"/>
<text text-anchor="middle" x="720" y="-1268.3" font-family="Times New Roman,serif" font-size="14.00">Microsoft.FSharp.Collections.SetModule</text>
</g>
<!-- Microsoft.FSharp.Collections.SetModule&#45;&gt;Microsoft.FSharp.Core.Unit -->
<g id="edge7" class="edge"><title>Microsoft.FSharp.Collections.SetModule&#45;&gt;Microsoft.FSharp.Core.Unit</title>
<path fill="none" stroke="black" d="M881.376,-1271.98C903.766,-1266.61 925.43,-1258.08 944,-1245 1081.43,-1148.16 1132.9,-933.671 1147.33,-856.958"/>
<polygon fill="black" stroke="black" points="1150.78,-857.539 1149.12,-847.075 1143.89,-856.288 1150.78,-857.539"/>
</g>
<!-- Microsoft.FSharp.Control.CommonExtensions -->
<g id="node9" class="node"><title>Microsoft.FSharp.Control.CommonExtensions</title>
<ellipse fill="none" stroke="black" cx="720" cy="-1218" rx="182.768" ry="18"/>
<text text-anchor="middle" x="720" y="-1214.3" font-family="Times New Roman,serif" font-size="14.00">Microsoft.FSharp.Control.CommonExtensions</text>
</g>
<!-- Microsoft.FSharp.Control.CommonExtensions&#45;&gt;Microsoft.FSharp.Core.Unit -->
<g id="edge8" class="edge"><title>Microsoft.FSharp.Control.CommonExtensions&#45;&gt;Microsoft.FSharp.Core.Unit</title>
<path fill="none" stroke="black" d="M895.646,-1213.04C912.807,-1207.88 929.287,-1200.74 944,-1191 1067.59,-1109.16 1126.46,-927.068 1145.14,-857.118"/>
<polygon fill="black" stroke="black" points="1148.57,-857.82 1147.7,-847.261 1141.8,-856.059 1148.57,-857.82"/>
</g>
<!-- Microsoft.FSharp.Control.EventModule -->
<g id="node10" class="node"><title>Microsoft.FSharp.Control.EventModule</title>
<ellipse fill="none" stroke="black" cx="720" cy="-1164" rx="157.072" ry="18"/>
<text text-anchor="middle" x="720" y="-1160.3" font-family="Times New Roman,serif" font-size="14.00">Microsoft.FSharp.Control.EventModule</text>
</g>
<!-- Microsoft.FSharp.Control.EventModule&#45;&gt;Microsoft.FSharp.Core.Unit -->
<g id="edge9" class="edge"><title>Microsoft.FSharp.Control.EventModule&#45;&gt;Microsoft.FSharp.Core.Unit</title>
<path fill="none" stroke="black" d="M876.719,-1162.46C900.417,-1157.43 923.703,-1149.41 944,-1137 1054.3,-1069.58 1119.35,-919.046 1142.42,-856.781"/>
<polygon fill="black" stroke="black" points="1145.77,-857.827 1145.88,-847.233 1139.18,-855.44 1145.77,-857.827"/>
</g>
<!-- Microsoft.FSharp.Control.FSharpAsync -->
<g id="node11" class="node"><title>Microsoft.FSharp.Control.FSharpAsync</title>
<ellipse fill="none" stroke="black" cx="720" cy="-1110" rx="159.472" ry="18"/>
<text text-anchor="middle" x="720" y="-1106.3" font-family="Times New Roman,serif" font-size="14.00">Microsoft.FSharp.Control.FSharpAsync</text>
</g>
<!-- Microsoft.FSharp.Control.FSharpAsync&#45;&gt;Microsoft.FSharp.Core.Unit -->
<g id="edge10" class="edge"><title>Microsoft.FSharp.Control.FSharpAsync&#45;&gt;Microsoft.FSharp.Core.Unit</title>
<path fill="none" stroke="black" d="M870.213,-1104C895.907,-1098.73 921.54,-1090.52 944,-1078 1039.64,-1024.67 1109.97,-908.748 1138.28,-856.049"/>
<polygon fill="black" stroke="black" points="1141.5,-857.451 1143.07,-846.974 1135.31,-854.182 1141.5,-857.451"/>
</g>
<!-- Microsoft.FSharp.Control.FSharpAsyncBuilder -->
<g id="node12" class="node"><title>Microsoft.FSharp.Control.FSharpAsyncBuilder</title>
<ellipse fill="none" stroke="black" cx="720" cy="-802" rx="184.667" ry="18"/>
<text text-anchor="middle" x="720" y="-798.3" font-family="Times New Roman,serif" font-size="14.00">Microsoft.FSharp.Control.FSharpAsyncBuilder</text>
</g>
<!-- Microsoft.FSharp.Control.FSharpAsyncBuilder&#45;&gt;Microsoft.FSharp.Core.Unit -->
<g id="edge11" class="edge"><title>Microsoft.FSharp.Control.FSharpAsyncBuilder&#45;&gt;Microsoft.FSharp.Core.Unit</title>
<path fill="none" stroke="black" d="M875.688,-811.69C928.656,-815.009 986.963,-818.661 1036.31,-821.753"/>
<polygon fill="black" stroke="black" points="1036.18,-825.251 1046.38,-822.383 1036.61,-818.265 1036.18,-825.251"/>
</g>
<!-- Microsoft.FSharp.Control.FSharpMailboxProcessor`1 -->
<g id="node13" class="node"><title>Microsoft.FSharp.Control.FSharpMailboxProcessor`1</title>
<ellipse fill="none" stroke="black" cx="720" cy="-1018" rx="209.863" ry="18"/>
<text text-anchor="middle" x="720" y="-1014.3" font-family="Times New Roman,serif" font-size="14.00">Microsoft.FSharp.Control.FSharpMailboxProcessor`1</text>
</g>
<!-- Microsoft.FSharp.Control.FSharpMailboxProcessor`1&#45;&gt;Microsoft.FSharp.Core.Unit -->
<g id="edge12" class="edge"><title>Microsoft.FSharp.Control.FSharpMailboxProcessor`1&#45;&gt;Microsoft.FSharp.Core.Unit</title>
<path fill="none" stroke="black" d="M890.033,-1007.43C908.621,-1003.38 926.965,-998.024 944,-991 1020.64,-959.398 1092.95,-891.425 1128.69,-854.363"/>
<polygon fill="black" stroke="black" points="1131.39,-856.603 1135.75,-846.947 1126.32,-851.776 1131.39,-856.603"/>
</g>
<!-- Microsoft.FSharp.Control.LazyExtensions -->
<g id="node14" class="node"><title>Microsoft.FSharp.Control.LazyExtensions</title>
<ellipse fill="none" stroke="black" cx="720" cy="-964" rx="165.971" ry="18"/>
<text text-anchor="middle" x="720" y="-960.3" font-family="Times New Roman,serif" font-size="14.00">Microsoft.FSharp.Control.LazyExtensions</text>
</g>
<!-- Microsoft.FSharp.Control.LazyExtensions&#45;&gt;Microsoft.FSharp.Core.Unit -->
<g id="edge13" class="edge"><title>Microsoft.FSharp.Control.LazyExtensions&#45;&gt;Microsoft.FSharp.Core.Unit</title>
<path fill="none" stroke="black" d="M862.089,-954.673C889.63,-950.69 918.011,-945.031 944,-937 1008.69,-917.009 1077.17,-877.371 1117.18,-852.077"/>
<polygon fill="black" stroke="black" points="1119.21,-854.932 1125.75,-846.598 1115.44,-849.033 1119.21,-854.932"/>
</g>
<!-- Microsoft.FSharp.Control.ObservableModule -->
<g id="node15" class="node"><title>Microsoft.FSharp.Control.ObservableModule</title>
<ellipse fill="none" stroke="black" cx="720" cy="-910" rx="178.168" ry="18"/>
<text text-anchor="middle" x="720" y="-906.3" font-family="Times New Roman,serif" font-size="14.00">Microsoft.FSharp.Control.ObservableModule</text>
</g>
<!-- Microsoft.FSharp.Control.ObservableModule&#45;&gt;Microsoft.FSharp.Core.Unit -->
<g id="edge14" class="edge"><title>Microsoft.FSharp.Control.ObservableModule&#45;&gt;Microsoft.FSharp.Core.Unit</title>
<path fill="none" stroke="black" d="M848.521,-897.534C879.867,-893.653 913.251,-888.826 944,-883 993.103,-873.697 1047.77,-859.344 1088.73,-847.774"/>
<polygon fill="black" stroke="black" points="1089.91,-851.076 1098.57,-844.973 1088,-844.344 1089.91,-851.076"/>
</g>
<!-- Microsoft.FSharp.Core.CompilationMappingAttribute -->
<g id="node16" class="node"><title>Microsoft.FSharp.Core.CompilationMappingAttribute</title>
<ellipse fill="none" stroke="black" cx="230" cy="-1434" rx="207.163" ry="18"/>
<text text-anchor="middle" x="230" y="-1430.3" font-family="Times New Roman,serif" font-size="14.00">Microsoft.FSharp.Core.CompilationMappingAttribute</text>
</g>
<!-- Microsoft.FSharp.Core.SourceConstructFlags -->
<g id="node17" class="node"><title>Microsoft.FSharp.Core.SourceConstructFlags</title>
<ellipse fill="none" stroke="black" cx="720" cy="-1434" rx="180.868" ry="18"/>
<text text-anchor="middle" x="720" y="-1430.3" font-family="Times New Roman,serif" font-size="14.00">Microsoft.FSharp.Core.SourceConstructFlags</text>
</g>
<!-- Microsoft.FSharp.Core.CompilationMappingAttribute&#45;&gt;Microsoft.FSharp.Core.SourceConstructFlags -->
<g id="edge15" class="edge"><title>Microsoft.FSharp.Core.CompilationMappingAttribute&#45;&gt;Microsoft.FSharp.Core.SourceConstructFlags</title>
<path fill="none" stroke="black" d="M437.602,-1434C467.964,-1434 499.117,-1434 529.12,-1434"/>
<polygon fill="black" stroke="black" points="529.248,-1437.5 539.248,-1434 529.248,-1430.5 529.248,-1437.5"/>
</g>
<!-- Microsoft.FSharp.Core.CompilationRepresentationAttribute -->
<g id="node18" class="node"><title>Microsoft.FSharp.Core.CompilationRepresentationAttribute</title>
<ellipse fill="none" stroke="black" cx="230" cy="-1488" rx="229.359" ry="18"/>
<text text-anchor="middle" x="230" y="-1484.3" font-family="Times New Roman,serif" font-size="14.00">Microsoft.FSharp.Core.CompilationRepresentationAttribute</text>
</g>
<!-- Microsoft.FSharp.Core.CompilationRepresentationFlags -->
<g id="node19" class="node"><title>Microsoft.FSharp.Core.CompilationRepresentationFlags</title>
<ellipse fill="none" stroke="black" cx="720" cy="-1488" rx="217.162" ry="18"/>
<text text-anchor="middle" x="720" y="-1484.3" font-family="Times New Roman,serif" font-size="14.00">Microsoft.FSharp.Core.CompilationRepresentationFlags</text>
</g>
<!-- Microsoft.FSharp.Core.CompilationRepresentationAttribute&#45;&gt;Microsoft.FSharp.Core.CompilationRepresentationFlags -->
<g id="edge16" class="edge"><title>Microsoft.FSharp.Core.CompilationRepresentationAttribute&#45;&gt;Microsoft.FSharp.Core.CompilationRepresentationFlags</title>
<path fill="none" stroke="black" d="M459.64,-1488C470.646,-1488 481.694,-1488 492.694,-1488"/>
<polygon fill="black" stroke="black" points="492.779,-1491.5 502.779,-1488 492.779,-1484.5 492.779,-1491.5"/>
</g>
<!-- Microsoft.FSharp.Core.CompilerServices.RuntimeHelpers -->
<g id="node20" class="node"><title>Microsoft.FSharp.Core.CompilerServices.RuntimeHelpers</title>
<ellipse fill="none" stroke="black" cx="720" cy="-856" rx="223.66" ry="18"/>
<text text-anchor="middle" x="720" y="-852.3" font-family="Times New Roman,serif" font-size="14.00">Microsoft.FSharp.Core.CompilerServices.RuntimeHelpers</text>
</g>
<!-- Microsoft.FSharp.Core.CompilerServices.RuntimeHelpers&#45;&gt;Microsoft.FSharp.Core.Unit -->
<g id="edge17" class="edge"><title>Microsoft.FSharp.Core.CompilerServices.RuntimeHelpers&#45;&gt;Microsoft.FSharp.Core.Unit</title>
<path fill="none" stroke="black" d="M896.926,-844.979C943.903,-842.036 993.478,-838.931 1036.3,-836.248"/>
<polygon fill="black" stroke="black" points="1036.71,-839.729 1046.47,-835.611 1036.27,-832.743 1036.71,-839.729"/>
</g>
<!-- Microsoft.FSharp.Core.ExtraTopLevelOperators -->
<g id="node21" class="node"><title>Microsoft.FSharp.Core.ExtraTopLevelOperators</title>
<ellipse fill="none" stroke="black" cx="230" cy="-802" rx="189.567" ry="18"/>
<text text-anchor="middle" x="230" y="-798.3" font-family="Times New Roman,serif" font-size="14.00">Microsoft.FSharp.Core.ExtraTopLevelOperators</text>
</g>
<!-- Microsoft.FSharp.Core.ExtraTopLevelOperators&#45;&gt;Microsoft.FSharp.Core.Unit -->
<g id="edge18" class="edge"><title>Microsoft.FSharp.Core.ExtraTopLevelOperators&#45;&gt;Microsoft.FSharp.Core.Unit</title>
<path fill="none" stroke="black" d="M243.174,-820.15C276.639,-868.185 375.582,-998.147 496,-1045 588.78,-1081.1 852.386,-1083.96 944,-1045 1035.81,-1005.95 1106.73,-904.313 1136.58,-855.682"/>
<polygon fill="black" stroke="black" points="1139.67,-857.341 1141.84,-846.971 1133.68,-853.726 1139.67,-857.341"/>
</g>
<!-- Microsoft.FSharp.Core.ExtraTopLevelOperators&#45;&gt;Microsoft.FSharp.Control.FSharpAsyncBuilder -->
<g id="edge19" class="edge"><title>Microsoft.FSharp.Core.ExtraTopLevelOperators&#45;&gt;Microsoft.FSharp.Control.FSharpAsyncBuilder</title>
<path fill="none" stroke="black" d="M420.023,-802C454.424,-802 490.363,-802 524.908,-802"/>
<polygon fill="black" stroke="black" points="525.094,-805.5 535.094,-802 525.094,-798.5 525.094,-805.5"/>
</g>
<!-- Microsoft.FSharp.Quotations.FSharpExpr -->
<g id="node22" class="node"><title>Microsoft.FSharp.Quotations.FSharpExpr</title>
<ellipse fill="none" stroke="black" cx="720" cy="-148" rx="165.171" ry="18"/>
<text text-anchor="middle" x="720" y="-144.3" font-family="Times New Roman,serif" font-size="14.00">Microsoft.FSharp.Quotations.FSharpExpr</text>
</g>
<!-- Microsoft.FSharp.Core.ExtraTopLevelOperators&#45;&gt;Microsoft.FSharp.Quotations.FSharpExpr -->
<g id="edge20" class="edge"><title>Microsoft.FSharp.Core.ExtraTopLevelOperators&#45;&gt;Microsoft.FSharp.Quotations.FSharpExpr</title>
<path fill="none" stroke="black" d="M234.954,-783.919C252.283,-708.615 328.266,-416.138 496,-251 537.437,-210.204 597.999,-183.645 645.556,-167.732"/>
<polygon fill="black" stroke="black" points="646.765,-171.019 655.189,-164.593 644.597,-164.363 646.765,-171.019"/>
</g>
<!-- Microsoft.FSharp.Quotations.FSharpVar -->
<g id="node29" class="node"><title>Microsoft.FSharp.Quotations.FSharpVar</title>
<ellipse fill="none" stroke="black" cx="1153" cy="-171" rx="161.372" ry="18"/>
<text text-anchor="middle" x="1153" y="-167.3" font-family="Times New Roman,serif" font-size="14.00">Microsoft.FSharp.Quotations.FSharpVar</text>
</g>
<!-- Microsoft.FSharp.Quotations.FSharpExpr&#45;&gt;Microsoft.FSharp.Quotations.FSharpVar -->
<g id="edge31" class="edge"><title>Microsoft.FSharp.Quotations.FSharpExpr&#45;&gt;Microsoft.FSharp.Quotations.FSharpVar</title>
<path fill="none" stroke="black" d="M868.723,-155.883C910.12,-158.092 955.232,-160.5 997.037,-162.73"/>
<polygon fill="black" stroke="black" points="996.851,-166.225 1007.02,-163.263 997.224,-159.235 996.851,-166.225"/>
</g>
<!-- Microsoft.FSharp.Reflection.UnionCaseInfo -->
<g id="node31" class="node"><title>Microsoft.FSharp.Reflection.UnionCaseInfo</title>
<ellipse fill="none" stroke="black" cx="1153" cy="-64" rx="172.769" ry="18"/>
<text text-anchor="middle" x="1153" y="-60.3" font-family="Times New Roman,serif" font-size="14.00">Microsoft.FSharp.Reflection.UnionCaseInfo</text>
</g>
<!-- Microsoft.FSharp.Quotations.FSharpExpr&#45;&gt;Microsoft.FSharp.Reflection.UnionCaseInfo -->
<g id="edge32" class="edge"><title>Microsoft.FSharp.Quotations.FSharpExpr&#45;&gt;Microsoft.FSharp.Reflection.UnionCaseInfo</title>
<path fill="none" stroke="black" d="M801.562,-132.299C875.13,-117.961 983.804,-96.7807 1060.59,-81.815"/>
<polygon fill="black" stroke="black" points="1061.59,-85.1864 1070.74,-79.838 1060.25,-78.3157 1061.59,-85.1864"/>
</g>
<!-- Microsoft.FSharp.Core.FuncConvert -->
<g id="node23" class="node"><title>Microsoft.FSharp.Core.FuncConvert</title>
<ellipse fill="none" stroke="black" cx="720" cy="-748" rx="146.774" ry="18"/>
<text text-anchor="middle" x="720" y="-744.3" font-family="Times New Roman,serif" font-size="14.00">Microsoft.FSharp.Core.FuncConvert</text>
</g>
<!-- Microsoft.FSharp.Core.FuncConvert&#45;&gt;Microsoft.FSharp.Core.Unit -->
<g id="edge21" class="edge"><title>Microsoft.FSharp.Core.FuncConvert&#45;&gt;Microsoft.FSharp.Core.Unit</title>
<path fill="none" stroke="black" d="M836.332,-758.991C871.085,-763.102 909.228,-768.412 944,-775 993.103,-784.303 1047.77,-798.656 1088.73,-810.226"/>
<polygon fill="black" stroke="black" points="1088,-813.656 1098.57,-813.027 1089.91,-806.924 1088,-813.656"/>
</g>
<!-- Microsoft.FSharp.Core.Operators -->
<g id="node24" class="node"><title>Microsoft.FSharp.Core.Operators</title>
<ellipse fill="none" stroke="black" cx="720" cy="-694" rx="135.676" ry="18"/>
<text text-anchor="middle" x="720" y="-690.3" font-family="Times New Roman,serif" font-size="14.00">Microsoft.FSharp.Core.Operators</text>
</g>
<!-- Microsoft.FSharp.Core.Operators&#45;&gt;Microsoft.FSharp.Core.Unit -->
<g id="edge22" class="edge"><title>Microsoft.FSharp.Core.Operators&#45;&gt;Microsoft.FSharp.Core.Unit</title>
<path fill="none" stroke="black" d="M845.051,-701.054C877.727,-705.06 912.609,-711.3 944,-721 1008.69,-740.991 1077.17,-780.629 1117.18,-805.923"/>
<polygon fill="black" stroke="black" points="1115.44,-808.967 1125.75,-811.402 1119.21,-803.068 1115.44,-808.967"/>
</g>
<!-- Microsoft.FSharp.Core.OptionModule -->
<g id="node25" class="node"><title>Microsoft.FSharp.Core.OptionModule</title>
<ellipse fill="none" stroke="black" cx="720" cy="-640" rx="152.173" ry="18"/>
<text text-anchor="middle" x="720" y="-636.3" font-family="Times New Roman,serif" font-size="14.00">Microsoft.FSharp.Core.OptionModule</text>
</g>
<!-- Microsoft.FSharp.Core.OptionModule&#45;&gt;Microsoft.FSharp.Core.Unit -->
<g id="edge23" class="edge"><title>Microsoft.FSharp.Core.OptionModule&#45;&gt;Microsoft.FSharp.Core.Unit</title>
<path fill="none" stroke="black" d="M864.31,-645.753C891.456,-650.053 919.123,-656.742 944,-667 1020.64,-698.602 1092.95,-766.575 1128.69,-803.637"/>
<polygon fill="black" stroke="black" points="1126.32,-806.224 1135.75,-811.053 1131.39,-801.397 1126.32,-806.224"/>
</g>
<!-- Microsoft.FSharp.Core.PrintfModule -->
<g id="node26" class="node"><title>Microsoft.FSharp.Core.PrintfModule</title>
<ellipse fill="none" stroke="black" cx="720" cy="-586" rx="146.774" ry="18"/>
<text text-anchor="middle" x="720" y="-582.3" font-family="Times New Roman,serif" font-size="14.00">Microsoft.FSharp.Core.PrintfModule</text>
</g>
<!-- Microsoft.FSharp.Core.PrintfModule&#45;&gt;Microsoft.FSharp.Core.Unit -->
<g id="edge24" class="edge"><title>Microsoft.FSharp.Core.PrintfModule&#45;&gt;Microsoft.FSharp.Core.Unit</title>
<path fill="none" stroke="black" d="M865.287,-588.909C892.418,-593.448 919.83,-600.953 944,-613 1032.64,-657.179 1104.4,-754.979 1135.42,-802.309"/>
<polygon fill="black" stroke="black" points="1132.54,-804.3 1140.91,-810.803 1138.42,-800.504 1132.54,-804.3"/>
</g>
<!-- Microsoft.FSharp.Core.StringModule -->
<g id="node27" class="node"><title>Microsoft.FSharp.Core.StringModule</title>
<ellipse fill="none" stroke="black" cx="720" cy="-532" rx="148.374" ry="18"/>
<text text-anchor="middle" x="720" y="-528.3" font-family="Times New Roman,serif" font-size="14.00">Microsoft.FSharp.Core.StringModule</text>
</g>
<!-- Microsoft.FSharp.Core.StringModule&#45;&gt;Microsoft.FSharp.Core.Unit -->
<g id="edge25" class="edge"><title>Microsoft.FSharp.Core.StringModule&#45;&gt;Microsoft.FSharp.Core.Unit</title>
<path fill="none" stroke="black" d="M868.161,-533.126C894.611,-537.888 921.038,-545.931 944,-559 1045.15,-616.57 1113.65,-745.062 1139.97,-801.509"/>
<polygon fill="black" stroke="black" points="1136.91,-803.229 1144.25,-810.866 1143.27,-800.317 1136.91,-803.229"/>
</g>
<!-- Microsoft.FSharp.Quotations.DerivedPatternsModule -->
<g id="node28" class="node"><title>Microsoft.FSharp.Quotations.DerivedPatternsModule</title>
<ellipse fill="none" stroke="black" cx="230" cy="-248" rx="206.063" ry="18"/>
<text text-anchor="middle" x="230" y="-244.3" font-family="Times New Roman,serif" font-size="14.00">Microsoft.FSharp.Quotations.DerivedPatternsModule</text>
</g>
<!-- Microsoft.FSharp.Quotations.DerivedPatternsModule&#45;&gt;Microsoft.FSharp.Core.Unit -->
<g id="edge26" class="edge"><title>Microsoft.FSharp.Quotations.DerivedPatternsModule&#45;&gt;Microsoft.FSharp.Core.Unit</title>
<path fill="none" stroke="black" d="M245.677,-266.061C282.426,-309.783 383.554,-421.09 496,-467 588.5,-504.767 858.425,-453.43 944,-505 1059.75,-574.756 1122.41,-736.424 1143.63,-801.313"/>
<polygon fill="black" stroke="black" points="1140.31,-802.407 1146.69,-810.867 1146.98,-800.277 1140.31,-802.407"/>
</g>
<!-- Microsoft.FSharp.Quotations.DerivedPatternsModule&#45;&gt;Microsoft.FSharp.Quotations.FSharpExpr -->
<g id="edge27" class="edge"><title>Microsoft.FSharp.Quotations.DerivedPatternsModule&#45;&gt;Microsoft.FSharp.Quotations.FSharpExpr</title>
<path fill="none" stroke="black" d="M372.032,-234.907C401.246,-231.207 431.729,-226.615 460,-221 528.661,-207.364 605.679,-184.681 657.747,-168.213"/>
<polygon fill="black" stroke="black" points="659.027,-171.479 667.494,-165.111 656.904,-164.809 659.027,-171.479"/>
</g>
<!-- Microsoft.FSharp.Quotations.DerivedPatternsModule&#45;&gt;Microsoft.FSharp.Quotations.FSharpVar -->
<g id="edge28" class="edge"><title>Microsoft.FSharp.Quotations.DerivedPatternsModule&#45;&gt;Microsoft.FSharp.Quotations.FSharpVar</title>
<path fill="none" stroke="black" d="M400.46,-237.881C545.042,-228.712 758.382,-213.914 944,-196 974.168,-193.089 1006.73,-189.424 1036.94,-185.804"/>
<polygon fill="black" stroke="black" points="1037.58,-189.253 1047.09,-184.58 1036.74,-182.303 1037.58,-189.253"/>
</g>
<!-- Microsoft.FSharp.Quotations.ExprShapeModule -->
<g id="node30" class="node"><title>Microsoft.FSharp.Quotations.ExprShapeModule</title>
<ellipse fill="none" stroke="black" cx="230" cy="-194" rx="188.467" ry="18"/>
<text text-anchor="middle" x="230" y="-190.3" font-family="Times New Roman,serif" font-size="14.00">Microsoft.FSharp.Quotations.ExprShapeModule</text>
</g>
<!-- Microsoft.FSharp.Quotations.ExprShapeModule&#45;&gt;Microsoft.FSharp.Quotations.FSharpExpr -->
<g id="edge29" class="edge"><title>Microsoft.FSharp.Quotations.ExprShapeModule&#45;&gt;Microsoft.FSharp.Quotations.FSharpExpr</title>
<path fill="none" stroke="black" d="M364.671,-181.4C432.986,-174.96 515.916,-167.143 584.368,-160.691"/>
<polygon fill="black" stroke="black" points="584.731,-164.172 594.358,-159.749 584.074,-157.203 584.731,-164.172"/>
</g>
<!-- Microsoft.FSharp.Quotations.ExprShapeModule&#45;&gt;Microsoft.FSharp.Quotations.FSharpVar -->
<g id="edge30" class="edge"><title>Microsoft.FSharp.Quotations.ExprShapeModule&#45;&gt;Microsoft.FSharp.Quotations.FSharpVar</title>
<path fill="none" stroke="black" d="M412.685,-189.463C579.281,-185.302 823.953,-179.192 985.56,-175.156"/>
<polygon fill="black" stroke="black" points="985.691,-178.654 995.6,-174.906 985.516,-171.657 985.691,-178.654"/>
</g>
<!-- Microsoft.FSharp.Quotations.FSharpExpr`1 -->
<g id="node32" class="node"><title>Microsoft.FSharp.Quotations.FSharpExpr`1</title>
<ellipse fill="none" stroke="black" cx="230" cy="-140" rx="172.769" ry="18"/>
<text text-anchor="middle" x="230" y="-136.3" font-family="Times New Roman,serif" font-size="14.00">Microsoft.FSharp.Quotations.FSharpExpr`1</text>
</g>
<!-- Microsoft.FSharp.Quotations.FSharpExpr`1&#45;&gt;Microsoft.FSharp.Quotations.FSharpExpr -->
<g id="edge33" class="edge"><title>Microsoft.FSharp.Quotations.FSharpExpr`1&#45;&gt;Microsoft.FSharp.Quotations.FSharpExpr</title>
<path fill="none" stroke="black" d="M400.994,-142.787C448.117,-143.559 499.309,-144.399 546.57,-145.173"/>
<polygon fill="black" stroke="black" points="546.536,-148.673 556.592,-145.338 546.651,-141.674 546.536,-148.673"/>
</g>
<!-- Microsoft.FSharp.Quotations.PatternsModule -->
<g id="node33" class="node"><title>Microsoft.FSharp.Quotations.PatternsModule</title>
<ellipse fill="none" stroke="black" cx="230" cy="-86" rx="178.168" ry="18"/>
<text text-anchor="middle" x="230" y="-82.3" font-family="Times New Roman,serif" font-size="14.00">Microsoft.FSharp.Quotations.PatternsModule</text>
</g>
<!-- Microsoft.FSharp.Quotations.PatternsModule&#45;&gt;Microsoft.FSharp.Quotations.FSharpExpr -->
<g id="edge34" class="edge"><title>Microsoft.FSharp.Quotations.PatternsModule&#45;&gt;Microsoft.FSharp.Quotations.FSharpExpr</title>
<path fill="none" stroke="black" d="M348.428,-99.4576C384.259,-103.668 423.759,-108.415 460,-113 508.334,-119.115 561.684,-126.257 607.342,-132.489"/>
<polygon fill="black" stroke="black" points="606.881,-135.959 617.263,-133.846 607.829,-129.023 606.881,-135.959"/>
</g>
<!-- Microsoft.FSharp.Quotations.PatternsModule&#45;&gt;Microsoft.FSharp.Quotations.FSharpVar -->
<g id="edge35" class="edge"><title>Microsoft.FSharp.Quotations.PatternsModule&#45;&gt;Microsoft.FSharp.Quotations.FSharpVar</title>
<path fill="none" stroke="black" d="M402.091,-90.7207C579.081,-96.264 843.404,-106.569 944,-121 991.718,-127.845 1044.52,-140.603 1084.98,-151.517"/>
<polygon fill="black" stroke="black" points="1084.16,-154.921 1094.73,-154.175 1086,-148.168 1084.16,-154.921"/>
</g>
<!-- Microsoft.FSharp.Quotations.PatternsModule&#45;&gt;Microsoft.FSharp.Reflection.UnionCaseInfo -->
<g id="edge36" class="edge"><title>Microsoft.FSharp.Quotations.PatternsModule&#45;&gt;Microsoft.FSharp.Reflection.UnionCaseInfo</title>
<path fill="none" stroke="black" d="M403.423,-81.8813C566.264,-77.9915 809.424,-72.1831 974.052,-68.2506"/>
<polygon fill="black" stroke="black" points="974.375,-71.744 984.288,-68.0061 974.208,-64.746 974.375,-71.744"/>
</g>
<!-- Microsoft.FSharp.Reflection.FSharpValue -->
<g id="node34" class="node"><title>Microsoft.FSharp.Reflection.FSharpValue</title>
<ellipse fill="none" stroke="black" cx="720" cy="-18" rx="165.171" ry="18"/>
<text text-anchor="middle" x="720" y="-14.3" font-family="Times New Roman,serif" font-size="14.00">Microsoft.FSharp.Reflection.FSharpValue</text>
</g>
<!-- Microsoft.FSharp.Reflection.FSharpValue&#45;&gt;Microsoft.FSharp.Reflection.UnionCaseInfo -->
<g id="edge37" class="edge"><title>Microsoft.FSharp.Reflection.FSharpValue&#45;&gt;Microsoft.FSharp.Reflection.UnionCaseInfo</title>
<path fill="none" stroke="black" d="M838.488,-30.5393C895.156,-36.5874 963.314,-43.8618 1021.58,-50.0809"/>
<polygon fill="black" stroke="black" points="1021.28,-53.5681 1031.59,-51.1492 1022.02,-46.6076 1021.28,-53.5681"/>
</g>
</g>
</svg>
