<?xml version="1.0" encoding="UTF-8" standalone="no"?>
<!DOCTYPE svg PUBLIC "-//W3C//DTD SVG 1.1//EN"
 "http://www.w3.org/Graphics/SVG/1.1/DTD/svg11.dtd">
<!-- Generated by graphviz version 2.30.1 (20130214.1330)
 -->
<!-- Title: G Pages: 1 -->
<svg width="1352pt" height="476pt"
 viewBox="0.00 0.00 1352.00 476.00" xmlns="http://www.w3.org/2000/svg" xmlns:xlink="http://www.w3.org/1999/xlink">
<g id="graph0" class="graph" transform="scale(1 1) rotate(0) translate(4 472)">
<title>G</title>
<polygon fill="white" stroke="white" points="-4,5 -4,-472 1349,-472 1349,5 -4,5"/>
<!-- Microsoft.FSharp.Math.ComplexModule -->
<g id="node1" class="node"><title>Microsoft.FSharp.Math.ComplexModule</title>
<ellipse fill="none" stroke="black" cx="234" cy="-72" rx="160.572" ry="18"/>
<text text-anchor="middle" x="234" y="-68.3" font-family="Times New Roman,serif" font-size="14.00">Microsoft.FSharp.Math.ComplexModule</text>
</g>
<!-- Microsoft.FSharp.Math.Complex -->
<g id="node2" class="node"><title>Microsoft.FSharp.Math.Complex</title>
<ellipse fill="none" stroke="black" cx="724" cy="-45" rx="132.677" ry="18"/>
<text text-anchor="middle" x="724" y="-41.3" font-family="Times New Roman,serif" font-size="14.00">Microsoft.FSharp.Math.Complex</text>
</g>
<!-- Microsoft.FSharp.Math.ComplexModule&#45;&gt;Microsoft.FSharp.Math.Complex -->
<g id="edge1" class="edge"><title>Microsoft.FSharp.Math.ComplexModule&#45;&gt;Microsoft.FSharp.Math.Complex</title>
<path fill="none" stroke="black" d="M378.448,-64.0633C445.581,-60.349 525.023,-55.9536 590.698,-52.32"/>
<polygon fill="black" stroke="black" points="590.909,-55.8138 600.7,-51.7666 590.522,-48.8245 590.909,-55.8138"/>
</g>
<!-- Microsoft.FSharp.Math.ComplexTopLevelOperators -->
<g id="node3" class="node"><title>Microsoft.FSharp.Math.ComplexTopLevelOperators</title>
<ellipse fill="none" stroke="black" cx="234" cy="-18" rx="204.164" ry="18"/>
<text text-anchor="middle" x="234" y="-14.3" font-family="Times New Roman,serif" font-size="14.00">Microsoft.FSharp.Math.ComplexTopLevelOperators</text>
</g>
<!-- Microsoft.FSharp.Math.ComplexTopLevelOperators&#45;&gt;Microsoft.FSharp.Math.Complex -->
<g id="edge2" class="edge"><title>Microsoft.FSharp.Math.ComplexTopLevelOperators&#45;&gt;Microsoft.FSharp.Math.Complex</title>
<path fill="none" stroke="black" d="M407.394,-27.5382C467.685,-30.874 534.377,-34.5639 590.861,-37.689"/>
<polygon fill="black" stroke="black" points="590.743,-41.1878 600.921,-38.2456 591.13,-34.1985 590.743,-41.1878"/>
</g>
<!-- Microsoft.FSharp.Math.Instances -->
<g id="node4" class="node"><title>Microsoft.FSharp.Math.Instances</title>
<ellipse fill="none" stroke="black" cx="234" cy="-180" rx="133.776" ry="18"/>
<text text-anchor="middle" x="234" y="-176.3" font-family="Times New Roman,serif" font-size="14.00">Microsoft.FSharp.Math.Instances</text>
</g>
<!-- Microsoft.FSharp.Math.BigRational -->
<g id="node5" class="node"><title>Microsoft.FSharp.Math.BigRational</title>
<ellipse fill="none" stroke="black" cx="724" cy="-153" rx="141.875" ry="18"/>
<text text-anchor="middle" x="724" y="-149.3" font-family="Times New Roman,serif" font-size="14.00">Microsoft.FSharp.Math.BigRational</text>
</g>
<!-- Microsoft.FSharp.Math.Instances&#45;&gt;Microsoft.FSharp.Math.BigRational -->
<g id="edge3" class="edge"><title>Microsoft.FSharp.Math.Instances&#45;&gt;Microsoft.FSharp.Math.BigRational</title>
<path fill="none" stroke="black" d="M358.143,-173.187C426.769,-169.39 512.458,-164.649 583.547,-160.716"/>
<polygon fill="black" stroke="black" points="584.134,-164.189 593.926,-160.141 583.748,-157.199 584.134,-164.189"/>
</g>
<!-- Microsoft.FSharp.Math.NumericLiteralN -->
<g id="node6" class="node"><title>Microsoft.FSharp.Math.NumericLiteralN</title>
<ellipse fill="none" stroke="black" cx="234" cy="-126" rx="159.472" ry="18"/>
<text text-anchor="middle" x="234" y="-122.3" font-family="Times New Roman,serif" font-size="14.00">Microsoft.FSharp.Math.NumericLiteralN</text>
</g>
<!-- Microsoft.FSharp.Math.NumericLiteralN&#45;&gt;Microsoft.FSharp.Math.BigRational -->
<g id="edge4" class="edge"><title>Microsoft.FSharp.Math.NumericLiteralN&#45;&gt;Microsoft.FSharp.Math.BigRational</title>
<path fill="none" stroke="black" d="M377.462,-133.882C442.353,-137.472 518.906,-141.708 583.443,-145.279"/>
<polygon fill="black" stroke="black" points="583.515,-148.788 593.694,-145.846 583.902,-141.799 583.515,-148.788"/>
</g>
<!-- Microsoft.FSharp.Text.ArgInfo -->
<g id="node7" class="node"><title>Microsoft.FSharp.Text.ArgInfo</title>
<ellipse fill="none" stroke="black" cx="724" cy="-234" rx="126.178" ry="18"/>
<text text-anchor="middle" x="724" y="-230.3" font-family="Times New Roman,serif" font-size="14.00">Microsoft.FSharp.Text.ArgInfo</text>
</g>
<!-- Microsoft.FSharp.Text.ArgType -->
<g id="node8" class="node"><title>Microsoft.FSharp.Text.ArgType</title>
<ellipse fill="none" stroke="black" cx="1162" cy="-234" rx="129.977" ry="18"/>
<text text-anchor="middle" x="1162" y="-230.3" font-family="Times New Roman,serif" font-size="14.00">Microsoft.FSharp.Text.ArgType</text>
</g>
<!-- Microsoft.FSharp.Text.ArgInfo&#45;&gt;Microsoft.FSharp.Text.ArgType -->
<g id="edge5" class="edge"><title>Microsoft.FSharp.Text.ArgInfo&#45;&gt;Microsoft.FSharp.Text.ArgType</title>
<path fill="none" stroke="black" d="M850.232,-234C903.762,-234 966.467,-234 1021.48,-234"/>
<polygon fill="black" stroke="black" points="1021.66,-237.5 1031.66,-234 1021.65,-230.5 1021.66,-237.5"/>
</g>
<!-- Microsoft.FSharp.Text.ArgParser -->
<g id="node9" class="node"><title>Microsoft.FSharp.Text.ArgParser</title>
<ellipse fill="none" stroke="black" cx="234" cy="-234" rx="133.776" ry="18"/>
<text text-anchor="middle" x="234" y="-230.3" font-family="Times New Roman,serif" font-size="14.00">Microsoft.FSharp.Text.ArgParser</text>
</g>
<!-- Microsoft.FSharp.Text.ArgParser&#45;&gt;Microsoft.FSharp.Text.ArgInfo -->
<g id="edge6" class="edge"><title>Microsoft.FSharp.Text.ArgParser&#45;&gt;Microsoft.FSharp.Text.ArgInfo</title>
<path fill="none" stroke="black" d="M368.026,-234C436.215,-234 519.098,-234 587.621,-234"/>
<polygon fill="black" stroke="black" points="587.624,-237.5 597.623,-234 587.623,-230.5 587.624,-237.5"/>
</g>
<!-- Microsoft.FSharp.Text.Lexing.LexBuffer`1 -->
<g id="node10" class="node"><title>Microsoft.FSharp.Text.Lexing.LexBuffer`1</title>
<ellipse fill="none" stroke="black" cx="724" cy="-342" rx="168.17" ry="18"/>
<text text-anchor="middle" x="724" y="-338.3" font-family="Times New Roman,serif" font-size="14.00">Microsoft.FSharp.Text.Lexing.LexBuffer`1</text>
</g>
<!-- Microsoft.FSharp.Text.Lexing.Position -->
<g id="node11" class="node"><title>Microsoft.FSharp.Text.Lexing.Position</title>
<ellipse fill="none" stroke="black" cx="1162" cy="-315" rx="154.073" ry="18"/>
<text text-anchor="middle" x="1162" y="-311.3" font-family="Times New Roman,serif" font-size="14.00">Microsoft.FSharp.Text.Lexing.Position</text>
</g>
<!-- Microsoft.FSharp.Text.Lexing.LexBuffer`1&#45;&gt;Microsoft.FSharp.Text.Lexing.Position -->
<g id="edge7" class="edge"><title>Microsoft.FSharp.Text.Lexing.LexBuffer`1&#45;&gt;Microsoft.FSharp.Text.Lexing.Position</title>
<path fill="none" stroke="black" d="M870.182,-333.009C916.916,-330.115 968.694,-326.909 1015.45,-324.013"/>
<polygon fill="black" stroke="black" points="1015.9,-327.492 1025.66,-323.381 1015.47,-320.506 1015.9,-327.492"/>
</g>
<!-- Microsoft.FSharp.Text.Parsing.IParseState -->
<g id="node12" class="node"><title>Microsoft.FSharp.Text.Parsing.IParseState</title>
<ellipse fill="none" stroke="black" cx="724" cy="-288" rx="167.87" ry="18"/>
<text text-anchor="middle" x="724" y="-284.3" font-family="Times New Roman,serif" font-size="14.00">Microsoft.FSharp.Text.Parsing.IParseState</text>
</g>
<!-- Microsoft.FSharp.Text.Parsing.IParseState&#45;&gt;Microsoft.FSharp.Text.Lexing.Position -->
<g id="edge8" class="edge"><title>Microsoft.FSharp.Text.Parsing.IParseState&#45;&gt;Microsoft.FSharp.Text.Lexing.Position</title>
<path fill="none" stroke="black" d="M869.576,-296.953C916.456,-299.856 968.466,-303.077 1015.42,-305.985"/>
<polygon fill="black" stroke="black" points="1015.47,-309.495 1025.67,-306.619 1015.9,-302.508 1015.47,-309.495"/>
</g>
<!-- Microsoft.FSharp.Text.Parsing.ParseErrorContext`1 -->
<g id="node13" class="node"><title>Microsoft.FSharp.Text.Parsing.ParseErrorContext`1</title>
<ellipse fill="none" stroke="black" cx="234" cy="-288" rx="202.264" ry="18"/>
<text text-anchor="middle" x="234" y="-284.3" font-family="Times New Roman,serif" font-size="14.00">Microsoft.FSharp.Text.Parsing.ParseErrorContext`1</text>
</g>
<!-- Microsoft.FSharp.Text.Parsing.ParseErrorContext`1&#45;&gt;Microsoft.FSharp.Text.Parsing.IParseState -->
<g id="edge9" class="edge"><title>Microsoft.FSharp.Text.Parsing.ParseErrorContext`1&#45;&gt;Microsoft.FSharp.Text.Parsing.IParseState</title>
<path fill="none" stroke="black" d="M436.306,-288C472.784,-288 510.576,-288 546.282,-288"/>
<polygon fill="black" stroke="black" points="546.295,-291.5 556.295,-288 546.295,-284.5 546.295,-291.5"/>
</g>
<!-- Microsoft.FSharp.Text.StructuredFormat.DisplayModule -->
<g id="node14" class="node"><title>Microsoft.FSharp.Text.StructuredFormat.DisplayModule</title>
<ellipse fill="none" stroke="black" cx="234" cy="-450" rx="219.861" ry="18"/>
<text text-anchor="middle" x="234" y="-446.3" font-family="Times New Roman,serif" font-size="14.00">Microsoft.FSharp.Text.StructuredFormat.DisplayModule</text>
</g>
<!-- Microsoft.FSharp.Text.StructuredFormat.FormatOptions -->
<g id="node15" class="node"><title>Microsoft.FSharp.Text.StructuredFormat.FormatOptions</title>
<ellipse fill="none" stroke="black" cx="724" cy="-450" rx="219.861" ry="18"/>
<text text-anchor="middle" x="724" y="-446.3" font-family="Times New Roman,serif" font-size="14.00">Microsoft.FSharp.Text.StructuredFormat.FormatOptions</text>
</g>
<!-- Microsoft.FSharp.Text.StructuredFormat.DisplayModule&#45;&gt;Microsoft.FSharp.Text.StructuredFormat.FormatOptions -->
<g id="edge10" class="edge"><title>Microsoft.FSharp.Text.StructuredFormat.DisplayModule&#45;&gt;Microsoft.FSharp.Text.StructuredFormat.FormatOptions</title>
<path fill="none" stroke="black" d="M454.019,-450C467.245,-450 480.569,-450 493.834,-450"/>
<polygon fill="black" stroke="black" points="493.965,-453.5 503.965,-450 493.965,-446.5 493.965,-453.5"/>
</g>
<!-- Microsoft.FSharp.Text.StructuredFormat.Layout -->
<g id="node16" class="node"><title>Microsoft.FSharp.Text.StructuredFormat.Layout</title>
<ellipse fill="none" stroke="black" cx="724" cy="-396" rx="189.567" ry="18"/>
<text text-anchor="middle" x="724" y="-392.3" font-family="Times New Roman,serif" font-size="14.00">Microsoft.FSharp.Text.StructuredFormat.Layout</text>
</g>
<!-- Microsoft.FSharp.Text.StructuredFormat.DisplayModule&#45;&gt;Microsoft.FSharp.Text.StructuredFormat.Layout -->
<g id="edge11" class="edge"><title>Microsoft.FSharp.Text.StructuredFormat.DisplayModule&#45;&gt;Microsoft.FSharp.Text.StructuredFormat.Layout</title>
<path fill="none" stroke="black" d="M365.454,-435.564C434.749,-427.897 519.767,-418.489 589.512,-410.771"/>
<polygon fill="black" stroke="black" points="590.134,-414.224 599.688,-409.645 589.364,-407.266 590.134,-414.224"/>
</g>
<!-- Microsoft.FSharp.Text.StructuredFormat.Joint -->
<g id="node18" class="node"><title>Microsoft.FSharp.Text.StructuredFormat.Joint</title>
<ellipse fill="none" stroke="black" cx="1162" cy="-396" rx="181.168" ry="18"/>
<text text-anchor="middle" x="1162" y="-392.3" font-family="Times New Roman,serif" font-size="14.00">Microsoft.FSharp.Text.StructuredFormat.Joint</text>
</g>
<!-- Microsoft.FSharp.Text.StructuredFormat.Layout&#45;&gt;Microsoft.FSharp.Text.StructuredFormat.Joint -->
<g id="edge13" class="edge"><title>Microsoft.FSharp.Text.StructuredFormat.Layout&#45;&gt;Microsoft.FSharp.Text.StructuredFormat.Joint</title>
<path fill="none" stroke="black" d="M914.017,-396C932.731,-396 951.736,-396 970.466,-396"/>
<polygon fill="black" stroke="black" points="970.535,-399.5 980.535,-396 970.535,-392.5 970.535,-399.5"/>
</g>
<!-- Microsoft.FSharp.Text.StructuredFormat.IEnvironment -->
<g id="node17" class="node"><title>Microsoft.FSharp.Text.StructuredFormat.IEnvironment</title>
<ellipse fill="none" stroke="black" cx="234" cy="-396" rx="213.362" ry="18"/>
<text text-anchor="middle" x="234" y="-392.3" font-family="Times New Roman,serif" font-size="14.00">Microsoft.FSharp.Text.StructuredFormat.IEnvironment</text>
</g>
<!-- Microsoft.FSharp.Text.StructuredFormat.IEnvironment&#45;&gt;Microsoft.FSharp.Text.StructuredFormat.Layout -->
<g id="edge12" class="edge"><title>Microsoft.FSharp.Text.StructuredFormat.IEnvironment&#45;&gt;Microsoft.FSharp.Text.StructuredFormat.Layout</title>
<path fill="none" stroke="black" d="M447.27,-396C472.797,-396 498.796,-396 524.124,-396"/>
<polygon fill="black" stroke="black" points="524.171,-399.5 534.171,-396 524.171,-392.5 524.171,-399.5"/>
</g>
<!-- Microsoft.FSharp.Text.StructuredFormat.LayoutOpsModule -->
<g id="node19" class="node"><title>Microsoft.FSharp.Text.StructuredFormat.LayoutOpsModule</title>
<ellipse fill="none" stroke="black" cx="234" cy="-342" rx="233.159" ry="18"/>
<text text-anchor="middle" x="234" y="-338.3" font-family="Times New Roman,serif" font-size="14.00">Microsoft.FSharp.Text.StructuredFormat.LayoutOpsModule</text>
</g>
<!-- Microsoft.FSharp.Text.StructuredFormat.LayoutOpsModule&#45;&gt;Microsoft.FSharp.Text.StructuredFormat.Layout -->
<g id="edge14" class="edge"><title>Microsoft.FSharp.Text.StructuredFormat.LayoutOpsModule&#45;&gt;Microsoft.FSharp.Text.StructuredFormat.Layout</title>
<path fill="none" stroke="black" d="M368.348,-356.756C437.206,-364.375 520.979,-373.645 589.813,-381.262"/>
<polygon fill="black" stroke="black" points="589.533,-384.752 599.857,-382.374 590.303,-377.795 589.533,-384.752"/>
</g>
</g>
</svg>
