<?xml version="1.0" encoding="UTF-8" standalone="no"?>
<!DOCTYPE svg PUBLIC "-//W3C//DTD SVG 1.1//EN"
 "http://www.w3.org/Graphics/SVG/1.1/DTD/svg11.dtd">
<!-- Generated by graphviz version 2.30.1 (20130214.1330)
 -->
<!-- Title: G Pages: 1 -->
<svg width="1040pt" height="306pt"
 viewBox="0.00 0.00 1040.00 306.00" xmlns="http://www.w3.org/2000/svg" xmlns:xlink="http://www.w3.org/1999/xlink">
<g id="graph0" class="graph" transform="scale(1 1) rotate(0) translate(4 302)">
<title>G</title>
<polygon fill="white" stroke="white" points="-4,5 -4,-302 1037,-302 1037,5 -4,5"/>
<!-- FsSqlImpl.DictDataRecord -->
<g id="node1" class="node"><title>FsSqlImpl.DictDataRecord</title>
<ellipse fill="none" stroke="black" cx="743" cy="-272" rx="110.48" ry="18"/>
<text text-anchor="middle" x="743" y="-268.3" font-family="Times New Roman,serif" font-size="14.00">FsSqlImpl.DictDataRecord</text>
</g>
<!-- FsSqlImpl.Entry -->
<g id="node2" class="node"><title>FsSqlImpl.Entry</title>
<ellipse fill="none" stroke="black" cx="961" cy="-280" rx="70.6878" ry="18"/>
<text text-anchor="middle" x="961" y="-276.3" font-family="Times New Roman,serif" font-size="14.00">FsSqlImpl.Entry</text>
</g>
<!-- FsSqlImpl.DictDataRecord&#45;&gt;FsSqlImpl.Entry -->
<g id="edge1" class="edge"><title>FsSqlImpl.DictDataRecord&#45;&gt;FsSqlImpl.Entry</title>
<path fill="none" stroke="black" d="M851.051,-275.965C860.945,-276.331 870.849,-276.698 880.432,-277.053"/>
<polygon fill="black" stroke="black" points="880.566,-280.56 890.689,-277.433 880.825,-273.565 880.566,-280.56"/>
</g>
<!-- Option -->
<g id="node3" class="node"><title>Option</title>
<ellipse fill="none" stroke="black" cx="961" cy="-226" rx="36.2938" ry="18"/>
<text text-anchor="middle" x="961" y="-222.3" font-family="Times New Roman,serif" font-size="14.00">Option</text>
</g>
<!-- FsSqlImpl.DictDataRecord&#45;&gt;Option -->
<g id="edge2" class="edge"><title>FsSqlImpl.DictDataRecord&#45;&gt;Option</title>
<path fill="none" stroke="black" d="M810.865,-257.76C845.595,-250.364 886.999,-241.547 917.358,-235.081"/>
<polygon fill="black" stroke="black" points="918.154,-238.49 927.205,-232.984 916.696,-231.644 918.154,-238.49"/>
</g>
<!-- FsSqlOOWrapper -->
<g id="node4" class="node"><title>FsSqlOOWrapper</title>
<ellipse fill="none" stroke="black" cx="78" cy="-153" rx="77.9862" ry="18"/>
<text text-anchor="middle" x="78" y="-149.3" font-family="Times New Roman,serif" font-size="14.00">FsSqlOOWrapper</text>
</g>
<!-- SqlModule -->
<g id="node5" class="node"><title>SqlModule</title>
<ellipse fill="none" stroke="black" cx="243" cy="-126" rx="50.8918" ry="18"/>
<text text-anchor="middle" x="243" y="-122.3" font-family="Times New Roman,serif" font-size="14.00">SqlModule</text>
</g>
<!-- FsSqlOOWrapper&#45;&gt;SqlModule -->
<g id="edge3" class="edge"><title>FsSqlOOWrapper&#45;&gt;SqlModule</title>
<path fill="none" stroke="black" d="M142.02,-142.561C156.726,-140.125 172.28,-137.549 186.626,-135.172"/>
<polygon fill="black" stroke="black" points="187.535,-138.57 196.829,-133.482 186.391,-131.664 187.535,-138.57"/>
</g>
<!-- SqlModule&#45;&gt;Option -->
<g id="edge7" class="edge"><title>SqlModule&#45;&gt;Option</title>
<path fill="none" stroke="black" d="M256.215,-143.458C271.078,-163.048 298.167,-193.81 330,-207 435.578,-250.745 788.284,-235.754 914.553,-228.752"/>
<polygon fill="black" stroke="black" points="914.868,-232.24 924.655,-228.182 914.473,-225.251 914.868,-232.24"/>
</g>
<!-- Seq -->
<g id="node8" class="node"><title>Seq</title>
<ellipse fill="none" stroke="black" cx="463" cy="-272" rx="27" ry="18"/>
<text text-anchor="middle" x="463" y="-268.3" font-family="Times New Roman,serif" font-size="14.00">Seq</text>
</g>
<!-- SqlModule&#45;&gt;Seq -->
<g id="edge8" class="edge"><title>SqlModule&#45;&gt;Seq</title>
<path fill="none" stroke="black" d="M252.376,-143.699C265.337,-169.094 292.701,-215.501 330,-240 358.749,-258.883 397.591,-266.637 425.691,-269.813"/>
<polygon fill="black" stroke="black" points="425.595,-273.32 435.891,-270.82 426.283,-266.354 425.595,-273.32"/>
</g>
<!-- FsSql.Async -->
<g id="node9" class="node"><title>FsSql.Async</title>
<ellipse fill="none" stroke="black" cx="463" cy="-180" rx="57.6901" ry="18"/>
<text text-anchor="middle" x="463" y="-176.3" font-family="Times New Roman,serif" font-size="14.00">FsSql.Async</text>
</g>
<!-- SqlModule&#45;&gt;FsSql.Async -->
<g id="edge9" class="edge"><title>SqlModule&#45;&gt;FsSql.Async</title>
<path fill="none" stroke="black" d="M280.168,-138.261C295.443,-143.202 313.485,-148.731 330,-153 353.574,-159.094 379.802,-164.697 402.627,-169.2"/>
<polygon fill="black" stroke="black" points="402.033,-172.65 412.518,-171.125 403.37,-165.779 402.033,-172.65"/>
</g>
<!-- FsSqlImpl.DataReaderWrapper -->
<g id="node10" class="node"><title>FsSqlImpl.DataReaderWrapper</title>
<ellipse fill="none" stroke="black" cx="463" cy="-126" rx="126.178" ry="18"/>
<text text-anchor="middle" x="463" y="-122.3" font-family="Times New Roman,serif" font-size="14.00">FsSqlImpl.DataReaderWrapper</text>
</g>
<!-- SqlModule&#45;&gt;FsSqlImpl.DataReaderWrapper -->
<g id="edge10" class="edge"><title>SqlModule&#45;&gt;FsSqlImpl.DataReaderWrapper</title>
<path fill="none" stroke="black" d="M293.74,-126C303.849,-126 314.934,-126 326.439,-126"/>
<polygon fill="black" stroke="black" points="326.644,-129.5 336.644,-126 326.644,-122.5 326.644,-129.5"/>
</g>
<!-- FsSqlImpl.DbCommandWrapper -->
<g id="node11" class="node"><title>FsSqlImpl.DbCommandWrapper</title>
<ellipse fill="none" stroke="black" cx="463" cy="-72" rx="132.677" ry="18"/>
<text text-anchor="middle" x="463" y="-68.3" font-family="Times New Roman,serif" font-size="14.00">FsSqlImpl.DbCommandWrapper</text>
</g>
<!-- SqlModule&#45;&gt;FsSqlImpl.DbCommandWrapper -->
<g id="edge11" class="edge"><title>SqlModule&#45;&gt;FsSqlImpl.DbCommandWrapper</title>
<path fill="none" stroke="black" d="M280.168,-113.739C295.443,-108.798 313.485,-103.269 330,-99 344.168,-95.3372 359.295,-91.852 374.066,-88.6766"/>
<polygon fill="black" stroke="black" points="375.159,-92.0228 384.219,-86.5293 373.711,-85.1743 375.159,-92.0228"/>
</g>
<!-- FsSqlPrelude -->
<g id="node12" class="node"><title>FsSqlPrelude</title>
<ellipse fill="none" stroke="black" cx="463" cy="-18" rx="59.5901" ry="18"/>
<text text-anchor="middle" x="463" y="-14.3" font-family="Times New Roman,serif" font-size="14.00">FsSqlPrelude</text>
</g>
<!-- SqlModule&#45;&gt;FsSqlPrelude -->
<g id="edge12" class="edge"><title>SqlModule&#45;&gt;FsSqlPrelude</title>
<path fill="none" stroke="black" d="M257.488,-108.48C272.918,-89.7297 299.961,-60.586 330,-45 349.896,-34.6771 373.392,-28.2992 395.005,-24.3593"/>
<polygon fill="black" stroke="black" points="395.827,-27.7704 405.11,-22.6649 394.669,-20.8668 395.827,-27.7704"/>
</g>
<!-- FsSqlOperators -->
<g id="node6" class="node"><title>FsSqlOperators</title>
<ellipse fill="none" stroke="black" cx="78" cy="-99" rx="68.7879" ry="18"/>
<text text-anchor="middle" x="78" y="-95.3" font-family="Times New Roman,serif" font-size="14.00">FsSqlOperators</text>
</g>
<!-- FsSqlOperators&#45;&gt;SqlModule -->
<g id="edge4" class="edge"><title>FsSqlOperators&#45;&gt;SqlModule</title>
<path fill="none" stroke="black" d="M136.927,-108.595C153.065,-111.268 170.553,-114.165 186.546,-116.814"/>
<polygon fill="black" stroke="black" points="186.373,-120.333 196.81,-118.515 187.517,-113.427 186.373,-120.333"/>
</g>
<!-- List -->
<g id="node7" class="node"><title>List</title>
<ellipse fill="none" stroke="black" cx="243" cy="-272" rx="27" ry="18"/>
<text text-anchor="middle" x="243" y="-268.3" font-family="Times New Roman,serif" font-size="14.00">List</text>
</g>
<!-- List&#45;&gt;Seq -->
<g id="edge5" class="edge"><title>List&#45;&gt;Seq</title>
<path fill="none" stroke="black" d="M270.296,-272C309.109,-272 381.864,-272 425.725,-272"/>
<polygon fill="black" stroke="black" points="425.95,-275.5 435.95,-272 425.95,-268.5 425.95,-275.5"/>
</g>
<!-- Seq&#45;&gt;FsSqlImpl.DictDataRecord -->
<g id="edge6" class="edge"><title>Seq&#45;&gt;FsSqlImpl.DictDataRecord</title>
<path fill="none" stroke="black" d="M490.154,-272C520.629,-272 573.102,-272 622.289,-272"/>
<polygon fill="black" stroke="black" points="622.4,-275.5 632.4,-272 622.4,-268.5 622.4,-275.5"/>
</g>
<!-- Tx -->
<g id="node13" class="node"><title>Tx</title>
<ellipse fill="none" stroke="black" cx="78" cy="-38" rx="27" ry="18"/>
<text text-anchor="middle" x="78" y="-34.3" font-family="Times New Roman,serif" font-size="14.00">Tx</text>
</g>
<!-- Tx&#45;&gt;SqlModule -->
<g id="edge13" class="edge"><title>Tx&#45;&gt;SqlModule</title>
<path fill="none" stroke="black" d="M101.646,-46.9824C117.206,-53.3994 138.19,-62.5404 156,-72 174.523,-81.8385 194.403,-94.1949 210.379,-104.604"/>
<polygon fill="black" stroke="black" points="208.541,-107.585 218.819,-110.158 212.389,-101.737 208.541,-107.585"/>
</g>
<!-- Tx&#45;&gt;FsSqlPrelude -->
<g id="edge14" class="edge"><title>Tx&#45;&gt;FsSqlPrelude</title>
<path fill="none" stroke="black" d="M105.024,-36.641C163.592,-33.5827 307.357,-26.0754 393.516,-21.5762"/>
<polygon fill="black" stroke="black" points="393.924,-25.0597 403.728,-21.0429 393.559,-18.0693 393.924,-25.0597"/>
</g>
</g>
</svg>
