<?xml version="1.0" encoding="UTF-8" standalone="no"?>
<!DOCTYPE svg PUBLIC "-//W3C//DTD SVG 1.1//EN"
 "http://www.w3.org/Graphics/SVG/1.1/DTD/svg11.dtd">
<!-- Generated by graphviz version 2.30.1 (20130214.1330)
 -->
<!-- Title: G Pages: 1 -->
<svg width="604pt" height="273pt"
 viewBox="0.00 0.00 604.00 273.00" xmlns="http://www.w3.org/2000/svg" xmlns:xlink="http://www.w3.org/1999/xlink">
<g id="graph0" class="graph" transform="scale(1 1) rotate(0) translate(4 269)">
<title>G</title>
<polygon fill="white" stroke="white" points="-4,5 -4,-269 601,-269 601,5 -4,5"/>
<!-- FSharp.Control.AsyncSeqExtensions -->
<g id="node1" class="node"><title>FSharp.Control.AsyncSeqExtensions</title>
<ellipse fill="none" stroke="black" cx="154" cy="-18" rx="147.574" ry="18"/>
<text text-anchor="middle" x="154" y="-14.3" font-family="Times New Roman,serif" font-size="14.00">FSharp.Control.AsyncSeqExtensions</text>
</g>
<!-- FSharp.Control.AsyncSeq -->
<g id="node2" class="node"><title>FSharp.Control.AsyncSeq</title>
<ellipse fill="none" stroke="black" cx="470" cy="-18" rx="107.781" ry="18"/>
<text text-anchor="middle" x="470" y="-14.3" font-family="Times New Roman,serif" font-size="14.00">FSharp.Control.AsyncSeq</text>
</g>
<!-- FSharp.Control.AsyncSeqExtensions&#45;&gt;FSharp.Control.AsyncSeq -->
<g id="edge1" class="edge"><title>FSharp.Control.AsyncSeqExtensions&#45;&gt;FSharp.Control.AsyncSeq</title>
<path fill="none" stroke="black" d="M301.887,-18C318.674,-18 335.616,-18 351.94,-18"/>
<polygon fill="black" stroke="black" points="352.018,-21.5001 362.018,-18 352.018,-14.5001 352.018,-21.5001"/>
</g>
<!-- FSharpx.Collections.ByteStringModule -->
<g id="node3" class="node"><title>FSharpx.Collections.ByteStringModule</title>
<ellipse fill="none" stroke="black" cx="154" cy="-139" rx="153.273" ry="18"/>
<text text-anchor="middle" x="154" y="-135.3" font-family="Times New Roman,serif" font-size="14.00">FSharpx.Collections.ByteStringModule</text>
</g>
<!-- FSharpx.Collections.ByteString -->
<g id="node4" class="node"><title>FSharpx.Collections.ByteString</title>
<ellipse fill="none" stroke="black" cx="470" cy="-99" rx="126.178" ry="18"/>
<text text-anchor="middle" x="470" y="-95.3" font-family="Times New Roman,serif" font-size="14.00">FSharpx.Collections.ByteString</text>
</g>
<!-- FSharpx.Collections.ByteStringModule&#45;&gt;FSharpx.Collections.ByteString -->
<g id="edge2" class="edge"><title>FSharpx.Collections.ByteStringModule&#45;&gt;FSharpx.Collections.ByteString</title>
<path fill="none" stroke="black" d="M258.686,-125.792C292.91,-121.432 330.97,-116.583 365.202,-112.223"/>
<polygon fill="black" stroke="black" points="365.743,-115.682 375.221,-110.946 364.859,-108.738 365.743,-115.682"/>
</g>
<!-- FSharpx.DataStructures.BKTree -->
<g id="node5" class="node"><title>FSharpx.DataStructures.BKTree</title>
<ellipse fill="none" stroke="black" cx="154" cy="-85" rx="129.177" ry="18"/>
<text text-anchor="middle" x="154" y="-81.3" font-family="Times New Roman,serif" font-size="14.00">FSharpx.DataStructures.BKTree</text>
</g>
<!-- FSharpx.DataStructures.BKTree&#45;&gt;FSharpx.Collections.ByteString -->
<g id="edge3" class="edge"><title>FSharpx.DataStructures.BKTree&#45;&gt;FSharpx.Collections.ByteString</title>
<path fill="none" stroke="black" d="M277.3,-90.4529C297.647,-91.3601 318.814,-92.3038 339.337,-93.2188"/>
<polygon fill="black" stroke="black" points="339.208,-96.7165 349.354,-93.6655 339.52,-89.7234 339.208,-96.7165"/>
</g>
<!-- FSharpx.RegexModule -->
<g id="node6" class="node"><title>FSharpx.RegexModule</title>
<ellipse fill="none" stroke="black" cx="154" cy="-193" rx="94.7833" ry="18"/>
<text text-anchor="middle" x="154" y="-189.3" font-family="Times New Roman,serif" font-size="14.00">FSharpx.RegexModule</text>
</g>
<!-- FSharpx.ActiveMatch -->
<g id="node7" class="node"><title>FSharpx.ActiveMatch</title>
<ellipse fill="none" stroke="black" cx="470" cy="-193" rx="90.9839" ry="18"/>
<text text-anchor="middle" x="470" y="-189.3" font-family="Times New Roman,serif" font-size="14.00">FSharpx.ActiveMatch</text>
</g>
<!-- FSharpx.RegexModule&#45;&gt;FSharpx.ActiveMatch -->
<g id="edge4" class="edge"><title>FSharpx.RegexModule&#45;&gt;FSharpx.ActiveMatch</title>
<path fill="none" stroke="black" d="M249.21,-193C286.936,-193 330.453,-193 368.76,-193"/>
<polygon fill="black" stroke="black" points="368.897,-196.5 378.897,-193 368.897,-189.5 368.897,-196.5"/>
</g>
<!-- FSharpx.Undo -->
<g id="node8" class="node"><title>FSharpx.Undo</title>
<ellipse fill="none" stroke="black" cx="154" cy="-247" rx="64.9885" ry="18"/>
<text text-anchor="middle" x="154" y="-243.3" font-family="Times New Roman,serif" font-size="14.00">FSharpx.Undo</text>
</g>
<!-- FSharpx.State -->
<g id="node9" class="node"><title>FSharpx.State</title>
<ellipse fill="none" stroke="black" cx="470" cy="-247" rx="62.2891" ry="18"/>
<text text-anchor="middle" x="470" y="-243.3" font-family="Times New Roman,serif" font-size="14.00">FSharpx.State</text>
</g>
<!-- FSharpx.Undo&#45;&gt;FSharpx.State -->
<g id="edge5" class="edge"><title>FSharpx.Undo&#45;&gt;FSharpx.State</title>
<path fill="none" stroke="black" d="M219.3,-247C271.048,-247 343.729,-247 397.34,-247"/>
<polygon fill="black" stroke="black" points="397.457,-250.5 407.457,-247 397.457,-243.5 397.457,-250.5"/>
</g>
</g>
</svg>
