<?xml version="1.0" encoding="UTF-8" standalone="no"?>
<!DOCTYPE svg PUBLIC "-//W3C//DTD SVG 1.1//EN"
 "http://www.w3.org/Graphics/SVG/1.1/DTD/svg11.dtd">
<!-- Generated by graphviz version 2.30.1 (20130214.1330)
 -->
<!-- Title: G Pages: 1 -->
<svg width="516pt" height="161pt"
 viewBox="0.00 0.00 516.00 161.00" xmlns="http://www.w3.org/2000/svg" xmlns:xlink="http://www.w3.org/1999/xlink">
<g id="graph0" class="graph" transform="scale(1 1) rotate(0) translate(4 157.004)">
<title>G</title>
<polygon fill="white" stroke="white" points="-4,5 -4,-157.004 513,-157.004 513,5 -4,5"/>
<!-- ReflectionUtils -->
<g id="node1" class="node"><title>ReflectionUtils</title>
<ellipse fill="none" stroke="black" cx="315" cy="-110" rx="64.189" ry="18"/>
<text text-anchor="middle" x="315" y="-106.3" font-family="Times New Roman,serif" font-size="14.00">ReflectionUtils</text>
</g>
<!-- Attributes -->
<g id="node2" class="node"><title>Attributes</title>
<ellipse fill="none" stroke="black" cx="462" cy="-118" rx="46.2923" ry="18"/>
<text text-anchor="middle" x="462" y="-114.3" font-family="Times New Roman,serif" font-size="14.00">Attributes</text>
</g>
<!-- ReflectionUtils&#45;&gt;Attributes -->
<g id="edge1" class="edge"><title>ReflectionUtils&#45;&gt;Attributes</title>
<path fill="none" stroke="black" d="M378.335,-113.439C387.592,-113.95 397.076,-114.473 406.164,-114.975"/>
<polygon fill="black" stroke="black" points="406.048,-118.473 416.225,-115.53 406.434,-111.484 406.048,-118.473"/>
</g>
<!-- Patterns -->
<g id="node3" class="node"><title>Patterns</title>
<ellipse fill="none" stroke="black" cx="462" cy="-64" rx="40.0939" ry="18"/>
<text text-anchor="middle" x="462" y="-60.3" font-family="Times New Roman,serif" font-size="14.00">Patterns</text>
</g>
<!-- ReflectionUtils&#45;&gt;Patterns -->
<g id="edge2" class="edge"><title>ReflectionUtils&#45;&gt;Patterns</title>
<path fill="none" stroke="black" d="M358.33,-96.5712C377.407,-90.5192 399.876,-83.391 418.923,-77.3486"/>
<polygon fill="black" stroke="black" points="420.062,-80.6592 428.535,-74.2991 417.945,-73.9869 420.062,-80.6592"/>
</g>
<!-- Str -->
<g id="node4" class="node"><title>Str</title>
<ellipse fill="none" stroke="black" cx="315" cy="-18" rx="27" ry="18"/>
<text text-anchor="middle" x="315" y="-14.3" font-family="Times New Roman,serif" font-size="14.00">Str</text>
</g>
<!-- Str&#45;&gt;Patterns -->
<g id="edge3" class="edge"><title>Str&#45;&gt;Patterns</title>
<path fill="none" stroke="black" d="M339.619,-25.4931C361.109,-32.3105 393.324,-42.5304 419.166,-50.7286"/>
<polygon fill="black" stroke="black" points="418.132,-54.0725 428.723,-53.7603 420.249,-47.4002 418.132,-54.0725"/>
</g>
<!-- Yaml -->
<g id="node5" class="node"><title>Yaml</title>
<ellipse fill="none" stroke="black" cx="30" cy="-91" rx="29.795" ry="18"/>
<text text-anchor="middle" x="30" y="-87.3" font-family="Times New Roman,serif" font-size="14.00">Yaml</text>
</g>
<!-- YamlDumper -->
<g id="node6" class="node"><title>YamlDumper</title>
<ellipse fill="none" stroke="black" cx="155" cy="-118" rx="59.2899" ry="18"/>
<text text-anchor="middle" x="155" y="-114.3" font-family="Times New Roman,serif" font-size="14.00">YamlDumper</text>
</g>
<!-- Yaml&#45;&gt;YamlDumper -->
<g id="edge4" class="edge"><title>Yaml&#45;&gt;YamlDumper</title>
<path fill="none" stroke="black" d="M58.2977,-96.9922C69.5775,-99.4682 83.108,-102.438 96.395,-105.355"/>
<polygon fill="black" stroke="black" points="95.9491,-108.84 106.467,-107.566 97.45,-102.003 95.9491,-108.84"/>
</g>
<!-- YamlParser -->
<g id="node7" class="node"><title>YamlParser</title>
<ellipse fill="none" stroke="black" cx="155" cy="-64" rx="52.7911" ry="18"/>
<text text-anchor="middle" x="155" y="-60.3" font-family="Times New Roman,serif" font-size="14.00">YamlParser</text>
</g>
<!-- Yaml&#45;&gt;YamlParser -->
<g id="edge5" class="edge"><title>Yaml&#45;&gt;YamlParser</title>
<path fill="none" stroke="black" d="M58.2977,-85.0078C70.7187,-82.2813 85.8689,-78.9556 100.418,-75.7619"/>
<polygon fill="black" stroke="black" points="101.336,-79.1437 110.353,-73.5809 99.8356,-72.3065 101.336,-79.1437"/>
</g>
<!-- YamlDumper&#45;&gt;ReflectionUtils -->
<g id="edge6" class="edge"><title>YamlDumper&#45;&gt;ReflectionUtils</title>
<path fill="none" stroke="black" d="M213.489,-115.089C222.56,-114.63 232.041,-114.15 241.402,-113.676"/>
<polygon fill="black" stroke="black" points="241.677,-117.167 251.487,-113.165 241.323,-110.175 241.677,-117.167"/>
</g>
<!-- YamlDumper&#45;&gt;Patterns -->
<g id="edge7" class="edge"><title>YamlDumper&#45;&gt;Patterns</title>
<path fill="none" stroke="black" d="M192.229,-132.023C238.345,-147.5 319.302,-166.574 380,-137 403.338,-125.629 396.544,-108.188 416,-91 419.149,-88.2177 422.625,-85.5615 426.206,-83.0763"/>
<polygon fill="black" stroke="black" points="428.16,-85.981 434.653,-77.6088 424.356,-80.1046 428.16,-85.981"/>
</g>
<!-- YamlParser&#45;&gt;ReflectionUtils -->
<g id="edge8" class="edge"><title>YamlParser&#45;&gt;ReflectionUtils</title>
<path fill="none" stroke="black" d="M195.87,-75.6077C215.284,-81.26 238.917,-88.1403 259.928,-94.2575"/>
<polygon fill="black" stroke="black" points="259.106,-97.6636 269.686,-97.0985 261.063,-90.9426 259.106,-97.6636"/>
</g>
<!-- YamlParser&#45;&gt;Patterns -->
<g id="edge9" class="edge"><title>YamlParser&#45;&gt;Patterns</title>
<path fill="none" stroke="black" d="M207.739,-64C264.699,-64 355.603,-64 411.609,-64"/>
<polygon fill="black" stroke="black" points="411.644,-67.5001 421.644,-64 411.644,-60.5001 411.644,-67.5001"/>
</g>
<!-- YamlParser&#45;&gt;Str -->
<g id="edge10" class="edge"><title>YamlParser&#45;&gt;Str</title>
<path fill="none" stroke="black" d="M195.87,-52.3923C221.903,-44.8131 255.52,-35.0258 280.232,-27.8313"/>
<polygon fill="black" stroke="black" points="281.273,-31.1736 289.896,-25.0177 279.316,-24.4526 281.273,-31.1736"/>
</g>
</g>
</svg>
