<?xml version="1.0" encoding="UTF-8" standalone="no"?>
<!DOCTYPE svg PUBLIC "-//W3C//DTD SVG 1.1//EN"
 "http://www.w3.org/Graphics/SVG/1.1/DTD/svg11.dtd">
<!-- Generated by graphviz version 2.30.1 (20130214.1330)
 -->
<!-- Title: G Pages: 1 -->
<svg width="256pt" height="152pt"
 viewBox="0.00 0.00 256.00 152.00" xmlns="http://www.w3.org/2000/svg" xmlns:xlink="http://www.w3.org/1999/xlink">
<g id="graph0" class="graph" transform="scale(1 1) rotate(0) translate(4 148)">
<title>G</title>
<polygon fill="white" stroke="white" points="-4,5 -4,-148 253,-148 253,5 -4,5"/>
<!-- ReflectionUtils -->
<g id="node1" class="node"><title>ReflectionUtils</title>
<ellipse fill="none" stroke="black" cx="65" cy="-126" rx="64.189" ry="18"/>
<text text-anchor="middle" x="65" y="-122.3" font-family="Times New Roman,serif" font-size="14.00">ReflectionUtils</text>
</g>
<!-- Patterns -->
<g id="node2" class="node"><title>Patterns</title>
<ellipse fill="none" stroke="black" cx="207" cy="-72" rx="40.0939" ry="18"/>
<text text-anchor="middle" x="207" y="-68.3" font-family="Times New Roman,serif" font-size="14.00">Patterns</text>
</g>
<!-- ReflectionUtils&#45;&gt;Patterns -->
<g id="edge1" class="edge"><title>ReflectionUtils&#45;&gt;Patterns</title>
<path fill="none" stroke="black" d="M103.517,-111.529C123.007,-104.012 146.813,-94.8292 166.574,-87.2073"/>
<polygon fill="black" stroke="black" points="167.842,-90.4694 175.913,-83.6051 165.323,-83.9384 167.842,-90.4694"/>
</g>
<!-- Str -->
<g id="node3" class="node"><title>Str</title>
<ellipse fill="none" stroke="black" cx="65" cy="-72" rx="27" ry="18"/>
<text text-anchor="middle" x="65" y="-68.3" font-family="Times New Roman,serif" font-size="14.00">Str</text>
</g>
<!-- Str&#45;&gt;Patterns -->
<g id="edge2" class="edge"><title>Str&#45;&gt;Patterns</title>
<path fill="none" stroke="black" d="M92.0048,-72C110.095,-72 134.778,-72 156.55,-72"/>
<polygon fill="black" stroke="black" points="156.638,-75.5001 166.638,-72 156.638,-68.5001 156.638,-75.5001"/>
</g>
<!-- YamlParser -->
<g id="node4" class="node"><title>YamlParser</title>
<ellipse fill="none" stroke="black" cx="65" cy="-18" rx="52.7911" ry="18"/>
<text text-anchor="middle" x="65" y="-14.3" font-family="Times New Roman,serif" font-size="14.00">YamlParser</text>
</g>
<!-- YamlParser&#45;&gt;Patterns -->
<g id="edge3" class="edge"><title>YamlParser&#45;&gt;Patterns</title>
<path fill="none" stroke="black" d="M100.607,-31.3483C120.599,-39.0595 145.818,-48.7868 166.573,-56.7926"/>
<polygon fill="black" stroke="black" points="165.471,-60.1186 176.06,-60.4519 167.99,-53.5876 165.471,-60.1186"/>
</g>
</g>
</svg>
