<?xml version="1.0" encoding="UTF-8" standalone="no"?>
<!DOCTYPE svg PUBLIC "-//W3C//DTD SVG 1.1//EN"
 "http://www.w3.org/Graphics/SVG/1.1/DTD/svg11.dtd">
<!-- Generated by graphviz version 2.30.1 (20130214.1330)
 -->
<!-- Title: G Pages: 1 -->
<svg width="634pt" height="98pt"
 viewBox="0.00 0.00 634.00 98.00" xmlns="http://www.w3.org/2000/svg" xmlns:xlink="http://www.w3.org/1999/xlink">
<g id="graph0" class="graph" transform="scale(1 1) rotate(0) translate(4 94)">
<title>G</title>
<polygon fill="white" stroke="white" points="-4,5 -4,-94 631,-94 631,5 -4,5"/>
<!-- Nancy.Json.JavaScriptConverter -->
<g id="node1" class="node"><title>Nancy.Json.JavaScriptConverter</title>
<ellipse fill="none" stroke="black" cx="147" cy="-18" rx="129.177" ry="18"/>
<text text-anchor="middle" x="147" y="-14.3" font-family="Times New Roman,serif" font-size="14.00">Nancy.Json.JavaScriptConverter</text>
</g>
<!-- Nancy.Json.JavaScriptSerializer -->
<g id="node2" class="node"><title>Nancy.Json.JavaScriptSerializer</title>
<ellipse fill="none" stroke="black" cx="478" cy="-18" rx="126.178" ry="18"/>
<text text-anchor="middle" x="478" y="-14.3" font-family="Times New Roman,serif" font-size="14.00">Nancy.Json.JavaScriptSerializer</text>
</g>
<!-- Nancy.Json.JavaScriptConverter&#45;&gt;Nancy.Json.JavaScriptSerializer -->
<g id="edge1" class="edge"><title>Nancy.Json.JavaScriptConverter&#45;&gt;Nancy.Json.JavaScriptSerializer</title>
<path fill="none" stroke="black" d="M267.707,-11.4775C294.425,-11.1998 322.85,-11.1763 349.857,-11.4071"/>
<polygon fill="black" stroke="black" points="350.097,-14.9096 360.131,-11.5081 350.166,-7.90992 350.097,-14.9096"/>
</g>
<!-- Nancy.Json.JavaScriptSerializer&#45;&gt;Nancy.Json.JavaScriptConverter -->
<g id="edge2" class="edge"><title>Nancy.Json.JavaScriptSerializer&#45;&gt;Nancy.Json.JavaScriptConverter</title>
<path fill="none" stroke="black" d="M360.131,-24.4919C333.538,-24.7877 305.128,-24.8292 278.024,-24.6165"/>
<polygon fill="black" stroke="black" points="277.739,-21.1138 267.707,-24.5225 277.675,-28.1135 277.739,-21.1138"/>
</g>
<!-- Nancy.ModelBinding.BindingContext -->
<g id="node3" class="node"><title>Nancy.ModelBinding.BindingContext</title>
<ellipse fill="none" stroke="black" cx="147" cy="-72" rx="146.774" ry="18"/>
<text text-anchor="middle" x="147" y="-68.3" font-family="Times New Roman,serif" font-size="14.00">Nancy.ModelBinding.BindingContext</text>
</g>
<!-- Nancy.ModelBinding.ITypeConverter -->
<g id="node4" class="node"><title>Nancy.ModelBinding.ITypeConverter</title>
<ellipse fill="none" stroke="black" cx="478" cy="-72" rx="148.374" ry="18"/>
<text text-anchor="middle" x="478" y="-68.3" font-family="Times New Roman,serif" font-size="14.00">Nancy.ModelBinding.ITypeConverter</text>
</g>
<!-- Nancy.ModelBinding.BindingContext&#45;&gt;Nancy.ModelBinding.ITypeConverter -->
<g id="edge3" class="edge"><title>Nancy.ModelBinding.BindingContext&#45;&gt;Nancy.ModelBinding.ITypeConverter</title>
<path fill="none" stroke="black" d="M283.716,-65.3427C299.035,-65.2431 314.697,-65.2238 330.149,-65.2847"/>
<polygon fill="black" stroke="black" points="330.25,-68.7851 340.268,-65.3362 330.286,-61.7852 330.25,-68.7851"/>
</g>
<!-- Nancy.ModelBinding.ITypeConverter&#45;&gt;Nancy.ModelBinding.BindingContext -->
<g id="edge4" class="edge"><title>Nancy.ModelBinding.ITypeConverter&#45;&gt;Nancy.ModelBinding.BindingContext</title>
<path fill="none" stroke="black" d="M340.268,-78.6638C324.934,-78.7598 309.269,-78.7756 293.826,-78.7112"/>
<polygon fill="black" stroke="black" points="293.735,-75.2108 283.716,-78.6573 293.698,-82.2107 293.735,-75.2108"/>
</g>
</g>
</svg>
