<?xml version="1.0" encoding="UTF-8" standalone="no"?>
<!DOCTYPE svg PUBLIC "-//W3C//DTD SVG 1.1//EN"
 "http://www.w3.org/Graphics/SVG/1.1/DTD/svg11.dtd">
<!-- Generated by graphviz version 2.30.1 (20130214.1330)
 -->
<!-- Title: G Pages: 1 -->
<svg width="152pt" height="206pt"
 viewBox="0.00 0.00 152.00 206.00" xmlns="http://www.w3.org/2000/svg" xmlns:xlink="http://www.w3.org/1999/xlink">
<g id="graph0" class="graph" transform="scale(1 1) rotate(0) translate(4 202)">
<title>G</title>
<polygon fill="white" stroke="white" points="-4,5 -4,-202 149,-202 149,5 -4,5"/>
<!-- agi -->
<g id="node1" class="node"><title>agi</title>
<ellipse fill="none" stroke="black" cx="27" cy="-18" rx="27" ry="18"/>
<text text-anchor="middle" x="27" y="-14.3" font-family="Times New Roman,serif" font-size="14.00">agi</text>
</g>
<!-- pd -->
<g id="node2" class="node"><title>pd</title>
<ellipse fill="none" stroke="black" cx="117" cy="-18" rx="27" ry="18"/>
<text text-anchor="middle" x="117" y="-14.3" font-family="Times New Roman,serif" font-size="14.00">pd</text>
</g>
<!-- agi&#45;&gt;pd -->
<g id="edge1" class="edge"><title>agi&#45;&gt;pd</title>
<path fill="none" stroke="black" d="M54.4029,-18C62.3932,-18 71.3106,-18 79.8241,-18"/>
<polygon fill="black" stroke="black" points="79.919,-21.5001 89.919,-18 79.919,-14.5001 79.919,-21.5001"/>
</g>
<!-- ak -->
<g id="node3" class="node"><title>ak</title>
<ellipse fill="none" stroke="black" cx="27" cy="-72" rx="27" ry="18"/>
<text text-anchor="middle" x="27" y="-68.3" font-family="Times New Roman,serif" font-size="14.00">ak</text>
</g>
<!-- atb -->
<g id="node4" class="node"><title>atb</title>
<ellipse fill="none" stroke="black" cx="117" cy="-72" rx="27" ry="18"/>
<text text-anchor="middle" x="117" y="-68.3" font-family="Times New Roman,serif" font-size="14.00">atb</text>
</g>
<!-- ak&#45;&gt;atb -->
<g id="edge2" class="edge"><title>ak&#45;&gt;atb</title>
<path fill="none" stroke="black" d="M54.4029,-72C62.3932,-72 71.3106,-72 79.8241,-72"/>
<polygon fill="black" stroke="black" points="79.919,-75.5001 89.919,-72 79.919,-68.5001 79.919,-75.5001"/>
</g>
<!-- e0 -->
<g id="node5" class="node"><title>e0</title>
<ellipse fill="none" stroke="black" cx="27" cy="-126" rx="27" ry="18"/>
<text text-anchor="middle" x="27" y="-122.3" font-family="Times New Roman,serif" font-size="14.00">e0</text>
</g>
<!-- afh -->
<g id="node6" class="node"><title>afh</title>
<ellipse fill="none" stroke="black" cx="117" cy="-126" rx="27" ry="18"/>
<text text-anchor="middle" x="117" y="-122.3" font-family="Times New Roman,serif" font-size="14.00">afh</text>
</g>
<!-- e0&#45;&gt;afh -->
<g id="edge3" class="edge"><title>e0&#45;&gt;afh</title>
<path fill="none" stroke="black" d="M54.4029,-126C62.3932,-126 71.3106,-126 79.8241,-126"/>
<polygon fill="black" stroke="black" points="79.919,-129.5 89.919,-126 79.919,-122.5 79.919,-129.5"/>
</g>
<!-- gu -->
<g id="node7" class="node"><title>gu</title>
<ellipse fill="none" stroke="black" cx="27" cy="-180" rx="27" ry="18"/>
<text text-anchor="middle" x="27" y="-176.3" font-family="Times New Roman,serif" font-size="14.00">gu</text>
</g>
<!-- adg -->
<g id="node8" class="node"><title>adg</title>
<ellipse fill="none" stroke="black" cx="117" cy="-180" rx="27" ry="18"/>
<text text-anchor="middle" x="117" y="-176.3" font-family="Times New Roman,serif" font-size="14.00">adg</text>
</g>
<!-- gu&#45;&gt;adg -->
<g id="edge4" class="edge"><title>gu&#45;&gt;adg</title>
<path fill="none" stroke="black" d="M54.4029,-180C62.3932,-180 71.3106,-180 79.8241,-180"/>
<polygon fill="black" stroke="black" points="79.919,-183.5 89.919,-180 79.919,-176.5 79.919,-183.5"/>
</g>
</g>
</svg>
