<?xml version="1.0" encoding="UTF-8" standalone="no"?>
<!DOCTYPE svg PUBLIC "-//W3C//DTD SVG 1.1//EN"
 "http://www.w3.org/Graphics/SVG/1.1/DTD/svg11.dtd">
<!-- Generated by graphviz version 2.30.1 (20130214.1330)
 -->
<!-- Title: G Pages: 1 -->
<svg width="2638pt" height="1062pt"
 viewBox="0.00 0.00 2638.00 1061.59" xmlns="http://www.w3.org/2000/svg" xmlns:xlink="http://www.w3.org/1999/xlink">
<g id="graph0" class="graph" transform="scale(1 1) rotate(0) translate(4 1057.59)">
<title>G</title>
<polygon fill="white" stroke="white" points="-4,5 -4,-1057.59 2635,-1057.59 2635,5 -4,5"/>
<!-- NDepend.FileDirectoryPath.BasePath -->
<g id="node1" class="node"><title>NDepend.FileDirectoryPath.BasePath</title>
<ellipse fill="none" stroke="black" cx="197" cy="-18" rx="147.574" ry="18"/>
<text text-anchor="middle" x="197" y="-14.3" font-family="Times New Roman,serif" font-size="14.00">NDepend.FileDirectoryPath.BasePath</text>
</g>
<!-- NDepend.FileDirectoryPath.DirectoryPath -->
<g id="node2" class="node"><title>NDepend.FileDirectoryPath.DirectoryPath</title>
<ellipse fill="none" stroke="black" cx="623" cy="-18" rx="163.571" ry="18"/>
<text text-anchor="middle" x="623" y="-14.3" font-family="Times New Roman,serif" font-size="14.00">NDepend.FileDirectoryPath.DirectoryPath</text>
</g>
<!-- NDepend.FileDirectoryPath.BasePath&#45;&gt;NDepend.FileDirectoryPath.DirectoryPath -->
<g id="edge1" class="edge"><title>NDepend.FileDirectoryPath.BasePath&#45;&gt;NDepend.FileDirectoryPath.DirectoryPath</title>
<path fill="none" stroke="black" d="M335.075,-11.6396C374.861,-11.2089 418.688,-11.1353 459.856,-11.4187"/>
<polygon fill="black" stroke="black" points="459.955,-14.9195 469.981,-11.4961 460.008,-7.91968 459.955,-14.9195"/>
</g>
<!-- NDepend.FileDirectoryPath.DirectoryPath&#45;&gt;NDepend.FileDirectoryPath.BasePath -->
<g id="edge2" class="edge"><title>NDepend.FileDirectoryPath.DirectoryPath&#45;&gt;NDepend.FileDirectoryPath.BasePath</title>
<path fill="none" stroke="black" d="M469.981,-24.5039C429.384,-24.8454 385.588,-24.8315 345.252,-24.462"/>
<polygon fill="black" stroke="black" points="345.11,-20.9605 335.075,-24.3604 345.04,-27.9602 345.11,-20.9605"/>
</g>
<!-- NDepend.FileDirectoryPath.DirectoryPathAbsolute -->
<g id="node3" class="node"><title>NDepend.FileDirectoryPath.DirectoryPathAbsolute</title>
<ellipse fill="none" stroke="black" cx="197" cy="-120" rx="196.065" ry="18"/>
<text text-anchor="middle" x="197" y="-116.3" font-family="Times New Roman,serif" font-size="14.00">NDepend.FileDirectoryPath.DirectoryPathAbsolute</text>
</g>
<!-- NDepend.FileDirectoryPath.DirectoryPathRelative -->
<g id="node4" class="node"><title>NDepend.FileDirectoryPath.DirectoryPathRelative</title>
<ellipse fill="none" stroke="black" cx="623" cy="-166" rx="192.266" ry="18"/>
<text text-anchor="middle" x="623" y="-162.3" font-family="Times New Roman,serif" font-size="14.00">NDepend.FileDirectoryPath.DirectoryPathRelative</text>
</g>
<!-- NDepend.FileDirectoryPath.DirectoryPathAbsolute&#45;&gt;NDepend.FileDirectoryPath.DirectoryPathRelative -->
<g id="edge3" class="edge"><title>NDepend.FileDirectoryPath.DirectoryPathAbsolute&#45;&gt;NDepend.FileDirectoryPath.DirectoryPathRelative</title>
<path fill="none" stroke="black" d="M355.882,-130.578C410.509,-136.094 470.275,-142.802 519.304,-148.979"/>
<polygon fill="black" stroke="black" points="518.917,-152.458 529.279,-150.248 519.8,-145.514 518.917,-152.458"/>
</g>
<!-- NDepend.FileDirectoryPath.FilePathAbsolute -->
<g id="node5" class="node"><title>NDepend.FileDirectoryPath.FilePathAbsolute</title>
<ellipse fill="none" stroke="black" cx="1640" cy="-101" rx="175.469" ry="18"/>
<text text-anchor="middle" x="1640" y="-97.3" font-family="Times New Roman,serif" font-size="14.00">NDepend.FileDirectoryPath.FilePathAbsolute</text>
</g>
<!-- NDepend.FileDirectoryPath.DirectoryPathAbsolute&#45;&gt;NDepend.FileDirectoryPath.FilePathAbsolute -->
<g id="edge4" class="edge"><title>NDepend.FileDirectoryPath.DirectoryPathAbsolute&#45;&gt;NDepend.FileDirectoryPath.FilePathAbsolute</title>
<path fill="none" stroke="black" d="M340.222,-107.685C472.684,-101.003 675.671,-94.5608 852,-92 1066.39,-88.8864 1313.67,-89.5901 1472.96,-92.6742"/>
<polygon fill="black" stroke="black" points="1473.25,-96.1807 1483.32,-92.8808 1473.39,-89.1821 1473.25,-96.1807"/>
</g>
<!-- NDepend.FileDirectoryPath.DirectoryPathRelative&#45;&gt;NDepend.FileDirectoryPath.DirectoryPathAbsolute -->
<g id="edge5" class="edge"><title>NDepend.FileDirectoryPath.DirectoryPathRelative&#45;&gt;NDepend.FileDirectoryPath.DirectoryPathAbsolute</title>
<path fill="none" stroke="black" d="M465.593,-155.571C410.811,-150.051 350.7,-143.314 301.352,-137.103"/>
<polygon fill="black" stroke="black" points="301.672,-133.616 291.311,-135.828 300.79,-140.56 301.672,-133.616"/>
</g>
<!-- NDepend.FileDirectoryPath.FilePathRelative -->
<g id="node6" class="node"><title>NDepend.FileDirectoryPath.FilePathRelative</title>
<ellipse fill="none" stroke="black" cx="1111" cy="-128" rx="171.67" ry="18"/>
<text text-anchor="middle" x="1111" y="-124.3" font-family="Times New Roman,serif" font-size="14.00">NDepend.FileDirectoryPath.FilePathRelative</text>
</g>
<!-- NDepend.FileDirectoryPath.DirectoryPathRelative&#45;&gt;NDepend.FileDirectoryPath.FilePathRelative -->
<g id="edge6" class="edge"><title>NDepend.FileDirectoryPath.DirectoryPathRelative&#45;&gt;NDepend.FileDirectoryPath.FilePathRelative</title>
<path fill="none" stroke="black" d="M736.414,-151.415C796.55,-145.737 871.865,-139.621 939.087,-134.885"/>
<polygon fill="black" stroke="black" points="939.64,-138.355 949.372,-134.167 939.152,-131.372 939.64,-138.355"/>
</g>
<!-- NDepend.FileDirectoryPath.FilePathAbsolute&#45;&gt;NDepend.FileDirectoryPath.DirectoryPathAbsolute -->
<g id="edge7" class="edge"><title>NDepend.FileDirectoryPath.FilePathAbsolute&#45;&gt;NDepend.FileDirectoryPath.DirectoryPathAbsolute</title>
<path fill="none" stroke="black" d="M1472.79,-106.529C1313.5,-107.59 1066.32,-106.887 852,-110 701.884,-112.18 532.447,-117.174 403.654,-120.256"/>
<polygon fill="black" stroke="black" points="403.195,-116.766 393.281,-120.502 403.361,-123.764 403.195,-116.766"/>
</g>
<!-- NDepend.FileDirectoryPath.FilePathAbsolute&#45;&gt;NDepend.FileDirectoryPath.FilePathRelative -->
<g id="edge8" class="edge"><title>NDepend.FileDirectoryPath.FilePathAbsolute&#45;&gt;NDepend.FileDirectoryPath.FilePathRelative</title>
<path fill="none" stroke="black" d="M1512.13,-113.368C1445.99,-117.696 1363.98,-122.087 1291.45,-125.241"/>
<polygon fill="black" stroke="black" points="1291.12,-121.752 1281.28,-125.678 1291.42,-128.745 1291.12,-121.752"/>
</g>
<!-- NDepend.FileDirectoryPath.FilePathRelative&#45;&gt;NDepend.FileDirectoryPath.DirectoryPathAbsolute -->
<g id="edge9" class="edge"><title>NDepend.FileDirectoryPath.FilePathRelative&#45;&gt;NDepend.FileDirectoryPath.DirectoryPathAbsolute</title>
<path fill="none" stroke="black" d="M939.941,-126.508C787.804,-125.174 564.475,-123.215 402.613,-121.795"/>
<polygon fill="black" stroke="black" points="402.559,-118.294 392.528,-121.706 402.497,-125.294 402.559,-118.294"/>
</g>
<!-- NDepend.FileDirectoryPath.FilePathRelative&#45;&gt;NDepend.FileDirectoryPath.DirectoryPathRelative -->
<g id="edge10" class="edge"><title>NDepend.FileDirectoryPath.FilePathRelative&#45;&gt;NDepend.FileDirectoryPath.DirectoryPathRelative</title>
<path fill="none" stroke="black" d="M1003.38,-142.035C946.583,-147.459 875.082,-153.344 809.506,-158.075"/>
<polygon fill="black" stroke="black" points="809.182,-154.589 799.457,-158.794 809.682,-161.571 809.182,-154.589"/>
</g>
<!-- NDepend.FileDirectoryPath.FilePathRelative&#45;&gt;NDepend.FileDirectoryPath.FilePathAbsolute -->
<g id="edge11" class="edge"><title>NDepend.FileDirectoryPath.FilePathRelative&#45;&gt;NDepend.FileDirectoryPath.FilePathAbsolute</title>
<path fill="none" stroke="black" d="M1236.89,-115.761C1302.3,-111.462 1383.64,-107.088 1456.01,-103.913"/>
<polygon fill="black" stroke="black" points="1456.32,-107.403 1466.16,-103.474 1456.02,-100.41 1456.32,-107.403"/>
</g>
<!-- NDepend.Framework.CQL.ControllerHandler -->
<g id="node7" class="node"><title>NDepend.Framework.CQL.ControllerHandler</title>
<ellipse fill="none" stroke="black" cx="197" cy="-283" rx="177.369" ry="18"/>
<text text-anchor="middle" x="197" y="-279.3" font-family="Times New Roman,serif" font-size="14.00">NDepend.Framework.CQL.ControllerHandler</text>
</g>
<!-- NDepend.Framework.CQL.ICQLController -->
<g id="node8" class="node"><title>NDepend.Framework.CQL.ICQLController</title>
<ellipse fill="none" stroke="black" cx="623" cy="-283" rx="170.87" ry="18"/>
<text text-anchor="middle" x="623" y="-279.3" font-family="Times New Roman,serif" font-size="14.00">NDepend.Framework.CQL.ICQLController</text>
</g>
<!-- NDepend.Framework.CQL.ControllerHandler&#45;&gt;NDepend.Framework.CQL.ICQLController -->
<g id="edge12" class="edge"><title>NDepend.Framework.CQL.ControllerHandler&#45;&gt;NDepend.Framework.CQL.ICQLController</title>
<path fill="none" stroke="black" d="M362.233,-276.405C392.156,-276.208 423.418,-276.199 453.464,-276.378"/>
<polygon fill="black" stroke="black" points="453.58,-279.878 463.603,-276.446 453.627,-272.879 453.58,-279.878"/>
</g>
<!-- NDepend.Framework.CQL.ICQLController&#45;&gt;NDepend.Framework.CQL.ControllerHandler -->
<g id="edge15" class="edge"><title>NDepend.Framework.CQL.ICQLController&#45;&gt;NDepend.Framework.CQL.ControllerHandler</title>
<path fill="none" stroke="black" d="M463.603,-289.554C433.865,-289.776 402.622,-289.809 372.428,-289.655"/>
<polygon fill="black" stroke="black" points="372.253,-286.154 362.233,-289.595 372.212,-293.154 372.253,-286.154"/>
</g>
<!-- NDepend.Framework.CQL.GroupActionHandler -->
<g id="node9" class="node"><title>NDepend.Framework.CQL.GroupActionHandler</title>
<ellipse fill="none" stroke="black" cx="1111" cy="-344" rx="189.267" ry="18"/>
<text text-anchor="middle" x="1111" y="-340.3" font-family="Times New Roman,serif" font-size="14.00">NDepend.Framework.CQL.GroupActionHandler</text>
</g>
<!-- NDepend.Framework.CQL.ICQLController&#45;&gt;NDepend.Framework.CQL.GroupActionHandler -->
<g id="edge16" class="edge"><title>NDepend.Framework.CQL.ICQLController&#45;&gt;NDepend.Framework.CQL.GroupActionHandler</title>
<path fill="none" stroke="black" d="M753.781,-294.635C785.847,-299.111 820.138,-303.959 852,-308 905.286,-314.758 964.921,-321.079 1013.42,-326.814"/>
<polygon fill="black" stroke="black" points="1013.25,-330.319 1023.6,-328.029 1014.08,-323.368 1013.25,-330.319"/>
</g>
<!-- NDepend.Framework.CQL.GroupObjectChangedHandler -->
<g id="node10" class="node"><title>NDepend.Framework.CQL.GroupObjectChangedHandler</title>
<ellipse fill="none" stroke="black" cx="1111" cy="-290" rx="221.761" ry="18"/>
<text text-anchor="middle" x="1111" y="-286.3" font-family="Times New Roman,serif" font-size="14.00">NDepend.Framework.CQL.GroupObjectChangedHandler</text>
</g>
<!-- NDepend.Framework.CQL.ICQLController&#45;&gt;NDepend.Framework.CQL.GroupObjectChangedHandler -->
<g id="edge17" class="edge"><title>NDepend.Framework.CQL.ICQLController&#45;&gt;NDepend.Framework.CQL.GroupObjectChangedHandler</title>
<path fill="none" stroke="black" d="M789.555,-278.949C828.608,-279.184 870.641,-279.718 910.999,-280.483"/>
<polygon fill="black" stroke="black" points="911.154,-283.987 921.221,-280.683 911.291,-276.988 911.154,-283.987"/>
</g>
<!-- NDepend.Framework.CQL.QueryActionHandler -->
<g id="node11" class="node"><title>NDepend.Framework.CQL.QueryActionHandler</title>
<ellipse fill="none" stroke="black" cx="1111" cy="-236" rx="187.667" ry="18"/>
<text text-anchor="middle" x="1111" y="-232.3" font-family="Times New Roman,serif" font-size="14.00">NDepend.Framework.CQL.QueryActionHandler</text>
</g>
<!-- NDepend.Framework.CQL.ICQLController&#45;&gt;NDepend.Framework.CQL.QueryActionHandler -->
<g id="edge18" class="edge"><title>NDepend.Framework.CQL.ICQLController&#45;&gt;NDepend.Framework.CQL.QueryActionHandler</title>
<path fill="none" stroke="black" d="M720.308,-268.177C782.55,-260.947 865.31,-252.619 938.55,-246.098"/>
<polygon fill="black" stroke="black" points="939.165,-249.557 948.818,-245.19 938.549,-242.584 939.165,-249.557"/>
</g>
<!-- NDepend.Framework.CQL.QueryObjectChangedHandler -->
<g id="node12" class="node"><title>NDepend.Framework.CQL.QueryObjectChangedHandler</title>
<ellipse fill="none" stroke="black" cx="1111" cy="-182" rx="219.861" ry="18"/>
<text text-anchor="middle" x="1111" y="-178.3" font-family="Times New Roman,serif" font-size="14.00">NDepend.Framework.CQL.QueryObjectChangedHandler</text>
</g>
<!-- NDepend.Framework.CQL.ICQLController&#45;&gt;NDepend.Framework.CQL.QueryObjectChangedHandler -->
<g id="edge19" class="edge"><title>NDepend.Framework.CQL.ICQLController&#45;&gt;NDepend.Framework.CQL.QueryObjectChangedHandler</title>
<path fill="none" stroke="black" d="M653.695,-265.216C696.693,-245.479 779.129,-215.46 852,-200 868.02,-196.601 884.695,-193.623 901.514,-191.041"/>
<polygon fill="black" stroke="black" points="902.054,-194.499 911.431,-189.566 901.024,-187.575 902.054,-194.499"/>
</g>
<!-- NDepend.Framework.CQL.GroupActionHandler&#45;&gt;NDepend.Framework.CQL.ICQLController -->
<g id="edge13" class="edge"><title>NDepend.Framework.CQL.GroupActionHandler&#45;&gt;NDepend.Framework.CQL.ICQLController</title>
<path fill="none" stroke="black" d="M940.219,-336.162C910.779,-333.1 880.482,-329.612 852,-326 798.478,-319.212 738.102,-310.145 692.931,-301.768"/>
<polygon fill="black" stroke="black" points="693.429,-298.3 682.953,-299.88 692.128,-305.178 693.429,-298.3"/>
</g>
<!-- NDepend.Framework.CQL.GroupObjectChangedHandler&#45;&gt;NDepend.Framework.CQL.ICQLController -->
<g id="edge14" class="edge"><title>NDepend.Framework.CQL.GroupObjectChangedHandler&#45;&gt;NDepend.Framework.CQL.ICQLController</title>
<path fill="none" stroke="black" d="M893.529,-293.596C856.828,-293.167 819.311,-292.519 784.379,-291.701"/>
<polygon fill="black" stroke="black" points="784.195,-288.195 774.113,-291.453 784.026,-295.193 784.195,-288.195"/>
</g>
<!-- NDepend.Framework.CQL.QueryActionHandler&#45;&gt;NDepend.Framework.CQL.ICQLController -->
<g id="edge26" class="edge"><title>NDepend.Framework.CQL.QueryActionHandler&#45;&gt;NDepend.Framework.CQL.ICQLController</title>
<path fill="none" stroke="black" d="M1010.28,-251.218C945.489,-258.697 859.553,-267.282 785.19,-273.809"/>
<polygon fill="black" stroke="black" points="784.436,-270.362 774.777,-274.717 785.043,-277.335 784.436,-270.362"/>
</g>
<!-- NDepend.Framework.CQL.QueryObjectChangedHandler&#45;&gt;NDepend.Framework.CQL.ICQLController -->
<g id="edge27" class="edge"><title>NDepend.Framework.CQL.QueryObjectChangedHandler&#45;&gt;NDepend.Framework.CQL.ICQLController</title>
<path fill="none" stroke="black" d="M994.566,-197.269C949.727,-201.911 898.148,-208.209 852,-218 798.902,-229.265 740.726,-248.26 696.429,-262.994"/>
<polygon fill="black" stroke="black" points="695.291,-259.684 686.909,-266.164 697.503,-266.325 695.291,-259.684"/>
</g>
<!-- NDepend.Framework.CQL.ICQLGroup -->
<g id="node13" class="node"><title>NDepend.Framework.CQL.ICQLGroup</title>
<ellipse fill="none" stroke="black" cx="197" cy="-391" rx="157.872" ry="18"/>
<text text-anchor="middle" x="197" y="-387.3" font-family="Times New Roman,serif" font-size="14.00">NDepend.Framework.CQL.ICQLGroup</text>
</g>
<!-- NDepend.Framework.CQL.ICQLQuery -->
<g id="node14" class="node"><title>NDepend.Framework.CQL.ICQLQuery</title>
<ellipse fill="none" stroke="black" cx="623" cy="-419" rx="156.772" ry="18"/>
<text text-anchor="middle" x="623" y="-415.3" font-family="Times New Roman,serif" font-size="14.00">NDepend.Framework.CQL.ICQLQuery</text>
</g>
<!-- NDepend.Framework.CQL.ICQLGroup&#45;&gt;NDepend.Framework.CQL.ICQLQuery -->
<g id="edge20" class="edge"><title>NDepend.Framework.CQL.ICQLGroup&#45;&gt;NDepend.Framework.CQL.ICQLQuery</title>
<path fill="none" stroke="black" d="M351.973,-394.648C402.292,-397.563 457.335,-401.333 504.523,-405.128"/>
<polygon fill="black" stroke="black" points="504.527,-408.64 514.778,-405.963 505.095,-401.663 504.527,-408.64"/>
</g>
<!-- NDepend.Framework.CQL.ICQLSet -->
<g id="node15" class="node"><title>NDepend.Framework.CQL.ICQLSet</title>
<ellipse fill="none" stroke="black" cx="1111" cy="-405" rx="145.674" ry="18"/>
<text text-anchor="middle" x="1111" y="-401.3" font-family="Times New Roman,serif" font-size="14.00">NDepend.Framework.CQL.ICQLSet</text>
</g>
<!-- NDepend.Framework.CQL.ICQLGroup&#45;&gt;NDepend.Framework.CQL.ICQLSet -->
<g id="edge21" class="edge"><title>NDepend.Framework.CQL.ICQLGroup&#45;&gt;NDepend.Framework.CQL.ICQLSet</title>
<path fill="none" stroke="black" d="M336.391,-382.486C461.653,-379.621 651.216,-379.225 816,-383 877.549,-384.41 946.295,-387.373 1001.82,-391.053"/>
<polygon fill="black" stroke="black" points="1001.82,-394.561 1012.04,-391.748 1002.3,-387.577 1001.82,-394.561"/>
</g>
<!-- NDepend.Framework.CQL.ICQLQuery&#45;&gt;NDepend.Framework.CQL.ICQLGroup -->
<g id="edge22" class="edge"><title>NDepend.Framework.CQL.ICQLQuery&#45;&gt;NDepend.Framework.CQL.ICQLGroup</title>
<path fill="none" stroke="black" d="M469.133,-415.416C418.637,-412.5 363.276,-408.713 315.818,-404.9"/>
<polygon fill="black" stroke="black" points="316.067,-401.408 305.816,-404.086 315.499,-408.385 316.067,-401.408"/>
</g>
<!-- NDepend.Framework.CQL.ICQLQuery&#45;&gt;NDepend.Framework.CQL.ICQLSet -->
<g id="edge23" class="edge"><title>NDepend.Framework.CQL.ICQLQuery&#45;&gt;NDepend.Framework.CQL.ICQLSet</title>
<path fill="none" stroke="black" d="M754.559,-409.177C816.608,-406.573 891.206,-404.334 956.005,-403.106"/>
<polygon fill="black" stroke="black" points="956.383,-406.6 966.318,-402.917 956.255,-399.601 956.383,-406.6"/>
</g>
<!-- NDepend.Framework.CQL.ICQLSet&#45;&gt;NDepend.Framework.CQL.ICQLGroup -->
<g id="edge24" class="edge"><title>NDepend.Framework.CQL.ICQLSet&#45;&gt;NDepend.Framework.CQL.ICQLGroup</title>
<path fill="none" stroke="black" d="M965.364,-405.915C917.8,-404.199 864.652,-402.114 816,-401 660,-397.426 481.791,-397.59 356.956,-396.749"/>
<polygon fill="black" stroke="black" points="356.958,-393.249 346.933,-396.678 356.908,-400.248 356.958,-393.249"/>
</g>
<!-- NDepend.Framework.CQL.ICQLSet&#45;&gt;NDepend.Framework.CQL.ICQLQuery -->
<g id="edge25" class="edge"><title>NDepend.Framework.CQL.ICQLSet&#45;&gt;NDepend.Framework.CQL.ICQLQuery</title>
<path fill="none" stroke="black" d="M987.082,-414.497C927.141,-417.087 854.18,-419.348 789.428,-420.669"/>
<polygon fill="black" stroke="black" points="789.039,-417.176 779.11,-420.873 789.177,-424.175 789.039,-417.176"/>
</g>
<!-- NDepend.Framework.CodeModel.IAssembly -->
<g id="node16" class="node"><title>NDepend.Framework.CodeModel.IAssembly</title>
<ellipse fill="none" stroke="black" cx="197" cy="-503" rx="176.569" ry="18"/>
<text text-anchor="middle" x="197" y="-499.3" font-family="Times New Roman,serif" font-size="14.00">NDepend.Framework.CodeModel.IAssembly</text>
</g>
<!-- NDepend.Framework.CodeModel.ICodeBase -->
<g id="node17" class="node"><title>NDepend.Framework.CodeModel.ICodeBase</title>
<ellipse fill="none" stroke="black" cx="623" cy="-549" rx="178.168" ry="18"/>
<text text-anchor="middle" x="623" y="-545.3" font-family="Times New Roman,serif" font-size="14.00">NDepend.Framework.CodeModel.ICodeBase</text>
</g>
<!-- NDepend.Framework.CodeModel.IAssembly&#45;&gt;NDepend.Framework.CodeModel.ICodeBase -->
<g id="edge28" class="edge"><title>NDepend.Framework.CodeModel.IAssembly&#45;&gt;NDepend.Framework.CodeModel.ICodeBase</title>
<path fill="none" stroke="black" d="M318.651,-516.089C372.347,-521.915 435.711,-528.789 490.604,-534.745"/>
<polygon fill="black" stroke="black" points="490.432,-538.247 500.751,-535.846 491.187,-531.287 490.432,-538.247"/>
</g>
<!-- NDepend.Framework.CodeModel.ICodeBaseView -->
<g id="node18" class="node"><title>NDepend.Framework.CodeModel.ICodeBaseView</title>
<ellipse fill="none" stroke="black" cx="1111" cy="-545" rx="196.065" ry="18"/>
<text text-anchor="middle" x="1111" y="-541.3" font-family="Times New Roman,serif" font-size="14.00">NDepend.Framework.CodeModel.ICodeBaseView</text>
</g>
<!-- NDepend.Framework.CodeModel.ICodeBase&#45;&gt;NDepend.Framework.CodeModel.ICodeBaseView -->
<g id="edge29" class="edge"><title>NDepend.Framework.CodeModel.ICodeBase&#45;&gt;NDepend.Framework.CodeModel.ICodeBaseView</title>
<path fill="none" stroke="black" d="M800.832,-547.545C834.674,-547.266 870.369,-546.972 905.008,-546.687"/>
<polygon fill="black" stroke="black" points="905.261,-550.185 915.232,-546.603 905.204,-543.186 905.261,-550.185"/>
</g>
<!-- NDepend.Framework.CodeModel.ICodeBaseView&#45;&gt;NDepend.Framework.CodeModel.IAssembly -->
<g id="edge30" class="edge"><title>NDepend.Framework.CodeModel.ICodeBaseView&#45;&gt;NDepend.Framework.CodeModel.IAssembly</title>
<path fill="none" stroke="black" d="M968.774,-532.589C920.367,-528.697 865.844,-524.714 816,-522 670.046,-514.052 504.507,-509.183 381.515,-506.367"/>
<polygon fill="black" stroke="black" points="381.321,-502.862 371.244,-506.134 381.162,-509.86 381.321,-502.862"/>
</g>
<!-- NDepend.Framework.CodeModel.IField -->
<g id="node19" class="node"><title>NDepend.Framework.CodeModel.IField</title>
<ellipse fill="none" stroke="black" cx="1640" cy="-641" rx="158.672" ry="18"/>
<text text-anchor="middle" x="1640" y="-637.3" font-family="Times New Roman,serif" font-size="14.00">NDepend.Framework.CodeModel.IField</text>
</g>
<!-- NDepend.Framework.CodeModel.ICodeBaseView&#45;&gt;NDepend.Framework.CodeModel.IField -->
<g id="edge31" class="edge"><title>NDepend.Framework.CodeModel.ICodeBaseView&#45;&gt;NDepend.Framework.CodeModel.IField</title>
<path fill="none" stroke="black" d="M1282.09,-553.903C1312.31,-559.594 1342.79,-568.182 1370,-581 1389.64,-590.251 1386.26,-604.978 1406,-614 1427.57,-623.856 1451.38,-630.625 1475.29,-635.202"/>
<polygon fill="black" stroke="black" points="1474.72,-638.654 1485.18,-636.971 1475.95,-631.764 1474.72,-638.654"/>
</g>
<!-- NDepend.Framework.CodeModel.IMethod -->
<g id="node20" class="node"><title>NDepend.Framework.CodeModel.IMethod</title>
<ellipse fill="none" stroke="black" cx="1640" cy="-587" rx="168.97" ry="18"/>
<text text-anchor="middle" x="1640" y="-583.3" font-family="Times New Roman,serif" font-size="14.00">NDepend.Framework.CodeModel.IMethod</text>
</g>
<!-- NDepend.Framework.CodeModel.ICodeBaseView&#45;&gt;NDepend.Framework.CodeModel.IMethod -->
<g id="edge32" class="edge"><title>NDepend.Framework.CodeModel.ICodeBaseView&#45;&gt;NDepend.Framework.CodeModel.IMethod</title>
<path fill="none" stroke="black" d="M1259.85,-556.783C1332.99,-562.612 1420.95,-569.622 1493.73,-575.422"/>
<polygon fill="black" stroke="black" points="1493.65,-578.927 1503.89,-576.233 1494.2,-571.949 1493.65,-578.927"/>
</g>
<!-- NDepend.Framework.CodeModel.INamespace -->
<g id="node21" class="node"><title>NDepend.Framework.CodeModel.INamespace</title>
<ellipse fill="none" stroke="black" cx="2447" cy="-503" rx="182.768" ry="18"/>
<text text-anchor="middle" x="2447" y="-499.3" font-family="Times New Roman,serif" font-size="14.00">NDepend.Framework.CodeModel.INamespace</text>
</g>
<!-- NDepend.Framework.CodeModel.ICodeBaseView&#45;&gt;NDepend.Framework.CodeModel.INamespace -->
<g id="edge33" class="edge"><title>NDepend.Framework.CodeModel.ICodeBaseView&#45;&gt;NDepend.Framework.CodeModel.INamespace</title>
<path fill="none" stroke="black" d="M1296.79,-539.182C1551.7,-531.156 2008.5,-516.774 2262.65,-508.772"/>
<polygon fill="black" stroke="black" points="2262.85,-512.268 2272.73,-508.455 2262.63,-505.272 2262.85,-512.268"/>
</g>
<!-- NDepend.Framework.CodeModel.IType -->
<g id="node22" class="node"><title>NDepend.Framework.CodeModel.IType</title>
<ellipse fill="none" stroke="black" cx="2069" cy="-568" rx="159.472" ry="18"/>
<text text-anchor="middle" x="2069" y="-564.3" font-family="Times New Roman,serif" font-size="14.00">NDepend.Framework.CodeModel.IType</text>
</g>
<!-- NDepend.Framework.CodeModel.ICodeBaseView&#45;&gt;NDepend.Framework.CodeModel.IType -->
<g id="edge34" class="edge"><title>NDepend.Framework.CodeModel.ICodeBaseView&#45;&gt;NDepend.Framework.CodeModel.IType</title>
<path fill="none" stroke="black" d="M1305.42,-547.659C1459.46,-550.053 1680.58,-554.109 1874,-560 1885.65,-560.355 1897.69,-560.76 1909.8,-561.195"/>
<polygon fill="black" stroke="black" points="1909.87,-564.699 1919.99,-561.566 1910.12,-557.704 1909.87,-564.699"/>
</g>
<!-- NDepend.Framework.CodeModel.IField&#45;&gt;NDepend.Framework.CodeModel.IType -->
<g id="edge35" class="edge"><title>NDepend.Framework.CodeModel.IField&#45;&gt;NDepend.Framework.CodeModel.IType</title>
<path fill="none" stroke="black" d="M1762.92,-629.604C1798.83,-625.512 1838.1,-620.313 1874,-614 1914.82,-606.821 1959.9,-596.294 1996.32,-587.121"/>
<polygon fill="black" stroke="black" points="1997.52,-590.427 2006.35,-584.574 1995.8,-583.642 1997.52,-590.427"/>
</g>
<!-- NDepend.Framework.CodeModel.IMethod&#45;&gt;NDepend.Framework.CodeModel.IType -->
<g id="edge36" class="edge"><title>NDepend.Framework.CodeModel.IMethod&#45;&gt;NDepend.Framework.CodeModel.IType</title>
<path fill="none" stroke="black" d="M1796.36,-580.087C1833.42,-578.438 1873,-576.677 1910.17,-575.023"/>
<polygon fill="black" stroke="black" points="1910.74,-578.501 1920.58,-574.56 1910.43,-571.508 1910.74,-578.501"/>
</g>
<!-- NDepend.Framework.CodeModel.INamespace&#45;&gt;NDepend.Framework.CodeModel.IAssembly -->
<g id="edge37" class="edge"><title>NDepend.Framework.CodeModel.INamespace&#45;&gt;NDepend.Framework.CodeModel.IAssembly</title>
<path fill="none" stroke="black" d="M2301.77,-492.085C2140.75,-480.858 1872.38,-465 1641,-465 1110,-465 1110,-465 1110,-465 844.821,-465 536.646,-481.236 354.986,-492.483"/>
<polygon fill="black" stroke="black" points="354.584,-489.001 344.82,-493.115 355.018,-495.987 354.584,-489.001"/>
</g>
<!-- NDepend.Framework.CodeModel.IType&#45;&gt;NDepend.Framework.CodeModel.INamespace -->
<g id="edge38" class="edge"><title>NDepend.Framework.CodeModel.IType&#45;&gt;NDepend.Framework.CodeModel.INamespace</title>
<path fill="none" stroke="black" d="M2157.21,-552.924C2213.5,-543.193 2286.91,-530.502 2345.63,-520.351"/>
<polygon fill="black" stroke="black" points="2346.41,-523.768 2355.67,-518.616 2345.22,-516.87 2346.41,-523.768"/>
</g>
<!-- NDepend.Framework.Project.IAnalysisRef -->
<g id="node23" class="node"><title>NDepend.Framework.Project.IAnalysisRef</title>
<ellipse fill="none" stroke="black" cx="197" cy="-695" rx="167.07" ry="18"/>
<text text-anchor="middle" x="197" y="-691.3" font-family="Times New Roman,serif" font-size="14.00">NDepend.Framework.Project.IAnalysisRef</text>
</g>
<!-- NDepend.Framework.Project.IProject -->
<g id="node24" class="node"><title>NDepend.Framework.Project.IProject</title>
<ellipse fill="none" stroke="black" cx="623" cy="-695" rx="148.674" ry="18"/>
<text text-anchor="middle" x="623" y="-691.3" font-family="Times New Roman,serif" font-size="14.00">NDepend.Framework.Project.IProject</text>
</g>
<!-- NDepend.Framework.Project.IAnalysisRef&#45;&gt;NDepend.Framework.Project.IProject -->
<g id="edge39" class="edge"><title>NDepend.Framework.Project.IAnalysisRef&#45;&gt;NDepend.Framework.Project.IProject</title>
<path fill="none" stroke="black" d="M364.055,-695C396.873,-695 431.234,-695 463.784,-695"/>
<polygon fill="black" stroke="black" points="463.824,-698.5 473.824,-695 463.824,-691.5 463.824,-698.5"/>
</g>
<!-- NDepend.Framework.Project.IProjectAnalysis -->
<g id="node26" class="node"><title>NDepend.Framework.Project.IProjectAnalysis</title>
<ellipse fill="none" stroke="black" cx="1111" cy="-749" rx="179.268" ry="18"/>
<text text-anchor="middle" x="1111" y="-745.3" font-family="Times New Roman,serif" font-size="14.00">NDepend.Framework.Project.IProjectAnalysis</text>
</g>
<!-- NDepend.Framework.Project.IProject&#45;&gt;NDepend.Framework.Project.IProjectAnalysis -->
<g id="edge41" class="edge"><title>NDepend.Framework.Project.IProject&#45;&gt;NDepend.Framework.Project.IProjectAnalysis</title>
<path fill="none" stroke="black" d="M728.675,-707.698C767.408,-712.317 811.692,-717.504 852,-722 891.715,-726.429 934.893,-731.032 974.364,-735.155"/>
<polygon fill="black" stroke="black" points="974.005,-738.637 984.314,-736.193 974.731,-731.675 974.005,-738.637"/>
</g>
<!-- NDepend.Framework.Project.IProjectBaseline -->
<g id="node27" class="node"><title>NDepend.Framework.Project.IProjectBaseline</title>
<ellipse fill="none" stroke="black" cx="1111" cy="-695" rx="178.969" ry="18"/>
<text text-anchor="middle" x="1111" y="-691.3" font-family="Times New Roman,serif" font-size="14.00">NDepend.Framework.Project.IProjectBaseline</text>
</g>
<!-- NDepend.Framework.Project.IProject&#45;&gt;NDepend.Framework.Project.IProjectBaseline -->
<g id="edge42" class="edge"><title>NDepend.Framework.Project.IProject&#45;&gt;NDepend.Framework.Project.IProjectBaseline</title>
<path fill="none" stroke="black" d="M762.943,-688.833C816.135,-688.199 877.529,-688.082 933.754,-688.482"/>
<polygon fill="black" stroke="black" points="933.796,-691.982 943.822,-688.559 933.85,-684.982 933.796,-691.982"/>
</g>
<!-- NDepend.Framework.Project.ProjectPropertyChangedEventHandler -->
<g id="node28" class="node"><title>NDepend.Framework.Project.ProjectPropertyChangedEventHandler</title>
<ellipse fill="none" stroke="black" cx="1111" cy="-641" rx="258.854" ry="18"/>
<text text-anchor="middle" x="1111" y="-637.3" font-family="Times New Roman,serif" font-size="14.00">NDepend.Framework.Project.ProjectPropertyChangedEventHandler</text>
</g>
<!-- NDepend.Framework.Project.IProject&#45;&gt;NDepend.Framework.Project.ProjectPropertyChangedEventHandler -->
<g id="edge43" class="edge"><title>NDepend.Framework.Project.IProject&#45;&gt;NDepend.Framework.Project.ProjectPropertyChangedEventHandler</title>
<path fill="none" stroke="black" d="M692.063,-679.037C737.368,-672.227 798.224,-664.998 852,-659 868.031,-657.212 884.626,-655.396 901.314,-653.619"/>
<polygon fill="black" stroke="black" points="902.137,-657.052 911.713,-652.518 901.4,-650.091 902.137,-657.052"/>
</g>
<!-- NDepend.Framework.Project.IListOfAnalysisRefForAMonth -->
<g id="node25" class="node"><title>NDepend.Framework.Project.IListOfAnalysisRefForAMonth</title>
<ellipse fill="none" stroke="black" cx="1640" cy="-722" rx="233.159" ry="18"/>
<text text-anchor="middle" x="1640" y="-718.3" font-family="Times New Roman,serif" font-size="14.00">NDepend.Framework.Project.IListOfAnalysisRefForAMonth</text>
</g>
<!-- NDepend.Framework.Project.IListOfAnalysisRefForAMonth&#45;&gt;NDepend.Framework.Project.IAnalysisRef -->
<g id="edge40" class="edge"><title>NDepend.Framework.Project.IListOfAnalysisRefForAMonth&#45;&gt;NDepend.Framework.Project.IAnalysisRef</title>
<path fill="none" stroke="black" d="M1499.69,-707.551C1466.93,-699.493 1433.57,-687.078 1406,-668 1382.28,-651.588 1395.43,-627.61 1370,-614 1182.86,-513.846 525.31,-630.091 285.966,-677.06"/>
<polygon fill="black" stroke="black" points="285.049,-673.674 275.914,-679.041 286.402,-680.542 285.049,-673.674"/>
</g>
<!-- NDepend.Framework.Project.IProjectAnalysis&#45;&gt;NDepend.Framework.Project.IAnalysisRef -->
<g id="edge44" class="edge"><title>NDepend.Framework.Project.IProjectAnalysis&#45;&gt;NDepend.Framework.Project.IAnalysisRef</title>
<path fill="none" stroke="black" d="M934.378,-745.699C796.943,-742.228 601.092,-735.333 430,-722 391.939,-719.034 350.494,-714.598 313.303,-710.174"/>
<polygon fill="black" stroke="black" points="313.278,-706.646 302.932,-708.928 312.443,-713.596 313.278,-706.646"/>
</g>
<!-- NDepend.Framework.Project.IProjectAnalysis&#45;&gt;NDepend.Framework.Project.IListOfAnalysisRefForAMonth -->
<g id="edge45" class="edge"><title>NDepend.Framework.Project.IProjectAnalysis&#45;&gt;NDepend.Framework.Project.IListOfAnalysisRefForAMonth</title>
<path fill="none" stroke="black" d="M1271.19,-740.844C1322.68,-738.206 1380.5,-735.244 1434.79,-732.462"/>
<polygon fill="black" stroke="black" points="1435.07,-735.953 1444.88,-731.945 1434.71,-728.962 1435.07,-735.953"/>
</g>
<!-- NDepend.Framework.Project.IProjectBaseline&#45;&gt;NDepend.Framework.Project.IProject -->
<g id="edge46" class="edge"><title>NDepend.Framework.Project.IProjectBaseline&#45;&gt;NDepend.Framework.Project.IProject</title>
<path fill="none" stroke="black" d="M943.822,-701.441C888.381,-701.901 826.994,-701.847 772.946,-701.279"/>
<polygon fill="black" stroke="black" points="772.981,-697.779 762.943,-701.167 772.903,-704.779 772.981,-697.779"/>
</g>
<!-- NDepend.Framework.Project.ProjectPropertyChangedEventHandler&#45;&gt;NDepend.Framework.Project.IProject -->
<g id="edge47" class="edge"><title>NDepend.Framework.Project.ProjectPropertyChangedEventHandler&#45;&gt;NDepend.Framework.Project.IProject</title>
<path fill="none" stroke="black" d="M1021.31,-657.914C971.526,-664.097 908.284,-670.723 852,-677 825.098,-680 796.424,-683.309 768.812,-686.383"/>
<polygon fill="black" stroke="black" points="768.246,-682.924 758.692,-687.504 769.017,-689.882 768.246,-682.924"/>
</g>
<!-- aak -->
<g id="node29" class="node"><title>aak</title>
<ellipse fill="none" stroke="black" cx="197" cy="-896" rx="27" ry="18"/>
<text text-anchor="middle" x="197" y="-892.3" font-family="Times New Roman,serif" font-size="14.00">aak</text>
</g>
<!-- jq -->
<g id="node30" class="node"><title>jq</title>
<ellipse fill="none" stroke="black" cx="623" cy="-896" rx="27" ry="18"/>
<text text-anchor="middle" x="623" y="-892.3" font-family="Times New Roman,serif" font-size="14.00">jq</text>
</g>
<!-- aak&#45;&gt;jq -->
<g id="edge48" class="edge"><title>aak&#45;&gt;jq</title>
<path fill="none" stroke="black" d="M223.568,-892.569C296.025,-888.326 502.861,-888.151 586.379,-892.045"/>
<polygon fill="black" stroke="black" points="586.23,-895.542 596.398,-892.567 586.594,-888.551 586.23,-895.542"/>
</g>
<!-- jq&#45;&gt;aak -->
<g id="edge53" class="edge"><title>jq&#45;&gt;aak</title>
<path fill="none" stroke="black" d="M596.398,-899.433C523.901,-903.675 317.062,-903.848 233.582,-899.953"/>
<polygon fill="black" stroke="black" points="233.737,-896.457 223.568,-899.431 233.372,-903.447 233.737,-896.457"/>
</g>
<!-- ace -->
<g id="node31" class="node"><title>ace</title>
<ellipse fill="none" stroke="black" cx="1111" cy="-951" rx="27" ry="18"/>
<text text-anchor="middle" x="1111" y="-947.3" font-family="Times New Roman,serif" font-size="14.00">ace</text>
</g>
<!-- jq&#45;&gt;ace -->
<g id="edge54" class="edge"><title>jq&#45;&gt;ace</title>
<path fill="none" stroke="black" d="M649.786,-898.918C730.849,-908.092 980.672,-936.364 1074.18,-946.946"/>
<polygon fill="black" stroke="black" points="1073.95,-950.442 1084.28,-948.089 1074.73,-943.486 1073.95,-950.442"/>
</g>
<!-- ahk -->
<g id="node32" class="node"><title>ahk</title>
<ellipse fill="none" stroke="black" cx="1640" cy="-896" rx="27" ry="18"/>
<text text-anchor="middle" x="1640" y="-892.3" font-family="Times New Roman,serif" font-size="14.00">ahk</text>
</g>
<!-- jq&#45;&gt;ahk -->
<g id="edge55" class="edge"><title>jq&#45;&gt;ahk</title>
<path fill="none" stroke="black" d="M649.853,-893.674C788.217,-887.909 1440.94,-887.778 1602.68,-893.281"/>
<polygon fill="black" stroke="black" points="1602.91,-896.792 1613.04,-893.669 1603.17,-889.797 1602.91,-896.792"/>
</g>
<!-- tc -->
<g id="node33" class="node"><title>tc</title>
<ellipse fill="none" stroke="black" cx="2069" cy="-1006" rx="27" ry="18"/>
<text text-anchor="middle" x="2069" y="-1002.3" font-family="Times New Roman,serif" font-size="14.00">tc</text>
</g>
<!-- jq&#45;&gt;tc -->
<g id="edge56" class="edge"><title>jq&#45;&gt;tc</title>
<path fill="none" stroke="black" d="M647.358,-887.879C685.735,-881.401 763.136,-880.453 816,-914 840.668,-929.654 826.462,-954.811 852,-969 1061.05,-1085.14 1852.06,-1017.69 2031.6,-1006.83"/>
<polygon fill="black" stroke="black" points="2032.05,-1010.31 2041.83,-1006.24 2031.64,-1003.32 2032.05,-1010.31"/>
</g>
<!-- x2 -->
<g id="node34" class="node"><title>x2</title>
<ellipse fill="none" stroke="black" cx="1111" cy="-841" rx="27" ry="18"/>
<text text-anchor="middle" x="1111" y="-837.3" font-family="Times New Roman,serif" font-size="14.00">x2</text>
</g>
<!-- jq&#45;&gt;x2 -->
<g id="edge57" class="edge"><title>jq&#45;&gt;x2</title>
<path fill="none" stroke="black" d="M648.769,-890.01C728.579,-876.429 979.284,-847.864 1073.62,-841.35"/>
<polygon fill="black" stroke="black" points="1074.06,-844.83 1083.81,-840.697 1073.61,-837.844 1074.06,-844.83"/>
</g>
<!-- ace&#45;&gt;ahk -->
<g id="edge49" class="edge"><title>ace&#45;&gt;ahk</title>
<path fill="none" stroke="black" d="M1137.78,-948.31C1224.11,-939.3 1503.27,-910.165 1603.09,-899.747"/>
<polygon fill="black" stroke="black" points="1603.69,-903.204 1613.27,-898.685 1602.97,-896.242 1603.69,-903.204"/>
</g>
<!-- ahk&#45;&gt;aak -->
<g id="edge50" class="edge"><title>ahk&#45;&gt;aak</title>
<path fill="none" stroke="black" d="M1616.5,-886.642C1570.95,-868.266 1464.16,-828.034 1370,-814 924.211,-747.564 374.798,-856.913 232.787,-888.082"/>
<polygon fill="black" stroke="black" points="231.906,-884.693 222.899,-890.271 233.419,-891.527 231.906,-884.693"/>
</g>
<!-- ahk&#45;&gt;jq -->
<g id="edge51" class="edge"><title>ahk&#45;&gt;jq</title>
<path fill="none" stroke="black" d="M1613.04,-898.331C1474.4,-904.092 821.663,-904.22 660.193,-898.714"/>
<polygon fill="black" stroke="black" points="659.978,-895.204 649.853,-898.326 659.715,-902.199 659.978,-895.204"/>
</g>
<!-- ahk&#45;&gt;tc -->
<g id="edge52" class="edge"><title>ahk&#45;&gt;tc</title>
<path fill="none" stroke="black" d="M1665.49,-902.309C1737.79,-920.934 1950.44,-975.716 2033.86,-997.206"/>
<polygon fill="black" stroke="black" points="2033.05,-1000.61 2043.61,-999.716 2034.8,-993.832 2033.05,-1000.61"/>
</g>
<!-- tc&#45;&gt;jq -->
<g id="edge60" class="edge"><title>tc&#45;&gt;jq</title>
<path fill="none" stroke="black" d="M2042.84,-1010.85C1888.17,-1032.54 1065.78,-1105.77 852,-987 826.462,-972.811 840.668,-947.654 816,-932 768.415,-901.803 700.949,-899.555 659.959,-899.098"/>
<polygon fill="black" stroke="black" points="659.921,-895.597 649.888,-899.001 659.854,-902.597 659.921,-895.597"/>
</g>
<!-- x2&#45;&gt;jq -->
<g id="edge61" class="edge"><title>x2&#45;&gt;jq</title>
<path fill="none" stroke="black" d="M1085.49,-846.945C1005.96,-860.511 754.726,-889.14 660.326,-895.653"/>
<polygon fill="black" stroke="black" points="659.886,-892.174 650.129,-896.306 660.333,-899.16 659.886,-892.174"/>
</g>
<!-- x2&#45;&gt;ahk -->
<g id="edge62" class="edge"><title>x2&#45;&gt;ahk</title>
<path fill="none" stroke="black" d="M1137.78,-843.69C1224.11,-852.7 1503.27,-881.835 1603.09,-892.253"/>
<polygon fill="black" stroke="black" points="1602.97,-895.758 1613.27,-893.315 1603.69,-888.796 1602.97,-895.758"/>
</g>
<!-- nn -->
<g id="node35" class="node"><title>nn</title>
<ellipse fill="none" stroke="black" cx="197" cy="-950" rx="27" ry="18"/>
<text text-anchor="middle" x="197" y="-946.3" font-family="Times New Roman,serif" font-size="14.00">nn</text>
</g>
<!-- q4 -->
<g id="node36" class="node"><title>q4</title>
<ellipse fill="none" stroke="black" cx="623" cy="-950" rx="27" ry="18"/>
<text text-anchor="middle" x="623" y="-946.3" font-family="Times New Roman,serif" font-size="14.00">q4</text>
</g>
<!-- nn&#45;&gt;q4 -->
<g id="edge58" class="edge"><title>nn&#45;&gt;q4</title>
<path fill="none" stroke="black" d="M223.568,-946.569C296.025,-942.326 502.861,-942.151 586.379,-946.045"/>
<polygon fill="black" stroke="black" points="586.23,-949.542 596.398,-946.567 586.594,-942.551 586.23,-949.542"/>
</g>
<!-- q4&#45;&gt;nn -->
<g id="edge59" class="edge"><title>q4&#45;&gt;nn</title>
<path fill="none" stroke="black" d="M596.398,-953.433C523.901,-957.675 317.062,-957.848 233.582,-953.953"/>
<polygon fill="black" stroke="black" points="233.737,-950.457 223.568,-953.431 233.372,-957.447 233.737,-950.457"/>
</g>
</g>
</svg>
