<?xml version="1.0" encoding="UTF-8" standalone="no"?>
<!DOCTYPE svg PUBLIC "-//W3C//DTD SVG 1.1//EN"
 "http://www.w3.org/Graphics/SVG/1.1/DTD/svg11.dtd">
<!-- Generated by graphviz version 2.30.1 (20130214.1330)
 -->
<!-- Title: G Pages: 1 -->
<svg width="1356pt" height="315pt"
 viewBox="0.00 0.00 1356.00 315.00" xmlns="http://www.w3.org/2000/svg" xmlns:xlink="http://www.w3.org/1999/xlink">
<g id="graph0" class="graph" transform="scale(1 1) rotate(0) translate(4 311)">
<title>G</title>
<polygon fill="white" stroke="white" points="-4,5 -4,-311 1353,-311 1353,5 -4,5"/>
<!-- TechTalk.SpecFlow.Assist.PropertyExtensionMethods -->
<g id="node1" class="node"><title>TechTalk.SpecFlow.Assist.PropertyExtensionMethods</title>
<ellipse fill="none" stroke="black" cx="265" cy="-18" rx="211.762" ry="18"/>
<text text-anchor="middle" x="265" y="-14.3" font-family="Times New Roman,serif" font-size="14.00">TechTalk.SpecFlow.Assist.PropertyExtensionMethods</text>
</g>
<!-- TechTalk.SpecFlow.Assist.TEHelpers -->
<g id="node2" class="node"><title>TechTalk.SpecFlow.Assist.TEHelpers</title>
<ellipse fill="none" stroke="black" cx="813" cy="-18" rx="151.373" ry="18"/>
<text text-anchor="middle" x="813" y="-14.3" font-family="Times New Roman,serif" font-size="14.00">TechTalk.SpecFlow.Assist.TEHelpers</text>
</g>
<!-- TechTalk.SpecFlow.Assist.PropertyExtensionMethods&#45;&gt;TechTalk.SpecFlow.Assist.TEHelpers -->
<g id="edge1" class="edge"><title>TechTalk.SpecFlow.Assist.PropertyExtensionMethods&#45;&gt;TechTalk.SpecFlow.Assist.TEHelpers</title>
<path fill="none" stroke="black" d="M462.733,-11.4898C527.721,-11.0711 598.978,-11.2007 660.085,-11.8786"/>
<polygon fill="black" stroke="black" points="660.153,-15.3795 670.193,-11.9969 660.235,-8.38 660.153,-15.3795"/>
</g>
<!-- TechTalk.SpecFlow.Assist.TEHelpers&#45;&gt;TechTalk.SpecFlow.Assist.PropertyExtensionMethods -->
<g id="edge2" class="edge"><title>TechTalk.SpecFlow.Assist.TEHelpers&#45;&gt;TechTalk.SpecFlow.Assist.PropertyExtensionMethods</title>
<path fill="none" stroke="black" d="M670.193,-24.0031C610.02,-24.7451 538.691,-24.9342 472.83,-24.5706"/>
<polygon fill="black" stroke="black" points="472.754,-21.0702 462.733,-24.5102 472.712,-28.07 472.754,-21.0702"/>
</g>
<!-- TechTalk.SpecFlow.Bindings.Reflection.BindingReflectionExtensions -->
<g id="node3" class="node"><title>TechTalk.SpecFlow.Bindings.Reflection.BindingReflectionExtensions</title>
<ellipse fill="none" stroke="black" cx="265" cy="-72" rx="265.353" ry="18"/>
<text text-anchor="middle" x="265" y="-68.3" font-family="Times New Roman,serif" font-size="14.00">TechTalk.SpecFlow.Bindings.Reflection.BindingReflectionExtensions</text>
</g>
<!-- TechTalk.SpecFlow.Bindings.Reflection.RuntimeBindingMethod -->
<g id="node4" class="node"><title>TechTalk.SpecFlow.Bindings.Reflection.RuntimeBindingMethod</title>
<ellipse fill="none" stroke="black" cx="813" cy="-72" rx="246.956" ry="18"/>
<text text-anchor="middle" x="813" y="-68.3" font-family="Times New Roman,serif" font-size="14.00">TechTalk.SpecFlow.Bindings.Reflection.RuntimeBindingMethod</text>
</g>
<!-- TechTalk.SpecFlow.Bindings.Reflection.BindingReflectionExtensions&#45;&gt;TechTalk.SpecFlow.Bindings.Reflection.RuntimeBindingMethod -->
<g id="edge3" class="edge"><title>TechTalk.SpecFlow.Bindings.Reflection.BindingReflectionExtensions&#45;&gt;TechTalk.SpecFlow.Bindings.Reflection.RuntimeBindingMethod</title>
<path fill="none" stroke="black" d="M511.05,-65.2815C531.759,-65.2347 552.684,-65.24 573.343,-65.2977"/>
<polygon fill="black" stroke="black" points="573.45,-68.798 583.461,-65.3302 573.472,-61.798 573.45,-68.798"/>
</g>
<!-- TechTalk.SpecFlow.Bindings.Reflection.RuntimeBindingMethod&#45;&gt;TechTalk.SpecFlow.Bindings.Reflection.BindingReflectionExtensions -->
<g id="edge4" class="edge"><title>TechTalk.SpecFlow.Bindings.Reflection.RuntimeBindingMethod&#45;&gt;TechTalk.SpecFlow.Bindings.Reflection.BindingReflectionExtensions</title>
<path fill="none" stroke="black" d="M583.461,-78.6698C562.902,-78.7446 541.998,-78.7671 521.232,-78.7373"/>
<polygon fill="black" stroke="black" points="521.057,-75.237 511.05,-78.7185 521.044,-82.237 521.057,-75.237"/>
</g>
<!-- TechTalk.SpecFlow.ITestRunner -->
<g id="node5" class="node"><title>TechTalk.SpecFlow.ITestRunner</title>
<ellipse fill="none" stroke="black" cx="265" cy="-126" rx="132.677" ry="18"/>
<text text-anchor="middle" x="265" y="-122.3" font-family="Times New Roman,serif" font-size="14.00">TechTalk.SpecFlow.ITestRunner</text>
</g>
<!-- TechTalk.SpecFlow.ScenarioContext -->
<g id="node6" class="node"><title>TechTalk.SpecFlow.ScenarioContext</title>
<ellipse fill="none" stroke="black" cx="813" cy="-126" rx="147.574" ry="18"/>
<text text-anchor="middle" x="813" y="-122.3" font-family="Times New Roman,serif" font-size="14.00">TechTalk.SpecFlow.ScenarioContext</text>
</g>
<!-- TechTalk.SpecFlow.ITestRunner&#45;&gt;TechTalk.SpecFlow.ScenarioContext -->
<g id="edge5" class="edge"><title>TechTalk.SpecFlow.ITestRunner&#45;&gt;TechTalk.SpecFlow.ScenarioContext</title>
<path fill="none" stroke="black" d="M390.921,-120.224C472.072,-119.036 578.253,-118.935 663.686,-119.919"/>
<polygon fill="black" stroke="black" points="663.691,-123.42 673.733,-120.041 663.777,-116.42 663.691,-123.42"/>
</g>
<!-- TechTalk.SpecFlow.ScenarioContext&#45;&gt;TechTalk.SpecFlow.ITestRunner -->
<g id="edge8" class="edge"><title>TechTalk.SpecFlow.ScenarioContext&#45;&gt;TechTalk.SpecFlow.ITestRunner</title>
<path fill="none" stroke="black" d="M673.733,-131.959C590.1,-133.028 483.952,-133.014 400.928,-131.915"/>
<polygon fill="black" stroke="black" points="400.969,-128.416 390.921,-131.776 400.871,-135.415 400.969,-128.416"/>
</g>
<!-- TechTalk.SpecFlow.Infrastructure.IStepErrorHandler -->
<g id="node7" class="node"><title>TechTalk.SpecFlow.Infrastructure.IStepErrorHandler</title>
<ellipse fill="none" stroke="black" cx="265" cy="-180" rx="205.264" ry="18"/>
<text text-anchor="middle" x="265" y="-176.3" font-family="Times New Roman,serif" font-size="14.00">TechTalk.SpecFlow.Infrastructure.IStepErrorHandler</text>
</g>
<!-- TechTalk.SpecFlow.Infrastructure.TestExecutionEngine -->
<g id="node8" class="node"><title>TechTalk.SpecFlow.Infrastructure.TestExecutionEngine</title>
<ellipse fill="none" stroke="black" cx="813" cy="-180" rx="215.262" ry="18"/>
<text text-anchor="middle" x="813" y="-176.3" font-family="Times New Roman,serif" font-size="14.00">TechTalk.SpecFlow.Infrastructure.TestExecutionEngine</text>
</g>
<!-- TechTalk.SpecFlow.Infrastructure.IStepErrorHandler&#45;&gt;TechTalk.SpecFlow.Infrastructure.TestExecutionEngine -->
<g id="edge6" class="edge"><title>TechTalk.SpecFlow.Infrastructure.IStepErrorHandler&#45;&gt;TechTalk.SpecFlow.Infrastructure.TestExecutionEngine</title>
<path fill="none" stroke="black" d="M456.964,-173.529C503.905,-173.201 554.413,-173.162 602.189,-173.413"/>
<polygon fill="black" stroke="black" points="602.32,-176.914 612.34,-173.471 602.36,-169.914 602.32,-176.914"/>
</g>
<!-- TechTalk.SpecFlow.Infrastructure.TestExecutionEngine&#45;&gt;TechTalk.SpecFlow.Infrastructure.IStepErrorHandler -->
<g id="edge7" class="edge"><title>TechTalk.SpecFlow.Infrastructure.TestExecutionEngine&#45;&gt;TechTalk.SpecFlow.Infrastructure.IStepErrorHandler</title>
<path fill="none" stroke="black" d="M612.34,-186.529C564.985,-186.821 514.449,-186.824 467.033,-186.537"/>
<polygon fill="black" stroke="black" points="466.987,-183.037 456.964,-186.471 466.941,-190.037 466.987,-183.037"/>
</g>
<!-- TechTalk.SpecFlow.Table -->
<g id="node9" class="node"><title>TechTalk.SpecFlow.Table</title>
<ellipse fill="none" stroke="black" cx="265" cy="-289" rx="107.781" ry="18"/>
<text text-anchor="middle" x="265" y="-285.3" font-family="Times New Roman,serif" font-size="14.00">TechTalk.SpecFlow.Table</text>
</g>
<!-- TechTalk.SpecFlow.TableRow -->
<g id="node10" class="node"><title>TechTalk.SpecFlow.TableRow</title>
<ellipse fill="none" stroke="black" cx="1222" cy="-289" rx="125.378" ry="18"/>
<text text-anchor="middle" x="1222" y="-285.3" font-family="Times New Roman,serif" font-size="14.00">TechTalk.SpecFlow.TableRow</text>
</g>
<!-- TechTalk.SpecFlow.Table&#45;&gt;TechTalk.SpecFlow.TableRow -->
<g id="edge9" class="edge"><title>TechTalk.SpecFlow.Table&#45;&gt;TechTalk.SpecFlow.TableRow</title>
<path fill="none" stroke="black" d="M370.02,-284.598C545.269,-281.611 898.961,-281.474 1090.55,-284.188"/>
<polygon fill="black" stroke="black" points="1090.63,-287.689 1100.68,-284.336 1090.73,-280.69 1090.63,-287.689"/>
</g>
<!-- TechTalk.SpecFlow.TableRows -->
<g id="node11" class="node"><title>TechTalk.SpecFlow.TableRows</title>
<ellipse fill="none" stroke="black" cx="813" cy="-234" rx="129.177" ry="18"/>
<text text-anchor="middle" x="813" y="-230.3" font-family="Times New Roman,serif" font-size="14.00">TechTalk.SpecFlow.TableRows</text>
</g>
<!-- TechTalk.SpecFlow.Table&#45;&gt;TechTalk.SpecFlow.TableRows -->
<g id="edge10" class="edge"><title>TechTalk.SpecFlow.Table&#45;&gt;TechTalk.SpecFlow.TableRows</title>
<path fill="none" stroke="black" d="M357.696,-279.763C451.228,-270.342 596.579,-255.7 697.589,-245.525"/>
<polygon fill="black" stroke="black" points="698.236,-248.978 707.835,-244.493 697.534,-242.013 698.236,-248.978"/>
</g>
<!-- TechTalk.SpecFlow.TableRow&#45;&gt;TechTalk.SpecFlow.Table -->
<g id="edge11" class="edge"><title>TechTalk.SpecFlow.TableRow&#45;&gt;TechTalk.SpecFlow.Table</title>
<path fill="none" stroke="black" d="M1100.68,-293.664C915.182,-296.477 561.825,-296.445 380.138,-293.568"/>
<polygon fill="black" stroke="black" points="380.076,-290.066 370.02,-293.402 379.961,-297.065 380.076,-290.066"/>
</g>
<!-- TechTalk.SpecFlow.TableRows&#45;&gt;TechTalk.SpecFlow.TableRow -->
<g id="edge12" class="edge"><title>TechTalk.SpecFlow.TableRows&#45;&gt;TechTalk.SpecFlow.TableRow</title>
<path fill="none" stroke="black" d="M909.246,-246.107C954.874,-251.979 1010.29,-259.216 1060,-266 1080.44,-268.789 1102.32,-271.859 1123.16,-274.822"/>
<polygon fill="black" stroke="black" points="1122.9,-278.321 1133.29,-276.267 1123.89,-271.391 1122.9,-278.321"/>
</g>
</g>
</svg>
