<?xml version="1.0" encoding="UTF-8" standalone="no"?>
<!DOCTYPE svg PUBLIC "-//W3C//DTD SVG 1.1//EN"
 "http://www.w3.org/Graphics/SVG/1.1/DTD/svg11.dtd">
<!-- Generated by graphviz version 2.30.1 (20130214.1330)
 -->
<!-- Title: G Pages: 1 -->
<svg width="886pt" height="44pt"
 viewBox="0.00 0.00 886.00 44.00" xmlns="http://www.w3.org/2000/svg" xmlns:xlink="http://www.w3.org/1999/xlink">
<g id="graph0" class="graph" transform="scale(1 1) rotate(0) translate(4 40)">
<title>G</title>
<polygon fill="white" stroke="white" points="-4,5 -4,-40 883,-40 883,5 -4,5"/>
<!-- TechTalk.SpecFlow.Infrastructure.IStepErrorHandler -->
<g id="node1" class="node"><title>TechTalk.SpecFlow.Infrastructure.IStepErrorHandler</title>
<ellipse fill="none" stroke="black" cx="206" cy="-18" rx="205.264" ry="18"/>
<text text-anchor="middle" x="206" y="-14.3" font-family="Times New Roman,serif" font-size="14.00">TechTalk.SpecFlow.Infrastructure.IStepErrorHandler</text>
</g>
<!-- TechTalk.SpecFlow.Infrastructure.TestExecutionEngine -->
<g id="node2" class="node"><title>TechTalk.SpecFlow.Infrastructure.TestExecutionEngine</title>
<ellipse fill="none" stroke="black" cx="663" cy="-18" rx="215.262" ry="18"/>
<text text-anchor="middle" x="663" y="-14.3" font-family="Times New Roman,serif" font-size="14.00">TechTalk.SpecFlow.Infrastructure.TestExecutionEngine</text>
</g>
<!-- TechTalk.SpecFlow.Infrastructure.IStepErrorHandler&#45;&gt;TechTalk.SpecFlow.Infrastructure.TestExecutionEngine -->
<g id="edge1" class="edge"><title>TechTalk.SpecFlow.Infrastructure.IStepErrorHandler&#45;&gt;TechTalk.SpecFlow.Infrastructure.TestExecutionEngine</title>
<path fill="none" stroke="black" d="M396.995,-11.3322C415.482,-11.2505 434.309,-11.2297 452.969,-11.2698"/>
<polygon fill="black" stroke="black" points="453.001,-14.7698 463.011,-11.2973 453.02,-7.76984 453.001,-14.7698"/>
</g>
<!-- TechTalk.SpecFlow.Infrastructure.TestExecutionEngine&#45;&gt;TechTalk.SpecFlow.Infrastructure.IStepErrorHandler -->
<g id="edge2" class="edge"><title>TechTalk.SpecFlow.Infrastructure.TestExecutionEngine&#45;&gt;TechTalk.SpecFlow.Infrastructure.IStepErrorHandler</title>
<path fill="none" stroke="black" d="M463.011,-24.7027C444.513,-24.7644 425.759,-24.7657 407.25,-24.7068"/>
<polygon fill="black" stroke="black" points="407.009,-21.2059 396.995,-24.6678 406.982,-28.2059 407.009,-21.2059"/>
</g>
</g>
</svg>
