<?xml version="1.0" encoding="UTF-8" standalone="no"?>
<!DOCTYPE svg PUBLIC "-//W3C//DTD SVG 1.1//EN"
 "http://www.w3.org/Graphics/SVG/1.1/DTD/svg11.dtd">
<!-- Generated by graphviz version 2.30.1 (20130214.1330)
 -->
<!-- Title: G Pages: 1 -->
<svg width="942pt" height="584pt"
 viewBox="0.00 0.00 942.00 584.00" xmlns="http://www.w3.org/2000/svg" xmlns:xlink="http://www.w3.org/1999/xlink">
<g id="graph0" class="graph" transform="scale(1 1) rotate(0) translate(4 580)">
<title>G</title>
<polygon fill="white" stroke="white" points="-4,5 -4,-580 939,-580 939,5 -4,5"/>
<!-- TickSpec.AfterScenarioAttribute -->
<g id="node1" class="node"><title>TickSpec.AfterScenarioAttribute</title>
<ellipse fill="none" stroke="black" cx="157" cy="-180" rx="129.977" ry="18"/>
<text text-anchor="middle" x="157" y="-176.3" font-family="Times New Roman,serif" font-size="14.00">TickSpec.AfterScenarioAttribute</text>
</g>
<!-- TickSpec.EventAttribute -->
<g id="node2" class="node"><title>TickSpec.EventAttribute</title>
<ellipse fill="none" stroke="black" cx="453" cy="-99" rx="100.983" ry="18"/>
<text text-anchor="middle" x="453" y="-95.3" font-family="Times New Roman,serif" font-size="14.00">TickSpec.EventAttribute</text>
</g>
<!-- TickSpec.AfterScenarioAttribute&#45;&gt;TickSpec.EventAttribute -->
<g id="edge1" class="edge"><title>TickSpec.AfterScenarioAttribute&#45;&gt;TickSpec.EventAttribute</title>
<path fill="none" stroke="black" d="M249.84,-167.278C271.091,-163.46 293.483,-158.727 314,-153 345.339,-144.253 379.394,-130.969 405.832,-119.766"/>
<polygon fill="black" stroke="black" points="407.398,-122.903 415.209,-115.745 404.639,-116.47 407.398,-122.903"/>
</g>
<!-- TickSpec.AfterStepAttribute -->
<g id="node3" class="node"><title>TickSpec.AfterStepAttribute</title>
<ellipse fill="none" stroke="black" cx="157" cy="-126" rx="115.08" ry="18"/>
<text text-anchor="middle" x="157" y="-122.3" font-family="Times New Roman,serif" font-size="14.00">TickSpec.AfterStepAttribute</text>
</g>
<!-- TickSpec.AfterStepAttribute&#45;&gt;TickSpec.EventAttribute -->
<g id="edge2" class="edge"><title>TickSpec.AfterStepAttribute&#45;&gt;TickSpec.EventAttribute</title>
<path fill="none" stroke="black" d="M256.716,-116.934C287.59,-114.099 321.661,-110.97 352.583,-108.13"/>
<polygon fill="black" stroke="black" points="353.301,-111.579 362.939,-107.179 352.661,-104.608 353.301,-111.579"/>
</g>
<!-- TickSpec.BeforeScenarioAttribute -->
<g id="node4" class="node"><title>TickSpec.BeforeScenarioAttribute</title>
<ellipse fill="none" stroke="black" cx="157" cy="-72" rx="135.676" ry="18"/>
<text text-anchor="middle" x="157" y="-68.3" font-family="Times New Roman,serif" font-size="14.00">TickSpec.BeforeScenarioAttribute</text>
</g>
<!-- TickSpec.BeforeScenarioAttribute&#45;&gt;TickSpec.EventAttribute -->
<g id="edge3" class="edge"><title>TickSpec.BeforeScenarioAttribute&#45;&gt;TickSpec.EventAttribute</title>
<path fill="none" stroke="black" d="M269.149,-82.2075C296.689,-84.7367 326.017,-87.4301 352.936,-89.9023"/>
<polygon fill="black" stroke="black" points="352.848,-93.4089 363.127,-90.8382 353.489,-86.4382 352.848,-93.4089"/>
</g>
<!-- TickSpec.BeforeStepAttribute -->
<g id="node5" class="node"><title>TickSpec.BeforeStepAttribute</title>
<ellipse fill="none" stroke="black" cx="157" cy="-18" rx="120.779" ry="18"/>
<text text-anchor="middle" x="157" y="-14.3" font-family="Times New Roman,serif" font-size="14.00">TickSpec.BeforeStepAttribute</text>
</g>
<!-- TickSpec.BeforeStepAttribute&#45;&gt;TickSpec.EventAttribute -->
<g id="edge4" class="edge"><title>TickSpec.BeforeStepAttribute&#45;&gt;TickSpec.EventAttribute</title>
<path fill="none" stroke="black" d="M246.559,-30.1385C268.774,-34.0535 292.424,-38.9778 314,-45 345.339,-53.7471 379.394,-67.0307 405.832,-78.2337"/>
<polygon fill="black" stroke="black" points="404.639,-81.5302 415.209,-82.2548 407.398,-75.0968 404.639,-81.5302"/>
</g>
<!-- TickSpec.Feature -->
<g id="node6" class="node"><title>TickSpec.Feature</title>
<ellipse fill="none" stroke="black" cx="453" cy="-234" rx="75.2868" ry="18"/>
<text text-anchor="middle" x="453" y="-230.3" font-family="Times New Roman,serif" font-size="14.00">TickSpec.Feature</text>
</g>
<!-- TickSpec.Scenario -->
<g id="node7" class="node"><title>TickSpec.Scenario</title>
<ellipse fill="none" stroke="black" cx="672" cy="-211" rx="79.8859" ry="18"/>
<text text-anchor="middle" x="672" y="-207.3" font-family="Times New Roman,serif" font-size="14.00">TickSpec.Scenario</text>
</g>
<!-- TickSpec.Feature&#45;&gt;TickSpec.Scenario -->
<g id="edge5" class="edge"><title>TickSpec.Feature&#45;&gt;TickSpec.Scenario</title>
<path fill="none" stroke="black" d="M522.362,-226.754C543.586,-224.505 567.194,-222.002 589.233,-219.667"/>
<polygon fill="black" stroke="black" points="589.659,-223.141 599.235,-218.606 588.922,-216.18 589.659,-223.141"/>
</g>
<!-- TickSpec.Action -->
<g id="node14" class="node"><title>TickSpec.Action</title>
<ellipse fill="none" stroke="black" cx="861" cy="-211" rx="72.5877" ry="18"/>
<text text-anchor="middle" x="861" y="-207.3" font-family="Times New Roman,serif" font-size="14.00">TickSpec.Action</text>
</g>
<!-- TickSpec.Scenario&#45;&gt;TickSpec.Action -->
<g id="edge9" class="edge"><title>TickSpec.Scenario&#45;&gt;TickSpec.Action</title>
<path fill="none" stroke="black" d="M752.034,-211C760.631,-211 769.396,-211 778.028,-211"/>
<polygon fill="black" stroke="black" points="778.081,-214.5 788.081,-211 778.081,-207.5 778.081,-214.5"/>
</g>
<!-- TickSpec.FeatureParser -->
<g id="node8" class="node"><title>TickSpec.FeatureParser</title>
<ellipse fill="none" stroke="black" cx="157" cy="-288" rx="98.2828" ry="18"/>
<text text-anchor="middle" x="157" y="-284.3" font-family="Times New Roman,serif" font-size="14.00">TickSpec.FeatureParser</text>
</g>
<!-- TickSpec.FeatureSource -->
<g id="node9" class="node"><title>TickSpec.FeatureSource</title>
<ellipse fill="none" stroke="black" cx="453" cy="-288" rx="100.983" ry="18"/>
<text text-anchor="middle" x="453" y="-284.3" font-family="Times New Roman,serif" font-size="14.00">TickSpec.FeatureSource</text>
</g>
<!-- TickSpec.FeatureParser&#45;&gt;TickSpec.FeatureSource -->
<g id="edge6" class="edge"><title>TickSpec.FeatureParser&#45;&gt;TickSpec.FeatureSource</title>
<path fill="none" stroke="black" d="M255.489,-288C283.104,-288 313.359,-288 341.674,-288"/>
<polygon fill="black" stroke="black" points="342.01,-291.5 352.009,-288 342.009,-284.5 342.01,-291.5"/>
</g>
<!-- TickSpec.GivenAttribute -->
<g id="node10" class="node"><title>TickSpec.GivenAttribute</title>
<ellipse fill="none" stroke="black" cx="157" cy="-450" rx="101.282" ry="18"/>
<text text-anchor="middle" x="157" y="-446.3" font-family="Times New Roman,serif" font-size="14.00">TickSpec.GivenAttribute</text>
</g>
<!-- TickSpec.StepAttribute -->
<g id="node11" class="node"><title>TickSpec.StepAttribute</title>
<ellipse fill="none" stroke="black" cx="453" cy="-396" rx="96.6831" ry="18"/>
<text text-anchor="middle" x="453" y="-392.3" font-family="Times New Roman,serif" font-size="14.00">TickSpec.StepAttribute</text>
</g>
<!-- TickSpec.GivenAttribute&#45;&gt;TickSpec.StepAttribute -->
<g id="edge7" class="edge"><title>TickSpec.GivenAttribute&#45;&gt;TickSpec.StepAttribute</title>
<path fill="none" stroke="black" d="M231.073,-437.692C257.253,-433.193 286.969,-427.983 314,-423 334.322,-419.254 356.294,-415.033 376.601,-411.061"/>
<polygon fill="black" stroke="black" points="377.283,-414.494 386.422,-409.134 375.935,-407.625 377.283,-414.494"/>
</g>
<!-- TickSpec.LineSource -->
<g id="node12" class="node"><title>TickSpec.LineSource</title>
<ellipse fill="none" stroke="black" cx="157" cy="-504" rx="89.8845" ry="18"/>
<text text-anchor="middle" x="157" y="-500.3" font-family="Times New Roman,serif" font-size="14.00">TickSpec.LineSource</text>
</g>
<!-- TickSpec.Table -->
<g id="node13" class="node"><title>TickSpec.Table</title>
<ellipse fill="none" stroke="black" cx="453" cy="-504" rx="68.7879" ry="18"/>
<text text-anchor="middle" x="453" y="-500.3" font-family="Times New Roman,serif" font-size="14.00">TickSpec.Table</text>
</g>
<!-- TickSpec.LineSource&#45;&gt;TickSpec.Table -->
<g id="edge8" class="edge"><title>TickSpec.LineSource&#45;&gt;TickSpec.Table</title>
<path fill="none" stroke="black" d="M247.008,-504C287.345,-504 334.62,-504 373.6,-504"/>
<polygon fill="black" stroke="black" points="373.84,-507.5 383.84,-504 373.84,-500.5 373.84,-507.5"/>
</g>
<!-- TickSpec.StepArgumentTransformation -->
<g id="node15" class="node"><title>TickSpec.StepArgumentTransformation</title>
<ellipse fill="none" stroke="black" cx="157" cy="-558" rx="156.772" ry="18"/>
<text text-anchor="middle" x="157" y="-554.3" font-family="Times New Roman,serif" font-size="14.00">TickSpec.StepArgumentTransformation</text>
</g>
<!-- TickSpec.ParserAttribute -->
<g id="node16" class="node"><title>TickSpec.ParserAttribute</title>
<ellipse fill="none" stroke="black" cx="453" cy="-558" rx="102.882" ry="18"/>
<text text-anchor="middle" x="453" y="-554.3" font-family="Times New Roman,serif" font-size="14.00">TickSpec.ParserAttribute</text>
</g>
<!-- TickSpec.StepArgumentTransformation&#45;&gt;TickSpec.ParserAttribute -->
<g id="edge10" class="edge"><title>TickSpec.StepArgumentTransformation&#45;&gt;TickSpec.ParserAttribute</title>
<path fill="none" stroke="black" d="M314.039,-558C322.735,-558 331.389,-558 339.877,-558"/>
<polygon fill="black" stroke="black" points="340.142,-561.5 350.142,-558 340.142,-554.5 340.142,-561.5"/>
</g>
<!-- TickSpec.StepDefinitions -->
<g id="node17" class="node"><title>TickSpec.StepDefinitions</title>
<ellipse fill="none" stroke="black" cx="157" cy="-234" rx="103.982" ry="18"/>
<text text-anchor="middle" x="157" y="-230.3" font-family="Times New Roman,serif" font-size="14.00">TickSpec.StepDefinitions</text>
</g>
<!-- TickSpec.StepDefinitions&#45;&gt;TickSpec.Feature -->
<g id="edge11" class="edge"><title>TickSpec.StepDefinitions&#45;&gt;TickSpec.Feature</title>
<path fill="none" stroke="black" d="M261.24,-234C295.877,-234 334.081,-234 367.144,-234"/>
<polygon fill="black" stroke="black" points="367.23,-237.5 377.23,-234 367.23,-230.5 367.23,-237.5"/>
</g>
<!-- TickSpec.StepDefinitions&#45;&gt;TickSpec.Scenario -->
<g id="edge12" class="edge"><title>TickSpec.StepDefinitions&#45;&gt;TickSpec.Scenario</title>
<path fill="none" stroke="black" d="M231.14,-221.267C266.86,-215.675 310.544,-209.761 350,-207 441.332,-200.61 464.458,-205.408 556,-207 564.708,-207.151 573.784,-207.367 582.852,-207.621"/>
<polygon fill="black" stroke="black" points="582.967,-211.126 593.066,-207.923 583.173,-204.129 582.967,-211.126"/>
</g>
<!-- TickSpec.ThenAttribute -->
<g id="node18" class="node"><title>TickSpec.ThenAttribute</title>
<ellipse fill="none" stroke="black" cx="157" cy="-396" rx="98.5829" ry="18"/>
<text text-anchor="middle" x="157" y="-392.3" font-family="Times New Roman,serif" font-size="14.00">TickSpec.ThenAttribute</text>
</g>
<!-- TickSpec.ThenAttribute&#45;&gt;TickSpec.StepAttribute -->
<g id="edge13" class="edge"><title>TickSpec.ThenAttribute&#45;&gt;TickSpec.StepAttribute</title>
<path fill="none" stroke="black" d="M255.898,-396C284.736,-396 316.424,-396 345.759,-396"/>
<polygon fill="black" stroke="black" points="346.029,-399.5 356.029,-396 346.029,-392.5 346.029,-399.5"/>
</g>
<!-- TickSpec.WhenAttribute -->
<g id="node19" class="node"><title>TickSpec.WhenAttribute</title>
<ellipse fill="none" stroke="black" cx="157" cy="-342" rx="101.282" ry="18"/>
<text text-anchor="middle" x="157" y="-338.3" font-family="Times New Roman,serif" font-size="14.00">TickSpec.WhenAttribute</text>
</g>
<!-- TickSpec.WhenAttribute&#45;&gt;TickSpec.StepAttribute -->
<g id="edge14" class="edge"><title>TickSpec.WhenAttribute&#45;&gt;TickSpec.StepAttribute</title>
<path fill="none" stroke="black" d="M231.073,-354.308C257.253,-358.807 286.969,-364.017 314,-369 334.322,-372.746 356.294,-376.967 376.601,-380.939"/>
<polygon fill="black" stroke="black" points="375.935,-384.375 386.422,-382.866 377.283,-377.506 375.935,-384.375"/>
</g>
</g>
</svg>
