<?xml version="1.0" encoding="UTF-8" standalone="no"?>
<!DOCTYPE svg PUBLIC "-//W3C//DTD SVG 1.1//EN"
 "http://www.w3.org/Graphics/SVG/1.1/DTD/svg11.dtd">
<!-- Generated by graphviz version 2.30.1 (20130214.1330)
 -->
<!-- Title: G Pages: 1 -->
<svg width="2190pt" height="460pt"
 viewBox="0.00 0.00 2190.00 460.47" xmlns="http://www.w3.org/2000/svg" xmlns:xlink="http://www.w3.org/1999/xlink">
<g id="graph0" class="graph" transform="scale(1 1) rotate(0) translate(4 456.475)">
<title>G</title>
<polygon fill="white" stroke="white" points="-4,5 -4,-456.475 2187,-456.475 2187,5 -4,5"/>
<!-- IntelliFactory.WebSharper.Core.Json -->
<g id="node1" class="node"><title>IntelliFactory.WebSharper.Core.Json</title>
<ellipse fill="none" stroke="black" cx="664" cy="-50.475" rx="146.474" ry="18"/>
<text text-anchor="middle" x="664" y="-46.775" font-family="Times New Roman,serif" font-size="14.00">IntelliFactory.WebSharper.Core.Json</text>
</g>
<!-- IntelliFactory.WebSharper.Core.Metadata -->
<g id="node2" class="node"><title>IntelliFactory.WebSharper.Core.Metadata</title>
<ellipse fill="none" stroke="black" cx="1134" cy="-103.475" rx="163.271" ry="18"/>
<text text-anchor="middle" x="1134" y="-99.775" font-family="Times New Roman,serif" font-size="14.00">IntelliFactory.WebSharper.Core.Metadata</text>
</g>
<!-- IntelliFactory.WebSharper.Core.Json&#45;&gt;IntelliFactory.WebSharper.Core.Metadata -->
<g id="edge1" class="edge"><title>IntelliFactory.WebSharper.Core.Json&#45;&gt;IntelliFactory.WebSharper.Core.Metadata</title>
<path fill="none" stroke="black" d="M772.075,-62.601C842.685,-70.5974 935.403,-81.0975 1009.18,-89.453"/>
<polygon fill="black" stroke="black" points="1009.13,-92.9697 1019.46,-90.6173 1009.92,-86.0141 1009.13,-92.9697"/>
</g>
<!-- IntelliFactory.WebSharper.Core.Reflection -->
<g id="node3" class="node"><title>IntelliFactory.WebSharper.Core.Reflection</title>
<ellipse fill="none" stroke="black" cx="2015" cy="-65.475" rx="167.07" ry="18"/>
<text text-anchor="middle" x="2015" y="-61.775" font-family="Times New Roman,serif" font-size="14.00">IntelliFactory.WebSharper.Core.Reflection</text>
</g>
<!-- IntelliFactory.WebSharper.Core.Json&#45;&gt;IntelliFactory.WebSharper.Core.Reflection -->
<g id="edge2" class="edge"><title>IntelliFactory.WebSharper.Core.Json&#45;&gt;IntelliFactory.WebSharper.Core.Reflection</title>
<path fill="none" stroke="black" d="M809.687,-52.0838C1059.14,-54.8575 1569.23,-60.5294 1838.52,-63.5237"/>
<polygon fill="black" stroke="black" points="1838.75,-67.0264 1848.78,-63.6379 1838.82,-60.0268 1838.75,-67.0264"/>
</g>
<!-- IntelliFactory.WebSharper.Core.Metadata&#45;&gt;IntelliFactory.WebSharper.Core.Reflection -->
<g id="edge5" class="edge"><title>IntelliFactory.WebSharper.Core.Metadata&#45;&gt;IntelliFactory.WebSharper.Core.Reflection</title>
<path fill="none" stroke="black" d="M1265.34,-92.74C1305.9,-89.6953 1350.78,-86.627 1392,-84.475 1543.26,-76.5769 1715.41,-71.631 1840.19,-68.7726"/>
<polygon fill="black" stroke="black" points="1840.3,-72.271 1850.22,-68.5449 1840.14,-65.2728 1840.3,-72.271"/>
</g>
<!-- IntelliFactory.WebSharper.Core.Binary -->
<g id="node6" class="node"><title>IntelliFactory.WebSharper.Core.Binary</title>
<ellipse fill="none" stroke="black" cx="1602" cy="-165.475" rx="153.273" ry="18"/>
<text text-anchor="middle" x="1602" y="-161.775" font-family="Times New Roman,serif" font-size="14.00">IntelliFactory.WebSharper.Core.Binary</text>
</g>
<!-- IntelliFactory.WebSharper.Core.Metadata&#45;&gt;IntelliFactory.WebSharper.Core.Binary -->
<g id="edge6" class="edge"><title>IntelliFactory.WebSharper.Core.Metadata&#45;&gt;IntelliFactory.WebSharper.Core.Binary</title>
<path fill="none" stroke="black" d="M1236.6,-117.475C1283.84,-123.943 1340.78,-131.678 1392,-138.475 1423.01,-142.589 1456.62,-146.967 1487.63,-150.973"/>
<polygon fill="black" stroke="black" points="1487.23,-154.451 1497.6,-152.26 1488.13,-147.509 1487.23,-154.451"/>
</g>
<!-- IntelliFactory.WebSharper.Core.Resources -->
<g id="node7" class="node"><title>IntelliFactory.WebSharper.Core.Resources</title>
<ellipse fill="none" stroke="black" cx="1602" cy="-111.475" rx="168.17" ry="18"/>
<text text-anchor="middle" x="1602" y="-107.775" font-family="Times New Roman,serif" font-size="14.00">IntelliFactory.WebSharper.Core.Resources</text>
</g>
<!-- IntelliFactory.WebSharper.Core.Metadata&#45;&gt;IntelliFactory.WebSharper.Core.Resources -->
<g id="edge7" class="edge"><title>IntelliFactory.WebSharper.Core.Metadata&#45;&gt;IntelliFactory.WebSharper.Core.Resources</title>
<path fill="none" stroke="black" d="M1295.37,-106.228C1337.29,-106.948 1382.7,-107.727 1425.37,-108.46"/>
<polygon fill="black" stroke="black" points="1425.52,-111.963 1435.58,-108.635 1425.64,-104.964 1425.52,-111.963"/>
</g>
<!-- IntelliFactory.WebSharper.Core.Macros -->
<g id="node4" class="node"><title>IntelliFactory.WebSharper.Core.Macros</title>
<ellipse fill="none" stroke="black" cx="664" cy="-142.475" rx="157.072" ry="18"/>
<text text-anchor="middle" x="664" y="-138.775" font-family="Times New Roman,serif" font-size="14.00">IntelliFactory.WebSharper.Core.Macros</text>
</g>
<!-- IntelliFactory.WebSharper.Core.Macros&#45;&gt;IntelliFactory.WebSharper.Core.Metadata -->
<g id="edge3" class="edge"><title>IntelliFactory.WebSharper.Core.Macros&#45;&gt;IntelliFactory.WebSharper.Core.Metadata</title>
<path fill="none" stroke="black" d="M791.648,-131.921C853.96,-126.728 929.238,-120.455 993.23,-115.122"/>
<polygon fill="black" stroke="black" points="993.725,-118.593 1003.4,-114.275 993.143,-111.618 993.725,-118.593"/>
</g>
<!-- IntelliFactory.WebSharper.Core.Quotations -->
<g id="node5" class="node"><title>IntelliFactory.WebSharper.Core.Quotations</title>
<ellipse fill="none" stroke="black" cx="1134" cy="-195.475" rx="169.77" ry="18"/>
<text text-anchor="middle" x="1134" y="-191.775" font-family="Times New Roman,serif" font-size="14.00">IntelliFactory.WebSharper.Core.Quotations</text>
</g>
<!-- IntelliFactory.WebSharper.Core.Macros&#45;&gt;IntelliFactory.WebSharper.Core.Quotations -->
<g id="edge4" class="edge"><title>IntelliFactory.WebSharper.Core.Macros&#45;&gt;IntelliFactory.WebSharper.Core.Quotations</title>
<path fill="none" stroke="black" d="M776.503,-155.102C845.963,-162.969 935.478,-173.106 1007.43,-181.255"/>
<polygon fill="black" stroke="black" points="1007.13,-184.743 1017.46,-182.391 1007.92,-177.788 1007.13,-184.743"/>
</g>
<!-- IntelliFactory.WebSharper.Core.Quotations&#45;&gt;IntelliFactory.WebSharper.Core.Reflection -->
<g id="edge16" class="edge"><title>IntelliFactory.WebSharper.Core.Quotations&#45;&gt;IntelliFactory.WebSharper.Core.Reflection</title>
<path fill="none" stroke="black" d="M1225.96,-210.606C1358.08,-229.141 1609.41,-251.357 1812,-192.475 1881.16,-172.375 1949.54,-121.005 1986.31,-90.1053"/>
<polygon fill="black" stroke="black" points="1988.76,-92.6189 1994.1,-83.4682 1984.22,-87.2916 1988.76,-92.6189"/>
</g>
<!-- IntelliFactory.WebSharper.Core.Resources&#45;&gt;IntelliFactory.WebSharper.Core.Reflection -->
<g id="edge21" class="edge"><title>IntelliFactory.WebSharper.Core.Resources&#45;&gt;IntelliFactory.WebSharper.Core.Reflection</title>
<path fill="none" stroke="black" d="M1718.85,-98.5083C1771.71,-92.5926 1834.41,-85.5753 1888.39,-79.5332"/>
<polygon fill="black" stroke="black" points="1888.82,-83.0075 1898.37,-78.4168 1888.04,-76.0509 1888.82,-83.0075"/>
</g>
<!-- IntelliFactory.WebSharper.Core.Plugins.Configuration -->
<g id="node8" class="node"><title>IntelliFactory.WebSharper.Core.Plugins.Configuration</title>
<ellipse fill="none" stroke="black" cx="208" cy="-315.475" rx="207.963" ry="18"/>
<text text-anchor="middle" x="208" y="-311.775" font-family="Times New Roman,serif" font-size="14.00">IntelliFactory.WebSharper.Core.Plugins.Configuration</text>
</g>
<!-- IntelliFactory.WebSharper.Core.Plugins.IPlugin -->
<g id="node9" class="node"><title>IntelliFactory.WebSharper.Core.Plugins.IPlugin</title>
<ellipse fill="none" stroke="black" cx="664" cy="-380.475" rx="183.867" ry="18"/>
<text text-anchor="middle" x="664" y="-376.775" font-family="Times New Roman,serif" font-size="14.00">IntelliFactory.WebSharper.Core.Plugins.IPlugin</text>
</g>
<!-- IntelliFactory.WebSharper.Core.Plugins.Configuration&#45;&gt;IntelliFactory.WebSharper.Core.Plugins.IPlugin -->
<g id="edge8" class="edge"><title>IntelliFactory.WebSharper.Core.Plugins.Configuration&#45;&gt;IntelliFactory.WebSharper.Core.Plugins.IPlugin</title>
<path fill="none" stroke="black" d="M316.592,-330.879C386.714,-340.919 478.087,-354.001 549.383,-364.208"/>
<polygon fill="black" stroke="black" points="548.911,-367.676 559.306,-365.629 549.903,-360.747 548.911,-367.676"/>
</g>
<!-- IntelliFactory.WebSharper.Core.Plugins.PluginElement -->
<g id="node10" class="node"><title>IntelliFactory.WebSharper.Core.Plugins.PluginElement</title>
<ellipse fill="none" stroke="black" cx="1602" cy="-311.475" rx="209.863" ry="18"/>
<text text-anchor="middle" x="1602" y="-307.775" font-family="Times New Roman,serif" font-size="14.00">IntelliFactory.WebSharper.Core.Plugins.PluginElement</text>
</g>
<!-- IntelliFactory.WebSharper.Core.Plugins.Configuration&#45;&gt;IntelliFactory.WebSharper.Core.Plugins.PluginElement -->
<g id="edge9" class="edge"><title>IntelliFactory.WebSharper.Core.Plugins.Configuration&#45;&gt;IntelliFactory.WebSharper.Core.Plugins.PluginElement</title>
<path fill="none" stroke="black" d="M415.691,-316.49C645.351,-317.38 1027.19,-318.159 1356,-315.475 1365.81,-315.395 1375.84,-315.297 1385.97,-315.185"/>
<polygon fill="black" stroke="black" points="1386.18,-318.683 1396.14,-315.068 1386.1,-311.683 1386.18,-318.683"/>
</g>
<!-- IntelliFactory.WebSharper.Core.Plugins.PluginsCollection -->
<g id="node11" class="node"><title>IntelliFactory.WebSharper.Core.Plugins.PluginsCollection</title>
<ellipse fill="none" stroke="black" cx="1134" cy="-288.475" rx="221.761" ry="18"/>
<text text-anchor="middle" x="1134" y="-284.775" font-family="Times New Roman,serif" font-size="14.00">IntelliFactory.WebSharper.Core.Plugins.PluginsCollection</text>
</g>
<!-- IntelliFactory.WebSharper.Core.Plugins.Configuration&#45;&gt;IntelliFactory.WebSharper.Core.Plugins.PluginsCollection -->
<g id="edge10" class="edge"><title>IntelliFactory.WebSharper.Core.Plugins.Configuration&#45;&gt;IntelliFactory.WebSharper.Core.Plugins.PluginsCollection</title>
<path fill="none" stroke="black" d="M405.239,-309.741C554.678,-305.374 760.33,-299.365 914.909,-294.848"/>
<polygon fill="black" stroke="black" points="915.122,-298.343 925.015,-294.552 914.917,-291.346 915.122,-298.343"/>
</g>
<!-- IntelliFactory.WebSharper.Core.Plugins.PluginsSection -->
<g id="node12" class="node"><title>IntelliFactory.WebSharper.Core.Plugins.PluginsSection</title>
<ellipse fill="none" stroke="black" cx="664" cy="-250.475" rx="211.762" ry="18"/>
<text text-anchor="middle" x="664" y="-246.775" font-family="Times New Roman,serif" font-size="14.00">IntelliFactory.WebSharper.Core.Plugins.PluginsSection</text>
</g>
<!-- IntelliFactory.WebSharper.Core.Plugins.Configuration&#45;&gt;IntelliFactory.WebSharper.Core.Plugins.PluginsSection -->
<g id="edge11" class="edge"><title>IntelliFactory.WebSharper.Core.Plugins.Configuration&#45;&gt;IntelliFactory.WebSharper.Core.Plugins.PluginsSection</title>
<path fill="none" stroke="black" d="M316.592,-300.071C385.196,-290.249 474.141,-277.514 544.725,-267.409"/>
<polygon fill="black" stroke="black" points="545.598,-270.819 555.001,-265.937 544.606,-263.89 545.598,-270.819"/>
</g>
<!-- IntelliFactory.WebSharper.Core.Plugins.IEnvironment -->
<g id="node13" class="node"><title>IntelliFactory.WebSharper.Core.Plugins.IEnvironment</title>
<ellipse fill="none" stroke="black" cx="1134" cy="-434.475" rx="207.163" ry="18"/>
<text text-anchor="middle" x="1134" y="-430.775" font-family="Times New Roman,serif" font-size="14.00">IntelliFactory.WebSharper.Core.Plugins.IEnvironment</text>
</g>
<!-- IntelliFactory.WebSharper.Core.Plugins.IPlugin&#45;&gt;IntelliFactory.WebSharper.Core.Plugins.IEnvironment -->
<g id="edge12" class="edge"><title>IntelliFactory.WebSharper.Core.Plugins.IPlugin&#45;&gt;IntelliFactory.WebSharper.Core.Plugins.IEnvironment</title>
<path fill="none" stroke="black" d="M783.701,-394.171C849.126,-401.72 930.582,-411.119 998.373,-418.941"/>
<polygon fill="black" stroke="black" points="998.365,-422.463 1008.7,-420.133 999.168,-415.509 998.365,-422.463"/>
</g>
<!-- IntelliFactory.WebSharper.Core.Plugins.Result -->
<g id="node14" class="node"><title>IntelliFactory.WebSharper.Core.Plugins.Result</title>
<ellipse fill="none" stroke="black" cx="1134" cy="-380.475" rx="181.168" ry="18"/>
<text text-anchor="middle" x="1134" y="-376.775" font-family="Times New Roman,serif" font-size="14.00">IntelliFactory.WebSharper.Core.Plugins.Result</text>
</g>
<!-- IntelliFactory.WebSharper.Core.Plugins.IPlugin&#45;&gt;IntelliFactory.WebSharper.Core.Plugins.Result -->
<g id="edge13" class="edge"><title>IntelliFactory.WebSharper.Core.Plugins.IPlugin&#45;&gt;IntelliFactory.WebSharper.Core.Plugins.Result</title>
<path fill="none" stroke="black" d="M847.952,-380.475C878.95,-380.475 911.205,-380.475 942.394,-380.475"/>
<polygon fill="black" stroke="black" points="942.48,-383.975 952.48,-380.475 942.48,-376.975 942.48,-383.975"/>
</g>
<!-- IntelliFactory.WebSharper.Core.Plugins.PluginsCollection&#45;&gt;IntelliFactory.WebSharper.Core.Plugins.PluginElement -->
<g id="edge14" class="edge"><title>IntelliFactory.WebSharper.Core.Plugins.PluginsCollection&#45;&gt;IntelliFactory.WebSharper.Core.Plugins.PluginElement</title>
<path fill="none" stroke="black" d="M1323.87,-297.797C1352.19,-299.195 1381.42,-300.637 1409.79,-302.038"/>
<polygon fill="black" stroke="black" points="1409.63,-305.534 1419.79,-302.531 1409.97,-298.542 1409.63,-305.534"/>
</g>
<!-- IntelliFactory.WebSharper.Core.Plugins.PluginsSection&#45;&gt;IntelliFactory.WebSharper.Core.Plugins.PluginsCollection -->
<g id="edge15" class="edge"><title>IntelliFactory.WebSharper.Core.Plugins.PluginsSection&#45;&gt;IntelliFactory.WebSharper.Core.Plugins.PluginsCollection</title>
<path fill="none" stroke="black" d="M817.917,-262.891C865.342,-266.742 917.838,-271.005 966.16,-274.928"/>
<polygon fill="black" stroke="black" points="966.154,-278.439 976.404,-275.76 966.72,-271.462 966.154,-278.439"/>
</g>
<!-- IntelliFactory.WebSharper.Core.Remoting -->
<g id="node15" class="node"><title>IntelliFactory.WebSharper.Core.Remoting</title>
<ellipse fill="none" stroke="black" cx="208" cy="-73.475" rx="165.171" ry="18"/>
<text text-anchor="middle" x="208" y="-69.775" font-family="Times New Roman,serif" font-size="14.00">IntelliFactory.WebSharper.Core.Remoting</text>
</g>
<!-- IntelliFactory.WebSharper.Core.Remoting&#45;&gt;IntelliFactory.WebSharper.Core.Json -->
<g id="edge17" class="edge"><title>IntelliFactory.WebSharper.Core.Remoting&#45;&gt;IntelliFactory.WebSharper.Core.Json</title>
<path fill="none" stroke="black" d="M357.971,-65.928C409.474,-63.3188 467.078,-60.4005 518.238,-57.8087"/>
<polygon fill="black" stroke="black" points="518.571,-61.2965 528.381,-57.2949 518.216,-54.3054 518.571,-61.2965"/>
</g>
<!-- IntelliFactory.WebSharper.Core.Remoting&#45;&gt;IntelliFactory.WebSharper.Core.Metadata -->
<g id="edge18" class="edge"><title>IntelliFactory.WebSharper.Core.Remoting&#45;&gt;IntelliFactory.WebSharper.Core.Metadata</title>
<path fill="none" stroke="black" d="M366.529,-78.5896C533.763,-84.0192 796.941,-92.564 967.243,-98.0933"/>
<polygon fill="black" stroke="black" points="967.2,-101.594 977.308,-98.42 967.427,-94.5973 967.2,-101.594"/>
</g>
<!-- IntelliFactory.WebSharper.Core.Remoting&#45;&gt;IntelliFactory.WebSharper.Core.Reflection -->
<g id="edge19" class="edge"><title>IntelliFactory.WebSharper.Core.Remoting&#45;&gt;IntelliFactory.WebSharper.Core.Reflection</title>
<path fill="none" stroke="black" d="M271.899,-56.8699C320.642,-44.8968 390.082,-29.7791 452,-23.475 984.581,30.7493 1624.24,-23.5807 1889.43,-51.3275"/>
<polygon fill="black" stroke="black" points="1889.16,-54.8185 1899.47,-52.3844 1889.89,-47.857 1889.16,-54.8185"/>
</g>
<!-- IntelliFactory.WebSharper.Core.Invocation -->
<g id="node16" class="node"><title>IntelliFactory.WebSharper.Core.Invocation</title>
<ellipse fill="none" stroke="black" cx="664" cy="-196.475" rx="168.17" ry="18"/>
<text text-anchor="middle" x="664" y="-192.775" font-family="Times New Roman,serif" font-size="14.00">IntelliFactory.WebSharper.Core.Invocation</text>
</g>
<!-- IntelliFactory.WebSharper.Core.Remoting&#45;&gt;IntelliFactory.WebSharper.Core.Invocation -->
<g id="edge20" class="edge"><title>IntelliFactory.WebSharper.Core.Remoting&#45;&gt;IntelliFactory.WebSharper.Core.Invocation</title>
<path fill="none" stroke="black" d="M245.101,-91.0407C291.746,-112.958 376,-149.927 452,-169.475 474.869,-175.357 499.477,-179.985 523.529,-183.619"/>
<polygon fill="black" stroke="black" points="523.032,-187.084 533.433,-185.065 524.044,-180.157 523.032,-187.084"/>
</g>
</g>
</svg>
