<?xml version="1.0" encoding="UTF-8" standalone="no"?>
<!DOCTYPE svg PUBLIC "-//W3C//DTD SVG 1.1//EN"
 "http://www.w3.org/Graphics/SVG/1.1/DTD/svg11.dtd">
<!-- Generated by graphviz version 2.30.1 (20130214.1330)
 -->
<!-- Title: G Pages: 1 -->
<svg width="2320pt" height="530pt"
 viewBox="0.00 0.00 2320.00 530.23" xmlns="http://www.w3.org/2000/svg" xmlns:xlink="http://www.w3.org/1999/xlink">
<g id="graph0" class="graph" transform="scale(1 1) rotate(0) translate(4 526.226)">
<title>G</title>
<polygon fill="white" stroke="white" points="-4,5 -4,-526.226 2317,-526.226 2317,5 -4,5"/>
<!-- IntelliFactory.WebSharper.Formlet.Controls -->
<g id="node1" class="node"><title>IntelliFactory.WebSharper.Formlet.Controls</title>
<ellipse fill="none" stroke="black" cx="550" cy="-314.226" rx="171.67" ry="18"/>
<text text-anchor="middle" x="550" y="-310.526" font-family="Times New Roman,serif" font-size="14.00">IntelliFactory.WebSharper.Formlet.Controls</text>
</g>
<!-- IntelliFactory.WebSharper.Formlet.Body -->
<g id="node2" class="node"><title>IntelliFactory.WebSharper.Formlet.Body</title>
<ellipse fill="none" stroke="black" cx="2152" cy="-253.226" rx="159.772" ry="18"/>
<text text-anchor="middle" x="2152" y="-249.526" font-family="Times New Roman,serif" font-size="14.00">IntelliFactory.WebSharper.Formlet.Body</text>
</g>
<!-- IntelliFactory.WebSharper.Formlet.Controls&#45;&gt;IntelliFactory.WebSharper.Formlet.Body -->
<g id="edge1" class="edge"><title>IntelliFactory.WebSharper.Formlet.Controls&#45;&gt;IntelliFactory.WebSharper.Formlet.Body</title>
<path fill="none" stroke="black" d="M621.28,-330.686C829.41,-376.482 1459.08,-493.718 1956,-363.226 2019.17,-346.637 2083.42,-304.435 2120.12,-277.39"/>
<polygon fill="black" stroke="black" points="2122.49,-279.99 2128.4,-271.199 2118.3,-274.384 2122.49,-279.99"/>
</g>
<!-- IntelliFactory.WebSharper.Formlet.Data -->
<g id="node3" class="node"><title>IntelliFactory.WebSharper.Formlet.Data</title>
<ellipse fill="none" stroke="black" cx="1759" cy="-253.226" rx="156.772" ry="18"/>
<text text-anchor="middle" x="1759" y="-249.526" font-family="Times New Roman,serif" font-size="14.00">IntelliFactory.WebSharper.Formlet.Data</text>
</g>
<!-- IntelliFactory.WebSharper.Formlet.Controls&#45;&gt;IntelliFactory.WebSharper.Formlet.Data -->
<g id="edge2" class="edge"><title>IntelliFactory.WebSharper.Formlet.Controls&#45;&gt;IntelliFactory.WebSharper.Formlet.Data</title>
<path fill="none" stroke="black" d="M721.668,-313.348C916.512,-311.25 1244.67,-304.379 1526,-282.226 1567.04,-278.994 1611.98,-273.771 1651.28,-268.642"/>
<polygon fill="black" stroke="black" points="1651.95,-272.084 1661.41,-267.306 1651.04,-265.144 1651.95,-272.084"/>
</g>
<!-- IntelliFactory.WebSharper.Formlet.Formlet -->
<g id="node4" class="node"><title>IntelliFactory.WebSharper.Formlet.Formlet</title>
<ellipse fill="none" stroke="black" cx="927" cy="-192.226" rx="168.17" ry="18"/>
<text text-anchor="middle" x="927" y="-188.526" font-family="Times New Roman,serif" font-size="14.00">IntelliFactory.WebSharper.Formlet.Formlet</text>
</g>
<!-- IntelliFactory.WebSharper.Formlet.Controls&#45;&gt;IntelliFactory.WebSharper.Formlet.Formlet -->
<g id="edge3" class="edge"><title>IntelliFactory.WebSharper.Formlet.Controls&#45;&gt;IntelliFactory.WebSharper.Formlet.Formlet</title>
<path fill="none" stroke="black" d="M603.933,-297.005C672.192,-274.798 790.742,-236.23 863.399,-212.592"/>
<polygon fill="black" stroke="black" points="864.91,-215.781 873.336,-209.359 862.744,-209.124 864.91,-215.781"/>
</g>
<!-- IntelliFactory.WebSharper.Formlet.Utils -->
<g id="node5" class="node"><title>IntelliFactory.WebSharper.Formlet.Utils</title>
<ellipse fill="none" stroke="black" cx="1759" cy="-336.226" rx="156.772" ry="18"/>
<text text-anchor="middle" x="1759" y="-332.526" font-family="Times New Roman,serif" font-size="14.00">IntelliFactory.WebSharper.Formlet.Utils</text>
</g>
<!-- IntelliFactory.WebSharper.Formlet.Controls&#45;&gt;IntelliFactory.WebSharper.Formlet.Utils -->
<g id="edge4" class="edge"><title>IntelliFactory.WebSharper.Formlet.Controls&#45;&gt;IntelliFactory.WebSharper.Formlet.Utils</title>
<path fill="none" stroke="black" d="M715.115,-319.178C729.618,-319.556 744.072,-319.912 758,-320.226 1051.9,-326.836 1394.44,-331.701 1592.74,-334.238"/>
<polygon fill="black" stroke="black" points="1592.91,-337.74 1602.95,-334.368 1593,-330.741 1592.91,-337.74"/>
</g>
<!-- IntelliFactory.WebSharper.Formlet.Data&#45;&gt;IntelliFactory.WebSharper.Formlet.Body -->
<g id="edge5" class="edge"><title>IntelliFactory.WebSharper.Formlet.Data&#45;&gt;IntelliFactory.WebSharper.Formlet.Body</title>
<path fill="none" stroke="black" d="M1915.66,-253.226C1937.45,-253.226 1959.93,-253.226 1981.96,-253.226"/>
<polygon fill="black" stroke="black" points="1982.04,-256.726 1992.04,-253.226 1982.04,-249.726 1982.04,-256.726"/>
</g>
<!-- IntelliFactory.WebSharper.Formlet.Formlet&#45;&gt;IntelliFactory.WebSharper.Formlet.Body -->
<g id="edge14" class="edge"><title>IntelliFactory.WebSharper.Formlet.Formlet&#45;&gt;IntelliFactory.WebSharper.Formlet.Body</title>
<path fill="none" stroke="black" d="M1095.3,-191.712C1299.06,-192.479 1653.49,-198.306 1956,-226.226 1985.96,-228.991 2018.38,-233.048 2048.03,-237.181"/>
<polygon fill="black" stroke="black" points="2047.57,-240.652 2057.96,-238.584 2048.55,-233.721 2047.57,-240.652"/>
</g>
<!-- IntelliFactory.WebSharper.Formlet.Formlet&#45;&gt;IntelliFactory.WebSharper.Formlet.Data -->
<g id="edge15" class="edge"><title>IntelliFactory.WebSharper.Formlet.Formlet&#45;&gt;IntelliFactory.WebSharper.Formlet.Data</title>
<path fill="none" stroke="black" d="M1066.46,-202.401C1219,-213.612 1463.03,-231.547 1616.7,-242.841"/>
<polygon fill="black" stroke="black" points="1616.46,-246.333 1626.69,-243.575 1616.98,-239.352 1616.46,-246.333"/>
</g>
<!-- IntelliFactory.WebSharper.Formlet.FormletBuilder -->
<g id="node7" class="node"><title>IntelliFactory.WebSharper.Formlet.FormletBuilder</title>
<ellipse fill="none" stroke="black" cx="1329" cy="-146.226" rx="194.166" ry="18"/>
<text text-anchor="middle" x="1329" y="-142.526" font-family="Times New Roman,serif" font-size="14.00">IntelliFactory.WebSharper.Formlet.FormletBuilder</text>
</g>
<!-- IntelliFactory.WebSharper.Formlet.Formlet&#45;&gt;IntelliFactory.WebSharper.Formlet.FormletBuilder -->
<g id="edge16" class="edge"><title>IntelliFactory.WebSharper.Formlet.Formlet&#45;&gt;IntelliFactory.WebSharper.Formlet.FormletBuilder</title>
<path fill="none" stroke="black" d="M1042.36,-179.075C1090.31,-173.56 1146.36,-167.114 1196.05,-161.4"/>
<polygon fill="black" stroke="black" points="1196.69,-164.849 1206.22,-160.23 1195.89,-157.895 1196.69,-164.849"/>
</g>
<!-- IntelliFactory.WebSharper.Formlet.Layout -->
<g id="node8" class="node"><title>IntelliFactory.WebSharper.Formlet.Layout</title>
<ellipse fill="none" stroke="black" cx="1759" cy="-46.2256" rx="165.171" ry="18"/>
<text text-anchor="middle" x="1759" y="-42.5256" font-family="Times New Roman,serif" font-size="14.00">IntelliFactory.WebSharper.Formlet.Layout</text>
</g>
<!-- IntelliFactory.WebSharper.Formlet.Formlet&#45;&gt;IntelliFactory.WebSharper.Formlet.Layout -->
<g id="edge17" class="edge"><title>IntelliFactory.WebSharper.Formlet.Formlet&#45;&gt;IntelliFactory.WebSharper.Formlet.Layout</title>
<path fill="none" stroke="black" d="M948.475,-174.205C983.291,-144.855 1057.52,-87.7418 1132,-65.2256 1302.49,-13.6809 1511.12,-20.3229 1639.26,-31.7906"/>
<polygon fill="black" stroke="black" points="1639.21,-35.3009 1649.49,-32.7318 1639.86,-28.3304 1639.21,-35.3009"/>
</g>
<!-- IntelliFactory.WebSharper.Formlet.LayoutProvider -->
<g id="node9" class="node"><title>IntelliFactory.WebSharper.Formlet.LayoutProvider</title>
<ellipse fill="none" stroke="black" cx="1329" cy="-92.2256" rx="196.065" ry="18"/>
<text text-anchor="middle" x="1329" y="-88.5256" font-family="Times New Roman,serif" font-size="14.00">IntelliFactory.WebSharper.Formlet.LayoutProvider</text>
</g>
<!-- IntelliFactory.WebSharper.Formlet.Formlet&#45;&gt;IntelliFactory.WebSharper.Formlet.LayoutProvider -->
<g id="edge18" class="edge"><title>IntelliFactory.WebSharper.Formlet.Formlet&#45;&gt;IntelliFactory.WebSharper.Formlet.LayoutProvider</title>
<path fill="none" stroke="black" d="M969.033,-174.699C1009.69,-158.016 1074.09,-133.413 1132,-119.226 1150.84,-114.611 1170.9,-110.718 1190.73,-107.453"/>
<polygon fill="black" stroke="black" points="1191.43,-110.886 1200.75,-105.852 1190.33,-103.973 1191.43,-110.886"/>
</g>
<!-- IntelliFactory.WebSharper.Formlet.Enhance -->
<g id="node6" class="node"><title>IntelliFactory.WebSharper.Formlet.Enhance</title>
<ellipse fill="none" stroke="black" cx="171" cy="-239.226" rx="170.87" ry="18"/>
<text text-anchor="middle" x="171" y="-235.526" font-family="Times New Roman,serif" font-size="14.00">IntelliFactory.WebSharper.Formlet.Enhance</text>
</g>
<!-- IntelliFactory.WebSharper.Formlet.Enhance&#45;&gt;IntelliFactory.WebSharper.Formlet.Controls -->
<g id="edge6" class="edge"><title>IntelliFactory.WebSharper.Formlet.Enhance&#45;&gt;IntelliFactory.WebSharper.Formlet.Controls</title>
<path fill="none" stroke="black" d="M247.745,-255.429C286.641,-263.65 334.813,-273.678 378,-282.226 402.478,-287.07 428.966,-292.121 453.618,-296.74"/>
<polygon fill="black" stroke="black" points="453.22,-300.226 463.693,-298.622 454.506,-293.345 453.22,-300.226"/>
</g>
<!-- IntelliFactory.WebSharper.Formlet.Enhance&#45;&gt;IntelliFactory.WebSharper.Formlet.Body -->
<g id="edge7" class="edge"><title>IntelliFactory.WebSharper.Formlet.Enhance&#45;&gt;IntelliFactory.WebSharper.Formlet.Body</title>
<path fill="none" stroke="black" d="M191.532,-257.29C226.158,-288.167 301.858,-350.622 378,-380.226 607.29,-469.371 679.99,-458.226 926,-458.226 926,-458.226 926,-458.226 1330,-458.226 1609.26,-458.226 1695.89,-505.854 1956,-404.226 2027.19,-376.411 2093.91,-313.972 2127.78,-278.716"/>
<polygon fill="black" stroke="black" points="2130.55,-280.877 2134.89,-271.21 2125.47,-276.063 2130.55,-280.877"/>
</g>
<!-- IntelliFactory.WebSharper.Formlet.Enhance&#45;&gt;IntelliFactory.WebSharper.Formlet.Data -->
<g id="edge8" class="edge"><title>IntelliFactory.WebSharper.Formlet.Enhance&#45;&gt;IntelliFactory.WebSharper.Formlet.Data</title>
<path fill="none" stroke="black" d="M341.354,-240.721C647.45,-243.423 1289.12,-249.087 1592.43,-251.764"/>
<polygon fill="black" stroke="black" points="1592.6,-255.266 1602.63,-251.854 1592.66,-248.266 1592.6,-255.266"/>
</g>
<!-- IntelliFactory.WebSharper.Formlet.Enhance&#45;&gt;IntelliFactory.WebSharper.Formlet.Formlet -->
<g id="edge9" class="edge"><title>IntelliFactory.WebSharper.Formlet.Enhance&#45;&gt;IntelliFactory.WebSharper.Formlet.Formlet</title>
<path fill="none" stroke="black" d="M318.721,-230.08C448.887,-221.966 638.422,-210.152 771.025,-201.886"/>
<polygon fill="black" stroke="black" points="771.507,-205.363 781.27,-201.247 771.072,-198.376 771.507,-205.363"/>
</g>
<!-- IntelliFactory.WebSharper.Formlet.Enhance&#45;&gt;IntelliFactory.WebSharper.Formlet.Utils -->
<g id="edge10" class="edge"><title>IntelliFactory.WebSharper.Formlet.Enhance&#45;&gt;IntelliFactory.WebSharper.Formlet.Utils</title>
<path fill="none" stroke="black" d="M198.146,-257.109C235.87,-281.724 308.671,-324.856 378,-341.226 845.557,-451.622 1427.32,-386.009 1657.53,-352.384"/>
<polygon fill="black" stroke="black" points="1658.17,-355.826 1667.56,-350.906 1657.15,-348.901 1658.17,-355.826"/>
</g>
<!-- IntelliFactory.WebSharper.Formlet.Enhance&#45;&gt;IntelliFactory.WebSharper.Formlet.FormletBuilder -->
<g id="edge11" class="edge"><title>IntelliFactory.WebSharper.Formlet.Enhance&#45;&gt;IntelliFactory.WebSharper.Formlet.FormletBuilder</title>
<path fill="none" stroke="black" d="M251.981,-223.311C290.036,-216.137 336.247,-207.998 378,-202.226 546.089,-178.986 588.673,-176.28 758,-165.226 880.639,-157.219 1018.35,-152.51 1127.69,-149.783"/>
<polygon fill="black" stroke="black" points="1127.94,-153.278 1137.85,-149.533 1127.77,-146.28 1127.94,-153.278"/>
</g>
<!-- IntelliFactory.WebSharper.Formlet.Enhance&#45;&gt;IntelliFactory.WebSharper.Formlet.Layout -->
<g id="edge12" class="edge"><title>IntelliFactory.WebSharper.Formlet.Enhance&#45;&gt;IntelliFactory.WebSharper.Formlet.Layout</title>
<path fill="none" stroke="black" d="M193.492,-221.321C229.235,-192.647 304.281,-137.032 378,-111.226 826.857,45.9047 1408.25,-1.37377 1647.62,-30.6832"/>
<polygon fill="black" stroke="black" points="1647.37,-34.1785 1657.72,-31.9344 1648.23,-27.2316 1647.37,-34.1785"/>
</g>
<!-- IntelliFactory.WebSharper.Formlet.Enhance&#45;&gt;IntelliFactory.WebSharper.Formlet.LayoutProvider -->
<g id="edge13" class="edge"><title>IntelliFactory.WebSharper.Formlet.Enhance&#45;&gt;IntelliFactory.WebSharper.Formlet.LayoutProvider</title>
<path fill="none" stroke="black" d="M210.547,-221.573C251.244,-203.805 317.728,-177.224 378,-164.226 630.489,-109.775 928.436,-94.9628 1122.43,-91.6914"/>
<polygon fill="black" stroke="black" points="1122.51,-95.1906 1132.46,-91.5311 1122.4,-88.1915 1122.51,-95.1906"/>
</g>
<!-- IntelliFactory.WebSharper.Formlet.FormletBuilder&#45;&gt;IntelliFactory.WebSharper.Formlet.Body -->
<g id="edge19" class="edge"><title>IntelliFactory.WebSharper.Formlet.FormletBuilder&#45;&gt;IntelliFactory.WebSharper.Formlet.Body</title>
<path fill="none" stroke="black" d="M1513.45,-140.481C1639.28,-140.211 1809.36,-147.105 1956,-178.226 2009.32,-189.541 2067.23,-213.413 2105.97,-231.202"/>
<polygon fill="black" stroke="black" points="2104.85,-234.541 2115.39,-235.583 2107.8,-228.193 2104.85,-234.541"/>
</g>
<!-- IntelliFactory.WebSharper.Formlet.FormletBuilder&#45;&gt;IntelliFactory.WebSharper.Formlet.Data -->
<g id="edge20" class="edge"><title>IntelliFactory.WebSharper.Formlet.FormletBuilder&#45;&gt;IntelliFactory.WebSharper.Formlet.Data</title>
<path fill="none" stroke="black" d="M1397.82,-163.18C1475.35,-182.563 1601.92,-214.206 1682.52,-234.356"/>
<polygon fill="black" stroke="black" points="1682.05,-237.847 1692.6,-236.877 1683.75,-231.056 1682.05,-237.847"/>
</g>
<!-- IntelliFactory.WebSharper.Formlet.LayoutProvider&#45;&gt;IntelliFactory.WebSharper.Formlet.Body -->
<g id="edge22" class="edge"><title>IntelliFactory.WebSharper.Formlet.LayoutProvider&#45;&gt;IntelliFactory.WebSharper.Formlet.Body</title>
<path fill="none" stroke="black" d="M1501,-83.5125C1629.12,-81.9676 1807.21,-90.5137 1956,-137.226 2019.5,-157.161 2084.12,-201.309 2120.72,-229.027"/>
<polygon fill="black" stroke="black" points="2118.9,-232.044 2128.97,-235.355 2123.17,-226.491 2118.9,-232.044"/>
</g>
<!-- IntelliFactory.WebSharper.Formlet.LayoutProvider&#45;&gt;IntelliFactory.WebSharper.Formlet.Utils -->
<g id="edge23" class="edge"><title>IntelliFactory.WebSharper.Formlet.LayoutProvider&#45;&gt;IntelliFactory.WebSharper.Formlet.Utils</title>
<path fill="none" stroke="black" d="M1499.46,-101.197C1509.07,-105.967 1518.04,-111.899 1526,-119.226 1579.96,-168.874 1511.69,-226.889 1562,-280.226 1580.65,-300 1605.76,-312.95 1631.77,-321.39"/>
<polygon fill="black" stroke="black" points="1630.8,-324.752 1641.38,-324.3 1632.82,-318.052 1630.8,-324.752"/>
</g>
<!-- IntelliFactory.WebSharper.Formlet.LayoutProvider&#45;&gt;IntelliFactory.WebSharper.Formlet.Layout -->
<g id="edge24" class="edge"><title>IntelliFactory.WebSharper.Formlet.LayoutProvider&#45;&gt;IntelliFactory.WebSharper.Formlet.Layout</title>
<path fill="none" stroke="black" d="M1457.26,-78.5486C1512,-72.6648 1575.86,-65.801 1630.62,-59.9157"/>
<polygon fill="black" stroke="black" points="1631.17,-63.3772 1640.74,-58.8286 1630.42,-56.4173 1631.17,-63.3772"/>
</g>
<!-- IntelliFactory.WebSharper.Formlet.LayoutManager -->
<g id="node10" class="node"><title>IntelliFactory.WebSharper.Formlet.LayoutManager</title>
<ellipse fill="none" stroke="black" cx="1759" cy="-504.226" rx="196.065" ry="18"/>
<text text-anchor="middle" x="1759" y="-500.526" font-family="Times New Roman,serif" font-size="14.00">IntelliFactory.WebSharper.Formlet.LayoutManager</text>
</g>
<!-- IntelliFactory.WebSharper.Formlet.LayoutManager&#45;&gt;IntelliFactory.WebSharper.Formlet.Body -->
<g id="edge21" class="edge"><title>IntelliFactory.WebSharper.Formlet.LayoutManager&#45;&gt;IntelliFactory.WebSharper.Formlet.Body</title>
<path fill="none" stroke="black" d="M1904.84,-492.171C1922.7,-487.371 1940.21,-480.903 1956,-472.226 2040.7,-425.673 2107.01,-327.729 2135.63,-280.216"/>
<polygon fill="black" stroke="black" points="2138.76,-281.803 2140.85,-271.416 2132.74,-278.234 2138.76,-281.803"/>
</g>
</g>
</svg>
